<?xml version="1.0" encoding="utf-8"?>
<!-- Generator: Adobe Illustrator 26.0.1, SVG Export Plug-In . SVG Version: 6.00 Build 0)  -->
<svg version="1.1" id="Layer_1" xmlns="http://www.w3.org/2000/svg" xmlns:xlink="http://www.w3.org/1999/xlink" x="0px" y="0px"
	 viewBox="0 0 512 256" style="enable-background:new 0 0 512 256;" xml:space="preserve">
<style type="text/css">
	.st0{fill:#FFFFFF;}
</style>
<g>
	<path class="st0" d="M0,260.73C0,172.15,0,83.58,0-5c170.67,0,341.33,0,512,0c0,88.58,0,177.15,0,265.73
		C341.33,260.73,170.67,260.73,0,260.73z M393.27,117.74c-0.86-0.28-1.89-0.34-2.52-0.88c-0.74-0.64-1.08-1.72-1.68-2.55
		c-0.25-0.35-0.71-0.71-1.11-0.75c-0.52-0.05-1.06,0.22-1.64,0.36c-0.43,2.75-0.48,2.91,1.1,4.7c0.77,0.88,0.55,1.43-0.08,2.15
		c-0.84,0.97-1.67,1.95-2.44,2.98c-0.73,0.97-0.71,1.92,0.73,3.06c1.27-1.65,2.59-3.36,3.9-5.07c0.25,0.11,0.49,0.23,0.74,0.34
		c0.84,1.36,1.62,2.76,2.53,4.08c0.36,0.52,0.98,0.86,1.48,1.28c0.33-0.57,0.77-1.11,0.96-1.73c0.13-0.43-0.01-0.99-0.17-1.44
		c-0.43-1.16-0.87-2.33-1.46-3.41c-0.56-1.03-1-1.99-0.38-3.12c0.66-0.56,1.46-1.03,1.94-1.71c0.28-0.4,0.05-1.15,0.05-1.75
		c-0.44,0.01-0.95-0.11-1.32,0.06C391.93,115.24,391.78,116.13,393.27,117.74z M309.42,178.11c-0.51-1.52-1.03-3.04-1.54-4.57
		c-0.11-0.33-0.23-0.67-0.26-1.01c-0.36-3.74-0.78-7.48-1.03-11.23c-0.33-4.91-0.53-9.83-0.8-14.75
		c-0.28-5.26-0.73-10.51-0.83-15.77c-0.1-5.13,0.33-10.26,0.19-15.39c-0.18-6.31-0.67-12.61-1.1-18.91
		c-0.45-6.6-0.92-13.21-1.5-19.8c-0.63-7.27-1.34-14.53-2.13-21.79c-0.5-4.57-1.24-9.11-1.83-13.66
		c-0.74-5.68-2.11-11.27-2.05-17.06c0.03-2.75-0.24-5.5-0.41-8.24c-0.05-0.79-0.22-1.57-0.33-2.3c1.3,1.46,2.51,2.95,3.88,4.27
		c0.61,0.59,1.54,1.05,2.39,0.18c0.85-0.86,0.78-1.72,0.06-2.65c-1.21-1.57-2.65-3.05-3.47-4.81c-0.96-2.07-2.53-3.62-3.73-5.46
		c-0.86-1.31-2.12-1.83-3.49-2.03c-0.63-0.09-1.8,0.35-1.96,0.81c-0.69,2-2.18,3.29-3.6,4.67c-1.11,1.07-1.53,2.27-0.87,3.77
		c0.14,0.32,0.14,0.76,0.06,1.12c-0.32,1.34-0.75,2.65-1.05,3.99c-0.19,0.86-0.34,1.78-0.25,2.64c0.05,0.45,0.59,1.02,1.04,1.19
		c0.33,0.12,0.87-0.31,1.31-0.52c0.33-0.15,0.68-0.3,0.97-0.51c0.36-0.27,0.83-0.54,0.99-0.92c0.81-1.9,1.52-3.85,2.31-5.76
		c0.28-0.68,0.67-1.31,1.09-2.13c0.3,1.75,0.64,3.19,0.77,4.65c0.24,2.72,0.25,5.45,0.55,8.16c0.78,7.06,1.62,14.11,2.51,21.15
		c0.43,3.39,1.09,6.75,1.51,10.13c0.49,3.89,0.87,7.8,1.22,11.71c0.5,5.54,1.02,11.09,1.39,16.65c0.41,6.1,0.67,12.22,0.98,18.33
		c0.33,6.46,0.73,12.91,0.93,19.38c0.28,9.3,0.38,18.61,0.6,27.92c0.12,4.78,0.24,9.57,0.53,14.34c0.28,4.45,0.78,8.9,1.19,13.34
		c0.03,0.3,0,0.67,0.16,0.87c0.58,0.75,1.16,1.56,1.91,2.08c0.22,0.15,1.04-0.57,1.58-0.89c0.2-0.12,0.4-0.23,0.74-0.42
		c0.04,0.43,0.09,0.71,0.09,0.99c0.01,2.26,0.21,2.43,2.51,2.3c2.07-0.12,4.14-0.24,6.21-0.3c2.38-0.07,4.77,0.04,7.15-0.11
		c3.76-0.23,7.52-0.89,11.27-0.84c4.19,0.06,8.36,0.72,12.55,1.1c3.32,0.3,6.64,0.67,9.97,0.81c5.56,0.24,11.12,0.28,16.68,0.49
		c5.1,0.2,10.2,0.55,15.3,0.76c5.55,0.22,11.1,0.34,16.65,0.52c9.1,0.31,18.21,0.63,27.31,0.97c4.5,0.16,8.99,0.38,13.49,0.54
		c1.48,0.05,2.97,0.01,4.46,0.01c2.2,0,4.4,0.07,6.6-0.01c2.62-0.09,5.25-0.47,7.86-0.44c5.81,0.07,11.63,0.38,17.44,0.49
		c3.37,0.06,6.75-0.16,10.12-0.08c1.09,0.03,2.16,0.63,3.66,1.11c-1.9,1.79-3.39,3.16-4.84,4.56c-0.5,0.48-1,1-1.33,1.6
		c-0.63,1.14-0.11,2.81,0.9,3.27c1.39,0.63,2.05,0.28,2.76-1.41c0.13-0.3,0.34-0.61,0.59-0.82c2.12-1.79,4.3-3.51,6.38-5.35
		c0.64-0.57,1.15-1.38,1.47-2.18c0.92-2.3-0.91-3.4-2.2-4.75c-1.99-2.08-4.08-4.1-5.82-6.37c-0.8-1.04-1.29-1.97-2.72-2.38
		c-1.97-0.56-3.54,0.35-3.2,2.38c0.16,0.96,0.74,1.89,1.31,2.72c0.71,1.03,1.59,1.93,2.4,2.88c-0.61,0.25-0.94,0.19-1.28,0.15
		c-1.53-0.18-2.99-0.29-4.49,0.48c-0.87,0.44-2.03,0.42-3.05,0.41c-1.18-0.01-2.36-0.36-3.53-0.35c-8.42,0.06-16.83,0.24-25.25,0.25
		c-4.97,0.01-9.94-0.23-14.91-0.35c-7.06-0.18-14.12-0.34-21.18-0.54c-5.43-0.15-10.85-0.35-16.28-0.54
		c-3.48-0.12-6.96-0.2-10.44-0.37c-7.31-0.37-14.61-0.81-21.92-1.17c-3.27-0.16-6.55-0.22-9.82-0.28c-2.03-0.03-4.08,0.15-6.1,0.01
		c-2.16-0.15-4.29-0.67-6.45-0.86c-4.01-0.34-8.03-0.6-12.06-0.81c-1.06-0.06-2.14,0.27-3.22,0.3c-4.56,0.15-9.13,0.27-13.69,0.38
		c-1.09,0.03-2.19-0.01-3.28-0.01C313.83,178.11,311.52,178.11,309.42,178.11z M31.16,20.23c0.05,0.38,0.1,0.67,0.14,0.96
		c0.78,5.5,1.58,11,2.32,16.51c0.44,3.31,0.73,6.63,1.15,9.94c0.35,2.77,0.8,5.53,1.21,8.3c0.21,1.42,0.34,2.87,0.67,4.26
		c0.76,3.21,1.8,6.37,2.38,9.61c0.58,3.22,0.75,6.51,1.07,9.77c0.49,5,1.01,10,1.41,15.01c0.4,4.95,0.77,9.91,0.98,14.88
		c0.24,5.72,0.36,11.45,0.41,17.18c0.02,3.02-0.42,6.05-0.3,9.06c0.2,5.05,0.69,10.08,1.03,15.12c0.32,4.87,0.55,9.74,0.9,14.61
		c0.32,4.5,0.75,8.99,1.11,13.49c0.02,0.28-0.03,0.6-0.13,0.87c-1.13,2.91-0.34,2.57,1.17,4.16c0.77,0.8,1.6,0.55,2.33-0.21
		c0.27-0.28,0.64-0.68,0.96-0.68c3.64-0.04,7.28-0.13,10.91,0.04c4.36,0.2,8.72,0.94,13.07,0.91c5.71-0.04,11.42-0.5,17.12-0.96
		c5.18-0.42,10.33-1.42,15.51-1.54c8.34-0.19,16.71-0.12,25.03,0.33c8.64,0.47,17.21,0.06,25.8-0.64c8.62-0.7,17.25-1.3,25.88-1.79
		c2.91-0.16,5.86,0.27,8.78,0.23c7.74-0.1,15.48-0.84,23.23-0.07c1.03,0.1,2.04,0.37,2.79,0.5c-1.89,2.41-3.76,4.65-5.45,7.02
		c-0.47,0.66-0.58,1.67-0.6,2.52c-0.01,0.54,0.35,1.48,0.69,1.55c0.55,0.12,1.42-0.15,1.8-0.57c0.72-0.79,1.05-1.95,1.79-2.71
		c2.42-2.49,4.84-5,7.48-7.25c2.66-2.27,3.21-5.49,0.73-7.69c-1.29-1.14-2.02-2.23-2.11-4.01c-0.05-1.01-0.71-2.23-1.49-2.9
		c-0.86-0.73-2.17-0.92-3.27-1.37c-0.85-0.35-1.51-0.18-2.11,0.53c-1.18,1.39-1.24,2.6-0.22,4.54c0.74,1.4,1.44,2.83,2.09,4.27
		c0.72,1.6,0.49,1.93-1.27,1.93c-4.78,0.01-9.56,0.02-14.34,0c-4.08-0.02-8.17-0.17-12.25-0.08c-3.62,0.08-7.24,0.41-10.86,0.61
		c-5.51,0.29-11.03,0.51-16.54,0.84c-7,0.42-14,1.19-21.01,1.3c-8.36,0.13-16.72-0.42-25.08-0.42c-5.82-0.01-11.65,0.29-17.46,0.66
		c-7.34,0.46-14.66,1.38-22.01,1.63c-4.85,0.17-9.74-0.49-14.61-0.74c-3.23-0.17-6.47-0.23-9.7-0.42c-1.88-0.12-2.49-0.66-2.79-2.5
		c-0.33-2.01-0.6-4.03-0.73-6.06c-0.36-5.91-0.64-11.83-0.92-17.74c-0.31-6.6-0.63-13.2-0.87-19.8c-0.12-3.35,0.02-6.71-0.09-10.06
		c-0.26-7.5-0.51-14.99-0.97-22.48c-0.33-5.41-1.01-10.8-1.51-16.2c-0.46-4.92-0.89-9.85-1.35-14.77c-0.05-0.54-0.2-1.08-0.3-1.61
		c-0.84-4.37-1.73-8.73-2.5-13.11c-0.57-3.22-1.02-6.47-1.47-9.72c-0.78-5.6-1.5-11.21-2.28-16.81c-0.32-2.3-0.73-4.59-1.07-6.89
		c-0.07-0.44-0.01-0.9-0.01-1.7c2.36,1.95,4.46,3.59,6.43,5.37c1.57,1.41,3.26,1.88,5.19,1.04c0.43-0.19,0.79-0.86,0.88-1.37
		c0.06-0.34-0.34-0.89-0.69-1.14c-2.3-1.61-4.81-2.96-6.91-4.79c-2.19-1.91-3.99-4.28-5.97-6.43c-1.14-1.24-2.88-1.26-3.92-0.01
		c-1.35,1.63-2.62,3.32-3.96,4.95c-1.28,1.56-2.62,3.08-3.92,4.63c-0.54,0.64-1.21,1.23-1.52,1.98c-0.5,1.19-0.99,2.47-1.06,3.74
		c-0.05,1.05,1.47,1.71,2.38,1.12c0.89-0.58,1.73-1.3,2.43-2.11C26.77,24.57,28,21.6,31.16,20.23z M390.68,247.21
		c0,0.05,0,0.11,0,0.16c0.85,0,1.7,0.06,2.54-0.02c0.49-0.05,1.01-0.26,1.41-0.55c0.67-0.48,1.41-0.99,1.85-1.67
		c0.42-0.65,0.51-1.52,0.75-2.3c-0.59-0.02-1.25-0.21-1.77-0.04c-2.43,0.81-4.83,1.52-7.45,0.92c-2.4-0.55-4.16-1.85-5.13-4.12
		c-0.51-1.2-0.15-1.58,1.06-1.81c2.17-0.41,4.46-0.49,6.24-2.11c0.58-0.53,1.36-0.83,1.96-1.34c2.69-2.34,4.12-3.65,1.71-7.09
		c-1.54-2.2-3.51-2.95-5.89-1.62c-1.85,1.04-3.58,2.32-5.25,3.65c-1.03,0.82-2.02,1.82-2.69,2.94c-1.47,2.45-1.49,5.23-1.18,7.98
		c0.29,2.6,4.68,6.8,7.24,6.98C387.6,247.29,389.14,247.21,390.68,247.21z M358.49,232.33c-0.01-0.02,0.14,0.15,0.15,0.33
		c0.19,3.13,0.45,6.27,0.49,9.4c0.02,1.49,0.86,3.09,1.95,2.92c1.96-0.3,2.96-1.88,2.64-3.81c-0.43-2.63-0.76-5.29-1.02-7.95
		c-0.04-0.44,0.36-1.26,0.7-1.35c1.14-0.29,2.33-0.38,3.51-0.46c2.26-0.16,4.52-0.2,6.77-0.43c0.5-0.05,1.22-0.68,1.32-1.14
		c0.15-0.76,0-1.66-0.31-2.38c-0.1-0.23-1.1-0.11-1.69-0.08c-0.43,0.02-0.85,0.2-1.28,0.22c-2.53,0.1-5.08,0.07-7.59,0.3
		c-1.27,0.12-1.63-0.39-1.66-1.43c-0.05-1.74-0.01-3.48-0.09-5.22c-0.02-0.48-0.21-1.27-0.48-1.35c-0.62-0.17-1.6-0.25-1.96,0.11
		c-0.54,0.54-0.83,1.47-0.93,2.27c-0.19,1.47-0.19,2.98-0.23,4.47c-0.02,0.81-0.29,1.28-1.17,1.42c-1.84,0.29-3.68,0.64-5.51,1.01
		c-0.58,0.12-1.18,0.26-1.71,0.53c-1.2,0.6-1,1.76-0.84,2.76c0.06,0.35,0.74,0.89,1.1,0.86
		C353.19,233.07,355.72,232.7,358.49,232.33z M407.82,246.52c-0.16,0.18-0.31,0.36-0.47,0.54c-0.5-0.32-1.06-0.58-1.47-0.99
		c-1.31-1.29-2.53-2.68-3.87-3.94c-0.41-0.39-1.1-0.48-1.67-0.71c-0.2,0.63-0.68,1.32-0.55,1.86c0.3,1.18,0.72,2.43,1.46,3.36
		c1.03,1.31,2.42,2.33,3.61,3.51c1.12,1.12,2.27,1.4,3.9,0.96c2.93-0.78,4.09-2.63,2.65-5.27c-0.92-1.68-2.25-3.13-3.48-4.63
		c-1.34-1.63-2.89-3.11-4.12-4.82c-0.65-0.91-1.1-2.15-1.14-3.27c-0.05-1.35,1.14-1.95,2.37-2.27c0.16-0.04,0.26-0.3,0.42-0.42
		c1.62-1.17,3.26-2.28,5.42-1.45c1.11,0.43,2.14,0,2.56-1.04c0.33-0.84-0.23-2.47-1.15-2.63c-1.43-0.25-3.1-0.66-4.33-0.15
		c-2.46,1.01-4.89,2.34-6.94,4.01c-2.13,1.75-3.17,4.16-1.79,7.22c1.16,2.6,3.29,4.33,5.16,6.3
		C405.56,243.96,406.68,245.25,407.82,246.52z M421.51,232.25c-1.14,0.08-2.29,0.12-3.42,0.26c-1.22,0.15-2.26,0.55-2.18,2.1
		c0.07,1.24,0.75,1.79,2.4,1.83c1.63,0.04,3.27,0.05,4.9,0.05c1.02,0,1.61,0.51,1.7,1.5c0.32,3.56,2.34,6.28,4.52,8.86
		c0.48,0.57,1.44,0.74,2.18,1.1c0.24-0.91,0.54-1.82,0.67-2.75c0.04-0.3-0.4-0.65-0.57-1c-0.82-1.75-1.68-3.48-2.42-5.26
		c-0.38-0.9-0.02-1.41,1.05-1.36c1.19,0.06,2.39-0.03,3.57,0.03c0.88,0.04,1.57-0.02,1.75-1.1c0.19-1.11-0.17-2.15-1.22-2.18
		c-1.43-0.04-2.71-0.92-4.22-0.47c-0.83,0.25-1.49-0.27-1.19-1.3c0.54-1.84,1.02-3.71,1.75-5.48c0.51-1.26,0.51-2.29-0.33-3.33
		c-0.97-1.19-1.64-1.34-2.46-0.06c-1.03,1.6-1.96,3.38-2.4,5.21C424.77,232.3,424.93,232.34,421.51,232.25z M86.57,231.15
		c0.1,0.36,0.18,0.54,0.2,0.73c0.15,2.52,0.22,5.05,0.49,7.57c0.08,0.74,0.54,1.84,1.09,2.03c0.55,0.19,1.54-0.42,2.1-0.93
		c0.39-0.36,0.58-1.16,0.54-1.75c-0.12-2.08-0.33-4.16-0.57-6.23c-0.16-1.35,0.47-1.99,1.7-2.1c0.67-0.06,1.36,0.11,2.04,0.12
		c0.98,0.02,1.98,0.13,2.92-0.04c1.1-0.2,1.81-1.08,1.59-2.16c-0.21-1.03-0.91-1.82-2.24-1.74c-1.59,0.1-3.18,0.04-4.77,0.05
		c-0.88,0-1.39-0.35-1.37-1.34c0.04-1.79,0.04-3.58-0.01-5.36c-0.01-0.49-0.27-1.39-0.44-1.4c-0.74-0.02-1.55,0.1-2.22,0.41
		c-0.35,0.16-0.63,0.81-0.66,1.27c-0.14,1.92-0.21,3.84-0.22,5.77c0,1.01-0.37,1.65-1.37,1.79c-1.86,0.26-3.73,0.46-5.59,0.7
		c-0.54,0.07-1.26-0.02-1.58,0.29c-0.63,0.59-1.22,1.36-1.45,2.17c-0.08,0.29,0.89,1.22,1.45,1.28c1.3,0.14,2.66,0.02,3.96-0.17
		C83.62,231.87,85.08,231.47,86.57,231.15z M127.96,229.31c0.16-1.43,0.35-2.67-1.06-2.9c-1.81-0.3-3.71-0.49-5.04,1.28
		c-0.92,1.22-1.91,2.39-2.72,3.69c-1.47,2.36-2.7,4.77-1.26,7.68c0.65,1.32,1.53,1.74,2.73,1.13c1.39-0.72,2.63-1.71,3.99-2.5
		c0.39-0.23,1.27-0.37,1.4-0.19c0.79,1.13,1.82,1.81,3.02,2.47c1.6,0.88,3.16,1.11,4.74,0.36c0.54-0.26,1-1.09,1.11-1.73
		c0.06-0.33-0.65-0.93-1.14-1.18c-0.8-0.4-1.83-0.44-2.53-0.95C128.68,234.62,128.26,231.79,127.96,229.31z M151.86,237.38
		c0.41-2.18,0.82-4.77,1.4-7.33c0.27-1.18,1.26-1.44,1.79-0.55c1.28,2.15,2.53,4.34,3.61,6.6c0.71,1.5,1.04,3.17,1.69,4.71
		c0.14,0.33,0.96,0.65,1.35,0.54c1.57-0.44,1.96-1.45,1.54-3.26c-0.95-4.13-2.65-7.83-5.51-11.07c-2.65-3-4.9-3.09-7.34,0.05
		c-3.18,4.08-2.88,8.8-2.55,13.52c0.02,0.28,0.45,0.69,0.75,0.75c0.3,0.06,0.72-0.17,1-0.38c0.39-0.29,0.65-0.94,1.04-1
		C151.98,239.74,152.26,238.99,151.86,237.38z M449.66,157.09c0.48-0.57,0.9-1.05,1.3-1.54c1.04-1.25,0.96-2.2-0.26-3.35
		c-0.58-0.54-1.14-1.12-1.74-1.63c-0.77-0.66-0.87-1.23-0.02-1.94c0.76-0.63,1.42-1.39,2.11-2.11c1.03-1.07,1.12-2.07,0.2-2.84
		c-1.2-1.01-1.76,0.16-2.42,0.82c-0.71,0.71-1.36,1.49-2.24,2.46c-0.64-1.06-1.16-1.78-1.52-2.57c-0.63-1.41-1.87-1.77-3.17-1.78
		c-0.5,0-1.26,0.55-1.44,1.02c-0.21,0.56-0.11,1.76,0.2,1.89c1.4,0.58,1.5,1.97,2.2,2.98c0.59,0.85,0.54,1.58-0.32,2.33
		c-1.06,0.93-1.81,2.24-1.09,3.57c0.46,0.85,1.6,1.33,2.61,2.12c0.35-0.84,0.52-1.25,0.68-1.65c0.64-1.54,1.41-1.69,2.49-0.47
		C447.99,155.24,448.75,156.08,449.66,157.09z M475.4,168.38c-0.28-0.37-0.57-0.84-0.95-1.22c-0.36-0.36-0.98-0.96-1.19-0.86
		c-0.52,0.26-1.14,0.82-1.22,1.33c-0.17,1.11,0.02,2.27-0.03,3.4c-0.03,0.75-0.13,1.54-0.37,2.25c-0.4,1.18-0.98,2.29-1.39,3.46
		c-0.4,1.13,0,2.21,0.98,2.7c1.07,0.53,1.35-0.66,1.79-1.33c0.45-0.7,0.87-1.42,1.45-2.37c1.16,0.84,2.14,1.69,3.24,2.29
		c0.68,0.37,1.67,0.64,2.32,0.41c0.56-0.2,1.11-1.15,1.19-1.82c0.11-0.86,0.08-1.85-1.13-2.33c-0.89-0.35-1.67-1.05-2.39-1.72
		c-0.19-0.18-0.1-0.98,0.14-1.22c0.78-0.76,1.65-1.44,2.54-2.07c0.61-0.43,1.16-0.78,0.76-1.67c-0.36-0.8-0.93-1.24-1.77-0.94
		C478.1,167.16,476.86,167.76,475.4,168.38z M403.77,127.91c0.01,1.86,0.6,2.33,1.91,2.1c0.81-0.14,1.34-0.35,1.55-1.38
		c0.37-1.85,1.49-2.13,2.71-0.72c0.61,0.7,0.86,1.72,1.33,2.56c0.28,0.5,0.42,1.42,1.36,0.82c1.74-1.1,2.13-2.89,1-4.63
		c-0.49-0.75-1-1.51-1.64-2.11c-0.97-0.92-0.75-1.54,0.2-2.29c0.85-0.67,1.73-1.39,2.31-2.28c0.28-0.44-0.11-1.3-0.2-1.98
		c-0.57,0.1-1.27,0.04-1.69,0.35c-0.71,0.52-1.24,1.28-1.86,1.93c-0.78,0.82-1.4,0.82-1.89-0.33c-0.41-0.95-0.86-1.92-1.47-2.75
		c-0.27-0.37-1.03-0.6-1.51-0.53c-0.38,0.06-0.84,0.62-0.99,1.05c-0.59,1.68-0.11,3.3,0.85,4.65c0.79,1.12,0.48,1.77-0.27,2.7
		C404.67,126.03,404.16,127.23,403.77,127.91z M105.39,227.84c-0.8-0.32-1.55-0.92-2.1-0.77c-0.61,0.16-1.47,1.02-1.46,1.55
		c0.08,3.43,0.33,6.86,0.62,10.27c0.07,0.84,0.83,1.26,1.52,0.62c0.74-0.69,1.24-1.64,2.45-1.65c0.11,0,0.34-0.51,0.31-0.76
		c-0.26-2.07,0.78-3.74,1.55-5.52c1.14-2.63,3.01-4.24,5.88-4.67c1.04-0.16,1.4-0.89,1.22-1.86c-0.17-0.92-0.61-1.6-1.73-1.3
		c-0.76,0.21-1.59,0.31-2.27,0.68C109.29,225.56,107.25,226.78,105.39,227.84z M460.82,158.23c0.54-0.21,0.98-0.23,1.14-0.46
		c0.58-0.8,1.2-1.63,1.53-2.55c0.12-0.34-0.43-1.27-0.82-1.38c-1.11-0.31-1.81,0.43-2.4,1.33c-0.55,0.85-1.12,1.13-1.65-0.14
		c-0.41-0.99-1.3-1.77-2.35-1.15c-0.49,0.29-0.93,1.65-0.66,2.1c1.2,2.02,0.61,3.54-0.84,5.06c-0.47,0.5-0.82,1.13-1.2,1.71
		c-0.93,1.43-1.28,2.89-0.32,4.41c1.33,0.19,2.06-0.47,2.62-1.56c0.44-0.88,1.06-1.67,1.59-2.5c0.9-1.42,1.38-1.48,2.44-0.21
		c0.93,1.1,1.72,2.34,2.75,3.33c0.44,0.42,1.44,0.62,2,0.42c0.39-0.14,0.79-1.21,0.65-1.72c-0.29-1.06-0.82-2.11-1.46-3.02
		C462.97,160.63,461.91,159.52,460.82,158.23z M422.21,128.27c-1.22,0.08-1.96,1.1-1.6,2.19c0.58,1.73,1.32,3.43,2.17,5.05
		c0.52,0.99,0.48,1.65-0.26,2.51c-0.94,1.08-1.77,2.27-1.28,3.89c0.36,1.16,1.1,1.45,1.94,0.59c0.48-0.49,0.89-1.08,1.19-1.7
		c0.53-1.08,1.2-1.36,2.03-0.43c0.65,0.72,1.25,1.54,1.68,2.41c0.42,0.86,0.84,0.96,1.61,0.51c1.99-1.18,2.21-3.16,0.49-4.64
		c-0.34-0.29-0.65-0.62-1.01-0.89c-0.92-0.69-1-1.47-0.02-2.04c0.78-0.46,1.78-0.55,2.57-1c0.51-0.29,1.11-0.9,1.16-1.42
		c0.09-0.94-0.8-0.9-1.41-0.74c-1.3,0.33-2.65,0.64-3.84,1.23c-1.02,0.5-1.53,0.42-1.96-0.61c-0.41-0.96-0.79-1.97-1.39-2.8
		C423.65,129.51,422.78,128.84,422.21,128.27z M71.99,160.56c0.06,2.26,0.71,3.07,1.99,3.19c1.44,0.14,1.73-0.96,2.03-1.95
		c0.11-0.37-0.28-0.88-0.17-1.26c0.14-0.52,0.54-0.98,0.82-1.47c0.3,0.26,0.65,0.49,0.9,0.78c0.68,0.79,1.3,1.63,2,2.4
		c0.76,0.83,1.7,1.31,2.72,0.5c1.01-0.81,0.64-1.76,0.02-2.64c-0.88-1.26-1.82-2.48-2.64-3.78c-0.17-0.27-0.08-1,0.16-1.2
		c1.17-0.99,2.45-1.85,3.63-2.82c0.32-0.26,0.7-0.98,0.59-1.12c-0.35-0.45-0.9-0.94-1.42-1c-0.51-0.06-1.12,0.33-1.6,0.65
		c-0.74,0.48-1.44,1.02-2.11,1.6c-0.82,0.71-1.28,0.58-1.83-0.37c-0.65-1.12-1.9-0.95-2.37,0.28c-0.2,0.52-0.21,1.17-0.13,1.74
		c0.2,1.47-0.14,2.67-1.12,3.84C72.71,158.85,72.28,160.03,71.99,160.56z M117.89,128.48c-0.81-0.54-1.34-1.04-1.97-1.28
		c-0.58-0.23-1.48-0.47-1.85-0.19c-0.43,0.32-0.81,1.5-0.58,1.8c1.75,2.17,0.53,3.79-0.77,5.45c-0.09,0.12-0.2,0.27-0.19,0.4
		c0.05,0.54,0.02,1.47,0.23,1.53c0.56,0.16,1.35,0.14,1.84-0.15c0.77-0.46,1.38-1.2,2.18-1.93c0.58,1.03,1.02,1.92,1.56,2.75
		c0.48,0.74,0.93,1.65,1.63,2.06c0.57,0.33,1.61,0.27,2.25-0.02c0.87-0.39,0.57-1.21,0.16-1.93c-0.92-1.6-1.74-3.25-2.72-4.81
		c-0.58-0.92-0.51-1.61,0.21-2.39c0.77-0.84,1.56-1.71,2.09-2.7c0.27-0.51-0.02-1.31-0.06-1.98c-0.72,0.26-1.59,0.35-2.11,0.83
		C119.04,126.6,118.55,127.55,117.89,128.48z M90.12,149.84c0.81,0.98,1.26,1.56,1.76,2.11c0.5,0.55,1.12,1,1.54,1.59
		c0.76,1.08,1.9,0.98,2.6,0.42c0.4-0.32,0.25-1.67-0.04-2.39c-0.37-0.94-1.12-1.73-1.74-2.57c-1.83-2.49-1.85-2.49-0.2-4.97
		c0.45-0.68,1.13-1.46,0.25-2.03c-0.39-0.25-1.34,0.33-2.01,0.57c-0.17,0.06-0.31,0.26-0.41,0.42c-0.44,0.73-0.84,0.66-1.57,0.25
		c-0.54-0.3-1.49-0.31-2.05-0.03c-0.38,0.19-0.71,1.24-0.52,1.66c0.84,1.88-0.12,3.27-0.86,4.87c-1.02,2.19-1.27,4.46,0.94,5.69
		c1.09-0.61,1.75-1.39,1.64-2.83C89.38,151.84,89.8,151.04,90.12,149.84z M104.67,134.21c-0.26-0.28-0.39-0.53-0.59-0.63
		c-0.63-0.3-1.57-0.94-1.88-0.72c-0.59,0.41-0.84,1.32-1.19,2.04c-0.07,0.15,0,0.39,0.04,0.59c0.34,1.91,0.59,3.77-1.02,5.35
		c-0.37,0.36-0.49,1.13-0.44,1.69c0.04,0.46,0.4,1.01,0.78,1.28c0.21,0.15,0.86-0.08,1.15-0.32c0.45-0.37,0.78-0.89,1.15-1.36
		c1.1-1.37,1.44-1.26,2.26,0.24c0.5,0.92,1.26,1.83,2.13,2.36c0.56,0.34,1.59,0.1,2.31-0.15c0.17-0.06,0.16-1.3-0.1-1.83
		c-0.6-1.24-1.4-2.39-2.13-3.57c-0.73-1.18-1.31-2.31-0.06-3.55c0.41-0.41,0.64-1,0.97-1.5c0.46-0.68,0.81-1.53-0.12-1.86
		c-0.62-0.22-1.55,0.12-2.2,0.47C105.29,132.98,105.06,133.65,104.67,134.21z M125.31,124.1c0.53,0.56,0.96,1.35,1.54,1.5
		c0.37,0.09,1-0.75,1.48-1.21c0.13-0.13,0.16-0.36,0.25-0.54c0.9-1.75,1.73-1.77,2.84-0.15c0.66,0.96,1.34,1.95,2.19,2.73
		c0.7,0.65,1.81,0.85,2.26-0.23c0.28-0.67,0.1-1.69-0.22-2.4c-0.43-0.96-1.27-1.72-1.79-2.66c-1.05-1.92-1.01-1.94,0.76-3.35
		c0.31-0.25,0.58-0.55,0.83-0.85c0.7-0.86,0.56-1.74-0.26-2.35c-0.78-0.58-1.44-0.18-1.99,0.59c-1.4,1.96-1.4,1.91-3.55,0.91
		c-0.47-0.22-1.31-0.36-1.6-0.1c-0.37,0.33-0.66,1.22-0.48,1.65c0.8,1.86,0.3,3.19-1.2,4.41
		C125.9,122.43,125.75,123.22,125.31,124.1z M61.31,169.46c0.27,0.32,0.47,0.72,0.79,0.91c0.72,0.41,1.32,0.31,1.94-0.4
		c1.49-1.7,1.49-1.62,3.07,0.04c0.54,0.57,1.34,0.97,2.09,1.23c0.26,0.09,1.11-0.55,1.08-0.79c-0.1-0.95-0.22-2.03-0.74-2.78
		c-1.9-2.74-1.96-2.7,0.24-5.31c0.13-0.15,0.26-0.31,0.34-0.49c0.35-0.84-0.2-1.74-1.09-1.61c-0.59,0.08-1.33,0.38-1.65,0.83
		c-1.33,1.87-1.88,1.21-3.06-0.14c-0.13-0.15-0.21-0.42-0.36-0.46c-0.69-0.19-1.44-0.53-2.08-0.39c-0.33,0.07-0.7,1.06-0.63,1.58
		c0.11,0.85,0.39,1.79,0.91,2.45c0.87,1.11,0.7,2.07,0.11,3.16C61.93,167.92,61.68,168.63,61.31,169.46z M148.23,117.98
		c0.07-0.04,0.67-0.18,0.88-0.55c0.2-0.36,0.19-1.16-0.07-1.38c-0.33-0.28-0.99-0.22-1.51-0.21c-0.28,0-0.56,0.19-0.82,0.33
		c-0.79,0.42-1.22,0.35-1.47-0.67c-0.13-0.54-0.77-1.19-1.3-1.34c-1.65-0.45-2.76,0.79-2.14,2.71c0.64,1.98,0.05,3.25-1.46,4.38
		c-0.6,0.44-1.34,0.81-1.7,1.4c-0.31,0.51-0.19,1.28-0.26,1.94c0.51,0.01,1.08,0.19,1.51,0.01c0.67-0.29,1.24-0.82,1.84-1.26
		c1.21-0.87,1.69-0.7,2.53,0.51c0.54,0.78,1.26,1.5,2.04,2.03c0.99,0.66,2.18,0.71,2.91-0.41c0.74-1.14-0.34-1.78-0.98-2.49
		c-0.66-0.73-1.45-1.4-1.92-2.24C145.52,119.33,146.31,117.94,148.23,117.98z M140.8,230.42c0.03-0.01,0.06-0.01,0.1-0.02
		c-0.14-0.76-0.03-1.73-0.47-2.22c-0.46-0.51-1.45-0.79-2.18-0.73c-0.74,0.06-1.75,2.85-1.55,3.56c0.26,0.94,0.5,1.9,0.61,2.86
		c0.22,1.93,0.32,3.87,0.51,5.8c0.12,1.23,1.6,2.29,2.45,1.81c1.85-1.04,2.07-1.71,1.21-3.66c-0.14-0.31-0.23-0.66-0.26-0.99
		C141.07,234.69,140.94,232.56,140.8,230.42z M133.53,221.99c1.68-0.05,2.92-1.48,2.85-3.28c-0.04-1.15-0.8-1.76-2.1-1.7
		c-1.47,0.07-2.55,1.17-2.51,2.54C131.83,221.27,132.37,222.02,133.53,221.99z"/>
	<path d="M309.42,178.11c2.1,0,4.41,0,6.73,0c1.09,0,2.19,0.04,3.28,0.01c4.56-0.11,9.13-0.23,13.69-0.38
		c1.08-0.04,2.16-0.36,3.22-0.3c4.02,0.21,8.04,0.46,12.06,0.81c2.16,0.19,4.29,0.7,6.45,0.86c2.02,0.14,4.07-0.04,6.1-0.01
		c3.27,0.06,6.55,0.12,9.82,0.28c7.31,0.36,14.61,0.8,21.92,1.17c3.48,0.17,6.96,0.25,10.44,0.37c5.43,0.18,10.85,0.38,16.28,0.54
		c7.06,0.2,14.12,0.36,21.18,0.54c4.97,0.13,9.94,0.36,14.91,0.35c8.42-0.01,16.83-0.19,25.25-0.25c1.18-0.01,2.35,0.34,3.53,0.35
		c1.03,0.01,2.19,0.03,3.05-0.41c1.5-0.76,2.96-0.66,4.49-0.48c0.34,0.04,0.67,0.1,1.28-0.15c-0.81-0.95-1.7-1.86-2.4-2.88
		c-0.57-0.82-1.15-1.76-1.31-2.72c-0.34-2.03,1.23-2.94,3.2-2.38c1.43,0.41,1.92,1.34,2.72,2.38c1.74,2.28,3.83,4.29,5.82,6.37
		c1.29,1.35,3.12,2.45,2.2,4.75c-0.32,0.8-0.83,1.61-1.47,2.18c-2.08,1.84-4.26,3.56-6.38,5.35c-0.25,0.21-0.46,0.52-0.59,0.82
		c-0.71,1.69-1.37,2.04-2.76,1.41c-1.02-0.46-1.53-2.13-0.9-3.27c0.33-0.6,0.83-1.12,1.33-1.6c1.45-1.41,2.94-2.78,4.84-4.56
		c-1.51-0.48-2.58-1.08-3.66-1.11c-3.37-0.09-6.75,0.14-10.12,0.08c-5.81-0.11-11.63-0.41-17.44-0.49
		c-2.62-0.03-5.24,0.34-7.86,0.44c-2.2,0.08-4.4,0.01-6.6,0.01c-1.49,0-2.97,0.05-4.46-0.01c-4.5-0.16-8.99-0.38-13.49-0.54
		c-9.1-0.33-18.21-0.66-27.31-0.97c-5.55-0.19-11.1-0.3-16.65-0.52c-5.1-0.2-10.2-0.56-15.3-0.76c-5.56-0.21-11.12-0.25-16.68-0.49
		c-3.33-0.14-6.65-0.51-9.97-0.81c-4.18-0.38-8.36-1.04-12.55-1.1c-3.75-0.05-7.51,0.61-11.27,0.84c-2.38,0.14-4.76,0.04-7.15,0.11
		c-2.07,0.06-4.14,0.18-6.21,0.3c-2.31,0.13-2.5-0.04-2.51-2.3c0-0.28-0.05-0.56-0.09-0.99c-0.33,0.19-0.54,0.3-0.74,0.42
		c-0.55,0.32-1.37,1.04-1.58,0.89c-0.76-0.53-1.33-1.34-1.91-2.08c-0.16-0.21-0.13-0.58-0.16-0.87c-0.41-4.45-0.92-8.89-1.19-13.34
		c-0.3-4.77-0.42-9.56-0.53-14.34c-0.22-9.3-0.32-18.61-0.6-27.92c-0.2-6.46-0.6-12.92-0.93-19.38c-0.31-6.11-0.57-12.22-0.98-18.33
		c-0.37-5.55-0.89-11.1-1.39-16.65c-0.36-3.91-0.74-7.82-1.22-11.71c-0.42-3.39-1.09-6.75-1.51-10.13
		c-0.89-7.04-1.74-14.09-2.51-21.15c-0.3-2.71-0.31-5.45-0.55-8.16c-0.13-1.46-0.47-2.9-0.77-4.65c-0.43,0.82-0.82,1.45-1.09,2.13
		c-0.79,1.91-1.49,3.86-2.31,5.76c-0.16,0.38-0.62,0.65-0.99,0.92c-0.29,0.21-0.64,0.36-0.97,0.51c-0.44,0.2-0.99,0.64-1.31,0.52
		c-0.45-0.17-0.99-0.74-1.04-1.19c-0.09-0.86,0.06-1.78,0.25-2.64c0.29-1.34,0.72-2.66,1.05-3.99c0.08-0.35,0.09-0.79-0.06-1.12
		c-0.65-1.49-0.24-2.7,0.87-3.77c1.43-1.37,2.91-2.67,3.6-4.67c0.16-0.46,1.33-0.9,1.96-0.81c1.37,0.19,2.63,0.72,3.49,2.03
		c1.2,1.84,2.77,3.39,3.73,5.46c0.82,1.76,2.26,3.24,3.47,4.81c0.72,0.93,0.79,1.79-0.06,2.65c-0.86,0.86-1.79,0.4-2.39-0.18
		c-1.37-1.32-2.57-2.81-3.88-4.27c0.11,0.73,0.28,1.51,0.33,2.3c0.17,2.75,0.44,5.5,0.41,8.24c-0.05,5.78,1.31,11.38,2.05,17.06
		c0.59,4.56,1.33,9.1,1.83,13.66c0.79,7.25,1.49,14.52,2.13,21.79c0.58,6.59,1.05,13.2,1.5,19.8c0.43,6.3,0.92,12.6,1.1,18.91
		c0.14,5.12-0.29,10.26-0.19,15.39c0.1,5.26,0.55,10.51,0.83,15.77c0.27,4.92,0.46,9.84,0.8,14.75c0.26,3.75,0.67,7.49,1.03,11.23
		c0.03,0.34,0.15,0.68,0.26,1.01C308.39,175.07,308.91,176.6,309.42,178.11z"/>
	<path d="M31.16,20.23c-3.16,1.36-4.39,4.34-6.38,6.62c-0.7,0.8-1.54,1.52-2.43,2.11c-0.91,0.59-2.43-0.07-2.38-1.12
		c0.07-1.27,0.55-2.55,1.06-3.74c0.31-0.74,0.99-1.34,1.52-1.98c1.3-1.55,2.64-3.07,3.92-4.63c1.34-1.63,2.62-3.33,3.96-4.95
		c1.03-1.25,2.78-1.23,3.92,0.01c1.98,2.16,3.78,4.52,5.97,6.43c2.1,1.83,4.62,3.18,6.91,4.79c0.35,0.24,0.74,0.8,0.69,1.14
		c-0.09,0.5-0.45,1.18-0.88,1.37c-1.92,0.83-3.61,0.37-5.19-1.04c-1.98-1.78-4.08-3.41-6.43-5.37c0,0.8-0.06,1.26,0.01,1.7
		c0.34,2.3,0.75,4.59,1.07,6.89c0.78,5.6,1.5,11.21,2.28,16.81c0.45,3.24,0.9,6.49,1.47,9.72c0.77,4.38,1.66,8.74,2.5,13.11
		c0.1,0.54,0.25,1.07,0.3,1.61c0.46,4.92,0.89,9.85,1.35,14.77c0.5,5.4,1.18,10.79,1.51,16.2c0.46,7.48,0.71,14.98,0.97,22.48
		c0.12,3.35-0.02,6.71,0.09,10.06c0.23,6.6,0.55,13.2,0.87,19.8c0.28,5.91,0.57,11.83,0.92,17.74c0.12,2.03,0.4,4.05,0.73,6.06
		c0.3,1.84,0.91,2.39,2.79,2.5c3.23,0.2,6.47,0.26,9.7,0.42c4.87,0.25,9.75,0.91,14.61,0.74c7.35-0.26,14.67-1.17,22.01-1.63
		c5.81-0.37,11.64-0.66,17.46-0.66c8.36,0.01,16.73,0.55,25.08,0.42c7.01-0.11,14-0.88,21.01-1.3c5.51-0.33,11.03-0.55,16.54-0.84
		c3.62-0.19,7.24-0.53,10.86-0.61c4.08-0.09,8.17,0.07,12.25,0.08c4.78,0.02,9.56,0.01,14.34,0c1.76,0,1.99-0.34,1.27-1.93
		c-0.65-1.44-1.36-2.87-2.09-4.27c-1.02-1.94-0.96-3.15,0.22-4.54c0.61-0.71,1.26-0.89,2.11-0.53c1.1,0.46,2.42,0.64,3.27,1.37
		c0.78,0.67,1.44,1.89,1.49,2.9c0.08,1.78,0.81,2.87,2.11,4.01c2.48,2.19,1.93,5.42-0.73,7.69c-2.64,2.24-5.06,4.76-7.48,7.25
		c-0.74,0.76-1.07,1.92-1.79,2.71c-0.38,0.42-1.25,0.69-1.8,0.57c-0.34-0.07-0.71-1.01-0.69-1.55c0.02-0.86,0.13-1.87,0.6-2.52
		c1.69-2.36,3.56-4.61,5.45-7.02c-0.75-0.14-1.77-0.4-2.79-0.5c-7.74-0.77-15.48-0.03-23.23,0.07c-2.93,0.04-5.87-0.4-8.78-0.23
		c-8.63,0.49-17.26,1.09-25.88,1.79c-8.59,0.7-17.16,1.11-25.8,0.64c-8.33-0.45-16.69-0.52-25.03-0.33
		c-5.18,0.12-10.33,1.12-15.51,1.54c-5.7,0.46-11.41,0.92-17.12,0.96c-4.36,0.03-8.71-0.71-13.07-0.91
		c-3.63-0.17-7.27-0.08-10.91-0.04c-0.33,0-0.69,0.4-0.96,0.68c-0.73,0.76-1.56,1.01-2.33,0.21c-1.52-1.58-2.3-1.25-1.17-4.16
		c0.1-0.27,0.16-0.58,0.13-0.87c-0.36-4.5-0.79-8.99-1.11-13.49c-0.35-4.87-0.58-9.74-0.9-14.61c-0.33-5.04-0.83-10.08-1.03-15.12
		c-0.12-3.01,0.32-6.04,0.3-9.06c-0.05-5.73-0.16-11.46-0.41-17.18c-0.21-4.96-0.58-9.93-0.98-14.88
		c-0.4-5.01-0.92-10.01-1.41-15.01c-0.32-3.26-0.49-6.55-1.07-9.77c-0.58-3.24-1.62-6.39-2.38-9.61c-0.33-1.4-0.46-2.84-0.67-4.26
		c-0.41-2.77-0.86-5.53-1.21-8.3c-0.42-3.31-0.71-6.63-1.15-9.94C32.89,32.2,32.08,26.7,31.3,21.2
		C31.26,20.91,31.22,20.62,31.16,20.23z"/>
	<path d="M390.68,247.21c-1.54,0-3.08,0.09-4.61-0.02c-2.56-0.17-6.95-4.38-7.24-6.98c-0.31-2.75-0.29-5.53,1.18-7.98
		c0.67-1.12,1.66-2.12,2.69-2.94c1.66-1.33,3.39-2.62,5.25-3.65c2.38-1.33,4.35-0.58,5.89,1.62c2.41,3.44,0.98,4.74-1.71,7.09
		c-0.59,0.52-1.37,0.82-1.96,1.34c-1.79,1.62-4.08,1.7-6.24,2.11c-1.21,0.23-1.57,0.61-1.06,1.81c0.97,2.26,2.73,3.56,5.13,4.12
		c2.61,0.6,5.02-0.11,7.45-0.92c0.53-0.18,1.18,0.02,1.77,0.04c-0.24,0.78-0.32,1.65-0.75,2.3c-0.44,0.67-1.17,1.18-1.85,1.67
		c-0.4,0.29-0.93,0.5-1.41,0.55c-0.84,0.09-1.69,0.02-2.54,0.02C390.68,247.31,390.68,247.26,390.68,247.21z M390.57,230.61
		c-2.51-0.49-6.12,1.41-6.24,3.23C386.53,233.04,389.08,233.02,390.57,230.61z"/>
	<path d="M358.49,232.33c-2.77,0.36-5.31,0.74-7.85,0.99c-0.35,0.03-1.04-0.51-1.1-0.86c-0.16-1-0.36-2.16,0.84-2.76
		c0.53-0.26,1.12-0.41,1.71-0.53c1.83-0.36,3.66-0.71,5.51-1.01c0.87-0.14,1.15-0.61,1.17-1.42c0.04-1.49,0.04-2.99,0.23-4.47
		c0.1-0.8,0.4-1.73,0.93-2.27c0.35-0.36,1.34-0.28,1.96-0.11c0.27,0.07,0.46,0.87,0.48,1.35c0.07,1.74,0.04,3.48,0.09,5.22
		c0.03,1.04,0.39,1.55,1.66,1.43c2.52-0.23,5.06-0.2,7.59-0.3c0.43-0.02,0.85-0.2,1.28-0.22c0.59-0.03,1.59-0.15,1.69,0.08
		c0.31,0.72,0.46,1.62,0.31,2.38c-0.09,0.47-0.82,1.09-1.32,1.14c-2.25,0.24-4.51,0.28-6.77,0.43c-1.18,0.08-2.38,0.17-3.51,0.46
		c-0.34,0.09-0.75,0.91-0.7,1.35c0.26,2.66,0.59,5.31,1.02,7.95c0.32,1.94-0.68,3.51-2.64,3.81c-1.09,0.17-1.94-1.42-1.95-2.92
		c-0.04-3.13-0.3-6.27-0.49-9.4C358.63,232.49,358.48,232.31,358.49,232.33z"/>
	<path d="M407.82,246.52c-1.14-1.27-2.26-2.56-3.44-3.8c-1.88-1.97-4-3.71-5.16-6.3c-1.37-3.06-0.34-5.48,1.79-7.22
		c2.05-1.68,4.48-3,6.94-4.01c1.22-0.5,2.9-0.1,4.33,0.15c0.92,0.16,1.48,1.79,1.15,2.63c-0.41,1.04-1.44,1.47-2.56,1.04
		c-2.16-0.83-3.8,0.28-5.42,1.45c-0.16,0.11-0.25,0.37-0.42,0.42c-1.23,0.32-2.42,0.92-2.37,2.27c0.04,1.11,0.49,2.36,1.14,3.27
		c1.23,1.71,2.78,3.19,4.12,4.82c1.23,1.49,2.56,2.95,3.48,4.63c1.44,2.64,0.28,4.49-2.65,5.27c-1.62,0.43-2.77,0.16-3.9-0.96
		c-1.19-1.19-2.58-2.21-3.61-3.51c-0.74-0.93-1.16-2.18-1.46-3.36c-0.14-0.54,0.34-1.24,0.55-1.86c0.56,0.23,1.25,0.33,1.67,0.71
		c1.34,1.26,2.56,2.65,3.87,3.94c0.41,0.41,0.98,0.66,1.47,0.99C407.51,246.88,407.67,246.7,407.82,246.52z"/>
	<path d="M421.51,232.25c3.41,0.08,3.25,0.05,4.08-3.36c0.44-1.83,1.37-3.61,2.4-5.21c0.82-1.28,1.5-1.12,2.46,0.06
		c0.84,1.04,0.85,2.07,0.33,3.33c-0.72,1.77-1.2,3.64-1.75,5.48c-0.3,1.03,0.35,1.55,1.19,1.3c1.51-0.45,2.8,0.43,4.22,0.47
		c1.05,0.03,1.41,1.07,1.22,2.18c-0.18,1.08-0.87,1.15-1.75,1.1c-1.19-0.06-2.38,0.03-3.57-0.03c-1.07-0.05-1.43,0.46-1.05,1.36
		c0.75,1.78,1.6,3.52,2.42,5.26c0.17,0.35,0.61,0.7,0.57,1c-0.13,0.93-0.43,1.83-0.67,2.75c-0.74-0.36-1.7-0.53-2.18-1.1
		c-2.19-2.59-4.21-5.3-4.52-8.86c-0.09-0.99-0.68-1.5-1.7-1.5c-1.63,0-3.27-0.02-4.9-0.05c-1.64-0.04-2.33-0.58-2.4-1.83
		c-0.08-1.55,0.96-1.95,2.18-2.1C419.23,232.37,420.37,232.33,421.51,232.25z"/>
	<path d="M86.57,231.15c-1.49,0.32-2.95,0.71-4.43,0.93c-1.31,0.19-2.66,0.31-3.96,0.17c-0.55-0.06-1.53-0.99-1.45-1.28
		c0.23-0.8,0.82-1.58,1.45-2.17c0.33-0.31,1.04-0.22,1.58-0.29c1.86-0.23,3.73-0.44,5.59-0.7c1-0.14,1.37-0.78,1.37-1.79
		c0.01-1.92,0.08-3.85,0.22-5.77c0.03-0.45,0.31-1.1,0.66-1.27c0.67-0.31,1.47-0.43,2.22-0.41c0.16,0,0.42,0.9,0.44,1.4
		c0.05,1.79,0.05,3.58,0.01,5.36c-0.02,0.99,0.48,1.34,1.37,1.34c1.59,0,3.19,0.05,4.77-0.05c1.33-0.08,2.03,0.71,2.24,1.74
		c0.22,1.08-0.49,1.97-1.59,2.16c-0.95,0.17-1.95,0.06-2.92,0.04c-0.68-0.01-1.37-0.18-2.04-0.12c-1.23,0.11-1.86,0.75-1.7,2.1
		c0.25,2.07,0.46,4.15,0.57,6.23c0.03,0.59-0.15,1.39-0.54,1.75c-0.56,0.51-1.55,1.12-2.1,0.93c-0.54-0.19-1.01-1.28-1.09-2.03
		c-0.26-2.51-0.33-5.04-0.49-7.57C86.75,231.7,86.67,231.51,86.57,231.15z"/>
	<path d="M127.96,229.31c0.3,2.49,0.71,5.31,3.25,7.16c0.7,0.51,1.73,0.54,2.53,0.95c0.48,0.24,1.19,0.85,1.14,1.18
		c-0.11,0.64-0.57,1.47-1.11,1.73c-1.58,0.75-3.13,0.52-4.74-0.36c-1.2-0.66-2.23-1.34-3.02-2.47c-0.13-0.18-1.01-0.04-1.4,0.19
		c-1.36,0.79-2.6,1.79-3.99,2.5c-1.2,0.62-2.08,0.19-2.73-1.13c-1.43-2.92-0.2-5.32,1.26-7.68c0.8-1.29,1.8-2.46,2.72-3.69
		c1.33-1.77,3.23-1.58,5.04-1.28C128.31,226.64,128.12,227.87,127.96,229.31z M123.67,230.92c-1.39,1.57-2.37,3.21-2.36,5.43
		C123.66,235.29,124.75,233.68,123.67,230.92z"/>
	<path d="M151.86,237.38c0.39,1.6,0.12,2.35-1.22,2.58c-0.39,0.07-0.65,0.71-1.04,1c-0.28,0.21-0.71,0.45-1,0.38
		c-0.3-0.06-0.73-0.47-0.75-0.75c-0.33-4.72-0.63-9.43,2.55-13.52c2.45-3.14,4.7-3.05,7.34-0.05c2.86,3.24,4.55,6.93,5.51,11.07
		c0.42,1.81,0.03,2.82-1.54,3.26c-0.39,0.11-1.21-0.22-1.35-0.54c-0.64-1.54-0.98-3.21-1.69-4.71c-1.08-2.26-2.32-4.45-3.61-6.6
		c-0.53-0.89-1.52-0.63-1.79,0.55C152.69,232.61,152.27,235.21,151.86,237.38z"/>
	<path d="M449.66,157.09c-0.91-1.01-1.67-1.85-2.42-2.7c-1.08-1.22-1.86-1.07-2.49,0.47c-0.17,0.4-0.33,0.8-0.68,1.65
		c-1.01-0.79-2.15-1.27-2.61-2.12c-0.72-1.33,0.03-2.64,1.09-3.57c0.86-0.76,0.91-1.48,0.32-2.33c-0.69-1-0.8-2.39-2.2-2.98
		c-0.3-0.13-0.41-1.33-0.2-1.89c0.18-0.47,0.94-1.02,1.44-1.02c1.31,0.01,2.54,0.37,3.17,1.78c0.36,0.79,0.88,1.51,1.52,2.57
		c0.88-0.97,1.52-1.75,2.24-2.46c0.66-0.66,1.21-1.83,2.42-0.82c0.91,0.77,0.83,1.77-0.2,2.84c-0.69,0.72-1.35,1.47-2.11,2.11
		c-0.85,0.71-0.75,1.28,0.02,1.94c0.6,0.52,1.16,1.09,1.74,1.63c1.22,1.14,1.3,2.1,0.26,3.35
		C450.56,156.04,450.14,156.52,449.66,157.09z"/>
	<path d="M475.4,168.38c1.46-0.63,2.7-1.22,3.99-1.69c0.84-0.31,1.41,0.14,1.77,0.94c0.4,0.89-0.15,1.23-0.76,1.67
		c-0.89,0.63-1.77,1.3-2.54,2.07c-0.24,0.23-0.32,1.04-0.14,1.22c0.71,0.67,1.5,1.37,2.39,1.72c1.2,0.48,1.24,1.47,1.13,2.33
		c-0.08,0.68-0.63,1.62-1.19,1.82c-0.65,0.23-1.64-0.05-2.32-0.41c-1.11-0.6-2.08-1.45-3.24-2.29c-0.58,0.95-1,1.67-1.45,2.37
		c-0.43,0.68-0.72,1.86-1.79,1.33c-0.98-0.48-1.38-1.57-0.98-2.7c0.42-1.17,1-2.29,1.39-3.46c0.24-0.71,0.34-1.49,0.37-2.25
		c0.05-1.14-0.14-2.29,0.03-3.4c0.08-0.52,0.7-1.07,1.22-1.33c0.2-0.1,0.83,0.5,1.19,0.86C474.84,167.54,475.13,168.02,475.4,168.38
		z"/>
	<path d="M403.77,127.91c0.39-0.68,0.9-1.88,1.69-2.86c0.75-0.93,1.06-1.58,0.27-2.7c-0.96-1.36-1.43-2.97-0.85-4.65
		c0.15-0.43,0.61-0.99,0.99-1.05c0.48-0.07,1.23,0.16,1.51,0.53c0.61,0.83,1.06,1.8,1.47,2.75c0.5,1.14,1.11,1.14,1.89,0.33
		c0.62-0.65,1.15-1.41,1.86-1.93c0.42-0.31,1.12-0.24,1.69-0.35c0.09,0.67,0.48,1.54,0.2,1.98c-0.57,0.89-1.46,1.61-2.31,2.28
		c-0.94,0.75-1.16,1.37-0.2,2.29c0.64,0.61,1.15,1.37,1.64,2.11c1.14,1.74,0.74,3.53-1,4.63c-0.94,0.59-1.08-0.33-1.36-0.82
		c-0.47-0.84-0.72-1.85-1.33-2.56c-1.23-1.4-2.35-1.13-2.71,0.72c-0.21,1.04-0.74,1.24-1.55,1.38
		C404.36,130.24,403.78,129.77,403.77,127.91z"/>
	<path d="M105.39,227.84c1.86-1.06,3.9-2.28,6-3.39c0.68-0.36,1.51-0.47,2.27-0.68c1.12-0.31,1.56,0.38,1.73,1.3
		c0.18,0.97-0.19,1.7-1.22,1.86c-2.87,0.43-4.74,2.04-5.88,4.67c-0.77,1.78-1.82,3.45-1.55,5.52c0.03,0.25-0.2,0.76-0.31,0.76
		c-1.21,0.01-1.7,0.96-2.45,1.65c-0.69,0.64-1.45,0.21-1.52-0.62c-0.29-3.42-0.54-6.85-0.62-10.27c-0.01-0.54,0.85-1.39,1.46-1.55
		C103.84,226.92,104.59,227.52,105.39,227.84z"/>
	<path d="M460.82,158.23c1.09,1.3,2.15,2.4,3.02,3.65c0.64,0.91,1.17,1.96,1.46,3.02c0.14,0.51-0.26,1.58-0.65,1.72
		c-0.57,0.2-1.56,0-2-0.42c-1.03-0.99-1.83-2.22-2.75-3.33c-1.06-1.27-1.54-1.21-2.44,0.21c-0.53,0.84-1.15,1.63-1.59,2.5
		c-0.55,1.09-1.29,1.75-2.62,1.56c-0.96-1.52-0.61-2.99,0.32-4.41c0.38-0.58,0.72-1.21,1.2-1.71c1.44-1.51,2.04-3.04,0.84-5.06
		c-0.26-0.44,0.17-1.81,0.66-2.1c1.05-0.61,1.94,0.16,2.35,1.15c0.53,1.27,1.09,0.99,1.65,0.14c0.59-0.9,1.29-1.65,2.4-1.33
		c0.4,0.11,0.95,1.04,0.82,1.38c-0.33,0.92-0.95,1.74-1.53,2.55C461.8,158,461.36,158.02,460.82,158.23z"/>
	<path d="M422.21,128.27c0.58,0.57,1.44,1.24,2.06,2.1c0.6,0.84,0.99,1.84,1.39,2.8c0.44,1.04,0.95,1.12,1.96,0.61
		c1.19-0.59,2.54-0.89,3.84-1.23c0.61-0.16,1.5-0.2,1.41,0.74c-0.05,0.52-0.65,1.13-1.16,1.42c-0.79,0.45-1.79,0.54-2.57,1
		c-0.98,0.57-0.9,1.35,0.02,2.04c0.36,0.27,0.67,0.59,1.01,0.89c1.72,1.49,1.51,3.47-0.49,4.64c-0.77,0.45-1.19,0.36-1.61-0.51
		c-0.42-0.87-1.03-1.68-1.68-2.41c-0.83-0.93-1.5-0.65-2.03,0.43c-0.3,0.62-0.71,1.21-1.19,1.7c-0.84,0.86-1.58,0.58-1.94-0.59
		c-0.49-1.62,0.35-2.81,1.28-3.89c0.74-0.85,0.78-1.51,0.26-2.51c-0.84-1.62-1.59-3.32-2.17-5.05
		C420.25,129.37,420.98,128.35,422.21,128.27z"/>
	<path d="M71.99,160.56c0.29-0.53,0.72-1.71,1.48-2.62c0.97-1.17,1.32-2.38,1.12-3.84c-0.08-0.57-0.07-1.22,0.13-1.74
		c0.47-1.24,1.72-1.4,2.37-0.28c0.55,0.96,1.02,1.09,1.83,0.37c0.66-0.58,1.37-1.13,2.11-1.6c0.49-0.31,1.1-0.7,1.6-0.65
		c0.52,0.06,1.07,0.55,1.42,1c0.11,0.14-0.28,0.86-0.59,1.12c-1.18,0.97-2.47,1.83-3.63,2.82c-0.24,0.2-0.33,0.93-0.16,1.2
		c0.82,1.3,1.76,2.52,2.64,3.78c0.62,0.88,0.99,1.84-0.02,2.64c-1.02,0.81-1.96,0.34-2.72-0.5c-0.7-0.77-1.32-1.61-2-2.4
		c-0.26-0.3-0.6-0.52-0.9-0.78c-0.29,0.49-0.68,0.94-0.82,1.47c-0.1,0.38,0.29,0.89,0.17,1.26c-0.3,0.99-0.59,2.08-2.03,1.95
		C72.7,163.63,72.05,162.82,71.99,160.56z"/>
	<path d="M117.89,128.48c0.66-0.93,1.14-1.89,1.89-2.56c0.52-0.48,1.4-0.56,2.11-0.83c0.04,0.67,0.33,1.47,0.06,1.98
		c-0.53,0.99-1.32,1.86-2.09,2.7c-0.71,0.78-0.78,1.47-0.21,2.39c0.97,1.56,1.8,3.21,2.72,4.81c0.41,0.71,0.71,1.53-0.16,1.93
		c-0.65,0.29-1.68,0.36-2.25,0.02c-0.71-0.41-1.15-1.32-1.63-2.06c-0.53-0.83-0.98-1.72-1.56-2.75c-0.8,0.73-1.41,1.47-2.18,1.93
		c-0.49,0.29-1.28,0.31-1.84,0.15c-0.21-0.06-0.18-0.99-0.23-1.53c-0.01-0.13,0.1-0.28,0.19-0.4c1.3-1.66,2.53-3.29,0.77-5.45
		c-0.24-0.29,0.15-1.48,0.58-1.8c0.38-0.28,1.27-0.03,1.85,0.19C116.55,127.45,117.09,127.94,117.89,128.48z"/>
	<path d="M90.12,149.84c-0.31,1.2-0.74,2-0.67,2.76c0.12,1.44-0.54,2.23-1.64,2.83c-2.21-1.23-1.96-3.5-0.94-5.69
		c0.74-1.59,1.7-2.98,0.86-4.87c-0.19-0.42,0.14-1.48,0.52-1.66c0.56-0.28,1.5-0.27,2.05,0.03c0.73,0.41,1.14,0.47,1.57-0.25
		c0.1-0.17,0.24-0.36,0.41-0.42c0.68-0.24,1.62-0.82,2.01-0.57c0.88,0.57,0.21,1.35-0.25,2.03c-1.65,2.48-1.63,2.48,0.2,4.97
		c0.61,0.84,1.36,1.63,1.74,2.57c0.29,0.73,0.43,2.07,0.04,2.39c-0.69,0.56-1.84,0.66-2.6-0.42c-0.42-0.6-1.05-1.05-1.54-1.59
		C91.38,151.41,90.93,150.82,90.12,149.84z"/>
	<path d="M104.67,134.21c0.39-0.56,0.62-1.23,1.07-1.47c0.66-0.35,1.59-0.68,2.2-0.47c0.93,0.33,0.58,1.19,0.12,1.86
		c-0.33,0.49-0.56,1.09-0.97,1.5c-1.26,1.24-0.68,2.37,0.06,3.55c0.73,1.18,1.53,2.33,2.13,3.57c0.26,0.53,0.27,1.77,0.1,1.83
		c-0.72,0.25-1.75,0.49-2.31,0.15c-0.88-0.53-1.63-1.44-2.13-2.36c-0.82-1.5-1.16-1.61-2.26-0.24c-0.37,0.46-0.7,0.99-1.15,1.36
		c-0.3,0.24-0.94,0.47-1.15,0.32c-0.39-0.27-0.75-0.82-0.78-1.28c-0.04-0.56,0.08-1.33,0.44-1.69c1.61-1.58,1.37-3.44,1.02-5.35
		c-0.03-0.19-0.11-0.43-0.04-0.59c0.35-0.72,0.6-1.63,1.19-2.04c0.31-0.22,1.25,0.42,1.88,0.72
		C104.28,133.68,104.41,133.92,104.67,134.21z"/>
	<path d="M125.31,124.1c0.44-0.88,0.59-1.67,1.06-2.06c1.5-1.22,2-2.55,1.2-4.41c-0.18-0.43,0.1-1.32,0.48-1.65
		c0.29-0.26,1.13-0.12,1.6,0.1c2.15,1,2.16,1.05,3.55-0.91c0.55-0.77,1.21-1.17,1.99-0.59c0.81,0.61,0.96,1.49,0.26,2.35
		c-0.25,0.31-0.52,0.61-0.83,0.85c-1.77,1.41-1.81,1.43-0.76,3.35c0.51,0.93,1.36,1.7,1.79,2.66c0.32,0.71,0.5,1.73,0.22,2.4
		c-0.45,1.08-1.56,0.88-2.26,0.23c-0.85-0.78-1.52-1.77-2.19-2.73c-1.11-1.62-1.94-1.6-2.84,0.15c-0.09,0.18-0.11,0.41-0.25,0.54
		c-0.48,0.45-1.11,1.3-1.48,1.21C126.27,125.46,125.85,124.67,125.31,124.1z"/>
	<path d="M393.23,117.71c-0.63,1.13-0.18,2.09,0.38,3.12c0.59,1.08,1.03,2.26,1.46,3.41c0.17,0.45,0.3,1.01,0.17,1.44
		c-0.19,0.62-0.63,1.16-0.96,1.73c-0.5-0.42-1.12-0.76-1.48-1.28c-0.91-1.32-1.69-2.71-2.53-4.08c-0.25-0.11-0.49-0.23-0.74-0.34
		c-1.32,1.71-2.63,3.42-3.9,5.07c-1.44-1.14-1.46-2.09-0.73-3.06c0.77-1.03,1.6-2.01,2.44-2.98c0.63-0.72,0.85-1.27,0.08-2.15
		c-1.57-1.79-1.53-1.95-1.1-4.7c0.58-0.14,1.13-0.41,1.64-0.36c0.4,0.04,0.86,0.4,1.11,0.75c0.6,0.83,0.94,1.91,1.68,2.55
		c0.62,0.54,1.66,0.61,2.52,0.88L393.23,117.71z"/>
	<path d="M61.31,169.46c0.36-0.84,0.61-1.54,0.96-2.18c0.59-1.09,0.77-2.05-0.11-3.16c-0.52-0.66-0.8-1.6-0.91-2.45
		c-0.07-0.52,0.31-1.51,0.63-1.58c0.64-0.14,1.39,0.2,2.08,0.39c0.15,0.04,0.23,0.31,0.36,0.46c1.18,1.35,1.73,2.01,3.06,0.14
		c0.32-0.45,1.06-0.75,1.65-0.83c0.89-0.12,1.44,0.77,1.09,1.61c-0.07,0.18-0.21,0.34-0.34,0.49c-2.2,2.62-2.14,2.57-0.24,5.31
		c0.52,0.75,0.64,1.83,0.74,2.78c0.03,0.24-0.82,0.88-1.08,0.79c-0.76-0.25-1.55-0.65-2.09-1.23c-1.58-1.66-1.58-1.75-3.07-0.04
		c-0.62,0.71-1.23,0.8-1.94,0.4C61.78,170.19,61.59,169.79,61.31,169.46z"/>
	<path d="M148.23,117.98c-1.92-0.03-2.71,1.35-1.92,2.75c0.47,0.84,1.26,1.51,1.92,2.24c0.64,0.72,1.72,1.35,0.98,2.49
		c-0.73,1.12-1.91,1.07-2.91,0.41c-0.79-0.52-1.5-1.25-2.04-2.03c-0.84-1.21-1.31-1.38-2.53-0.51c-0.61,0.43-1.17,0.96-1.84,1.26
		c-0.42,0.18-1,0.01-1.51-0.01c0.07-0.66-0.06-1.44,0.26-1.94c0.37-0.59,1.11-0.96,1.7-1.4c1.51-1.12,2.1-2.4,1.46-4.38
		c-0.62-1.92,0.48-3.16,2.14-2.71c0.53,0.15,1.17,0.8,1.3,1.34c0.25,1.03,0.67,1.09,1.47,0.67c0.26-0.14,0.55-0.33,0.82-0.33
		c0.52-0.01,1.18-0.07,1.51,0.21c0.25,0.22,0.27,1.02,0.07,1.38C148.9,117.8,148.3,117.94,148.23,117.98z"/>
	<path d="M140.8,230.42c0.14,2.14,0.26,4.27,0.42,6.41c0.02,0.34,0.12,0.68,0.26,0.99c0.86,1.96,0.64,2.63-1.21,3.66
		c-0.85,0.48-2.32-0.58-2.45-1.81c-0.19-1.93-0.3-3.87-0.51-5.8c-0.11-0.97-0.35-1.92-0.61-2.86c-0.2-0.71,0.81-3.49,1.55-3.56
		c0.72-0.06,1.72,0.22,2.18,0.73c0.44,0.49,0.34,1.46,0.47,2.22C140.87,230.41,140.83,230.41,140.8,230.42z"/>
	<path d="M133.53,221.99c-1.16,0.03-1.7-0.72-1.76-2.44c-0.04-1.37,1.04-2.47,2.51-2.54c1.3-0.06,2.06,0.55,2.1,1.7
		C136.45,220.51,135.2,221.94,133.53,221.99z"/>
	<path d="M393.27,117.74c-1.49-1.61-1.35-2.51,0.62-3.44c0.37-0.17,0.88-0.05,1.32-0.06c0,0.6,0.23,1.35-0.05,1.75
		c-0.48,0.69-1.27,1.15-1.94,1.71C393.23,117.71,393.27,117.74,393.27,117.74z"/>
	<path class="st0" d="M390.57,230.61c-1.49,2.41-4.04,2.43-6.24,3.23C384.44,232.02,388.06,230.12,390.57,230.61z"/>
	<path class="st0" d="M123.67,230.92c1.08,2.76-0.01,4.37-2.36,5.43C121.3,234.13,122.28,232.49,123.67,230.92z"/>
</g>
</svg>
