<?xml version="1.0" encoding="utf-8"?>
<!-- Generator: Adobe Illustrator 26.0.1, SVG Export Plug-In . SVG Version: 6.00 Build 0)  -->
<svg version="1.1" id="Layer_1" xmlns="http://www.w3.org/2000/svg" xmlns:xlink="http://www.w3.org/1999/xlink" x="0px" y="0px"
	 viewBox="0 0 512 336" style="enable-background:new 0 0 512 336;" xml:space="preserve">
<style type="text/css">
	.st0{fill:#FFFFFF;}
</style>
<g>
	<g>
		<path class="st0" d="M512,336.42c-170.67,0-341.33,0-512,0C0,224.28,0,112.14,0,0c170.67,0,341.33,0,512,0
			C512,112.14,512,224.28,512,336.42z M132.51,27.2c0.14,0.04,0.27,0.08,0.41,0.13c0.25,2.68,0.51,5.36,0.76,8.04
			c0.16,1.69,0.35,3.38,0.44,5.07c0.18,3.58,0.04,7.21,0.55,10.74c0.37,2.57,0.52,5.11,0.63,7.68c0.12,2.64,0.27,5.27,0.41,7.9
			c0.08,1.38,0.11,2.77,0.28,4.14c0.45,3.54,1.21,7.05,0.92,10.66c-0.04,0.56,0.1,1.13,0.14,1.69c0.11,1.44,0.19,2.88,0.33,4.31
			c0.43,4.19,0.7,8.41,1.38,12.56c0.66,4.04,1.13,8.08,1.36,12.16c0.24,4.21,0.4,8.42,0.73,12.62c0.33,4.2,0.86,8.38,1.22,12.57
			c0.33,3.88,0.52,7.77,0.81,11.66c0.33,4.52,0.65,9.03,1.05,13.55c0.53,6,1.12,12.01,1.71,18c0.29,2.88,0.61,5.75,0.98,8.62
			c0.31,2.37,0.78,4.72,1.05,7.09c0.47,4.25,0.84,8.52,1.26,12.78c0.35,3.57,0.71,7.13,1.06,10.7c0.3,3.07,0.56,6.14,0.92,9.2
			c0.19,1.62,0.68,3.2,0.82,4.81c0.75,8.52,1.42,17.05,2.16,25.57c0.09,1.05-0.03,1.97-0.53,2.9c-0.9,1.7,0.51,4.33,2.41,4.59
			c0.72,0.1,1.33,0.03,1.79-0.7c0.24-0.38,0.74-0.78,1.16-0.83c2.93-0.32,5.86-0.66,8.8-0.78c4.78-0.2,9.56-0.2,14.34-0.38
			c2.7-0.1,5.39-0.54,8.09-0.6c6.35-0.15,12.71-0.16,19.06-0.23c1.13-0.01,2.29-0.09,2.8,0.97c1.51-0.32,2.83-0.8,4.17-0.83
			c2.12-0.04,4.25,0.21,6.37,0.36c0.87,0.06,1.7,0.09,2.5,0.64c0.47,0.32,1.48,0.41,1.91,0.12c1.27-0.86,2.61-0.78,3.99-0.75
			c1.51,0.03,3.02,0.01,4.53,0.04c0.41,0.01,0.82,0.07,1.24,0.11c0,0.76,0.02,1.39,0,2.01c-0.04,0.91,0.51,1.58,1.24,1.66
			c0.72,0.07,1.63-0.2,2.22-0.64c0.84-0.62,1.44-1.56,2.2-2.29c0.37-0.36,0.89-0.81,1.33-0.8c2.42,0.07,4.84,0.27,7.38,0.43
			c-0.09,0.45-0.18,0.68-0.18,0.91c0.01,0.45-0.05,1.22,0.14,1.29c0.59,0.23,1.29,0.26,1.94,0.23c0.23-0.01,0.42-0.48,0.69-0.61
			c1.31-0.64,2.13-2.09,3.9-2.03c3.19,0.11,6.39-0.03,9.59,0.05c3.39,0.09,6.78,0.34,10.17,0.47c1.82,0.07,3.64,0.04,5.46,0.06
			c2.76,0.03,5.53,0.1,8.29,0.08c2.38-0.01,4.76-0.15,7.14-0.15c3.58,0,7.16,0.11,10.75,0.09c2.77-0.01,5.54-0.2,8.3-0.21
			c6.17-0.02,12.33,0.05,18.5,0.04c4.84,0,9.68-0.14,14.51-0.06c5.98,0.09,11.95,0.37,17.92,0.51c2.62,0.06,5.25-0.04,7.87-0.01
			c1.63,0.02,3.27,0.2,4.9,0.25c10.82,0.28,21.64,0.25,32.47-0.05c2.01-0.06,4.02-0.14,6.03-0.13c4.59,0.02,9.19,0.2,13.78,0.11
			c5.59-0.12,11.18-0.55,16.78-0.66c3.95-0.07,7.91,0.2,11.87,0.26c4.28,0.06,8.54-0.08,12.82-0.52c4-0.42,8.04-0.37,12.05,0.23
			c1.37,0.2,2.74,0.36,4.12,0.45c1.94,0.13,3.9,0.09,5.84,0.28c1.53,0.15,2.35-1.01,3.49-1.59c0.15-0.07,0.2-0.46,0.19-0.69
			c-0.05-1.35-1.33-2.6-2.71-2.63c-0.56-0.02-1.13,0.07-1.69,0.12c-3.37,0.3-6.74,0.8-10.12-0.02c-0.54-0.13-1.13-0.06-1.69-0.1
			c-4.91-0.34-9.8,0.01-14.68,0.53c-0.81,0.09-1.64,0.06-2.45,0.04c-0.72-0.02-1.07-0.36-1.17-1.16c-0.3-2.42-0.31-4.91-1.6-7.11
			c-0.15-0.26-0.2-0.6-0.25-0.91c-0.55-3.67-1.27-7.32-1.58-11.01c-0.34-4.06-0.36-8.14-1.19-12.17c-0.71-3.44-1.03-6.96-1.55-10.44
			c-0.14-0.93-0.24-1.9-0.57-2.76c-1.14-2.95-1.61-6.05-2.06-9.15c-0.42-2.92-0.71-5.86-1.08-8.79c-0.53-4.18-1.09-8.35-1.61-12.53
			c-0.45-3.62-0.78-7.25-1.31-10.85c-0.54-3.66-1.45-7.28-1.86-10.95c-0.69-6.19-1.12-12.41-1.63-18.62
			c-0.28-3.51-0.47-7.02-0.73-10.53c-0.15-2.01-0.5-4-0.56-6.01c-0.24-8.75-0.62-17.48-1.99-26.14c-0.21-1.3-0.17-2.63-0.3-3.95
			c-0.32-3.13-0.72-6.25-1-9.38c-0.25-2.88-0.24-5.79-0.6-8.66c-0.32-2.59-0.36-5.13,0.04-7.7c0.11-0.7-0.14-1.46-0.25-2.19
			c-0.08-0.49-0.26-0.96-0.33-1.45c-0.57-4-0.75-8-0.45-12.04c0.21-2.84-1.94-4.19-4.58-3.05c-0.78,0.34-1.65,0.56-2.49,0.61
			c-3.51,0.23-7.02,0.35-10.53,0.56c-5.14,0.31-10.28,0.68-15.43,0.98c-2.51,0.14-5.03,0.27-7.55,0.23
			c-3.27-0.05-6.54-0.18-9.8-0.44c-2.88-0.23-5.73-0.86-8.61-0.99c-4.01-0.18-8.04-0.04-12.06-0.08c-2.39-0.03-4.77-0.2-7.16-0.2
			c-5.28,0-10.55,0.04-15.83,0.1c-2.31,0.03-4.63,0.15-6.94,0.19c-0.41,0.01-0.97-0.05-1.21-0.31c-0.92-0.95-1.66-0.57-2.45,0.12
			c-0.33,0.29-0.71,0.52-1.07,0.76c-1.56,1.02-2.15,2.58-1.27,4.22c0.73,1.35,0.83,2.76,1,4.18c0.24,2.12,0.33,4.26,0.59,6.39
			c0.41,3.43,0.88,6.86,1.99,10.16c0.88,2.62,1.37,5.18-0.15,7.81c-0.86,1.49-0.49,2.37,0.98,3.54c0.37-0.16,0.76-0.33,1.39-0.6
			c0.12,1.13,0.21,2.11,0.33,3.08c0.52,4.18,1.04,8.37,1.58,12.55c0.06,0.5,0.2,0.99,0.32,1.48c1.23,5.26,2.52,10.51,3.68,15.78
			c0.43,1.96,0.56,3.98,0.87,5.96c0.34,2.17,0.89,4.31,1.08,6.49c0.52,6,0.15,12.07,1.34,18.03c0.77,3.88,1.26,7.81,1.89,11.71
			c0.08,0.49,0.23,0.97,0.36,1.46c1.14,4.25,1.98,8.55,2.47,12.92c0.22,1.94,0.34,3.88,0.51,5.82c0.47,5.38,0.99,10.77,1.38,16.15
			c0.22,2.94,0.13,5.91,0.36,8.85c0.19,2.37,0.61,4.73,0.99,7.08c0.45,2.81,0.71,5.62,0.35,8.46c-0.08,0.62-0.04,1.26-0.03,1.88
			c0.05,4.41,0.25,8.82,0.12,13.22c-0.12,3.89-0.65,7.77-0.92,11.66c-0.1,1.46-0.42,2.91,0.42,4.4c0.55,0.98,0.49,2.32-0.25,3.51
			c-0.48,0-0.98,0.01-1.47,0c-5.47-0.12-10.93-0.25-16.4-0.34c-1.19-0.02-2.38,0.16-3.57,0.14c-3.68-0.07-7.35-0.61-11.04,0.02
			c-1.09,0.19-2.25-0.12-3.37-0.08c-4.21,0.15-8.41,0.39-12.62,0.5c-3.25,0.09-6.51,0.03-9.77,0.02
			c-7.92-0.02-15.83-0.05-23.75-0.08c-5.35-0.02-10.69-0.04-16.04-0.08c-0.61,0-1.21-0.11-1.88-0.17c-0.3-2.09-0.81-3.99,0.9-5.62
			c0.85-0.81,0.59-1.69-0.17-2.46c-1.84,0.13-1.97,0.09-2.1-1.71c-0.13-1.82-0.13-3.65-0.15-5.47c-0.02-2.06-1.53-3.42-3.58-3.35
			c-1.56,0.06-3.14,0.02-4.7-0.1c-2.51-0.18-5-0.54-7.51-0.67c-2.82-0.14-5.66-0.2-8.48-0.1c-3.07,0.1-6.14,0.42-9.2,0.63
			c-1.57,0.11-3.14,0.15-4.7,0.28c-4.75,0.38-9.49,1.2-14.28,0.54c-0.56-0.08-1.13-0.03-1.7-0.01c-2.89,0.11-5.78,0.33-8.67,0.34
			c-5.84,0.01-11.66-1.11-17.52-0.41c-0.12,0.01-0.25-0.01-0.38,0c-1.62,0.05-3.25-0.01-4.85,0.18c-2.18,0.26-3.16,1.58-3.01,3.75
			c0.01,0.19,0.02,0.38,0.06,0.56c0.53,2.4,1.1,4.78,1.58,7.19c0.42,2.08,0.73,4.18,1.09,6.24c-0.36,0.16-0.53,0.29-0.7,0.3
			c-3.69,0.24-7.39,0.49-11.08,0.68c-1.45,0.07-1.97-0.48-2.14-1.99c-0.03-0.31-0.06-0.63-0.09-0.94
			c-0.4-5.27-0.69-10.55-1.22-15.81c-0.76-7.57-1.72-15.12-2.54-22.69c-0.55-5.07-0.99-10.14-1.47-15.22
			c-0.22-2.32-0.35-4.64-0.64-6.95c-0.39-3.18-0.94-6.35-1.31-9.53c-0.38-3.31-0.61-6.64-0.95-9.95c-0.59-5.81-1.7-11.58-1.72-17.45
			c0-0.19-0.03-0.38-0.05-0.56c-0.46-5.26-0.91-10.52-1.38-15.79c-0.12-1.31-0.31-2.62-0.41-3.94c-0.41-5.46-0.79-10.92-1.2-16.38
			c-0.1-1.32-0.26-2.63-0.36-3.94c-0.12-1.44-0.19-2.88-0.32-4.32c-0.1-1.13-0.29-2.25-0.37-3.37c-0.26-3.83-0.47-7.67-0.74-11.5
			c-0.07-1-0.27-1.99-0.39-2.99c-0.53-4.24-1.13-8.48-1.57-12.73c-0.4-3.81-0.61-7.64-0.92-11.46c-0.41-5.08-0.84-10.16-1.25-15.24
			c-0.26-3.26-0.5-6.53-0.73-9.79c-0.22-3.07-0.45-6.14-0.62-9.21c-0.18-3.26-0.29-6.53-0.46-9.79c-0.06-1.19-0.22-2.38-0.27-3.58
			c-0.02-0.52,0.1-1.05,0.18-1.79c0.57,0.28,0.94,0.38,1.19,0.6c2.46,2.14,4.9,4.31,7.36,6.45c1.33,1.16,2.7,2.26,4.01,3.43
			c1.14,1.03,2.46,0.89,3.74,0.56c0.72-0.19,1.29-0.73,1.21-1.68c-0.07-0.83-0.52-1.15-1.22-1.47c-1.25-0.56-2.52-1.12-3.62-1.92
			c-1.73-1.25-3.34-2.67-4.95-4.07c-2.71-2.35-5.34-4.78-7.2-7.92c-0.57-0.97-1.31-1.85-2.03-2.72c-1.08-1.31-2.41-1.15-3.09,0.39
			c-0.3,0.68-0.44,1.44-0.67,2.16c-0.37,1.12-0.66,2.28-1.18,3.33c-1.8,3.67-3.69,7.3-5.53,10.95c-0.54,1.06-0.7,2.21-0.07,3.25
			c0.23,0.39,1.24,0.81,1.3,0.73c0.84-1.03,2.38-1.18,2.87-2.74c0.65-2.08,1.69-4.05,2.61-6.04
			C131.75,27.88,132.18,27.56,132.51,27.2z M462.68,317.44c-0.45-0.42-0.8-0.78-1.2-1.09c-1.08-0.84-1.57-0.81-2.3,0.31
			c-0.43,0.66-0.79,1.44-0.89,2.21c-0.18,1.39-0.68,2.4-2.11,2.79c-0.42,0.11-0.82,0.32-1.24,0.47c-2.07,0.72-3.5-0.31-3.71-2.5
			c-0.18-1.93-0.46-3.86-0.89-5.75c-0.34-1.5-1.44-2.29-3.01-2.43c-0.49-0.04-0.96-0.24-1.45-0.34c-1.89-0.41-3.77-1.03-5.69-1.16
			c-1.58-0.11-3.29,0.13-4.79,0.65c-1.05,0.37-1.8,0.43-2.56-0.27c-0.87-0.8-1.87-0.97-2.98-0.82c-1.18,0.16-2.37,0.34-3.56,0.44
			c-1.25,0.1-2.51,0.15-3.66-0.68c0-0.38,0.02-0.76,0-1.13c-0.18-2.48,0.6-4.7,1.92-6.74c0.91-1.39,1.4-1.44,2.76-0.51
			c0.55,0.37,1.08,0.76,1.61,1.13c1.68-2.21,1.68-2.24,0.07-3.94c-0.13-0.14-0.24-0.29-0.38-0.42c-2.28-2.08-4.34-2.07-6.12,0.65
			c-1.86,2.85-3.29,5.95-3.22,9.51c0.01,0.49-0.03,1.06-0.27,1.47c-0.25,0.43-0.73,0.93-1.18,1.01c-1.58,0.3-3.2,0.45-4.81,0.62
			c-0.62,0.06-1.26,0.05-1.89,0.02c-0.98-0.05-1.53,0.54-1.9,1.3c-0.34,0.7,0.25,1.14,0.65,1.62c0.75,0.88,1.62,1.34,2.81,1.15
			c0.99-0.16,1.99-0.22,2.99-0.36c3.31-0.48,3.9,0.03,4.4,3.36c0.22,1.48,0.62,2.96,1.15,4.36c0.57,1.51,2.28,1.7,3.37,0.5
			c0.89-0.98,0.99-1.61,0.38-2.89c-0.66-1.36-1.44-2.64-1.31-4.26c0.11-1.31,0.44-1.86,1.71-2.04c0.99-0.14,2.01-0.16,3.01-0.2
			c1.38-0.05,1.71,0.22,1.57,1.64c-0.13,1.3-0.57,2.58-0.67,3.88c-0.09,1.23-0.1,2.53,0.21,3.71c0.4,1.47,1.56,1.5,2.9,0.87
			c1.92-0.9,2.32-2.43,2.47-4.23c0.04-0.5,0.01-1.02,0.13-1.5c0.59-2.5,1.63-3.8,3.86-4.37c0.85-0.22,1.71-0.36,2.57-0.55
			c0.95-0.21,1.25,0.01,1.35,1c0.09,0.93-0.28,1.67-0.78,2.44c-1.52,2.37-2.31,4.88-0.94,7.64c0.49,0.98,1.36,1.51,2.43,1.27
			c0.79-0.17,1.54-0.54,2.3-0.81c1.06-0.37,2.17-0.61,2.93,0.44c0.74,1.04,1.71,1,2.8,1.12c2.09,0.22,3.81-0.48,5.39-1.72
			c0.39-0.3,0.82-0.55,1.35-0.91c0.56,0.54,1.07,1.09,1.62,1.58c0.41,0.37,0.84,0.84,1.34,0.96c2.15,0.53,4.25,0.4,6.15-0.92
			c0.51-0.36,0.99-0.8,1.54-1.07c1.22-0.6,2.06-1.59,2.33-2.83c0.35-1.64,0.41-3.35,0.54-5.04c0.02-0.34-0.22-0.72-0.39-1.05
			c-0.54-1.05-1.31-1.5-2.25-1.35c-0.95,0.15-1.7,1-1.8,2.12c-0.06,0.63-0.13,1.27-0.06,1.89c0.2,1.6-0.67,2.63-1.79,3.52
			c-1.2,0.96-2.57,0.49-2.83-1.01C462.56,319.32,462.68,318.42,462.68,317.44z M72.12,192.04c-2.35-0.15-3.68,1.01-4.81,2.53
			c-0.22,0.3-0.58,0.52-0.74,0.84c-0.56,1.1-1.31,2.18-1.53,3.35c-0.28,1.46-0.17,3.01-0.09,4.52c0.03,0.57,0.32,1.22,0.69,1.67
			c1.58,1.93,4.58,2.32,6.84,0.97c0.7-0.42,1.35-0.95,2.09-1.27c0.46-0.2,1.16-0.32,1.55-0.11c2.26,1.2,4.46,1,6.68-0.04
			c0.84-0.39,1.69-0.74,2.63-1.15c0.16,0.37,0.3,0.64,0.4,0.92c0.58,1.58,0.99,1.91,2.61,1.79c0.74-0.05,1.49-0.22,2.17-0.5
			c0.8-0.33,1.55-0.83,2.29-1.3c1.34-0.84,1.8-0.81,2.97,0.24c0.32,0.28,0.69,0.51,1.07,0.7c2.24,1.1,4.12,0.29,5.9-1.12
			c1.21-0.96,1.23-0.94,2.39,0.16c0.27,0.25,0.62,0.42,0.93,0.64c1.21,0.83,2.12,0.51,2.48-0.88c0.2-0.79,0.02-1.49-0.48-2.12
			c-0.57-0.72-0.77-1.52-0.56-2.5c1.05-0.07,2.02-0.13,3.15-0.2c0,0.76-0.06,1.38,0.01,1.98c0.22,1.87,1.79,2.68,3.41,1.8
			c2.09-1.13,2.09-1.14,3.95,0.35c1.51,1.21,3.28,1.18,5.02,0.91c0.73-0.11,1.34-0.77,1.33-1.63c-0.01-0.84-0.73-1.09-1.39-1.34
			c-0.12-0.04-0.25-0.03-0.37-0.05c-2.91-0.58-4.33-2.72-3.7-5.57c0.28-1.29,0.02-2-0.95-2.6c-0.76-0.46-1.6-0.29-2.6,0.42
			c-0.92,0.65-1.83,1.38-2.86,1.78c-1.73,0.66-3.54,1.24-5.58,0.67c-0.09-1.2-0.12-2.33-0.29-3.43c-0.11-0.73-0.29-1.53-1.22-1.72
			c-0.65-0.13-1.64,0.65-1.92,1.54c-0.13,0.41-0.13,0.87-0.15,1.3c-0.05,0.74-0.07,1.48-0.11,2.28c-0.44,0.07-0.81,0.13-1.17,0.17
			c-1.39,0.17-2.09,0.77-2.01,1.74c0.1,1.14,1.04,1.89,2.37,1.88c0.42,0,0.84,0,1.29,0c-0.28,1.54-1.33,2.32-3.42,2.65
			c-1.14,0.18-1.87-0.14-2.4-1.6c-0.6-1.64-0.87-3.4-1.37-5.08c-0.24-0.81-0.7-1.56-1.06-2.33c-1.74-0.03-3.48-0.09-5.21-0.06
			c-0.21,0-0.43,0.43-0.63,0.66c-1.64,1.95-2.75,4.2-3.56,6.61c-0.22,0.66-0.38,1.42-1.21,1.52c-1.55,0.2-3.11,0.45-4.67,0.46
			c-2.54,0.02-3.47-1.01-3.41-3.5c-1.74-0.93-1.96-1.26-1.88-3.22c0.05-1.13,0.05-2.3,0.38-3.36c0.7-2.31,0.16-4.62,0.23-6.93
			c0-0.06-0.02-0.12-0.03-0.19c-0.28-1.07-1.09-1.51-2.35-1.29c-1.04,0.18-0.74,0.92-0.76,1.6
			C72.38,187.68,72.24,189.74,72.12,192.04z M10.19,159.69c0.96,2.17,1.65,2.46,3.55,1.69c1.16-0.47,2.32-0.99,3.53-1.3
			c1.05-0.27,1.4,0.04,1.6,1.04c0.31,1.6,0.63,3.21,0.87,4.82c0.12,0.8,0,1.64,0.13,2.44c0.06,0.36,0.41,0.79,0.75,0.94
			c0.22,0.1,0.71-0.15,0.97-0.38c0.84-0.74,1.37-1.65,1.12-2.83c-0.26-1.23-0.6-2.44-0.82-3.68c-0.14-0.79-0.24-1.63-0.13-2.41
			c0.17-1.2,1.18-2.16,2.27-2.2c1.73-0.06,3.47-0.02,5.29-0.02c0.31,1.14,0.06,2.22-0.09,3.34c-0.12,0.84-0.31,1.44-1.44,1.33
			c0.46,1.26,0.85,2.3,1.22,3.36c0.45,1.3,1.48,1.67,2.63,0.94c1.13-0.73,1.73-1.64,1.64-3.12c-0.17-2.78,1.97-5.36,4.73-5.92
			c0.36-0.07,0.79-0.11,1.11,0.02c0.8,0.3,1.56,0.71,2.44,1.12c-0.16,0.48-0.23,0.92-0.45,1.27c-0.7,1.12-0.81,2.36-0.76,3.61
			c0.08,1.82,0.77,2.53,2.56,2.56c0.72,0.01,1.47-0.22,2.16-0.47c0.82-0.29,1.59-0.7,2.39-1.07c1.5,1.55,3.25,2,5.19,1.56
			c0.95-0.21,1.68-0.18,2.33,0.67c0.27,0.36,0.81,0.7,1.25,0.73c1.44,0.08,2.92,0.2,4.31-0.06c0.97-0.19,1.92-0.88,2.71-1.55
			c0.69-0.58,0.95-1.47,0.26-2.54c-0.55,0.22-1.1,0.49-1.68,0.64c-0.96,0.24-1.93,0.54-2.9,0.57c-1.23,0.03-2.44-1.62-1.86-2.67
			c0.6-1.08,1-2.45,2.44-2.94c0.45-0.15,0.95-0.63,1.12-1.08c0.27-0.72,0.18-1.48-0.6-1.99c-1-0.65-1.7-0.72-2.58,0.07
			c-1.78,1.6-3.53,3.27-3.87,5.83c-0.14,1.02-0.81,1.16-1.63,1.15c-0.87-0.01-1.51-0.39-1.55-1.3c-0.03-0.67,0.15-1.35,0.25-2.02
			c0.12-0.86,0.36-1.73,0.35-2.59c-0.01-1.07-0.91-1.96-1.97-1.86c-1.49,0.14-3.13,0.18-4.39,0.85c-1.43,0.76-2.21,0.52-3.26-0.49
			c-1.4-1.35-3.16-1.41-4.94-0.79c-0.47,0.16-0.99,0.32-1.36,0.63c-1.92,1.59-3.91,0.41-5.86,0.16c-1.41-0.18-2.78-0.7-4.19-0.8
			c-1.21-0.08-2.45,0.22-3.49,0.32c0-1.06,0-2.01,0-2.96c0.01-1.51-0.09-3.03,0.04-4.53c0.22-2.6,1.52-3.84,4.14-3.89
			c1.56-0.03,3.13,0.21,4.7,0.34c0.79,0.06,1.59,0.14,2.42,0.21c-0.22-1.43-0.2-1.52-1.13-1.87c-1.52-0.58-3.06-1.21-4.64-1.55
			c-2.48-0.53-4.7-0.03-6.43,2.1c-2.05,2.53-2.86,5.39-2.74,8.59c0.05,1.5,0.01,3,0.01,4.7C15.47,157.48,12.88,158.56,10.19,159.69z
			 M411.55,40.92c0.09,0.02,0.18,0.05,0.28,0.07c0,0.44-0.08,0.9,0.01,1.32c0.58,2.66,2.29,4.85,5.21,3.99
			c2.31-0.68,4.42-1.85,5.94-3.81c1.02-1.32,1.66-2.71,1.22-4.54c-0.33-1.37-1.06-2.35-1.96-3.32c-0.73-0.77-1.47-1.54-2.08-2.41
			c-1-1.42-0.85-1.86,0.49-2.88c1.58-1.2,2.94-2.64,3.31-4.65c0.35-1.88,0.21-3.74-1.07-5.38c-1.31-1.66-3.26-2.04-5.1-2.54
			c-0.78-0.21-1.79,0-2.56,0.34c-0.69,0.3-1.63,0.97-1.7,1.58c-0.21,1.72-1.37,2.94-1.9,4.46c-0.57,1.65-1.2,3.32-1.44,5.03
			c-0.2,1.43,0.19,2.77,1.91,3.43c1.67,0.63,1.74,1.42,1.15,3.18C412.57,36.8,412.1,38.87,411.55,40.92z M361.35,36.23
			c0.45,4.41,0.91,8.46,1.26,12.52c0.11,1.24,0.52,2.23,1.32,3.13c0.84-0.67,1.58-1.25,2.31-1.84c1.09-0.88,1.14-1.26,0.41-2.5
			c-0.16-0.27-0.34-0.55-0.38-0.84c-0.39-3.63-0.75-7.24-0.28-10.91c0.41-3.24,0.53-6.51,0.65-9.78c0.07-1.83-0.83-2.62-2.69-2.55
			c-0.85,0.03-1.53-0.17-2.3-0.55c-2.71-1.36-5.02-0.85-7.16,1.32c-2,2.04-3.65,4.28-4.8,6.93c-0.99,2.28-1.39,4.52-0.9,6.97
			c0.49,2.44,2.6,3.8,4.9,2.75c1.92-0.88,3.66-2.14,5.48-3.24C359.83,37.23,360.49,36.78,361.35,36.23z M209.75,306.59
			c-0.17-2.05-0.73-2.9-2.31-3.1c-2.46-0.3-4.9-0.27-6.91,1.6c-0.45,0.42-1.15,0.58-1.92,0.94c-0.15-1.48-1.08-2.01-2.03-2.26
			c-1.32-0.34-2.7-0.51-4.07-0.6c-1.48-0.1-2.98-0.02-4.82-0.02c0.9-2.27,0.85-4.46,2.08-6.29c1.54-2.28,3.47-3.63,6.38-2.73
			c0.24,0.07,0.53,0.15,0.74,0.07c0.43-0.15,1.06-0.33,1.16-0.64c0.15-0.45,0.02-1.1-0.22-1.53c-0.18-0.32-0.71-0.49-1.11-0.65
			c-3.26-1.26-7.23-0.04-8.82,3.06c-1.16,2.26-2.23,4.64-2.39,7.28c-0.09,1.53-0.24,1.67-1.82,1.73c-0.82,0.03-1.64,0-2.45,0
			c-0.38,0-0.76-0.03-1.13,0.02c-0.95,0.15-1.69,0.87-1.64,1.54c0.05,0.69,0.99,1.7,1.73,1.77c0.5,0.05,1-0.05,1.51-0.03
			c1.1,0.03,2.21,0.08,3.21,0.12c0.19,1.5,0.14,2.81,0.57,3.94c0.4,1.06,0.93,2.02,0.87,3.21c-0.02,0.41,0.31,1.03,0.65,1.21
			c0.57,0.3,1.18,0.1,1.67-0.46c0.93-1.09,0.89-2.28,0.54-3.55c-0.3-1.08-0.59-2.16-0.86-3.26c-0.21-0.88,0.19-1.35,1.07-1.35
			c2.73-0.01,5.54-0.54,8.17,1.18c0.15,2.32-0.33,4.81,0.75,7.14c1.72,0.66,2.07-1.63,3.44-1.5c0.43-1.51,0.81-2.9,1.23-4.28
			c0.72-2.42,1.67-3.03,4.15-2.74C208.01,306.5,208.87,306.52,209.75,306.59z M384.74,32.01c0.49,3.53,0.85,6.97,1.48,10.35
			c0.27,1.44,1.01,2.81,1.68,4.14c0.2,0.41,0.87,0.8,1.34,0.81c1.97,0.07,3.69-2.61,3-4.57c-0.58-0.1-1.18-0.21-1.87-0.33
			c-0.24-2.05-0.57-4.03-0.68-6.03c-0.22-3.76-0.32-7.52-0.47-11.28c-0.08-1.9-1.08-2.76-3.04-2.62c-1.38,0.09-2.75,0.15-4.13,0.25
			c-1.64,0.12-3.04,0.71-4.07,2.06c-0.88,1.14-1.78,2.27-2.7,3.39c-1.23,1.5-1.12,3.1-0.43,4.78c0.37,0.89,0.96,1.31,1.91,1.03
			c1.74-0.52,3.48-1.01,5.18-1.64C382.83,32.01,383.67,31.66,384.74,32.01z M483.22,301.76c-0.08,0.2-0.22,0.42-0.26,0.66
			c-0.38,2.74-0.68,5.49-0.31,8.26c0.09,0.64,0.24,1.34-0.41,1.71c-2.01,1.13-2.89,3.27-4.44,4.82c-1.49,1.5-2.35,3.33-2.13,5.61
			c0.17,1.8,1.24,2.84,2.62,3.61c0.48,0.27,1.38,0.12,1.92-0.16c1.18-0.62,2.11-1.55,2.52-2.91c0.16-0.52,0.48-1.01,0.82-1.44
			c0.48-0.6,1.04-1.14,1.6-1.73c0.26,0,0.66-0.12,0.87,0.02c0.56,0.38,1.11,0.81,1.53,1.33c0.75,0.91,1.75,0.96,2.75,0.84
			c0.89-0.11,0.79-1,1.02-1.62c0.14-0.38,0.39-0.71,0.7-1.25c-1.94,0.14-2.51-1.11-3.03-2.45c-0.74-1.91-0.94-3.92-0.85-5.93
			c0.12-2.59-0.76-4.95-1.45-7.35C486.17,301.96,485.24,301.55,483.22,301.76z M342.92,307.16c-0.04-1.11-0.07-1.9-0.11-2.69
			c-0.06-1.11-0.72-1.76-1.89-1.86c-1.01-0.08-1.58,0.33-1.75,1.48c-0.16,1.05-0.29,2.12-0.26,3.18c0.08,3,0.21,6,0.4,9
			c0.05,0.79,0.33,1.6,0.68,2.31c0.16,0.33,0.82,0.67,1.16,0.6c1.33-0.29,2.42-1.1,2.92-2.37c0.68-1.75,1.18-3.56,1.75-5.35
			c0.33-1.03,0.8-1.92,1.72-2.61c1.05-0.79,2.3-0.91,2.82,0.17c0.58,1.21,1.45,2.3,1.45,3.81c0,1.75,0.27,3.51,0.5,5.25
			c0.14,1.05,1.3,2.07,2.15,2.06c0.85-0.01,1.41-0.9,1.46-2.29c0.01-0.25,0.01-0.5-0.01-0.75c-0.13-1.63-0.26-3.25-0.4-4.88
			c-0.22-2.66-1.12-4.97-3.16-6.83c-1.87-1.71-3.45-2.05-5.73-0.76C345.47,305.27,344.41,306.13,342.92,307.16z M234.85,306.3
			c-1.74-0.27-2.53,0.69-3.2,1.77c-0.49,0.8-0.84,1.69-1.32,2.5c-0.62,1.04-1.52,1.62-2.8,1.57c-1.37-0.06-1.71-0.41-1.49-1.73
			c0.08-0.49,0.31-0.98,0.29-1.47c-0.01-0.38-0.2-0.9-0.49-1.1c-1.1-0.74-2.44-0.2-2.81,1.09c-0.14,0.48-0.11,1-0.24,1.48
			c-0.28,1.04-1.58,1.98-2.56,1.82c-1.22-0.2-1.08-1.23-1.12-2.07c-0.06-1.13-0.01-2.27-0.08-3.4c-0.1-1.71-1.1-2.55-2.74-2.18
			c-1.97,0.44-3.64,1.38-4.53,3.34c-0.29,0.63-0.5,1.31-0.89,1.87c-0.64,0.91-0.63,1.9-0.53,2.9c0.15,1.51,1.02,2.18,2.53,2.03
			c0.75-0.07,1.56-0.02,2.22-0.3c0.79-0.33,1.37-0.25,1.8,0.41c0.54,0.83,1.29,0.93,2.14,0.79c1.41-0.24,2.81-0.51,4.49-0.82
			c1.42,1.18,3.34,1.23,5.27,0.55c1.24-0.44,2.49-0.96,3.56-1.7c0.78-0.54,1.57-1.42,1.82-2.3
			C234.6,309.8,234.63,308.14,234.85,306.3z M187.8,215.05c0.03,0.43,0.12,0.93,0.08,1.41c-0.04,0.48-0.06,1.13-0.36,1.39
			c-1.56,1.31-1.99,3.07-2.45,4.94c-0.46,1.88-0.72,3.75-0.27,5.59c0.91,3.65,2.28,4.95,5.26,4.77c2.53-0.15,4.66-1.55,5.6-3.88
			c0.88-2.17,1.17-4.58,1.68-6.9c0.26-1.19-0.13-2.25-0.87-3.16c-1.73-2.14-3.82-3.79-6.49-4.61
			C189.2,214.35,188.5,214.4,187.8,215.05z M244.16,306.23c0.03,0,0.06-0.01,0.1-0.01c-0.18-1.56-0.44-3.11-0.51-4.67
			c-0.08-1.68-0.82-2.99-1.87-4.21c-0.48-0.55-1.09-1.09-1.76-0.75c-0.46,0.23-0.89,0.93-0.94,1.47c-0.18,1.74-0.16,3.5-0.25,5.25
			c-0.03,0.6,0.01,1.27-0.24,1.79c-0.85,1.74-1.83,3.41-2.73,5.13c-0.98,1.88-0.83,3.77,0.14,5.59c0.87,1.65,2.19,1.97,3.74,0.98
			c0.32-0.2,0.69-0.38,0.9-0.67c1.87-2.62,4.2-2.99,6.98-1.54c0.29,0.15,1.04,0.01,1.13-0.2c0.26-0.59,0.48-1.32,0.35-1.92
			c-0.08-0.37-0.77-0.79-1.25-0.88c-2.81-0.54-3.82-1.72-3.8-4.61C244.16,306.74,244.16,306.49,244.16,306.23z M439.42,44.35
			c-0.03,0.56-0.1,1.13-0.09,1.69c0.04,1.29,0.65,2.16,1.54,2.28c1.16,0.17,1.99-0.35,2.43-1.61c0.19-0.53,0.27-1.1,0.34-1.65
			c0.45-3.22,0.87-6.44,1.34-9.65c0.1-0.67,0.35-1.33,0.59-1.97c0.55-1.47,1.22-2.9,1.69-4.39c1.13-3.57,2.19-7.17,3.26-10.77
			c0.16-0.54,0.43-1.16,0.29-1.64c-0.17-0.6-0.61-1.25-1.12-1.57c-0.3-0.19-1.02,0.16-1.46,0.41c-0.36,0.2-0.7,0.58-0.87,0.96
			c-0.53,1.2-1.04,2.42-1.45,3.67c-1.23,3.81-2.2,7.72-3.64,11.45C440.69,35.72,440.23,40.06,439.42,44.35z M220.69,214.93
			c0.8,1.51,0.77,2.76,0.52,4c-0.52,2.57-1.69,4.85-3.37,6.86c-0.79,0.94-1.51,1.86-1.35,3.18c0.13,1.07,0.97,1.82,2.01,1.85
			c2.75,0.07,5.5,0.12,8.25,0.26c0.78,0.04,1.32,0,1.65-0.83c0.32-0.83,0.22-1.56-0.51-1.99c-0.79-0.47-1.67-0.83-2.56-1.08
			c-1-0.28-2.05-0.4-3.28-0.62c0.74-1.64,1.47-3.08,2.06-4.58c1.15-2.9,1.25-5.88,0.31-8.84c-0.57-1.82-2.77-2.7-4.78-1.37
			c-1.64,1.09-3.2,2.3-4.76,3.51c-0.64,0.49-0.58,1.92,0.02,2.6c0.52,0.59,1.41,0.55,2.17-0.14c0.56-0.51,1.03-1.1,1.62-1.57
			C219.27,215.73,219.92,215.4,220.69,214.93z M66.58,158.63c-1.36,0.13-2.48,0.19-3.58,0.37c-1.17,0.18-1.56,0.64-1.51,1.55
			c0.05,0.92,0.71,1.54,1.71,1.6c0.75,0.05,1.51,0.07,2.26,0.11c1.53,0.09,1.79,0.34,2.16,1.79c0.22,0.84,0.46,1.71,0.86,2.47
			c0.51,0.96,1.21,1.12,2.04,0.67c0.95-0.51,1.23-1.37,0.81-2.34c-0.23-0.55-0.4-1.12-0.68-1.93c1.55-0.01,2.81-0.32,4.21,0.16
			c-0.55,1.45,0.16,2.35,1.19,3.06c0.27,0.19,0.74,0.33,1.02,0.23c1.19-0.41,1.93-2.52,1.33-3.66c-0.87-1.67-2.16-2.76-4.11-2.92
			c-0.63-0.05-1.25-0.12-1.88-0.17c-1.98-0.14-2.36-0.51-2.49-2.54c-0.04-0.63-0.01-1.26-0.06-1.89c-0.1-1.3-0.55-1.77-1.7-1.81
			c-1.13-0.04-1.51,0.34-1.59,1.81C66.53,156.32,66.58,157.44,66.58,158.63z M23.72,191.82c0.2,0.46,0.26,0.78,0.45,1
			c0.52,0.62,0.31,1.11-0.14,1.66c-1.77,2.15-2.15,4.68-1.46,7.25c0.68,2.56,2.36,3.76,4.34,3.9c3.07,0.22,7.4-3.85,7.01-7.05
			c-0.31-2.51-1.5-4.63-3.54-5.99C28.48,191.33,26.27,190.72,23.72,191.82z M370.16,312.88c1.05,2.44,1.05,2.45,3.42,2.08
			c0.78-0.12,1.54-0.27,2.55-0.46c0,1.97,0,3.69,0,5.31c2.11,1.03,2.11,1.03,3.11,0.99c1.4-1.98,0.28-4.27,0.63-6.46
			c0.9-0.2,1.68-0.41,2.48-0.54c1.1-0.18,1.95-0.81,2.11-1.77c0.17-1-0.31-1.67-1.29-2.11c-0.24,0.18-0.46,0.4-0.73,0.53
			c-1.66,0.82-2.98,0.09-3.14-1.69c-0.07-0.75-0.12-1.52-0.36-2.22c-0.42-1.24-1.07-1.38-2.17-0.72c-1.28,0.76-1.36,2.03-1.48,3.28
			c-0.2,2.11-0.19,2.19-2.32,2.26C371.68,311.4,370.9,312.05,370.16,312.88z M39.71,194.86c-0.95-2.3-0.59-4.61-0.1-6.87
			c0.22-1.01,0.99-1.84,2.1-2.27c0.65-0.25,1.18-0.82,2.06-1.47c-0.84-0.54-1.4-1.22-1.91-1.18c-2.15,0.17-3.99,0.96-5,3.12
			c-0.67,1.44-0.74,2.91-0.6,4.43c0.17,1.87,0.47,3.73-0.06,5.6c-0.09,0.32,0.04,0.74,0.15,1.09c0.26,0.84,0.49,1.71,0.88,2.49
			c0.55,1.12,1.19,2.21,1.88,3.26c0.31,0.47,0.87,0.84,1.45,0.39c0.48-0.37,0.65-0.83,0.28-1.48c-0.37-0.65-0.58-1.39-0.81-2.1
			c-0.35-1.1-0.17-1.52,0.91-1.83c1.08-0.32,2.19-0.54,3.29-0.77c1.65-0.34,3.37-0.55,4.27-2.66c-0.16-0.09-0.39-0.32-0.61-0.31
			C45.23,194.47,42.57,194.66,39.71,194.86z M369.96,316.08c-0.2-0.65-0.26-1.38-0.63-1.92c-1.08-1.6-2.24-3.15-3.45-4.65
			c-0.76-0.95-2.71-1.32-3.79-0.87c-0.95,0.39-1.41,1.16-1.43,2.17c-0.01,0.6-0.15,1.2-0.29,1.79c-0.18,0.73-0.5,1.43-0.63,2.16
			c-0.26,1.46-0.24,2.98,0.79,4.1c1.99,2.16,5.25,2.6,7.69,0.3C369.07,318.36,370.07,317.54,369.96,316.08z M249.31,211.44
			c-0.62-0.51-1.24-0.51-1.83,0.04c-0.41,0.38-0.85,0.77-1.16,1.23c-1.86,2.76-3.83,5.48-4.88,8.68c-1.07,3.27-1.98,6.59-2.89,9.91
			c-0.45,1.63,0.17,2.55,1.99,3.24c0.98-1.14,1.97-2.25,1.73-3.96c-0.05-0.36,0.09-0.74,0.17-1.11c0.94-4.25,2.45-8.29,4.53-12.12
			C247.98,215.5,249.23,213.72,249.31,211.44z M93.69,158.07c0,1.13-0.01,2.25,0,3.38c0.01,0.56,0,1.14,0.09,1.69
			c0.32,1.81,1.34,2.21,2.7,1c0.83-0.74,1.54-1.64,2.21-2.54c1.29-1.71,1.92-1.88,3.75-0.75c0.42,0.26,0.83,0.58,1.15,0.95
			c0.92,1.1,1.81,2.22,2.69,3.36c0.49,0.63,0.98,1.21,1.87,0.78c0.84-0.4,0.61-1,0.4-1.74c-0.94-3.23-3.13-5.38-5.87-7.07
			c-2.15-1.33-4-1-5.64,0.9c-0.19,0.23-0.41,0.44-0.74,0.8C95.71,157.78,95,157.13,93.69,158.07z M82.34,161.38
			c0.32,1.12,0.44,2.35,1,3.33c1.13,1.94,3.03,1.94,5,1.58c1.54-0.28,2.48-1.26,2.98-2.6c0.2-0.54,0.12-1.51-0.25-1.89
			c-0.98-1.03-2.1-1.97-3.32-2.7c-0.76-0.45-1.3-0.76-1.41-1.74c-0.1-0.91-0.83-1.13-1.49-0.5
			C83.61,158.06,82.14,159.2,82.34,161.38z M437.46,27.39c-0.09-0.03-0.18-0.06-0.27-0.09c0-0.19,0.01-0.38,0-0.56
			c-0.05-1.33-0.92-2.68-1.94-2.91c-1.29-0.29-2.15,0.28-2.76,1.41c-0.35,0.65-0.79,1.19-1.71,1.29c-0.51,0.05-1.15,0.57-1.42,1.05
			c-0.93,1.67-0.64,4.01,0.5,5.1c0.87,0.83,3.4,0.96,4.83,0.19c0.48-0.26,1.05-0.63,1.24-1.09
			C436.53,30.35,436.96,28.85,437.46,27.39z M454.2,40.36c1.72,0.09,2.83-0.81,3.8-2.02c0.78-0.98,0.22-1.88-0.2-2.79
			c-0.13-0.27-0.05-0.62-0.13-0.92c-0.16-0.6-0.27-1.24-0.57-1.77c-0.72-1.32-1.78-1.44-2.82-0.39c-1.59,1.6-1.81,3.74-2.13,5.79
			C451.9,39.83,452.54,40.28,454.2,40.36z M245.52,227.76c0,1.94,0.53,2.61,2.08,2.66c0.79,0.02,1.66-0.11,2.37-0.45
			c2.38-1.12,2.7-3.28,0.86-5.19c-0.44-0.45-0.9-0.9-1.21-1.43c-0.38-0.63-0.87-1.01-1.52-0.66c-0.5,0.27-1.18,0.81-1.18,1.24
			c-0.01,1.04-0.6,1.76-0.99,2.59C245.69,227.03,245.58,227.58,245.52,227.76z M234.45,213.83c-0.1,0.02-0.63-0.02-0.93,0.22
			c-1.27,1.01-2.53,2.05-3.66,3.21c-0.62,0.63-0.3,2.69,0.3,3.37c0.47,0.53,1.62,0.63,2.64,0.18c0.34-0.15,0.68-0.33,0.98-0.56
			c1.32-1.02,2.13-2.47,2.78-3.93C237.19,214.93,236.37,213.95,234.45,213.83z M398.93,41.1c-0.31,0.34-0.64,0.7-0.97,1.07
			c-1.15,1.29-1.24,2.52-0.27,3.86c0.92,1.26,1.9,1.34,2.92,0.17c0.27-0.31,0.46-0.74,0.55-1.15
			C401.58,43.14,400.65,41.94,398.93,41.1z M205.93,225.8c-1.03,0.83-1.83,1.39-2.53,2.05c-0.65,0.62-0.72,1.67-0.3,2.43
			c0.35,0.63,0.88,0.86,1.58,0.7c0.84-0.2,2.01-1.19,1.94-1.84C206.52,228.13,206.22,227.15,205.93,225.8z M71.81,152.05
			c-0.27,1.89-0.01,3.31,1.77,4.01c1.28-1.16,1.47-1.96,0.89-3.24C73.88,151.49,72.85,152.04,71.81,152.05z"/>
		<path d="M132.51,27.2c-0.32,0.36-0.76,0.68-0.96,1.1c-0.93,1.99-1.96,3.96-2.61,6.04c-0.49,1.56-2.03,1.71-2.87,2.74
			c-0.06,0.08-1.07-0.34-1.3-0.73c-0.63-1.04-0.47-2.19,0.07-3.25c1.84-3.65,3.73-7.28,5.53-10.95c0.52-1.05,0.81-2.21,1.18-3.33
			c0.24-0.71,0.37-1.47,0.67-2.16c0.68-1.54,2.01-1.7,3.09-0.39c0.72,0.87,1.45,1.75,2.03,2.72c1.86,3.14,4.49,5.57,7.2,7.92
			c1.62,1.4,3.23,2.82,4.95,4.07c1.09,0.79,2.37,1.36,3.62,1.92c0.7,0.31,1.15,0.64,1.22,1.47c0.08,0.96-0.49,1.49-1.21,1.68
			c-1.28,0.33-2.59,0.47-3.74-0.56c-1.31-1.18-2.68-2.27-4.01-3.43c-2.46-2.15-4.9-4.31-7.36-6.45c-0.26-0.22-0.62-0.32-1.19-0.6
			c-0.08,0.74-0.2,1.27-0.18,1.79c0.06,1.19,0.21,2.38,0.27,3.58c0.17,3.26,0.28,6.53,0.46,9.79c0.17,3.07,0.4,6.14,0.62,9.21
			c0.23,3.27,0.47,6.53,0.73,9.79c0.41,5.08,0.84,10.16,1.25,15.24c0.31,3.82,0.53,7.65,0.92,11.46c0.44,4.25,1.04,8.49,1.57,12.73
			c0.13,1,0.32,1.99,0.39,2.99c0.26,3.83,0.48,7.67,0.74,11.5c0.08,1.13,0.27,2.25,0.37,3.37c0.13,1.44,0.2,2.88,0.32,4.32
			c0.11,1.31,0.27,2.63,0.36,3.94c0.41,5.46,0.79,10.92,1.2,16.38c0.1,1.31,0.29,2.62,0.41,3.94c0.47,5.26,0.92,10.52,1.38,15.79
			c0.02,0.19,0.05,0.38,0.05,0.56c0.02,5.87,1.13,11.63,1.72,17.45c0.34,3.32,0.57,6.64,0.95,9.95c0.37,3.18,0.92,6.35,1.31,9.53
			c0.28,2.31,0.42,4.64,0.64,6.95c0.48,5.07,0.93,10.15,1.47,15.22c0.82,7.57,1.78,15.12,2.54,22.69
			c0.53,5.26,0.82,10.54,1.22,15.81c0.02,0.31,0.05,0.63,0.09,0.94c0.17,1.51,0.69,2.06,2.14,1.99c3.7-0.19,7.39-0.44,11.08-0.68
			c0.17-0.01,0.34-0.14,0.7-0.3c-0.36-2.06-0.67-4.16-1.09-6.24c-0.48-2.4-1.05-4.79-1.58-7.19c-0.04-0.18-0.05-0.37-0.06-0.56
			c-0.15-2.17,0.83-3.49,3.01-3.75c1.6-0.19,3.24-0.13,4.85-0.18c0.13,0,0.25,0.02,0.38,0c5.86-0.7,11.68,0.42,17.52,0.41
			c2.89,0,5.78-0.22,8.67-0.34c0.57-0.02,1.14-0.07,1.7,0.01c4.79,0.66,9.53-0.15,14.28-0.54c1.57-0.13,3.14-0.17,4.7-0.28
			c3.07-0.21,6.13-0.53,9.2-0.63c2.82-0.09,5.66-0.04,8.48,0.1c2.51,0.12,5,0.49,7.51,0.67c1.56,0.11,3.14,0.16,4.7,0.1
			c2.05-0.08,3.56,1.29,3.58,3.35c0.02,1.82,0.02,3.65,0.15,5.47c0.13,1.8,0.26,1.84,2.1,1.71c0.76,0.77,1.02,1.65,0.17,2.46
			c-1.71,1.63-1.2,3.53-0.9,5.62c0.67,0.06,1.28,0.17,1.88,0.17c5.35,0.04,10.69,0.06,16.04,0.08c7.92,0.03,15.83,0.06,23.75,0.08
			c3.26,0.01,6.52,0.06,9.77-0.02c4.21-0.11,8.42-0.36,12.62-0.5c1.12-0.04,2.29,0.27,3.37,0.08c3.69-0.63,7.36-0.09,11.04-0.02
			c1.19,0.02,2.38-0.16,3.57-0.14c5.47,0.09,10.93,0.22,16.4,0.34c0.5,0.01,0.99,0,1.47,0c0.74-1.2,0.81-2.53,0.25-3.51
			c-0.84-1.49-0.52-2.94-0.42-4.4c0.27-3.89,0.8-7.77,0.92-11.66c0.14-4.4-0.07-8.81-0.12-13.22c-0.01-0.63-0.05-1.26,0.03-1.88
			c0.36-2.84,0.11-5.65-0.35-8.46c-0.38-2.35-0.8-4.71-0.99-7.08c-0.23-2.94-0.14-5.91-0.36-8.85c-0.4-5.39-0.91-10.77-1.38-16.15
			c-0.17-1.94-0.3-3.89-0.51-5.82c-0.49-4.37-1.33-8.68-2.47-12.92c-0.13-0.48-0.28-0.96-0.36-1.46c-0.63-3.9-1.12-7.83-1.89-11.71
			c-1.18-5.97-0.82-12.03-1.34-18.03c-0.19-2.18-0.74-4.32-1.08-6.49c-0.31-1.98-0.44-4-0.87-5.96c-1.16-5.27-2.45-10.52-3.68-15.78
			c-0.11-0.49-0.25-0.98-0.32-1.48c-0.54-4.18-1.06-8.36-1.58-12.55c-0.12-0.97-0.21-1.95-0.33-3.08c-0.63,0.27-1.01,0.44-1.39,0.6
			c-1.46-1.17-1.84-2.05-0.98-3.54c1.52-2.63,1.03-5.19,0.15-7.81c-1.11-3.3-1.57-6.73-1.99-10.16c-0.25-2.12-0.34-4.26-0.59-6.39
			c-0.16-1.42-0.27-2.83-1-4.18c-0.89-1.64-0.3-3.2,1.27-4.22c0.37-0.24,0.75-0.47,1.07-0.76c0.79-0.69,1.53-1.07,2.45-0.12
			c0.25,0.26,0.8,0.31,1.21,0.31c2.31-0.04,4.63-0.16,6.94-0.19c5.28-0.06,10.55-0.11,15.83-0.1c2.39,0,4.77,0.18,7.16,0.2
			c4.02,0.04,8.05-0.1,12.06,0.08c2.88,0.13,5.73,0.76,8.61,0.99c3.26,0.26,6.53,0.39,9.8,0.44c2.51,0.04,5.04-0.09,7.55-0.23
			c5.14-0.29,10.29-0.67,15.43-0.98c3.51-0.21,7.02-0.33,10.53-0.56c0.84-0.06,1.72-0.28,2.49-0.61c2.64-1.14,4.8,0.22,4.58,3.05
			c-0.3,4.04-0.12,8.04,0.45,12.04c0.07,0.49,0.25,0.96,0.33,1.45c0.12,0.73,0.36,1.49,0.25,2.19c-0.4,2.57-0.36,5.11-0.04,7.7
			c0.36,2.87,0.34,5.78,0.6,8.66c0.27,3.13,0.68,6.25,1,9.38c0.13,1.31,0.1,2.65,0.3,3.95c1.37,8.66,1.75,17.39,1.99,26.14
			c0.06,2.01,0.4,4,0.56,6.01c0.27,3.51,0.45,7.02,0.73,10.53c0.5,6.21,0.94,12.43,1.63,18.62c0.41,3.67,1.32,7.29,1.86,10.95
			c0.53,3.6,0.86,7.24,1.31,10.85c0.52,4.18,1.08,8.35,1.61,12.53c0.37,2.93,0.66,5.87,1.08,8.79c0.45,3.1,0.91,6.2,2.06,9.15
			c0.34,0.87,0.43,1.83,0.57,2.76c0.52,3.48,0.85,7,1.55,10.44c0.83,4.03,0.85,8.11,1.19,12.17c0.31,3.69,1.03,7.34,1.58,11.01
			c0.05,0.31,0.09,0.65,0.25,0.91c1.29,2.2,1.3,4.69,1.6,7.11c0.1,0.8,0.45,1.14,1.17,1.16c0.82,0.02,1.64,0.05,2.45-0.04
			c4.88-0.52,9.77-0.87,14.68-0.53c0.56,0.04,1.15-0.03,1.69,0.1c3.38,0.83,6.74,0.32,10.12,0.02c0.56-0.05,1.13-0.14,1.69-0.12
			c1.39,0.04,2.66,1.28,2.71,2.63c0.01,0.23-0.05,0.62-0.19,0.69c-1.14,0.58-1.96,1.74-3.49,1.59c-1.94-0.2-3.9-0.15-5.84-0.28
			c-1.38-0.09-2.75-0.25-4.12-0.45c-4.01-0.59-8.05-0.64-12.05-0.23c-4.27,0.45-8.54,0.59-12.82,0.52
			c-3.96-0.06-7.92-0.33-11.87-0.26c-5.59,0.11-11.18,0.54-16.78,0.66c-4.59,0.1-9.18-0.09-13.78-0.11
			c-2.01-0.01-4.02,0.07-6.03,0.13c-10.82,0.3-21.64,0.33-32.47,0.05c-1.63-0.04-3.27-0.22-4.9-0.25c-2.62-0.03-5.25,0.07-7.87,0.01
			c-5.97-0.14-11.95-0.42-17.92-0.51c-4.84-0.07-9.68,0.06-14.51,0.06c-6.17,0-12.33-0.06-18.5-0.04c-2.77,0.01-5.54,0.2-8.3,0.21
			c-3.58,0.02-7.16-0.09-10.75-0.09c-2.38,0-4.76,0.14-7.14,0.15c-2.76,0.01-5.53-0.05-8.29-0.08c-1.82-0.02-3.64,0.01-5.46-0.06
			c-3.39-0.13-6.78-0.38-10.17-0.47c-3.2-0.08-6.4,0.06-9.59-0.05c-1.77-0.06-2.59,1.38-3.9,2.03c-0.27,0.13-0.45,0.6-0.69,0.61
			c-0.65,0.03-1.35-0.01-1.94-0.23c-0.19-0.07-0.13-0.84-0.14-1.29c0-0.23,0.09-0.46,0.18-0.91c-2.54-0.16-4.95-0.36-7.38-0.43
			c-0.44-0.01-0.96,0.44-1.33,0.8c-0.76,0.74-1.36,1.68-2.2,2.29c-0.59,0.44-1.5,0.72-2.22,0.64c-0.73-0.07-1.27-0.75-1.24-1.66
			c0.03-0.62,0-1.25,0-2.01c-0.42-0.04-0.83-0.11-1.24-0.11c-1.51-0.02-3.02-0.01-4.53-0.04c-1.38-0.03-2.72-0.11-3.99,0.75
			c-0.43,0.29-1.44,0.2-1.91-0.12c-0.81-0.55-1.64-0.58-2.5-0.64c-2.12-0.14-4.25-0.4-6.37-0.36c-1.34,0.03-2.66,0.51-4.17,0.83
			c-0.51-1.07-1.66-0.99-2.8-0.97c-6.35,0.07-12.71,0.08-19.06,0.23c-2.7,0.06-5.39,0.5-8.09,0.6c-4.78,0.18-9.56,0.18-14.34,0.38
			c-2.94,0.12-5.87,0.46-8.8,0.78c-0.42,0.05-0.92,0.45-1.16,0.83c-0.46,0.72-1.07,0.8-1.79,0.7c-1.91-0.26-3.32-2.89-2.41-4.59
			c0.5-0.93,0.62-1.85,0.53-2.9c-0.74-8.52-1.41-17.05-2.16-25.57c-0.14-1.62-0.63-3.2-0.82-4.81c-0.36-3.06-0.61-6.13-0.92-9.2
			c-0.35-3.57-0.71-7.13-1.06-10.7c-0.42-4.26-0.79-8.52-1.26-12.78c-0.26-2.37-0.74-4.72-1.05-7.09c-0.37-2.87-0.7-5.74-0.98-8.62
			c-0.59-6-1.18-12-1.71-18c-0.4-4.51-0.72-9.03-1.05-13.55c-0.28-3.89-0.48-7.78-0.81-11.66c-0.36-4.2-0.89-8.38-1.22-12.57
			c-0.33-4.2-0.49-8.41-0.73-12.62c-0.23-4.08-0.7-8.12-1.36-12.16c-0.68-4.15-0.95-8.37-1.38-12.56c-0.15-1.43-0.22-2.87-0.33-4.31
			c-0.04-0.56-0.19-1.14-0.14-1.69c0.29-3.61-0.47-7.12-0.92-10.66c-0.17-1.37-0.2-2.76-0.28-4.14c-0.15-2.63-0.29-5.27-0.41-7.9
			c-0.12-2.57-0.27-5.11-0.63-7.68c-0.51-3.53-0.36-7.16-0.55-10.74c-0.09-1.69-0.28-3.38-0.44-5.07c-0.25-2.68-0.51-5.36-0.76-8.04
			C132.78,27.28,132.65,27.24,132.51,27.2z M422.7,58.66c-2.34,0.15-4.28,0.35-6.21,0.39c-2.83,0.06-5.66,0-8.49,0.02
			c-0.86,0.01-1.73-0.1-2.2,1.01c-0.99,2.36-2.76,4.17-4.43,6.06c-1.32,1.5-2.62,3.05-3.77,4.68c-3.2,4.53-5.94,9.35-8.23,14.39
			c-2.05,4.52-4.19,9-5.76,13.74c-1.37,4.11-3.04,8.13-4.61,12.17c-0.45,1.16-0.94,2.33-1.59,3.4c-1.88,3.11-3.78,6.2-5.8,9.22
			c-1.43,2.13-2.93,4.25-4.64,6.15c-2.09,2.32-3.68,4.9-5.12,7.64c-1.05,1.99-2.11,4.02-4.69,4.49c-1.31,0.24-2.36-0.5-2.12-1.81
			c0.15-0.82,0.59-1.64,1.08-2.32c0.95-1.32,2.07-2.53,3.06-3.83c0.95-1.25,1.69-2.69,2.77-3.81c2.4-2.51,4.62-5.13,6.39-8.13
			c1.86-3.14,4.04-6.11,5.61-9.39c2.25-4.7,4.1-9.6,6.08-14.42c0.55-1.33,0.9-2.74,1.46-4.07c0.85-2.03,1.77-4.03,2.73-6.02
			c1.52-3.18,2.94-6.42,4.68-9.47c2.3-4.03,4.84-7.94,7.36-11.84c0.84-1.31,1.97-2.43,2.92-3.68c0.93-1.23,1.8-2.5,2.87-3.99
			c-0.82,0-1.24-0.03-1.66,0c-3.46,0.3-6.87,0.06-10.29-0.54c-2.35-0.41-4.73-0.62-7.11-0.83c-0.57-0.05-1.42,0.02-1.73,0.39
			c-1.4,1.68-2.84,3.38-3.93,5.27c-2.15,3.7-4.15,7.48-6.08,11.3c-1.64,3.25-3.21,6.55-4.59,9.92c-1.52,3.71-2.69,7.57-4.17,11.29
			c-2.09,5.26-4.48,10.41-6.45,15.72c-0.83,2.23-2.51,2.81-4.24,3.62c-1.09-1.47-1.17-2.29-0.33-3.89c1.08-2.06,2.32-4.05,3.28-6.17
			c1.72-3.77,3.48-7.54,4.87-11.44c1.52-4.27,3.24-8.44,5.18-12.53c0.56-1.19,1.2-2.35,1.77-3.54c0.78-1.64,1.48-3.33,2.32-4.95
			c1.39-2.68,2.94-5.27,4.25-7.98c0.89-1.83,1.88-3.55,3.2-5.09c0.43-0.5,0.77-1.07,1.34-1.88c-2.23-0.13-4.09-0.31-5.95-0.33
			c-3.4-0.05-6.8-0.02-10.19,0c-0.75,0-1.44,0.11-1.99,0.82c-2.48,3.25-4.78,6.64-6.71,10.24c-2.4,4.49-4.51,9.14-6.9,13.64
			c-0.87,1.64-0.98,3.26-0.61,4.92c0.86,3.88,1.65,7.75,1.55,11.75c-0.01,0.56,0.08,1.13,0.2,1.68c1.3,6.2,2.65,12.4,3.92,18.6
			c1.01,4.92,1.94,9.87,2.88,14.8c0.14,0.74,0.26,1.51,0.21,2.25c-0.28,4.04,0.2,8.04,0.39,12.06c0.32,6.71,1.95,13.18,3.36,19.69
			c0.67,3.13,1.63,6.19,1.87,9.41c0.05,0.69,0.41,1.36,0.62,2c1.69-0.26,2.84-0.92,3.68-2.12c0.57-0.82,1.21-1.6,1.79-2.42
			c2.21-3.14,4.36-6.31,6.6-9.41c2.38-3.3,4.94-6.47,7.25-9.82c1.65-2.39,3.57-4.54,5.53-6.66c2.69-2.91,5.31-5.86,7.46-9.21
			c1.19-1.85,2.5-3.62,3.85-5.36c1.23-1.58,2.62-3.04,3.9-4.59c2-2.42,3.87-4.94,5.95-7.27c2.87-3.21,4.75-7.08,7.25-10.53
			c0.84-1.16,1.54-2.43,2.29-3.66c1.51-2.46,3.08-4.89,4.51-7.4c2.03-3.55,3.89-7.19,5.94-10.72c1.45-2.5,3.05-4.92,4.67-7.31
			c2.36-3.47,4.73-6.94,7.27-10.29c0.83-1.1,1.24-2.07,1.06-3.42c-0.32-2.43-0.5-4.88-0.8-7.31c-0.12-0.99-0.36-1.98-0.65-2.93
			c-0.25-0.8-0.84-1.15-1.74-1.09c-2.44,0.16-4.89,0.32-7.34,0.34c-1.16,0.01-1.86,0.46-2.46,1.4c-0.68,1.05-1.4,2.12-2.28,2.99
			c-4.29,4.28-7.8,9.2-11.49,13.98c-0.5,0.64-0.92,1.34-1.4,1.99c-0.55,0.75-1.24,1.43-1.67,2.24c-3.23,6.05-6.41,12.12-9.62,18.18
			c-1,1.88-2.18,3.68-2.99,5.64c-2.22,5.37-5.45,10.19-8.27,15.22c-1.75,3.12-3.76,6.08-5.62,9.14c-2.7,4.44-5.28,8.94-8.41,13.1
			c-0.9,1.2-1.61,2.54-2.45,3.79c-1.22,1.82-2.5,3.6-3.72,5.43c-1.86,2.79-4.58,5.02-5.42,8.51c-0.38,1.6-1.84,2.33-3.35,2.75
			c-0.93,0.26-1.56-0.12-1.82-1.13c-0.37-1.48-0.09-2.74,0.98-3.98c2.51-2.89,4.93-5.85,7.22-8.92c1.79-2.41,3.25-5.06,4.99-7.51
			c3.14-4.41,6.15-8.87,8.79-13.61c2.66-4.78,5.51-9.45,8.28-14.16c0.22-0.38,0.54-0.7,0.76-1.07c1.48-2.47,3-4.92,4.4-7.44
			c1-1.81,1.78-3.74,2.72-5.59c1.5-2.96,3.05-5.9,4.58-8.85c0.4-0.78,0.71-1.62,1.2-2.34c2.71-3.93,4.86-8.21,7.62-12.13
			c2.57-3.65,5.27-7.18,8.06-10.65C419.15,63.17,420.8,61.06,422.7,58.66z M442.64,111.43c-1.62,1.61-3.11,2.87-4.32,4.36
			c-3.04,3.77-5.95,7.65-8.89,11.49c-1.56,2.04-2.98,4.21-4.64,6.17c-4.03,4.73-8.18,9.35-12.26,14.04c-2.68,3.08-5.3,6.23-8,9.29
			c-1.12,1.27-2.5,2.31-3.58,3.62c-2.2,2.65-4.31,5.38-6.38,8.14c-3.01,4.03-6.83,7.37-9.59,11.63c-2,3.09-4.45,5.9-6.75,8.79
			c-2.57,3.23-4.72,6.78-7.59,9.81c-1.75,1.86-3.09,4.11-4.64,6.17c-0.94,1.26-1.95,2.46-2.87,3.73c-0.3,0.42-0.58,1.01-0.55,1.51
			c0.14,2.5,0.16,5.04,0.64,7.49c0.66,3.41,0.66,6.85,0.98,10.27c0.21,2.18,0.09,4.39,0.12,6.59c0.01,0.63,0.03,1.26,0,1.88
			c-0.16,3.96-0.35,7.92-0.49,11.88c-0.04,1.08,0.02,2.16,0.03,2.82c1.18-0.99,2.32-2.24,3.71-3.04c1.48-0.84,2.44-2.14,3.64-3.23
			c0.6-0.54,1.07-1.24,1.64-1.82c3.41-3.44,6.84-6.86,10.26-10.29c0.62-0.62,1.27-1.22,1.92-1.81c1.03-0.92,2.15-1.74,3.09-2.74
			c2.9-3.07,5.96-5.96,9.31-8.54c0.94-0.72,1.73-1.64,2.59-2.46c1.77-1.69,3.52-3.4,5.32-5.06c1.57-1.45,3.29-2.75,4.77-4.28
			c3.98-4.09,7.89-8.25,11.78-12.43c1.28-1.37,2.35-2.93,3.59-4.35c3.15-3.6,6.35-7.15,9.51-10.74c3.7-4.2,7.35-8.44,11.07-12.62
			c0.7-0.79,0.93-1.55,0.77-2.56c-0.36-2.29-0.75-4.58-0.94-6.89c-0.33-3.95-0.51-7.91-0.77-11.86c-0.02-0.33-0.15-0.66-0.3-1.31
			c-0.67,0.72-1.15,1.19-1.57,1.7c-1.27,1.55-2.54,3.11-3.78,4.68c-1.99,2.51-3.95,5.03-5.93,7.55c-0.74,0.94-1.49,1.87-2.23,2.81
			c-0.38,0.49-0.75,1-1.1,1.51c-1.2,1.75-2.37,3.53-3.59,5.27c-0.76,1.08-1.54,2.14-2.38,3.16c-2.56,3.1-5.65,5.69-8.07,8.96
			c-1.77,2.39-4.19,4.3-6.29,6.46c-2.2,2.25-4.37,4.52-6.54,6.8c-5.82,6.08-11.61,12.19-17.46,18.24c-2.58,2.67-5.22,5.28-7.88,7.88
			c-2.78,2.71-5.24,5.7-7.43,8.87c-1.15,1.66-2.45,2.76-4.24,3.42c-1.99-2.41-1.96-3.34,0.17-5.4c0.05-0.04,0.1-0.08,0.14-0.13
			c1.23-1.34,2.46-2.67,3.68-4.01c1.39-1.53,2.73-3.1,4.18-4.58c2.64-2.69,5.34-5.31,8.02-7.96c1.87-1.85,3.77-3.67,5.61-5.54
			c2.67-2.72,5.3-5.48,7.94-8.23c1.18-1.23,2.42-2.4,3.49-3.72c2.66-3.28,5.66-6.22,8.81-9.03c1.45-1.29,2.88-2.68,3.99-4.26
			c1.48-2.13,3.18-4.01,5.04-5.8c1.9-1.83,3.95-3.62,5.38-5.79c3.11-4.72,6.39-9.29,9.86-13.75c3.55-4.56,7.45-8.84,10.66-13.68
			c0.9-1.36,1.27-2.66,1.2-4.21c-0.15-3.33-0.21-6.67-0.43-10c-0.3-4.52-0.71-9.03-1.08-13.55
			C442.97,112.47,442.84,112.18,442.64,111.43z M362.16,202.8c0.18,0.07,0.35,0.14,0.53,0.21c1.52-1.82,3.09-3.59,4.54-5.47
			c3.61-4.67,7.16-9.38,10.72-14.09c1.37-1.8,2.7-3.63,4.07-5.43c0.87-1.14,1.73-2.29,2.66-3.38c2.89-3.4,6.02-6.61,8.65-10.2
			c1.79-2.44,3.76-4.68,5.77-6.91c2.69-2.98,5.47-5.87,8.11-8.89c2.69-3.07,5.18-6.32,7.92-9.34c3.59-3.95,7.1-7.96,10.19-12.33
			c1.96-2.77,4.22-5.32,6.19-8.07c2.87-4.01,6.4-7.42,9.74-10.99c0.84-0.9,1.22-1.87,1.1-3.06c-0.42-4.13-0.9-8.25-1.26-12.38
			c-0.34-3.95-0.55-7.9-0.84-11.85c-0.05-0.66-0.16-1.31-0.29-2.29c-0.7,0.39-1.21,0.53-1.48,0.86c-1.69,2.02-3.38,4.05-4.96,6.16
			c-0.7,0.94-0.98,2.21-1.72,3.11c-2.33,2.86-4.05,6.08-5.6,9.37c-2.71,5.76-6.25,11.03-9.52,16.45c-2.25,3.74-4.99,7.2-7.66,10.66
			c-2.11,2.74-4.48,5.26-6.66,7.94c-2.13,2.62-4.31,5.22-6.21,8.01c-2.24,3.28-4.68,6.37-7.39,9.26c-1.07,1.15-2.12,2.32-3.14,3.52
			c-0.73,0.86-1.41,1.77-2.08,2.68c-1,1.36-1.98,2.74-2.96,4.12c-0.25,0.36-0.43,0.76-0.69,1.12c-0.88,1.22-1.81,2.41-2.65,3.65
			c-2.29,3.36-4.04,7.07-6.79,10.16c-2.17,2.43-4,5.16-6.02,7.72c-0.45,0.57-0.99,1.17-1.62,1.48c-1.83,0.91-2.72,2.18-2.19,4.09
			c0.99,3.55,1.09,7.2,1.51,10.82C362.27,200.58,362.16,201.69,362.16,202.8z M363.57,261.18c0.95,0.13,1.74,0.32,2.52,0.33
			c5.85,0.04,11.71,0.03,17.56,0.07c0.73,0.01,1.17-0.24,1.5-0.87c0.29-0.55,0.6-1.12,1.02-1.56c2.35-2.44,4.89-4.72,7.06-7.31
			c2.29-2.72,4.9-5.03,7.59-7.31c1.87-1.57,3.57-3.36,5.23-5.16c0.89-0.96,1.42-2.24,2.32-3.19c2.68-2.82,5.54-5.48,8.19-8.33
			c2.48-2.66,4.81-5.47,7.17-8.24c0.71-0.84,1.24-1.83,1.98-2.64c0.75-0.83,1.73-1.46,2.48-2.29c1.47-1.63,2.79-3.42,4.3-5.01
			c3.59-3.79,7.25-7.51,10.89-11.26c2.05-2.12,4.31-4.02,6.04-6.48c0.78-1.11,0.97-2.07,0.76-3.31c-0.28-1.61-0.49-3.23-0.68-4.85
			c-0.25-2.12-0.46-4.24-0.68-6.37c-0.12-1.19-0.2-2.38-0.37-3.56c-0.09-0.62-0.31-1.23-0.53-2.03c-0.57,0.4-0.91,0.57-1.15,0.83
			c-3.06,3.24-6.15,6.45-9.13,9.77c-2.85,3.18-5.58,6.47-8.35,9.72c-1.55,1.81-3.04,3.68-4.61,5.47c-1.08,1.22-2.28,2.34-3.39,3.53
			c-2.74,2.94-5.4,5.97-8.23,8.83c-2.16,2.19-4.53,4.17-6.79,6.26c-3.03,2.81-6.05,5.62-9.05,8.46c-4.97,4.71-9.94,9.42-14.88,14.16
			c-2.18,2.09-4.3,4.25-6.41,6.41c-1.14,1.17-2.22,2.4-3.32,3.6c-1.82,1.99-3.67,3.97-5.45,6c-0.8,0.92-1.7,0.95-2.71,0.57
			c-0.31-0.11-0.58-0.34-0.89-0.52C363.57,257.03,363.57,259.02,363.57,261.18z M451.22,197.55c-0.51,0.1-0.87,0.07-1.09,0.22
			c-1.32,0.95-2.75,1.81-3.9,2.95c-3.92,3.9-7.74,7.9-11.6,11.87c-0.52,0.53-1.05,1.06-1.49,1.65c-1.15,1.55-2.16,3.21-3.39,4.69
			c-1.85,2.21-3.8,4.32-5.78,6.41c-3.71,3.93-7.47,7.81-11.19,11.74c-0.73,0.77-1.4,1.62-2,2.5c-1.86,2.72-4.13,5.05-6.59,7.22
			c-1.13,0.99-2.28,1.97-3.32,3.04c-2.1,2.15-4.2,4.31-6.2,6.56c-1.36,1.53-2.61,3.16-3.57,5.31c2.45,0.46,4.7,0.05,6.92,0.12
			c2.26,0.07,4.53,0.02,6.79,0.03c2.2,0.01,4.39-0.06,6.93-0.84c-0.89-0.57-1.41-0.89-1.91-1.23c-1.41-0.94-1.62-2.25-0.47-3.47
			c0.73-0.78,1.58-1.44,2.39-2.13c2.72-2.32,5.56-4.51,8.15-6.96c3.47-3.29,6.74-6.77,10.1-10.17c3.22-3.26,6.45-6.51,9.67-9.77
			c0.75-0.76,1.63-1.43,2.23-2.29c2.13-3.04,5.15-5.13,7.9-7.5c0.33-0.28,0.69-0.54,0.98-0.86c0.83-0.9,1.64-1.82,2.63-2.93
			C452.73,208.55,451.98,203.1,451.22,197.55z M454.75,218.5c-2.82,2.28-5.44,4.12-7.64,6.45c-2.46,2.6-4.79,5.33-7.21,7.96
			c-0.89,0.97-1.91,1.82-2.86,2.74c-2.9,2.8-5.81,5.58-8.67,8.41c-3.4,3.36-6.73,6.77-10.12,10.14c-1.99,1.97-4.21,3.72-5.75,6.06
			c1.86,0.3,3.69,0.67,5.55,0.87c2.12,0.22,4.26,0.37,6.39,0.39c3.64,0.03,7.3,0.12,10.93-0.15c7.53-0.56,15.06-0.93,22.6-0.26
			c0.66,0.06,1.32,0.01,2.18,0.01c-0.16-1.21-0.23-2.14-0.4-3.05c-0.56-2.93-1.29-5.84-1.7-8.8c-0.45-3.29-0.63-6.63-0.9-9.94
			c-0.22-2.69-0.36-5.39-0.58-8.09c-0.16-1.94-0.33-3.88-0.6-5.8C455.65,223.25,455.22,221.11,454.75,218.5z M248.11,249.99
			c-0.64,4.28-3.47,7.26-5.07,10.77c2.58,0.16,5.01,0.36,7.44,0.44c0.71,0.02,1.87-0.06,2.05-0.45c0.49-1.05,1.65-1.78,1.52-3.14
			c-0.28-2.81-0.46-5.63-0.79-8.44c-0.26-2.21-0.46-2.53-2.66-2.64c-3.38-0.18-6.67-1.05-10.07-1.01c-2.7,0.03-5.4-0.27-8.09-0.13
			c-2.81,0.14-5.57,0.74-8.43,0.58c-3.18-0.17-6.3,0.72-9.52,0.63c-3.82-0.12-7.65,0.26-11.47,0.23c-1.44-0.01-2.25,0.55-2.87,1.66
			c-0.61,1.1-1.12,2.24-1.72,3.35c-1.45,2.66-2.04,5.6-2.99,8.55c2.06,0,3.93,0,5.83,0c0.17-0.4,0.33-0.74,0.47-1.08
			c1.25-3.09,2.47-6.19,3.77-9.26c0.31-0.72,0.85-1.38,1.38-1.97c0.56-0.62,1.9-0.61,2.63-0.08c0.79,0.57,0.33,1.24,0.1,1.86
			c-0.16,0.41-0.37,0.8-0.59,1.18c-1.26,2.19-2.22,4.51-2.77,6.98c-0.16,0.71-0.18,1.45-0.25,2.1c1.29,0.86,2.51,0.31,3.67,0.43
			c1.14,0.12,1.93-0.31,2.41-1.38c1.68-3.71,4.77-6.63,5.95-10.63c0.22-0.73,0.83-0.88,1.52-0.81c0.75,0.07,1.2,0.56,1.18,1.23
			c-0.03,0.86-0.19,1.73-0.45,2.55c-0.2,0.65-0.6,1.24-0.95,1.84c-0.79,1.35-1.29,2.87-2.56,3.92c-0.27,0.22-0.28,0.75-0.43,1.17
			c0.57,0.03,0.99,0.05,1.48,0.07c-0.11,0.71-0.2,1.3-0.31,2.04c2.47,0.45,4.81,0.22,7.22,0.14c0.64-1.23,1.32-2.37,1.85-3.58
			c1.39-3.18,3.14-6.13,5.31-8.85c1.3-1.63,2.41-1.55,3.48,0.36c-0.04,0.12-0.06,0.26-0.13,0.35c-2.02,2.36-3.49,5.07-4.82,7.85
			c-0.31,0.65-0.39,1.42-0.57,2.14c1.02,0.38,0.39,1.43,0.64,1.89c1.56,0,2.94,0,4.31,0c1.38,0,2.75,0,3.97,0
			c1.3-2.21,2.56-4.16,3.61-6.21c1.05-2.05,1.87-4.22,3.62-5.98C246.74,249.13,247.42,249.56,248.11,249.99z M175.77,261.32
			c5.17-0.27,10.21-0.53,15.18-0.79c1.26-5.04,3.81-9.21,6.25-13.59c-3.2-0.09-6.09-0.2-8.97-0.23c-0.42,0-1,0.32-1.24,0.67
			c-1.89,2.79-3.88,5.54-5,8.78c-0.39,1.12-0.92,2.2-1.43,3.28c-0.4,0.86-1.78,1.46-2.5,1.12c-0.75-0.36-1.18-1.81-0.74-2.69
			c1.17-2.35,2.36-4.69,3.56-7.03c0.73-1.42,1.48-2.83,2.34-4.47c-3.68-0.62-7,0.66-10.56,0.56c0.15,1,0.23,1.73,0.39,2.45
			C173.93,253.28,174.83,257.18,175.77,261.32z M356.18,57.71c-1.09-0.05-1.94-0.14-2.78-0.12c-3.14,0.08-6.28,0.19-9.42,0.31
			c-0.56,0.02-1.12,0.11-1.66,0.25c-0.9,0.23-1.38,0.79-1.23,1.8c0.18,1.17,0.32,2.35,0.45,3.53c0.41,3.74,0.76,7.5,1.24,11.23
			c0.16,1.25,0.64,2.46,0.98,3.69c0.16,0.02,0.32,0.04,0.48,0.06c3.72-6.4,6.59-13.31,11.3-19.11
			C355.83,58.99,355.9,58.46,356.18,57.71z"/>
		<path d="M462.68,317.44c0,0.98-0.12,1.88,0.03,2.73c0.25,1.51,1.63,1.97,2.83,1.01c1.12-0.89,1.99-1.92,1.79-3.52
			c-0.08-0.62,0-1.26,0.06-1.89c0.11-1.12,0.85-1.97,1.8-2.12c0.95-0.15,1.71,0.3,2.25,1.35c0.17,0.33,0.41,0.71,0.39,1.05
			c-0.12,1.69-0.18,3.4-0.54,5.04c-0.27,1.24-1.11,2.23-2.33,2.83c-0.55,0.27-1.03,0.71-1.54,1.07c-1.9,1.32-3.99,1.44-6.15,0.92
			c-0.5-0.12-0.93-0.6-1.34-0.96c-0.55-0.49-1.06-1.03-1.62-1.58c-0.53,0.36-0.96,0.61-1.35,0.91c-1.59,1.24-3.3,1.94-5.39,1.72
			c-1.09-0.11-2.06-0.08-2.8-1.12c-0.75-1.05-1.87-0.81-2.93-0.44c-0.77,0.27-1.52,0.63-2.3,0.81c-1.07,0.23-1.94-0.29-2.43-1.27
			c-1.37-2.75-0.58-5.26,0.94-7.64c0.5-0.78,0.87-1.52,0.78-2.44c-0.1-0.99-0.4-1.2-1.35-1c-0.86,0.19-1.72,0.33-2.57,0.55
			c-2.24,0.58-3.27,1.87-3.86,4.37c-0.11,0.48-0.08,1-0.13,1.5c-0.15,1.8-0.55,3.33-2.47,4.23c-1.35,0.63-2.51,0.6-2.9-0.87
			c-0.32-1.17-0.3-2.48-0.21-3.71c0.09-1.3,0.54-2.58,0.67-3.88c0.14-1.41-0.19-1.69-1.57-1.64c-1.01,0.04-2.02,0.06-3.01,0.2
			c-1.27,0.18-1.6,0.73-1.71,2.04c-0.14,1.62,0.65,2.91,1.31,4.26c0.62,1.28,0.52,1.91-0.38,2.89c-1.08,1.19-2.8,1-3.37-0.5
			c-0.53-1.4-0.93-2.88-1.15-4.36c-0.49-3.32-1.09-3.83-4.4-3.36c-0.99,0.14-2,0.2-2.99,0.36c-1.19,0.19-2.07-0.27-2.81-1.15
			c-0.41-0.48-0.99-0.92-0.65-1.62c0.36-0.76,0.92-1.35,1.9-1.3c0.63,0.03,1.26,0.05,1.89-0.02c1.61-0.17,3.22-0.32,4.81-0.62
			c0.45-0.08,0.92-0.58,1.18-1.01c0.24-0.4,0.28-0.97,0.27-1.47c-0.08-3.56,1.35-6.66,3.22-9.51c1.78-2.72,3.84-2.73,6.12-0.65
			c0.14,0.13,0.25,0.28,0.38,0.42c1.61,1.7,1.61,1.73-0.07,3.94c-0.53-0.37-1.07-0.76-1.61-1.13c-1.36-0.93-1.86-0.88-2.76,0.51
			c-1.33,2.04-2.11,4.26-1.92,6.74c0.03,0.37,0,0.74,0,1.13c1.16,0.83,2.42,0.78,3.66,0.68c1.19-0.09,2.37-0.28,3.56-0.44
			c1.11-0.15,2.11,0.02,2.98,0.82c0.76,0.7,1.51,0.64,2.56,0.27c1.5-0.52,3.2-0.76,4.79-0.65c1.91,0.13,3.79,0.75,5.69,1.16
			c0.49,0.11,0.96,0.3,1.45,0.34c1.57,0.13,2.67,0.93,3.01,2.43c0.42,1.89,0.7,3.82,0.89,5.75c0.21,2.19,1.63,3.22,3.71,2.5
			c0.42-0.14,0.81-0.35,1.24-0.47c1.43-0.39,1.93-1.4,2.11-2.79c0.1-0.77,0.47-1.55,0.89-2.21c0.73-1.12,1.22-1.15,2.3-0.31
			C461.88,316.65,462.23,317.02,462.68,317.44z"/>
		<path d="M72.12,192.04c0.12-2.3,0.26-4.36,0.32-6.42c0.02-0.68-0.28-1.42,0.76-1.6c1.26-0.22,2.07,0.22,2.35,1.29
			c0.02,0.06,0.04,0.12,0.03,0.19c-0.07,2.31,0.47,4.62-0.23,6.93c-0.32,1.06-0.33,2.23-0.38,3.36c-0.08,1.96,0.15,2.29,1.88,3.22
			c-0.05,2.49,0.87,3.52,3.41,3.5c1.56-0.01,3.12-0.26,4.67-0.46c0.83-0.11,0.99-0.86,1.21-1.52c0.81-2.41,1.91-4.65,3.56-6.61
			c0.2-0.24,0.41-0.66,0.63-0.66c1.74-0.02,3.48,0.03,5.21,0.06c0.36,0.78,0.81,1.52,1.06,2.33c0.5,1.68,0.77,3.44,1.37,5.08
			c0.53,1.46,1.26,1.78,2.4,1.6c2.09-0.33,3.14-1.11,3.42-2.65c-0.45,0-0.87,0-1.29,0c-1.33,0.01-2.27-0.73-2.37-1.88
			c-0.08-0.97,0.62-1.57,2.01-1.74c0.36-0.04,0.73-0.1,1.17-0.17c0.04-0.8,0.06-1.54,0.11-2.28c0.03-0.44,0.03-0.89,0.15-1.3
			c0.28-0.89,1.27-1.67,1.92-1.54c0.93,0.18,1.11,0.98,1.22,1.72c0.16,1.11,0.19,2.23,0.29,3.43c2.04,0.56,3.85-0.01,5.58-0.67
			c1.03-0.4,1.95-1.13,2.86-1.78c1.01-0.71,1.84-0.89,2.6-0.42c0.98,0.59,1.24,1.3,0.95,2.6c-0.63,2.85,0.79,4.99,3.7,5.57
			c0.12,0.02,0.26,0.01,0.37,0.05c0.66,0.24,1.37,0.49,1.39,1.34c0.01,0.86-0.59,1.52-1.33,1.63c-1.74,0.27-3.51,0.29-5.02-0.91
			c-1.86-1.49-1.86-1.48-3.95-0.35c-1.62,0.88-3.19,0.07-3.41-1.8c-0.07-0.6-0.01-1.22-0.01-1.98c-1.13,0.07-2.1,0.14-3.15,0.2
			c-0.21,0.98-0.01,1.78,0.56,2.5c0.5,0.63,0.68,1.33,0.48,2.12c-0.36,1.39-1.27,1.72-2.48,0.88c-0.31-0.21-0.66-0.38-0.93-0.64
			c-1.15-1.1-1.17-1.12-2.39-0.16c-1.78,1.41-3.66,2.22-5.9,1.12c-0.38-0.19-0.76-0.42-1.07-0.7c-1.17-1.05-1.62-1.08-2.97-0.24
			c-0.74,0.47-1.49,0.96-2.29,1.3c-0.68,0.28-1.44,0.44-2.17,0.5c-1.62,0.12-2.04-0.21-2.61-1.79c-0.1-0.28-0.24-0.55-0.4-0.92
			c-0.94,0.41-1.79,0.76-2.63,1.15c-2.23,1.04-4.42,1.24-6.68,0.04c-0.4-0.21-1.09-0.09-1.55,0.11c-0.74,0.32-1.39,0.85-2.09,1.27
			c-2.26,1.35-5.26,0.96-6.84-0.97c-0.37-0.45-0.66-1.1-0.69-1.67c-0.08-1.5-0.18-3.05,0.09-4.52c0.22-1.17,0.97-2.26,1.53-3.35
			c0.17-0.32,0.52-0.54,0.74-0.84C68.44,193.05,69.77,191.88,72.12,192.04z M71.87,195.48c-1.56,0.55-2.75,1.67-3.5,3.08
			c-0.71,1.33-0.56,2.69,0.07,3.97c0.2,0.41,0.8,0.76,1.28,0.87c0.59,0.13,1.26,0.06,1.87-0.07c1.41-0.3,1.86-1.37,1.31-2.62
			c-0.32-0.72-0.51-1.52-0.65-2.3C72.07,197.49,72,196.57,71.87,195.48z M89.16,201.85c0.35,0.12,0.58,0.29,0.79,0.26
			c1.41-0.19,2.4-1.08,3.13-2.2c0.25-0.38,0.14-1.11-0.03-1.6c-0.23-0.64-1.15-0.84-1.55-0.31
			C90.6,199.16,89.64,200.31,89.16,201.85z"/>
		<path d="M10.19,159.69c2.69-1.13,5.28-2.21,7.74-3.24c0-1.7,0.04-3.2-0.01-4.7c-0.11-3.2,0.69-6.06,2.74-8.59
			c1.73-2.13,3.94-2.63,6.43-2.1c1.59,0.34,3.12,0.97,4.64,1.55c0.93,0.35,0.91,0.44,1.13,1.87c-0.84-0.07-1.63-0.15-2.42-0.21
			c-1.57-0.13-3.14-0.37-4.7-0.34c-2.62,0.05-3.92,1.29-4.14,3.89c-0.13,1.5-0.04,3.02-0.04,4.53c0,0.95,0,1.9,0,2.96
			c1.04-0.11,2.28-0.41,3.49-0.32c1.41,0.1,2.78,0.62,4.19,0.8c1.95,0.25,3.94,1.42,5.86-0.16c0.37-0.31,0.89-0.47,1.36-0.63
			c1.79-0.62,3.54-0.56,4.94,0.79c1.05,1.01,1.83,1.25,3.26,0.49c1.26-0.67,2.9-0.71,4.39-0.85c1.06-0.1,1.96,0.79,1.97,1.86
			c0.01,0.86-0.23,1.72-0.35,2.59c-0.09,0.67-0.28,1.35-0.25,2.02c0.04,0.91,0.68,1.29,1.55,1.3c0.81,0.01,1.49-0.13,1.63-1.15
			c0.34-2.56,2.09-4.22,3.87-5.83c0.88-0.79,1.58-0.72,2.58-0.07c0.78,0.51,0.87,1.27,0.6,1.99c-0.17,0.45-0.67,0.92-1.12,1.08
			c-1.44,0.49-1.84,1.86-2.44,2.94c-0.58,1.05,0.63,2.7,1.86,2.67c0.97-0.02,1.95-0.32,2.9-0.57c0.58-0.15,1.13-0.43,1.68-0.64
			c0.69,1.07,0.43,1.96-0.26,2.54c-0.79,0.67-1.74,1.36-2.71,1.55c-1.39,0.27-2.87,0.14-4.31,0.06c-0.44-0.02-0.97-0.36-1.25-0.73
			c-0.64-0.85-1.38-0.88-2.33-0.67c-1.95,0.44-3.69-0.01-5.19-1.56c-0.8,0.36-1.57,0.78-2.39,1.07c-0.69,0.24-1.44,0.48-2.16,0.47
			c-1.79-0.04-2.48-0.75-2.56-2.56c-0.05-1.25,0.06-2.49,0.76-3.61c0.22-0.35,0.28-0.79,0.45-1.27c-0.88-0.41-1.64-0.82-2.44-1.12
			c-0.33-0.12-0.75-0.09-1.11-0.02c-2.76,0.56-4.91,3.14-4.73,5.92c0.09,1.48-0.51,2.39-1.64,3.12c-1.15,0.74-2.17,0.37-2.63-0.94
			c-0.37-1.06-0.76-2.1-1.22-3.36c1.13,0.11,1.32-0.48,1.44-1.33c0.15-1.11,0.4-2.2,0.09-3.34c-1.81,0-3.55-0.05-5.29,0.02
			c-1.09,0.04-2.1,0.99-2.27,2.2c-0.11,0.78-0.01,1.62,0.13,2.41c0.21,1.23,0.56,2.45,0.82,3.68c0.25,1.18-0.28,2.09-1.12,2.83
			c-0.26,0.22-0.74,0.48-0.97,0.38c-0.33-0.15-0.69-0.58-0.75-0.94c-0.13-0.8-0.01-1.64-0.13-2.44c-0.24-1.62-0.56-3.22-0.87-4.82
			c-0.2-1-0.55-1.31-1.6-1.04c-1.21,0.31-2.36,0.83-3.53,1.3C11.85,162.15,11.15,161.86,10.19,159.69z M43.99,162.6
			c0.85-0.07,1.43-0.13,2.01-0.18c0.23-1.11,0.42-2.05,0.69-3.35C45.37,160.12,44.47,161,43.99,162.6z"/>
		<path d="M411.55,40.92c0.55-2.04,1.02-4.12,1.69-6.12c0.59-1.76,0.52-2.55-1.15-3.18c-1.73-0.65-2.11-2-1.91-3.43
			c0.24-1.71,0.87-3.38,1.44-5.03c0.52-1.52,1.69-2.74,1.9-4.46c0.07-0.6,1.01-1.28,1.7-1.58c0.77-0.33,1.79-0.55,2.56-0.34
			c1.84,0.5,3.79,0.88,5.1,2.54c1.29,1.63,1.42,3.5,1.07,5.38c-0.37,2.01-1.73,3.45-3.31,4.65c-1.34,1.02-1.49,1.45-0.49,2.88
			c0.61,0.86,1.35,1.63,2.08,2.41c0.91,0.96,1.63,1.95,1.96,3.32c0.45,1.82-0.19,3.22-1.22,4.54c-1.52,1.96-3.62,3.12-5.94,3.81
			c-2.92,0.86-4.63-1.32-5.21-3.99c-0.09-0.42-0.01-0.88-0.01-1.32C411.73,40.96,411.64,40.94,411.55,40.92z M414.14,27.88
			c2.02,0.15,3.29-0.84,4.64-1.73c0.97-0.63,1.27-1.59,1.23-2.56c-0.05-1.05-1.11-1.42-1.91-1.86c-0.55-0.3-1.11-0.18-1.46,0.39
			c-0.77,1.28-1.59,2.53-2.26,3.87C414.11,26.52,414.21,27.23,414.14,27.88z M417.15,34.94c-0.15,0.07-0.31,0.13-0.46,0.2
			c-0.33,1.57-0.68,3.14-0.97,4.71c-0.08,0.42-0.05,0.89,0.06,1.31c0.21,0.78,1.08,1.16,1.79,0.77c0.71-0.4,1.44-0.82,2-1.4
			c0.33-0.34,0.55-1.02,0.47-1.49C419.72,37.22,418.33,36.14,417.15,34.94z"/>
		<path d="M361.35,36.23c-0.86,0.55-1.52,1-2.2,1.42c-1.81,1.1-3.56,2.36-5.48,3.24c-2.29,1.05-4.41-0.31-4.9-2.75
			c-0.49-2.45-0.08-4.69,0.9-6.97c1.15-2.66,2.8-4.89,4.8-6.93c2.14-2.18,4.45-2.69,7.16-1.32c0.77,0.39,1.45,0.58,2.3,0.55
			c1.86-0.06,2.76,0.72,2.69,2.55c-0.12,3.26-0.24,6.54-0.65,9.78c-0.46,3.67-0.11,7.28,0.28,10.91c0.03,0.29,0.22,0.58,0.38,0.84
			c0.73,1.24,0.68,1.62-0.41,2.5c-0.73,0.59-1.47,1.17-2.31,1.84c-0.8-0.9-1.21-1.9-1.32-3.13
			C362.26,44.69,361.8,40.64,361.35,36.23z M362.33,26.99c-1.92,0.44-1.91,0.4-4.28,0.03c-0.55-0.09-1.35,0.07-1.73,0.43
			c-2.34,2.26-4.27,4.78-4.43,8.23c-0.06,1.18,0.3,1.63,1.49,1.54c0.42-0.03,0.85-0.19,1.23-0.38c2.42-1.23,4.54-2.87,6.39-4.85
			c0.37-0.39,0.64-0.95,0.76-1.48C362.02,29.42,362.13,28.31,362.33,26.99z"/>
		<path d="M209.75,306.59c-0.88-0.06-1.74-0.09-2.59-0.19c-2.48-0.29-3.43,0.32-4.15,2.74c-0.41,1.38-0.79,2.77-1.23,4.28
			c-1.37-0.13-1.73,2.17-3.44,1.5c-1.08-2.33-0.6-4.82-0.75-7.14c-2.63-1.72-5.44-1.19-8.17-1.18c-0.88,0-1.28,0.47-1.07,1.35
			c0.26,1.09,0.56,2.17,0.86,3.26c0.36,1.27,0.4,2.46-0.54,3.55c-0.48,0.56-1.09,0.76-1.67,0.46c-0.35-0.18-0.67-0.8-0.65-1.21
			c0.05-1.2-0.47-2.15-0.87-3.21c-0.43-1.13-0.38-2.44-0.57-3.94c-1-0.04-2.1-0.1-3.21-0.12c-0.5-0.01-1.01,0.08-1.51,0.03
			c-0.74-0.08-1.68-1.08-1.73-1.77c-0.05-0.67,0.69-1.39,1.64-1.54c0.37-0.06,0.75-0.02,1.13-0.02c0.82,0,1.64,0.03,2.45,0
			c1.58-0.06,1.73-0.2,1.82-1.73c0.15-2.64,1.22-5.03,2.39-7.28c1.59-3.1,5.56-4.32,8.82-3.06c0.4,0.16,0.93,0.32,1.11,0.65
			c0.24,0.44,0.37,1.08,0.22,1.53c-0.1,0.31-0.74,0.49-1.16,0.64c-0.21,0.08-0.51,0-0.74-0.07c-2.9-0.9-4.84,0.45-6.38,2.73
			c-1.23,1.82-1.18,4.02-2.08,6.29c1.84,0,3.33-0.08,4.82,0.02c1.37,0.09,2.75,0.26,4.07,0.6c0.95,0.25,1.87,0.78,2.03,2.26
			c0.77-0.37,1.47-0.52,1.92-0.94c2.02-1.87,4.45-1.9,6.91-1.6C209.02,303.68,209.58,304.54,209.75,306.59z"/>
		<path d="M384.74,32.01c-1.08-0.35-1.92,0-2.82,0.34c-1.69,0.63-3.44,1.13-5.18,1.64c-0.94,0.28-1.54-0.14-1.91-1.03
			c-0.69-1.68-0.8-3.28,0.43-4.78c0.91-1.12,1.82-2.24,2.7-3.39c1.03-1.35,2.43-1.94,4.07-2.06c1.38-0.1,2.75-0.16,4.13-0.25
			c1.96-0.13,2.96,0.73,3.04,2.62c0.15,3.76,0.25,7.52,0.47,11.28c0.12,1.99,0.44,3.98,0.68,6.03c0.69,0.12,1.29,0.23,1.87,0.33
			c0.7,1.96-1.03,4.63-3,4.57c-0.47-0.02-1.13-0.41-1.34-0.81c-0.67-1.33-1.41-2.7-1.68-4.14C385.6,38.97,385.23,35.54,384.74,32.01
			z M384.17,24.88c-2.25,0.55-3.59,2.37-5.21,3.76c-0.25,0.21-0.23,0.72-0.47,1.55c1.95-0.73,3.57-1.19,5.04-1.94
			C384.78,27.62,384.86,26.74,384.17,24.88z"/>
		<path d="M483.22,301.76c2.03-0.2,2.95,0.2,3.48,2.03c0.69,2.39,1.57,4.76,1.45,7.35c-0.09,2.01,0.1,4.02,0.85,5.93
			c0.52,1.34,1.09,2.59,3.03,2.45c-0.31,0.54-0.56,0.87-0.7,1.25c-0.23,0.62-0.13,1.51-1.02,1.62c-1,0.12-1.99,0.07-2.75-0.84
			c-0.43-0.52-0.97-0.95-1.53-1.33c-0.21-0.14-0.61-0.02-0.87-0.02c-0.55,0.59-1.12,1.12-1.6,1.73c-0.34,0.43-0.67,0.92-0.82,1.44
			c-0.41,1.36-1.33,2.29-2.52,2.91c-0.54,0.28-1.44,0.42-1.92,0.16c-1.37-0.77-2.44-1.81-2.62-3.61c-0.22-2.28,0.63-4.11,2.13-5.61
			c1.54-1.55,2.43-3.69,4.44-4.82c0.65-0.37,0.5-1.07,0.41-1.71c-0.38-2.77-0.07-5.52,0.31-8.26
			C482.99,302.18,483.14,301.96,483.22,301.76z M483.44,318.41c-0.09-0.13-0.18-0.26-0.28-0.39c-0.24,0.19-0.49,0.37-0.73,0.56
			c0.06,0.09,0.12,0.19,0.18,0.28C482.89,318.71,483.16,318.56,483.44,318.41z"/>
		<path d="M342.92,307.16c1.49-1.03,2.55-1.89,3.73-2.55c2.28-1.28,3.86-0.94,5.73,0.76c2.04,1.86,2.93,4.17,3.16,6.83
			c0.14,1.63,0.27,3.25,0.4,4.88c0.02,0.25,0.02,0.5,0.01,0.75c-0.05,1.4-0.62,2.28-1.46,2.29c-0.85,0.01-2.01-1-2.15-2.06
			c-0.23-1.74-0.5-3.5-0.5-5.25c0-1.51-0.87-2.6-1.45-3.81c-0.52-1.08-1.77-0.96-2.82-0.17c-0.92,0.69-1.39,1.57-1.72,2.61
			c-0.57,1.79-1.07,3.61-1.75,5.35c-0.5,1.28-1.59,2.08-2.92,2.37c-0.34,0.08-1-0.27-1.16-0.6c-0.36-0.71-0.63-1.52-0.68-2.31
			c-0.2-3-0.32-6-0.4-9c-0.03-1.06,0.1-2.13,0.26-3.18c0.18-1.15,0.74-1.56,1.75-1.48c1.17,0.1,1.83,0.74,1.89,1.86
			C342.85,305.26,342.88,306.05,342.92,307.16z"/>
		<path d="M234.85,306.3c-0.22,1.84-0.25,3.5-0.68,5.04c-0.25,0.88-1.04,1.76-1.82,2.3c-1.07,0.74-2.32,1.26-3.56,1.7
			c-1.93,0.68-3.84,0.63-5.27-0.55c-1.68,0.31-3.08,0.58-4.49,0.82c-0.85,0.14-1.6,0.04-2.14-0.79c-0.43-0.66-1.01-0.74-1.8-0.41
			c-0.67,0.28-1.48,0.23-2.22,0.3c-1.51,0.14-2.38-0.52-2.53-2.03c-0.1-1-0.11-1.99,0.53-2.9c0.39-0.56,0.61-1.24,0.89-1.87
			c0.89-1.96,2.56-2.9,4.53-3.34c1.64-0.37,2.64,0.47,2.74,2.18c0.07,1.13,0.02,2.27,0.08,3.4c0.05,0.85-0.1,1.87,1.12,2.07
			c0.98,0.16,2.29-0.78,2.56-1.82c0.13-0.48,0.1-1,0.24-1.48c0.37-1.29,1.71-1.83,2.81-1.09c0.29,0.2,0.48,0.72,0.49,1.1
			c0.02,0.49-0.21,0.98-0.29,1.47c-0.22,1.32,0.11,1.67,1.49,1.73c1.28,0.06,2.18-0.52,2.8-1.57c0.48-0.81,0.83-1.7,1.32-2.5
			C232.32,306.99,233.11,306.04,234.85,306.3z M214.35,310.35c0.12,0.09,0.23,0.17,0.35,0.26c0.12-0.26,0.23-0.53,0.35-0.79
			c-0.08-0.04-0.17-0.08-0.25-0.13C214.65,309.91,214.5,310.13,214.35,310.35z"/>
		<path d="M187.8,215.05c0.71-0.65,1.41-0.7,2.18-0.46c2.67,0.82,4.76,2.47,6.49,4.61c0.74,0.91,1.13,1.97,0.87,3.16
			c-0.51,2.31-0.8,4.73-1.68,6.9c-0.95,2.33-3.08,3.73-5.6,3.88c-2.98,0.18-4.35-1.12-5.26-4.77c-0.46-1.83-0.19-3.71,0.27-5.59
			c0.46-1.87,0.89-3.63,2.45-4.94c0.3-0.25,0.32-0.91,0.36-1.39C187.92,215.98,187.83,215.48,187.8,215.05z M191.09,218.56
			c-2.09,1.74-2.78,3.96-2.92,6.39c-0.06,0.98,0.03,2.02,0.3,2.96c0.44,1.56,1.92,2.02,3.26,1.13c1.62-1.08,2.3-2.7,2.11-4.54
			C193.6,222.27,192.41,220.42,191.09,218.56z"/>
		<path d="M244.16,306.23c0,0.25,0,0.5,0,0.75c-0.02,2.88,0.99,4.07,3.8,4.61c0.48,0.09,1.17,0.51,1.25,0.88
			c0.12,0.6-0.09,1.33-0.35,1.92c-0.09,0.2-0.85,0.35-1.13,0.2c-2.78-1.44-5.11-1.08-6.98,1.54c-0.21,0.29-0.58,0.47-0.9,0.67
			c-1.55,0.99-2.87,0.66-3.74-0.98c-0.97-1.83-1.12-3.72-0.14-5.59c0.89-1.72,1.88-3.39,2.73-5.13c0.25-0.51,0.21-1.18,0.24-1.79
			c0.09-1.75,0.07-3.51,0.25-5.25c0.05-0.53,0.48-1.24,0.94-1.47c0.67-0.33,1.28,0.2,1.76,0.75c1.05,1.21,1.79,2.53,1.87,4.21
			c0.07,1.56,0.33,3.11,0.51,4.67C244.23,306.23,244.19,306.23,244.16,306.23z M238.67,313.02c2.74-1.03,3.1-2.14,1.34-3.92
			C239.48,310.35,238.3,311.3,238.67,313.02z"/>
		<path d="M439.42,44.35c0.81-4.3,1.27-8.64,2.87-12.79c1.44-3.73,2.42-7.64,3.64-11.45c0.4-1.25,0.91-2.47,1.45-3.67
			c0.17-0.38,0.51-0.76,0.87-0.96c0.45-0.25,1.17-0.59,1.46-0.41c0.51,0.32,0.95,0.97,1.12,1.57c0.14,0.48-0.13,1.1-0.29,1.64
			c-1.07,3.59-2.12,7.19-3.26,10.77c-0.47,1.49-1.14,2.92-1.69,4.39c-0.24,0.64-0.5,1.3-0.59,1.97c-0.47,3.21-0.89,6.43-1.34,9.65
			c-0.08,0.56-0.16,1.13-0.34,1.65c-0.44,1.26-1.27,1.77-2.43,1.61c-0.9-0.13-1.5-0.99-1.54-2.28
			C439.32,45.48,439.39,44.92,439.42,44.35z"/>
		<path d="M220.69,214.93c-0.76,0.47-1.42,0.8-1.98,1.24c-0.59,0.46-1.06,1.06-1.62,1.57c-0.76,0.69-1.65,0.73-2.17,0.14
			c-0.6-0.68-0.66-2.11-0.02-2.6c1.56-1.2,3.12-2.42,4.76-3.51c2.01-1.33,4.2-0.45,4.78,1.37c0.94,2.96,0.83,5.94-0.31,8.84
			c-0.59,1.5-1.32,2.94-2.06,4.58c1.23,0.22,2.28,0.34,3.28,0.62c0.89,0.25,1.77,0.61,2.56,1.08c0.73,0.43,0.83,1.16,0.51,1.99
			c-0.32,0.83-0.87,0.86-1.65,0.83c-2.75-0.14-5.5-0.19-8.25-0.26c-1.04-0.03-1.88-0.78-2.01-1.85c-0.16-1.32,0.56-2.24,1.35-3.18
			c1.67-2,2.84-4.28,3.37-6.86C221.46,217.69,221.48,216.44,220.69,214.93z"/>
		<path d="M66.58,158.63c0-1.19-0.05-2.31,0.01-3.42c0.09-1.47,0.46-1.85,1.59-1.81c1.14,0.04,1.6,0.51,1.7,1.81
			c0.05,0.63,0.02,1.26,0.06,1.89c0.13,2.03,0.51,2.4,2.49,2.54c0.63,0.04,1.25,0.12,1.88,0.17c1.95,0.16,3.24,1.25,4.11,2.92
			c0.6,1.14-0.15,3.24-1.33,3.66c-0.29,0.1-0.75-0.04-1.02-0.23c-1.03-0.71-1.74-1.61-1.19-3.06c-1.4-0.49-2.66-0.17-4.21-0.16
			c0.28,0.81,0.45,1.39,0.68,1.93c0.41,0.97,0.13,1.83-0.81,2.34c-0.83,0.45-1.53,0.29-2.04-0.67c-0.4-0.77-0.65-1.63-0.86-2.47
			c-0.37-1.44-0.63-1.69-2.16-1.79c-0.75-0.05-1.51-0.07-2.26-0.11c-1-0.06-1.65-0.68-1.71-1.6c-0.05-0.91,0.33-1.37,1.51-1.55
			C64.11,158.83,65.23,158.77,66.58,158.63z"/>
		<path d="M23.72,191.82c2.55-1.1,4.77-0.49,6.65,0.77c2.04,1.36,3.23,3.48,3.54,5.99c0.4,3.2-3.94,7.27-7.01,7.05
			c-1.98-0.14-3.66-1.34-4.34-3.9c-0.69-2.57-0.31-5.1,1.46-7.25c0.46-0.55,0.66-1.04,0.14-1.66
			C23.98,192.6,23.92,192.29,23.72,191.82z M30.88,199.26c-0.17-1.44-1.05-2.94-2.31-4.21c-0.58-0.59-1.25-0.5-1.84,0.07
			c-1.01,0.99-1.58,4.31-0.98,5.68c0.56,1.27,1.59,1.76,3.06,1.44C29.87,202.01,30.89,200.74,30.88,199.26z"/>
		<path d="M370.16,312.88c0.74-0.83,1.52-1.48,2.81-1.52c2.13-0.07,2.12-0.15,2.32-2.26c0.12-1.26,0.21-2.52,1.48-3.28
			c1.1-0.66,1.75-0.51,2.17,0.72c0.24,0.7,0.29,1.48,0.36,2.22c0.16,1.78,1.48,2.52,3.14,1.69c0.27-0.13,0.49-0.35,0.73-0.53
			c0.98,0.44,1.46,1.12,1.29,2.11c-0.16,0.97-1.01,1.6-2.11,1.77c-0.8,0.13-1.58,0.34-2.48,0.54c-0.35,2.18,0.77,4.47-0.63,6.46
			c-1,0.04-1,0.04-3.11-0.99c0-1.62,0-3.34,0-5.31c-1.01,0.18-1.78,0.34-2.55,0.46C371.21,315.33,371.21,315.32,370.16,312.88z"/>
		<path d="M39.71,194.86c2.86-0.2,5.52-0.39,8.18-0.55c0.22-0.01,0.45,0.22,0.61,0.31c-0.9,2.11-2.62,2.32-4.27,2.66
			c-1.1,0.23-2.21,0.45-3.29,0.77c-1.07,0.31-1.26,0.73-0.91,1.83c0.23,0.72,0.44,1.46,0.81,2.1c0.37,0.64,0.2,1.11-0.28,1.48
			c-0.59,0.45-1.14,0.08-1.45-0.39c-0.69-1.05-1.33-2.14-1.88-3.26c-0.39-0.78-0.61-1.65-0.88-2.49c-0.11-0.35-0.24-0.77-0.15-1.09
			c0.53-1.87,0.24-3.73,0.06-5.6c-0.14-1.52-0.07-2.99,0.6-4.43c1-2.15,2.85-2.94,5-3.12c0.51-0.04,1.07,0.64,1.91,1.18
			c-0.89,0.65-1.42,1.21-2.06,1.47c-1.11,0.43-1.88,1.26-2.1,2.27C39.12,190.25,38.76,192.56,39.71,194.86z"/>
		<path d="M369.96,316.08c0.1,1.46-0.89,2.28-1.73,3.07c-2.44,2.3-5.7,1.85-7.69-0.3c-1.04-1.12-1.05-2.65-0.79-4.1
			c0.13-0.73,0.45-1.43,0.63-2.16c0.14-0.59,0.28-1.19,0.29-1.79c0.02-1.01,0.48-1.78,1.43-2.17c1.09-0.45,3.03-0.08,3.79,0.87
			c1.21,1.5,2.37,3.06,3.45,4.65C369.7,314.7,369.76,315.44,369.96,316.08z M365.76,316.44c0.15-1.57-0.05-2.86-1.58-3.81
			c-0.25,0.67-0.46,1.17-0.62,1.69C362.98,316.21,363.52,316.78,365.76,316.44z"/>
		<path d="M249.31,211.44c-0.08,2.29-1.33,4.06-2.33,5.91c-2.08,3.83-3.59,7.87-4.53,12.12c-0.08,0.37-0.22,0.76-0.17,1.11
			c0.24,1.71-0.76,2.82-1.73,3.96c-1.82-0.7-2.44-1.61-1.99-3.24c0.91-3.32,1.83-6.64,2.89-9.91c1.04-3.2,3.01-5.92,4.88-8.68
			c0.31-0.46,0.75-0.85,1.16-1.23C248.07,210.93,248.69,210.93,249.31,211.44z"/>
		<path d="M93.69,158.07c1.31-0.95,2.02-0.29,2.61,0.75c0.33-0.36,0.54-0.57,0.74-0.8c1.64-1.9,3.49-2.23,5.64-0.9
			c2.74,1.69,4.93,3.85,5.87,7.07c0.21,0.74,0.45,1.34-0.4,1.74c-0.89,0.42-1.38-0.15-1.87-0.78c-0.87-1.14-1.76-2.26-2.69-3.36
			c-0.32-0.38-0.73-0.69-1.15-0.95c-1.82-1.13-2.46-0.97-3.75,0.75c-0.67,0.9-1.38,1.79-2.21,2.54c-1.36,1.22-2.39,0.81-2.7-1
			c-0.1-0.55-0.09-1.12-0.09-1.69C93.68,160.33,93.69,159.2,93.69,158.07z"/>
		<path d="M82.34,161.38c-0.21-2.18,1.26-3.32,2.52-4.52c0.66-0.64,1.39-0.42,1.49,0.5c0.11,0.99,0.66,1.29,1.41,1.74
			c1.22,0.73,2.34,1.68,3.32,2.7c0.36,0.38,0.45,1.35,0.25,1.89c-0.5,1.34-1.43,2.32-2.98,2.6c-1.97,0.36-3.87,0.36-5-1.58
			C82.78,163.73,82.66,162.5,82.34,161.38z M86.76,162.25c-0.16,0.09-0.26,0.15-0.36,0.21c0.1,0.13,0.19,0.28,0.32,0.37
			c0.04,0.03,0.19-0.1,0.29-0.16C86.93,162.52,86.84,162.39,86.76,162.25z"/>
		<path d="M437.46,27.39c-0.5,1.47-0.93,2.96-1.52,4.39c-0.19,0.46-0.76,0.83-1.24,1.09c-1.43,0.78-3.96,0.64-4.83-0.19
			c-1.14-1.08-1.43-3.42-0.5-5.1c0.27-0.48,0.9-1,1.42-1.05c0.91-0.1,1.36-0.63,1.71-1.29c0.61-1.13,1.47-1.7,2.76-1.41
			c1.02,0.23,1.89,1.58,1.94,2.91c0.01,0.19,0,0.38,0,0.56C437.28,27.33,437.37,27.36,437.46,27.39z"/>
		<path d="M454.2,40.36c-1.66-0.08-2.3-0.53-2.06-2.11c0.32-2.05,0.54-4.19,2.13-5.79c1.04-1.05,2.1-0.93,2.82,0.39
			c0.29,0.53,0.41,1.17,0.57,1.77c0.08,0.3,0.01,0.65,0.13,0.92c0.43,0.92,0.99,1.81,0.2,2.79
			C457.03,39.55,455.92,40.45,454.2,40.36z"/>
		<path d="M245.52,227.76c0.06-0.19,0.17-0.74,0.4-1.23c0.39-0.84,0.97-1.55,0.99-2.59c0.01-0.43,0.69-0.97,1.18-1.24
			c0.65-0.35,1.14,0.03,1.52,0.66c0.32,0.53,0.78,0.98,1.21,1.43c1.84,1.9,1.53,4.07-0.86,5.19c-0.71,0.33-1.58,0.47-2.37,0.45
			C246.05,230.37,245.52,229.7,245.52,227.76z"/>
		<path d="M234.45,213.83c1.92,0.12,2.73,1.1,2.11,2.49c-0.66,1.46-1.46,2.91-2.78,3.93c-0.29,0.23-0.64,0.41-0.98,0.56
			c-1.02,0.44-2.17,0.35-2.64-0.18c-0.61-0.69-0.92-2.74-0.3-3.37c1.13-1.16,2.4-2.19,3.66-3.21
			C233.83,213.81,234.35,213.85,234.45,213.83z"/>
		<path d="M398.93,41.1c1.73,0.84,2.66,2.03,2.24,3.94c-0.09,0.41-0.28,0.84-0.55,1.15c-1.03,1.17-2,1.09-2.92-0.17
			c-0.97-1.33-0.89-2.57,0.27-3.86C398.28,41.81,398.61,41.45,398.93,41.1z"/>
		<path d="M205.93,225.8c0.3,1.35,0.59,2.33,0.7,3.34c0.07,0.65-1.11,1.64-1.94,1.84c-0.7,0.16-1.23-0.07-1.58-0.7
			c-0.43-0.76-0.36-1.81,0.3-2.43C204.1,227.18,204.89,226.62,205.93,225.8z"/>
		<path d="M71.81,152.05c1.04-0.01,2.07-0.55,2.66,0.77c0.57,1.28,0.39,2.08-0.89,3.24C71.79,155.36,71.54,153.94,71.81,152.05z"/>
		<path class="st0" d="M422.7,58.66c-1.9,2.4-3.55,4.5-5.22,6.59c-2.79,3.47-5.49,7-8.06,10.65c-2.76,3.92-4.9,8.2-7.62,12.13
			c-0.49,0.72-0.8,1.56-1.2,2.34c-1.53,2.95-3.08,5.88-4.58,8.85c-0.94,1.85-1.72,3.78-2.72,5.59c-1.39,2.52-2.92,4.97-4.4,7.44
			c-0.22,0.38-0.54,0.69-0.76,1.07c-2.78,4.71-5.63,9.38-8.28,14.16c-2.63,4.74-5.65,9.2-8.79,13.61c-1.74,2.45-3.2,5.1-4.99,7.51
			c-2.29,3.06-4.71,6.03-7.22,8.92c-1.08,1.24-1.35,2.5-0.98,3.98c0.25,1.01,0.88,1.39,1.82,1.13c1.51-0.42,2.96-1.15,3.35-2.75
			c0.84-3.49,3.56-5.72,5.42-8.51c1.22-1.82,2.5-3.61,3.72-5.43c0.84-1.25,1.54-2.6,2.45-3.79c3.13-4.16,5.72-8.66,8.41-13.1
			c1.86-3.06,3.87-6.02,5.62-9.14c2.82-5.04,6.05-9.85,8.27-15.22c0.81-1.96,1.99-3.76,2.99-5.64c3.21-6.06,6.39-12.13,9.62-18.18
			c0.43-0.81,1.12-1.49,1.67-2.24c0.48-0.66,0.9-1.35,1.4-1.99c3.69-4.77,7.2-9.69,11.49-13.98c0.88-0.88,1.6-1.94,2.28-2.99
			c0.6-0.93,1.31-1.38,2.46-1.4c2.45-0.03,4.89-0.18,7.34-0.34c0.9-0.06,1.5,0.29,1.74,1.09c0.29,0.96,0.53,1.94,0.65,2.93
			c0.3,2.43,0.48,4.88,0.8,7.31c0.18,1.35-0.23,2.32-1.06,3.42c-2.53,3.35-4.9,6.82-7.27,10.29c-1.63,2.39-3.22,4.81-4.67,7.31
			c-2.05,3.53-3.92,7.17-5.94,10.72c-1.43,2.51-3,4.94-4.51,7.4c-0.75,1.23-1.45,2.5-2.29,3.66c-2.5,3.45-4.38,7.32-7.25,10.53
			c-2.09,2.33-3.96,4.86-5.95,7.27c-1.28,1.55-2.67,3.01-3.9,4.59c-1.35,1.73-2.66,3.51-3.85,5.36c-2.16,3.34-4.78,6.3-7.46,9.21
			c-1.96,2.12-3.87,4.27-5.53,6.66c-2.31,3.35-4.87,6.52-7.25,9.82c-2.25,3.11-4.4,6.28-6.6,9.41c-0.58,0.82-1.22,1.6-1.79,2.42
			c-0.84,1.2-1.99,1.85-3.68,2.12c-0.2-0.64-0.56-1.31-0.62-2c-0.23-3.22-1.19-6.28-1.87-9.41c-1.4-6.51-3.03-12.98-3.36-19.69
			c-0.19-4.02-0.67-8.02-0.39-12.06c0.05-0.74-0.07-1.51-0.21-2.25c-0.94-4.94-1.87-9.88-2.88-14.8c-1.27-6.21-2.62-12.4-3.92-18.6
			c-0.12-0.55-0.21-1.12-0.2-1.68c0.1-4-0.69-7.87-1.55-11.75c-0.37-1.66-0.26-3.28,0.61-4.92c2.39-4.5,4.5-9.15,6.9-13.64
			c1.92-3.6,4.22-6.99,6.71-10.24c0.55-0.72,1.23-0.82,1.99-0.82c3.4-0.02,6.8-0.05,10.19,0c1.86,0.03,3.71,0.2,5.95,0.33
			c-0.57,0.81-0.91,1.38-1.34,1.88c-1.31,1.55-2.31,3.27-3.2,5.09c-1.32,2.71-2.87,5.3-4.25,7.98c-0.84,1.62-1.53,3.3-2.32,4.95
			c-0.57,1.19-1.2,2.35-1.77,3.54c-1.94,4.09-3.66,8.26-5.18,12.53c-1.39,3.9-3.15,7.67-4.87,11.44c-0.97,2.11-2.2,4.1-3.28,6.17
			c-0.84,1.59-0.76,2.42,0.33,3.89c1.73-0.81,3.41-1.39,4.24-3.62c1.97-5.31,4.35-10.46,6.45-15.72c1.48-3.73,2.66-7.58,4.17-11.29
			c1.38-3.37,2.95-6.67,4.59-9.92c1.93-3.82,3.93-7.6,6.08-11.3c1.1-1.88,2.53-3.59,3.93-5.27c0.3-0.36,1.15-0.44,1.73-0.39
			c2.38,0.21,4.76,0.42,7.11,0.83c3.42,0.6,6.83,0.84,10.29,0.54c0.42-0.04,0.84,0,1.66,0c-1.07,1.49-1.94,2.77-2.87,3.99
			c-0.95,1.25-2.07,2.37-2.92,3.68c-2.52,3.91-5.06,7.81-7.36,11.84c-1.74,3.05-3.16,6.3-4.68,9.47c-0.95,1.99-1.87,3.99-2.73,6.02
			c-0.56,1.33-0.91,2.74-1.46,4.07c-1.98,4.83-3.83,9.72-6.08,14.42c-1.57,3.27-3.76,6.25-5.61,9.39c-1.77,3-3.99,5.62-6.39,8.13
			c-1.08,1.12-1.82,2.56-2.77,3.81c-0.99,1.3-2.1,2.51-3.06,3.83c-0.49,0.69-0.93,1.51-1.08,2.32c-0.24,1.31,0.81,2.05,2.12,1.81
			c2.58-0.47,3.64-2.51,4.69-4.49c1.44-2.73,3.03-5.32,5.12-7.64c1.71-1.9,3.21-4.02,4.64-6.15c2.02-3.02,3.92-6.11,5.8-9.22
			c0.64-1.06,1.13-2.23,1.59-3.4c1.58-4.04,3.25-8.06,4.61-12.17c1.57-4.73,3.71-9.22,5.76-13.74c2.29-5.04,5.03-9.86,8.23-14.39
			c1.15-1.63,2.45-3.18,3.77-4.68c1.66-1.89,3.44-3.7,4.43-6.06c0.47-1.11,1.34-1,2.2-1.01c2.83-0.02,5.66,0.04,8.49-0.02
			C418.42,59.01,420.36,58.81,422.7,58.66z"/>
		<path class="st0" d="M442.64,111.43c0.2,0.74,0.33,1.04,0.35,1.34c0.37,4.51,0.78,9.03,1.08,13.55c0.22,3.33,0.28,6.67,0.43,10
			c0.07,1.55-0.3,2.85-1.2,4.21c-3.21,4.84-7.11,9.12-10.66,13.68c-3.47,4.45-6.75,9.03-9.86,13.75c-1.43,2.17-3.48,3.96-5.38,5.79
			c-1.86,1.79-3.56,3.67-5.04,5.8c-1.1,1.58-2.54,2.96-3.99,4.26c-3.14,2.81-6.14,5.75-8.81,9.03c-1.07,1.32-2.31,2.49-3.49,3.72
			c-2.64,2.75-5.27,5.51-7.94,8.23c-1.84,1.88-3.74,3.69-5.61,5.54c-2.68,2.65-5.38,5.28-8.02,7.96c-1.45,1.47-2.78,3.05-4.18,4.58
			c-1.22,1.34-2.45,2.67-3.68,4.01c-0.04,0.05-0.09,0.08-0.14,0.13c-2.13,2.06-2.16,2.99-0.17,5.4c1.8-0.66,3.1-1.76,4.24-3.42
			c2.19-3.17,4.66-6.16,7.43-8.87c2.66-2.59,5.3-5.2,7.88-7.88c5.84-6.06,11.64-12.16,17.46-18.24c2.17-2.27,4.34-4.55,6.54-6.8
			c2.1-2.15,4.52-4.06,6.29-6.46c2.42-3.26,5.51-5.86,8.07-8.96c0.84-1.02,1.62-2.08,2.38-3.16c1.22-1.74,2.39-3.51,3.59-5.27
			c0.35-0.52,0.72-1.02,1.1-1.51c0.73-0.94,1.49-1.87,2.23-2.81c1.98-2.51,3.94-5.04,5.93-7.55c1.25-1.57,2.51-3.13,3.78-4.68
			c0.42-0.52,0.91-0.99,1.57-1.7c0.15,0.65,0.28,0.97,0.3,1.31c0.26,3.95,0.44,7.91,0.77,11.86c0.19,2.31,0.58,4.6,0.94,6.89
			c0.16,1.01-0.07,1.78-0.77,2.56c-3.72,4.18-7.38,8.42-11.07,12.62c-3.16,3.59-6.36,7.14-9.51,10.74
			c-1.24,1.41-2.31,2.97-3.59,4.35c-3.89,4.18-7.8,8.34-11.78,12.43c-1.49,1.53-3.2,2.83-4.77,4.28c-1.8,1.66-3.55,3.37-5.32,5.06
			c-0.86,0.82-1.65,1.74-2.59,2.46c-3.36,2.57-6.41,5.46-9.31,8.54c-0.94,1-2.06,1.82-3.09,2.74c-0.66,0.59-1.3,1.19-1.92,1.81
			c-3.43,3.42-6.85,6.85-10.26,10.29c-0.58,0.58-1.04,1.27-1.64,1.82c-1.2,1.08-2.16,2.38-3.64,3.23c-1.39,0.8-2.53,2.05-3.71,3.04
			c-0.01-0.66-0.07-1.74-0.03-2.82c0.15-3.96,0.33-7.92,0.49-11.88c0.03-0.63,0.01-1.26,0-1.88c-0.03-2.2,0.09-4.41-0.12-6.59
			c-0.32-3.42-0.32-6.87-0.98-10.27c-0.48-2.45-0.5-4.98-0.64-7.49c-0.03-0.5,0.25-1.08,0.55-1.51c0.91-1.28,1.92-2.48,2.87-3.73
			c1.54-2.06,2.88-4.31,4.64-6.17c2.87-3.04,5.01-6.59,7.59-9.81c2.31-2.89,4.75-5.7,6.75-8.79c2.76-4.26,6.58-7.6,9.59-11.63
			c2.06-2.76,4.18-5.49,6.38-8.14c1.08-1.3,2.46-2.35,3.58-3.62c2.7-3.06,5.32-6.21,8-9.29c4.08-4.69,8.23-9.31,12.26-14.04
			c1.67-1.95,3.08-4.12,4.64-6.17c2.94-3.85,5.86-7.72,8.89-11.49C439.53,114.3,441.03,113.05,442.64,111.43z"/>
		<path class="st0" d="M362.16,202.8c0-1.1,0.11-2.22-0.02-3.31c-0.42-3.61-0.52-7.27-1.51-10.82c-0.53-1.91,0.36-3.19,2.19-4.09
			c0.63-0.31,1.17-0.91,1.62-1.48c2.02-2.56,3.86-5.29,6.02-7.72c2.75-3.09,4.5-6.79,6.79-10.16c0.85-1.24,1.78-2.43,2.65-3.65
			c0.25-0.35,0.44-0.76,0.69-1.12c0.98-1.38,1.96-2.76,2.96-4.12c0.67-0.91,1.35-1.82,2.08-2.68c1.02-1.2,2.06-2.38,3.14-3.52
			c2.71-2.89,5.16-5.98,7.39-9.26c1.9-2.79,4.08-5.39,6.21-8.01c2.18-2.68,4.56-5.21,6.66-7.94c2.67-3.47,5.41-6.93,7.66-10.66
			c3.27-5.42,6.81-10.69,9.52-16.45c1.55-3.29,3.27-6.51,5.6-9.37c0.74-0.9,1.02-2.17,1.72-3.11c1.58-2.11,3.27-4.13,4.96-6.16
			c0.28-0.33,0.79-0.47,1.48-0.86c0.13,0.98,0.24,1.64,0.29,2.29c0.28,3.95,0.5,7.91,0.84,11.85c0.36,4.13,0.84,8.26,1.26,12.38
			c0.12,1.19-0.26,2.17-1.1,3.06c-3.35,3.57-6.88,6.98-9.74,10.99c-1.97,2.76-4.24,5.3-6.19,8.07c-3.09,4.37-6.6,8.38-10.19,12.33
			c-2.74,3.02-5.23,6.27-7.92,9.34c-2.65,3.01-5.43,5.91-8.11,8.89c-2.01,2.23-3.98,4.47-5.77,6.91c-2.63,3.58-5.76,6.8-8.65,10.2
			c-0.93,1.09-1.8,2.24-2.66,3.38c-1.37,1.8-2.7,3.63-4.07,5.43c-3.57,4.7-7.12,9.42-10.72,14.09c-1.45,1.87-3.02,3.65-4.54,5.47
			C362.51,202.94,362.34,202.87,362.16,202.8z"/>
		<path class="st0" d="M363.57,261.18c0-2.16,0-4.15,0-6.26c0.31,0.18,0.58,0.4,0.89,0.52c1.01,0.37,1.9,0.35,2.71-0.57
			c1.78-2.03,3.63-4.01,5.45-6c1.1-1.21,2.18-2.44,3.32-3.6c2.11-2.16,4.23-4.31,6.41-6.41c4.94-4.74,9.91-9.46,14.88-14.16
			c3-2.84,6.02-5.65,9.05-8.46c2.26-2.09,4.63-4.07,6.79-6.26c2.82-2.86,5.48-5.89,8.23-8.83c1.11-1.19,2.31-2.31,3.39-3.53
			c1.58-1.79,3.07-3.65,4.61-5.47c2.77-3.25,5.5-6.54,8.35-9.72c2.98-3.32,6.07-6.53,9.13-9.77c0.24-0.26,0.58-0.42,1.15-0.83
			c0.21,0.81,0.44,1.41,0.53,2.03c0.16,1.18,0.25,2.37,0.37,3.56c0.22,2.12,0.43,4.25,0.68,6.37c0.19,1.62,0.4,3.24,0.68,4.85
			c0.21,1.23,0.02,2.2-0.76,3.31c-1.72,2.46-3.98,4.36-6.04,6.48c-3.63,3.75-7.3,7.47-10.89,11.26c-1.51,1.6-2.82,3.38-4.3,5.01
			c-0.75,0.83-1.72,1.46-2.48,2.29c-0.74,0.81-1.27,1.81-1.98,2.64c-2.36,2.77-4.69,5.58-7.17,8.24c-2.65,2.85-5.51,5.51-8.19,8.33
			c-0.9,0.94-1.43,2.23-2.32,3.19c-1.66,1.8-3.36,3.58-5.23,5.16c-2.7,2.27-5.31,4.59-7.59,7.31c-2.17,2.59-4.72,4.86-7.06,7.31
			c-0.42,0.44-0.73,1.01-1.02,1.56c-0.33,0.63-0.77,0.87-1.5,0.87c-5.85-0.04-11.71-0.03-17.56-0.07
			C365.31,261.5,364.52,261.31,363.57,261.18z"/>
		<path class="st0" d="M451.22,197.55c0.76,5.56,1.51,11,2.22,16.17c-0.99,1.11-1.8,2.03-2.63,2.93c-0.29,0.32-0.65,0.57-0.98,0.86
			c-2.76,2.37-5.77,4.46-7.9,7.5c-0.6,0.86-1.48,1.53-2.23,2.29c-3.22,3.26-6.45,6.51-9.67,9.77c-3.36,3.4-6.63,6.89-10.1,10.17
			c-2.59,2.45-5.43,4.65-8.15,6.96c-0.81,0.69-1.67,1.35-2.39,2.13c-1.15,1.23-0.93,2.53,0.47,3.47c0.5,0.34,1.02,0.66,1.91,1.23
			c-2.54,0.77-4.73,0.84-6.93,0.84c-2.26-0.01-4.53,0.04-6.79-0.03c-2.22-0.07-4.47,0.33-6.92-0.12c0.96-2.15,2.21-3.79,3.57-5.31
			c2-2.25,4.09-4.41,6.2-6.56c1.05-1.07,2.2-2.05,3.32-3.04c2.46-2.17,4.74-4.5,6.59-7.22c0.6-0.88,1.27-1.73,2-2.5
			c3.72-3.93,7.48-7.81,11.19-11.74c1.97-2.09,3.93-4.21,5.78-6.41c1.23-1.48,2.24-3.14,3.39-4.69c0.44-0.59,0.97-1.12,1.49-1.65
			c3.85-3.97,7.68-7.97,11.6-11.87c1.14-1.14,2.57-2,3.9-2.95C450.35,197.62,450.71,197.65,451.22,197.55z"/>
		<path class="st0" d="M454.75,218.5c0.46,2.61,0.9,4.75,1.21,6.91c0.28,1.92,0.44,3.86,0.6,5.8c0.22,2.69,0.37,5.39,0.58,8.09
			c0.27,3.32,0.45,6.65,0.9,9.94c0.41,2.95,1.14,5.86,1.7,8.8c0.17,0.91,0.25,1.84,0.4,3.05c-0.86,0-1.52,0.05-2.18-0.01
			c-7.54-0.66-15.07-0.29-22.6,0.26c-3.63,0.27-7.29,0.18-10.93,0.15c-2.13-0.02-4.27-0.17-6.39-0.39
			c-1.86-0.19-3.69-0.57-5.55-0.87c1.54-2.34,3.76-4.08,5.75-6.06c3.39-3.36,6.73-6.78,10.12-10.14c2.86-2.83,5.78-5.61,8.67-8.41
			c0.95-0.92,1.97-1.77,2.86-2.74c2.43-2.63,4.75-5.36,7.21-7.96C449.31,222.62,451.93,220.77,454.75,218.5z M454.83,237.88
			c-0.82,0.2-1.46,0.18-1.87,0.48c-1.47,1.07-2.98,2.13-4.26,3.41c-3.29,3.28-6.46,6.69-9.68,10.04c-1.05,1.09-2.17,2.1-3.15,3.25
			c-0.78,0.91-0.78,1.97-0.24,2.6c0.58,0.67,2.16,1.1,2.95,0.74c1.57-0.72,2.87-1.8,3.87-3.21c0.98-1.38,1.83-2.85,2.9-4.15
			c0.83-1,1.89-1.82,2.88-2.68c0.95-0.82,2-1.53,2.89-2.41c1.33-1.33,2.55-2.77,3.82-4.17c0.34-0.37,0.65-0.76,1-1.13
			c0.53-0.55,0.86-1.25,0.4-1.86C455.98,238.33,455.26,238.13,454.83,237.88z"/>
		<path class="st0" d="M248.11,249.99c-0.69-0.44-1.37-0.86-2.11-1.33c-1.75,1.76-2.57,3.93-3.62,5.98c-1.05,2.06-2.31,4-3.61,6.21
			c-1.21,0-2.59,0-3.97,0c-1.37,0-2.75,0-4.31,0c-0.25-0.46,0.39-1.51-0.64-1.89c0.18-0.72,0.25-1.49,0.57-2.14
			c1.33-2.78,2.8-5.49,4.82-7.85c0.08-0.09,0.09-0.23,0.13-0.35c-1.08-1.91-2.18-1.99-3.48-0.36c-2.17,2.72-3.92,5.67-5.31,8.85
			c-0.53,1.21-1.21,2.34-1.85,3.58c-2.41,0.08-4.76,0.31-7.22-0.14c0.11-0.75,0.21-1.34,0.31-2.04c-0.5-0.02-0.91-0.04-1.48-0.07
			c0.15-0.43,0.16-0.95,0.43-1.17c1.27-1.05,1.78-2.57,2.56-3.92c0.35-0.6,0.75-1.19,0.95-1.84c0.25-0.82,0.42-1.7,0.45-2.55
			c0.02-0.68-0.44-1.16-1.18-1.23c-0.69-0.07-1.3,0.07-1.52,0.81c-1.18,4-4.26,6.92-5.95,10.63c-0.48,1.06-1.27,1.49-2.41,1.38
			c-1.16-0.12-2.38,0.43-3.67-0.43c0.07-0.65,0.09-1.39,0.25-2.1c0.56-2.47,1.51-4.79,2.77-6.98c0.22-0.38,0.43-0.77,0.59-1.18
			c0.24-0.62,0.7-1.29-0.1-1.86c-0.73-0.53-2.08-0.53-2.63,0.08c-0.54,0.59-1.07,1.25-1.38,1.97c-1.3,3.07-2.52,6.17-3.77,9.26
			c-0.14,0.34-0.29,0.68-0.47,1.08c-1.9,0-3.77,0-5.83,0c0.95-2.95,1.54-5.89,2.99-8.55c0.6-1.1,1.11-2.25,1.72-3.35
			c0.61-1.1,1.43-1.67,2.87-1.66c3.82,0.04,7.66-0.35,11.47-0.23c3.22,0.1,6.35-0.8,9.52-0.63c2.86,0.16,5.62-0.44,8.43-0.58
			c2.69-0.14,5.39,0.16,8.09,0.13c3.4-0.04,6.69,0.83,10.07,1.01c2.2,0.12,2.4,0.44,2.66,2.64c0.33,2.8,0.5,5.63,0.79,8.44
			c0.14,1.36-1.03,2.09-1.52,3.14c-0.18,0.39-1.34,0.48-2.05,0.45c-2.43-0.09-4.86-0.28-7.44-0.44
			C244.64,257.26,247.47,254.28,248.11,249.99z"/>
		<path class="st0" d="M175.77,261.32c-0.94-4.15-1.83-8.05-2.7-11.95c-0.16-0.72-0.23-1.45-0.39-2.45
			c3.56,0.1,6.88-1.18,10.56-0.56c-0.86,1.64-1.61,3.05-2.34,4.47c-1.2,2.34-2.39,4.68-3.56,7.03c-0.44,0.88-0.02,2.33,0.74,2.69
			c0.72,0.34,2.1-0.26,2.5-1.12c0.5-1.08,1.04-2.16,1.43-3.28c1.12-3.24,3.11-5.98,5-8.78c0.24-0.35,0.82-0.67,1.24-0.67
			c2.88,0.02,5.77,0.13,8.97,0.23c-2.44,4.39-4.99,8.56-6.25,13.59C185.98,260.79,180.94,261.06,175.77,261.32z"/>
		<path class="st0" d="M356.18,57.71c-0.29,0.75-0.36,1.28-0.64,1.63c-4.71,5.8-7.58,12.71-11.3,19.11
			c-0.16-0.02-0.32-0.04-0.48-0.06c-0.33-1.23-0.82-2.44-0.98-3.69c-0.48-3.73-0.83-7.49-1.24-11.23c-0.13-1.18-0.27-2.36-0.45-3.53
			c-0.15-1.01,0.32-1.56,1.23-1.8c0.54-0.14,1.11-0.22,1.66-0.25c3.14-0.12,6.28-0.23,9.42-0.31
			C354.24,57.57,355.09,57.66,356.18,57.71z"/>
		<path class="st0" d="M71.87,195.48c0.13,1.09,0.19,2.01,0.37,2.92c0.15,0.78,0.33,1.58,0.65,2.3c0.56,1.25,0.1,2.32-1.31,2.62
			c-0.61,0.13-1.28,0.2-1.87,0.07c-0.48-0.1-1.07-0.46-1.28-0.87c-0.63-1.27-0.78-2.63-0.07-3.97
			C69.12,197.15,70.32,196.03,71.87,195.48z"/>
		<path class="st0" d="M89.16,201.85c0.47-1.54,1.43-2.69,2.33-3.85c0.41-0.53,1.33-0.33,1.55,0.31c0.17,0.49,0.28,1.22,0.03,1.6
			c-0.73,1.11-1.72,2.01-3.13,2.2C89.74,202.14,89.51,201.97,89.16,201.85z"/>
		<path class="st0" d="M43.99,162.6c0.48-1.6,1.38-2.48,2.69-3.53c-0.27,1.3-0.46,2.24-0.69,3.35
			C45.42,162.47,44.84,162.53,43.99,162.6z"/>
		<path class="st0" d="M414.14,27.88c0.07-0.65-0.02-1.36,0.24-1.89c0.66-1.33,1.48-2.59,2.26-3.87c0.35-0.58,0.9-0.7,1.46-0.39
			c0.8,0.44,1.86,0.82,1.91,1.86c0.05,0.97-0.26,1.93-1.23,2.56C417.43,27.03,416.16,28.03,414.14,27.88z"/>
		<path class="st0" d="M417.15,34.94c1.18,1.2,2.57,2.28,2.89,4.1c0.08,0.47-0.14,1.15-0.47,1.49c-0.56,0.57-1.29,1-2,1.4
			c-0.71,0.4-1.58,0.01-1.79-0.77c-0.11-0.41-0.14-0.89-0.06-1.31c0.29-1.58,0.64-3.14,0.97-4.71
			C416.84,35.08,417,35.01,417.15,34.94z"/>
		<path class="st0" d="M362.33,26.99c-0.2,1.32-0.31,2.43-0.56,3.52c-0.12,0.53-0.39,1.09-0.76,1.48c-1.85,1.98-3.97,3.61-6.39,4.85
			c-0.38,0.19-0.81,0.35-1.23,0.38c-1.19,0.09-1.55-0.35-1.49-1.54c0.17-3.46,2.09-5.97,4.43-8.23c0.38-0.36,1.17-0.51,1.73-0.43
			C360.42,27.39,360.41,27.44,362.33,26.99z"/>
		<path class="st0" d="M384.17,24.88c0.68,1.85,0.61,2.73-0.64,3.37c-1.47,0.75-3.09,1.2-5.04,1.94c0.24-0.83,0.23-1.34,0.47-1.55
			C380.58,27.25,381.92,25.43,384.17,24.88z"/>
		<path class="st0" d="M483.44,318.41c-0.28,0.15-0.55,0.3-0.83,0.45c-0.06-0.09-0.12-0.19-0.18-0.28c0.24-0.19,0.49-0.37,0.73-0.56
			C483.26,318.15,483.35,318.28,483.44,318.41z"/>
		<path class="st0" d="M214.35,310.35c0.15-0.22,0.3-0.44,0.44-0.66c0.08,0.04,0.17,0.08,0.25,0.13c-0.12,0.26-0.23,0.53-0.35,0.79
			C214.59,310.53,214.47,310.44,214.35,310.35z"/>
		<path class="st0" d="M191.09,218.56c1.32,1.86,2.52,3.71,2.75,5.94c0.19,1.84-0.49,3.47-2.11,4.54c-1.34,0.89-2.82,0.43-3.26-1.13
			c-0.27-0.94-0.36-1.98-0.3-2.96C188.31,222.52,189,220.3,191.09,218.56z"/>
		<path class="st0" d="M238.67,313.02c-0.36-1.72,0.82-2.67,1.34-3.92C241.77,310.88,241.4,311.99,238.67,313.02z"/>
		<path class="st0" d="M30.88,199.26c0.01,1.48-1.01,2.75-2.07,2.98c-1.46,0.31-2.5-0.18-3.06-1.44c-0.6-1.37-0.04-4.69,0.98-5.68
			c0.58-0.57,1.25-0.66,1.84-0.07C29.82,196.32,30.7,197.82,30.88,199.26z"/>
		<path class="st0" d="M365.76,316.44c-2.24,0.34-2.78-0.23-2.2-2.12c0.16-0.52,0.37-1.03,0.62-1.69
			C365.71,313.58,365.91,314.87,365.76,316.44z"/>
		<path class="st0" d="M86.76,162.25c0.08,0.14,0.17,0.28,0.25,0.42c-0.1,0.06-0.25,0.19-0.29,0.16c-0.13-0.09-0.22-0.24-0.32-0.37
			C86.5,162.4,86.6,162.34,86.76,162.25z"/>
		<path d="M454.83,237.88c0.43,0.25,1.15,0.45,1.5,0.92c0.46,0.61,0.13,1.31-0.4,1.86c-0.35,0.36-0.66,0.75-1,1.13
			c-1.27,1.4-2.49,2.84-3.82,4.17c-0.88,0.88-1.94,1.59-2.89,2.41c-0.99,0.86-2.05,1.68-2.88,2.68c-1.07,1.3-1.92,2.77-2.9,4.15
			c-1,1.41-2.29,2.49-3.87,3.21c-0.79,0.36-2.37-0.07-2.95-0.74c-0.54-0.63-0.54-1.69,0.24-2.6c0.97-1.15,2.1-2.16,3.15-3.25
			c3.22-3.35,6.39-6.75,9.68-10.04c1.28-1.28,2.79-2.34,4.26-3.41C453.37,238.06,454.01,238.08,454.83,237.88z"/>
	</g>
</g>
</svg>
