<?xml version="1.0" encoding="utf-8"?>
<!-- Generator: Adobe Illustrator 26.0.1, SVG Export Plug-In . SVG Version: 6.00 Build 0)  -->
<svg version="1.1" id="Layer_1" xmlns="http://www.w3.org/2000/svg" xmlns:xlink="http://www.w3.org/1999/xlink" x="0px" y="0px"
	 viewBox="0 0 512 220" style="enable-background:new 0 0 512 220;" xml:space="preserve">
<style type="text/css">
	.st0{fill:#C1272D;}
	.st1{fill:#006837;}
	.st2{fill:#662D91;}
	.st3{fill:#FFFFFF;}
</style>
<g>
	<path d="M309.76,11.99c-1.48,1.37-2.75,2.5-3.29,4.32c-0.24,0.79-0.9,1.51-1.53,2.1c-0.15,0.14-1.25-0.29-1.33-0.61
		c-0.24-0.91-0.51-2.05-0.17-2.84c1.13-2.65,2.51-5.2,3.83-7.77c0.47-0.91,0.69-1.98,1.89-2.41c1.76-0.64,2.57-0.27,3.28,0.94
		c1.37,2.37,2.96,4.61,4.5,6.88c0.27,0.4,0.8,0.62,1.07,1.02c0.32,0.47,0.7,1.07,0.64,1.56c-0.06,0.44-0.69,1.15-1.05,1.14
		c-0.67-0.02-1.56-0.29-1.95-0.79c-1.06-1.33-1.91-2.83-2.84-4.26c-0.08-0.12-0.19-0.21-0.49-0.53c0.13,1.06,0.21,1.86,0.33,2.65
		c0.29,1.99,0.67,3.96,0.87,5.96c0.59,5.84,1.13,11.68,1.65,17.52c0.26,2.85,0.39,5.7,0.66,8.55c0.33,3.56,0.79,7.1,1.1,10.66
		c0.36,4.13,0.55,8.28,0.95,12.41c0.47,4.84,1.14,9.66,1.61,14.5c0.46,4.65,0.74,9.32,1.18,13.97c0.24,2.52,0.71,5.02,0.97,7.54
		c0.4,3.94,0.71,7.9,1.05,11.84c0.22,2.45,0.46,4.91,0.64,7.36c0.11,1.47,0.09,2.96,0.21,4.43c0.28,3.42,0.65,6.83,0.93,10.24
		c0.33,4.02,0.72,8.04,0.89,12.07c0.28,6.35,0.36,12.71,0.61,19.06c0.06,1.62,0.44,3.23,0.68,4.84c0.11,0.74,0.6,1,1.22,0.7
		c3.24-1.53,6.66-1.03,10.03-0.85c4.38,0.24,8.74,0.03,13.12-0.27c3.75-0.26,7.53-0.13,11.3-0.17c3.13-0.03,6.25-0.13,9.38-0.06
		c4.77,0.1,9.53,0.29,14.29,0.48c4.57,0.17,9.13,0.34,13.7,0.59c4.23,0.23,8.45,0.58,12.67,0.84c2.85,0.18,5.71,0.35,8.57,0.46
		c2.72,0.1,5.44,0.13,8.16,0.17c1.98,0.03,3.96-0.01,5.94,0.07c3.09,0.13,6.17,0.35,9.26,0.5c5.64,0.29,11.27,0.57,16.91,0.82
		c3.58,0.16,7.17,0.28,10.76,0.37c0.74,0.02,1.47-0.27,2.21-0.29c0.85-0.02,1.71,0.06,2.56,0.19c0.93,0.14,1.84,0.53,2.78,0.58
		c2.29,0.13,4.58,0.16,6.87,0.18c0.62,0.01,1.24-0.15,2.23-0.28c-1.35-1.2-2.48-2.09-3.47-3.11c-0.51-0.53-0.94-1.28-1.09-1.99
		c-0.1-0.46,0.22-1.25,0.61-1.51c0.33-0.23,1.13-0.09,1.55,0.17c1.09,0.68,2.19,1.41,3.1,2.32c2.24,2.23,4.38,4.56,6.55,6.87
		c0.76,0.81,0.47,2.15-0.56,2.54c-0.82,0.31-1.66,0.54-2.51,0.75c-2.27,0.58-4.23,1.68-5.82,3.42c-0.48,0.52-1.03,0.98-1.77,0.39
		c-0.76-0.61-0.85-1.39-0.32-2.13c1.17-1.61,2.48-3.09,4.62-3.43c0.21-0.03,0.38-0.35,0.57-0.53c-0.23-0.14-0.47-0.4-0.69-0.39
		c-1.37,0.04-2.74,0.21-4.11,0.22c-2.21,0.01-4.42,0.04-6.61-0.13c-1.54-0.12-3.03-0.69-4.57-0.83c-2.15-0.19-4.33-0.15-6.49-0.22
		c-4.61-0.15-9.22-0.25-13.83-0.48c-4.17-0.21-8.33-0.63-12.5-0.82c-3.83-0.17-7.68-0.13-11.52-0.25c-3.09-0.1-6.17-0.3-9.25-0.44
		c-2.36-0.1-4.72-0.1-7.08-0.26c-3.99-0.28-7.97-0.67-11.95-0.98c-0.95-0.08-1.91-0.05-2.86-0.1c-2.36-0.12-4.71-0.3-7.07-0.38
		c-3.77-0.13-7.53-0.21-11.3-0.31c-5.68-0.15-11.36-0.43-17.04-0.42c-4.84,0.01-9.68,0.27-14.52,0.55
		c-4.53,0.26-9.04,0.35-13.59,0.05c-1.89-0.12-3.96-0.33-5.88,0.8c-1.2,0.71-2.8,0.83-4.24,1.02c-1.34,0.18-2.76-1.97-2.24-3.69
		c0.55-1.85,0.45-3.68,0.38-5.53c-0.19-4.95-0.46-9.9-0.66-14.85c-0.12-2.97-0.08-5.95-0.27-8.92c-0.26-4.04-0.7-8.08-1-12.12
		c-0.3-3.95-0.5-7.9-0.78-11.85c-0.19-2.69-0.45-5.38-0.67-8.07c-0.34-4.07-0.38-8.18-1.08-12.19c-0.67-3.81-1.04-7.61-1.24-11.45
		c-0.14-2.58-0.42-5.15-0.68-7.73c-0.21-2.11-0.51-4.2-0.73-6.31c-0.48-4.61-0.96-9.22-1.37-13.84c-0.2-2.23-0.19-4.48-0.38-6.71
		c-0.25-2.91-0.62-5.81-0.93-8.71c-0.22-2.05-0.45-4.09-0.66-6.14c-0.43-4.09-0.88-8.17-1.27-12.26c-0.48-5.04-0.9-10.09-1.36-15.14
		C309.96,12.96,309.88,12.63,309.76,11.99z"/>
	<path d="M37.42,159.07c0.37-0.16,0.91-0.38,1.61-0.68c0.02-0.32,0.1-0.84,0.08-1.35c-0.21-3.77-0.38-7.54-0.67-11.3
		c-0.38-4.85-0.84-9.7-1.29-14.54c-0.18-1.96-0.49-3.91-0.63-5.87c-0.09-1.36,0.08-2.74,0.01-4.11c-0.23-4.64-0.49-9.28-0.79-13.92
		c-0.11-1.77-0.36-3.54-0.55-5.31c-0.56-5.14-1.14-10.28-1.7-15.43c-0.59-5.45-1.18-10.9-1.73-16.35c-0.26-2.54-0.4-5.09-0.67-7.62
		c-0.36-3.43-0.82-6.85-1.19-10.28c-0.23-2.19-0.39-4.39-0.54-6.59c-0.31-4.54-0.6-9.09-0.9-13.63c-0.12-1.73-0.21-3.47-0.43-5.19
		c-0.23-1.75-0.4-3.56-0.97-5.21c-1-2.87-1.19-5.79-1.2-8.77c0-0.13-0.07-0.27-0.17-0.64c-0.78,1.36-1.46,2.52-2.11,3.7
		c-0.42,0.78-1.01,1.04-1.79,0.61c-1.15-0.63-1.36-1.3-0.88-2.21c1.14-2.18,2.22-4.4,3.39-6.56c0.31-0.57,0.76-1.25,1.31-1.46
		c0.51-0.2,1.43-0.05,1.83,0.32c2.02,1.85,3.92,3.84,5.9,5.75c0.41,0.4,1.02,0.59,1.48,0.94c0.27,0.21,0.66,0.61,0.61,0.82
		c-0.2,0.79-0.53,1.56-0.91,2.28c-0.05,0.1-0.77,0.03-1-0.17c-1.38-1.19-2.71-2.44-4.05-3.68c-0.29-0.27-0.52-0.61-0.95-1.12
		c-0.06,0.47-0.13,0.68-0.1,0.86c0.68,4.17,1.39,8.34,2.03,12.51c0.23,1.51,0.33,3.03,0.45,4.55c0.49,6.08,0.96,12.15,1.45,18.23
		c0.22,2.73,0.44,5.47,0.7,8.2c0.48,5,0.99,9.99,1.49,14.98c0.49,4.89,0.95,9.78,1.46,14.66c0.5,4.74,1.12,9.46,1.57,14.2
		c0.42,4.39,0.72,8.8,1.04,13.21c0.3,4.22,0.49,8.45,0.84,12.67c0.6,7.22,1.34,14.43,1.9,21.65c0.29,3.69,0.34,7.39,0.43,11.09
		c0.04,1.64,0.35,2.09,1.93,2.39c5.51,1.03,11.06,1.62,16.67,1.79c6.25,0.18,12.49,0.61,18.73,0.99c3.76,0.22,7.52,0.59,11.29,0.8
		c4,0.22,8,0.26,12,0.52c6.24,0.41,12.48,0.87,18.71,1.45c4.78,0.44,9.54,1.08,14.31,1.63c0.42,0.05,0.84,0.1,1.26,0.09
		c5.01-0.13,9.95,0.59,14.91,1.22c2.74,0.35,5.52,0.31,8.29,0.46c0.26,0.01,0.55,0.04,0.76,0.16c2.47,1.46,5.28,1.69,8,2.09
		c5,0.73,10.04,1.26,15.05,1.91c2.68,0.34,5.35,0.77,8.04,1.12c2.97,0.38,5.94,0.71,9.02,1.08c-0.83-0.96-1.71-1.83-2.39-2.82
		c-0.43-0.62-0.73-1.43-0.77-2.17c-0.03-0.49,0.41-1.3,0.81-1.44c0.55-0.19,1.46-0.08,1.87,0.28c0.68,0.61,1.21,1.47,1.58,2.33
		c0.75,1.67,1.91,2.89,3.47,3.81c1.35,0.79,1.43,1.67,0.25,2.66c-1.57,1.32-3.22,2.56-4.77,3.9c-0.88,0.77-1.63,1.7-2.45,2.54
		c-0.59,0.61-1.37,0.91-2.01,0.33c-0.63-0.57-0.5-1.46,0.07-2.08c1.04-1.12,2.16-2.15,3.23-3.24c0.22-0.22,0.35-0.53,0.52-0.8
		c-0.32-0.18-0.62-0.48-0.95-0.52c-2.93-0.34-5.88-0.55-8.79-0.96c-3.49-0.5-6.95-1.2-10.44-1.73c-1.69-0.26-3.41-0.26-5.1-0.49
		c-2.82-0.39-5.63-0.89-8.45-1.29c-1.46-0.21-2.94-0.31-4.42-0.45c-0.23-0.02-0.49,0.04-0.67-0.06c-2.35-1.19-4.94-1.28-7.47-1.6
		c-2.38-0.3-4.74-0.74-7.13-0.97c-2.61-0.26-5.25-0.3-7.87-0.53c-3.52-0.3-7.03-0.7-10.54-1.04c-2-0.19-4.01-0.32-6-0.53
		c-2.23-0.23-4.44-0.56-6.67-0.78c-2.69-0.27-5.39-0.48-8.09-0.69c-3.99-0.31-7.99-0.64-11.98-0.88c-3.23-0.2-6.46-0.26-9.69-0.43
		c-3.24-0.16-6.47-0.39-9.7-0.57c-1.55-0.08-3.1-0.09-4.66-0.17c-4.9-0.26-9.81-0.55-14.71-0.83c-2.4-0.14-4.81-0.16-7.19-0.45
		c-2.68-0.33-5.33-0.91-8-1.36c-0.48-0.08-0.99-0.08-1.48-0.08c-1.52-0.02-1.73-0.2-2.07-1.68
		C37.94,160.59,37.7,159.97,37.42,159.07z"/>
	<path d="M388.77,208.91c-0.2-1.83,0.92-3.05,2.21-4.19c0.71-0.62,1.36-1.32,2.11-1.88c0.49-0.37,1.1-0.72,1.69-0.79
		c1.73-0.22,4.71,1.61,5.47,3.2c0.26,0.53,0.25,0.84-0.27,1.24c-0.85,0.66-1.52,1.55-2.38,2.16c-0.66,0.47-1.49,0.7-2.27,0.97
		c-0.58,0.2-1.08,0.31-0.97,1.12c0.1,0.74,0.43,1.2,1.17,1.08c1.71-0.29,3.46-0.51,5.09-1.04c1.4-0.46,1.56-0.51,2.08,0.81
		c0.11,0.28,0.74,0.62,0.99,0.53c1.58-0.56,3.05-0.38,4.55,0.28c0.71,0.31,1.42,0.24,1.94-0.47c0.49-0.67,0.16-1.2-0.22-1.77
		c-0.6-0.88-1.2-1.76-1.75-2.68c-0.86-1.42-0.65-2.78,0.22-4.15c1.11-1.74,3.06-2.67,4.68-2.12c0.83,0.28,1.59,0.71,1.46,1.76
		c-0.11,0.89-1.52,2.08-2.26,2.11c-0.45,0.01-1.24,0.13-1.27,0.3c-0.08,0.5,0.03,1.11,0.27,1.56c0.61,1.14,1.3,2.25,2,3.33
		c0.89,1.38-0.04,2.96-1.06,3.66c-0.44,0.3-0.94,0.51-1.36,0.84c-1,0.77-1.87,1.3-3.3,0.69c-1.04-0.45-2.38-0.24-3.58-0.27
		c-0.66-0.01-1.98-0.92-2.05-1.65c-0.09-1.02-0.79-0.88-1.16-0.48c-1.61,1.73-3.71,1.28-5.59,1.18c-1.61-0.08-3.34-0.61-4.75-1.41
		C389.15,212.1,388.55,210.61,388.77,208.91z M393.04,206.62c0.07,0.2,0.14,0.4,0.2,0.61c0.94-0.33,1.88-0.66,2.82-0.99
		c-0.04-0.13-0.08-0.26-0.13-0.39C394.97,206.11,394.01,206.37,393.04,206.62z"/>
	<path class="st0" d="M400.54,55.07c-1.73,0.27-3.39,0.56-5.06,0.78c-0.81,0.1-1.04,0.53-0.92,1.25c0.2,1.2,0.48,2.39,0.59,3.59
		c0.04,0.48-0.13,1.28-0.45,1.44c-0.66,0.34-1.13-0.21-1.3-0.87c-0.31-1.21-0.51-2.45-0.88-3.64c-0.47-1.5-0.62-1.53-2.14-1.05
		c-0.36,0.11-0.72,0.29-1.09,0.34c-0.63,0.09-1.34,0.26-1.57-0.65c-0.17-0.66,0.47-1.52,1.24-1.66c0.63-0.12,1.27-0.24,1.91-0.31
		c0.81-0.09,0.92-0.54,0.69-1.2c-0.22-0.61-0.52-1.2-0.63-1.82c-0.1-0.55-0.21-1.37,0.08-1.64c0.52-0.47,1.21-0.25,1.84,0.26
		c0.85,0.69,0.99,1.63,1.08,2.54c0.12,1.19,0.61,1.59,1.76,1.32c1.23-0.29,2.58-0.01,3.69-0.95c0.56-0.47,2.29,0.68,2.39,1.59
		c0.78-0.1,1.56-0.19,2.34-0.31c0.98-0.15,1.27-0.65,0.9-1.6c-0.19-0.48-0.4-1.09-0.26-1.52c0.16-0.49,0.65-1.09,1.12-1.21
		c0.75-0.19,1.39,0.26,1.67,1.06c0.05,0.14,0.04,0.3,0.06,0.45c0.07,0.65,0.13,1.3,0.2,1.95c1.03-0.16,2.24-0.04,3.04-0.55
		c0.84-0.53,1.18,0.15,1.73,0.23c0.15,0.02,0.41,0.54,0.37,0.58c-0.35,0.35-0.71,0.71-1.14,0.93c-0.95,0.5-1.87,1.07-3.05,0.97
		c-0.18-0.02-0.64,0.7-0.59,1.03c0.15,1,0.48,1.97,0.75,2.95c0.03,0.11,0.12,0.2,0.16,0.3c0.29,0.7-0.02,1.83-0.55,2.02
		c-0.52,0.18-1.6-0.64-1.77-1.33c-0.28-1.14-0.62-2.26-0.85-3.41c-0.21-1-0.74-1.06-1.58-0.78c-0.75,0.25-1.55,0.35-2.31,0.56
		c-0.95,0.26-1.38-0.06-1.37-1.04C400.65,55.44,400.57,55.23,400.54,55.07z"/>
	<path d="M78.25,192.47c-1.03-0.05-2.24-0.07-3.45-0.21c-0.46-0.05-1.16-0.29-1.26-0.6c-0.22-0.69-0.12-1.57,0.75-1.79
		c0.94-0.24,1.93-0.29,2.91-0.3c0.83-0.01,1.67,0.16,2.5,0.26c1.01,0.12,1.44-0.24,1.41-1.34c-0.08-2.12-0.09-4.25,0.01-6.37
		c0.03-0.64,0.4-1.35,0.81-1.87c0.43-0.54,1.13-0.62,1.73-0.1c0.6,0.51,0.84,1.03,0.49,1.89c-0.29,0.71-0.23,1.58-0.26,2.38
		c-0.05,1.29-0.06,2.59-0.06,3.89c0,0.81,0.29,1.25,1.25,1.15c1.44-0.16,2.89-0.21,4.33-0.28c1.05-0.05,1.81,0.52,1.78,1.3
		c-0.03,0.9-1.05,1.58-2.01,1.61c-1.5,0.05-3.01,0.23-4.5,0.44c-0.18,0.02-0.43,0.57-0.4,0.85c0.18,1.7,0.4,3.4,0.65,5.1
		c0.12,0.83,0.19,1.63-0.71,2.07c-0.43,0.21-1.05,0.53-1.35,0.37c-0.42-0.22-0.83-0.83-0.88-1.31c-0.19-1.92-0.26-3.85-0.33-5.78
		c-0.03-1.03-0.34-1.6-1.51-1.38C79.59,192.55,79.01,192.47,78.25,192.47z"/>
	<path d="M374.1,203.91c0.15-1.33,0.2-2.54,0.47-3.7c0.1-0.43,0.87-1.11,1.05-1.03c0.52,0.23,1.07,0.71,1.27,1.23
		c0.24,0.61,0.11,1.35,0.15,2.04c0.06,0.91,0.39,1.38,1.46,1.17c1.6-0.31,3.23-0.54,4.86-0.66c0.81-0.06,1.69,0.08,2.46,0.36
		c0.82,0.29,0.82,1.05,0.65,1.84c-0.16,0.72-0.41,1.23-1.25,1.16c-0.38-0.03-0.78,0-1.12-0.13c-1.94-0.72-3.72,0.03-5.54,0.51
		c-0.67,0.18-0.84,0.64-0.82,1.3c0.05,1.48,0.03,2.96,0.05,4.45c0.01,0.94-0.34,1.69-1.29,1.85c-0.83,0.15-1.59-0.78-1.59-1.86
		c-0.01-1.3,0.09-2.59,0.04-3.89c-0.05-1.39-0.33-1.44-1.67-1.33c-1.15,0.09-2.34-0.06-3.47-0.33c-0.36-0.08-0.77-0.84-0.79-1.31
		c-0.02-0.46,0.34-1.24,0.7-1.35c0.92-0.27,1.93-0.26,2.91-0.32C373.13,203.88,373.66,203.91,374.1,203.91z"/>
	<path d="M110,199.87c-1.57,0.6-2.94,1.28-4.38,1.61c-1.29,0.3-1.84-0.34-2.26-1.64c-0.85-2.6,1.53-7.45,5.11-7.99
		c1.38-0.21,2.95,0.9,2.78,2.24c-0.33,2.52,1.26,3.96,2.85,5.38c0.36,0.32,1.16,0.11,1.74,0.22c0.46,0.09,1.24,0.23,1.28,0.44
		c0.08,0.5-0.05,1.19-0.38,1.56c-0.68,0.78-1.59,1.11-2.68,0.7C112.46,201.79,110.78,201.33,110,199.87z M108.16,194.53
		c-1.78,1.67-2.13,1.69,0,3.1C108.16,196.57,108.16,195.6,108.16,194.53z"/>
	<path d="M128.86,196.56c0.49-0.4,1.05-0.74,1.47-1.21c1.84-2.01,3.78-1.56,5.28,0.42c0.52,0.69,0.82,1.54,1.21,2.32
		c1.04,2.06,2.08,4.12,3.13,6.17c0.37,0.72,0.44,1.36-0.32,1.89c-0.71,0.5-1.29,0.44-1.88-0.24c-1.67-1.9-2.33-4.3-3.29-6.56
		c-0.12-0.28-0.18-0.6-0.36-0.84c-0.42-0.55-0.9-1.05-1.36-1.57c-0.57,0.51-1.25,0.94-1.69,1.54c-0.42,0.57-0.75,1.29-0.84,1.98
		c-0.16,1.22-1.03,1.87-1.82,2.55c-0.26,0.23-1.01,0.08-1.44-0.11c-0.27-0.12-0.46-0.63-0.5-0.98c-0.16-1.39-0.21-2.78-0.36-4.17
		c-0.15-1.35,0.48-2.44,1.14-3.5c0.2-0.32,0.73-0.43,1.1-0.63c0.17,0.38,0.45,0.75,0.48,1.14c0.03,0.55-0.13,1.1-0.21,1.66
		C128.68,196.47,128.77,196.51,128.86,196.56z"/>
	<path d="M423.96,205.43c1.43,0,2.72-0.03,4.01,0.01c0.81,0.03,1.66,0.1,1.6,1.29c-0.06,1.05-0.69,1.3-1.61,1.34
		c-0.83,0.03-1.65,0.22-2.47,0.3c-0.78,0.08-0.95,0.6-0.83,1.22c0.23,1.11,0.45,2.23,0.84,3.29c0.42,1.12-0.11,1.95-0.7,2.7
		c-0.47,0.6-1.44,0.05-1.78-1.05c-0.47-1.54-0.93-3.1-1.28-4.67c-0.18-0.83-0.45-1.22-1.36-1.06c-0.93,0.16-1.88,0.24-2.83,0.32
		c-1.13,0.1-1.79-0.39-1.85-1.35c-0.06-0.89,0.75-1.66,1.74-1.72c0.98-0.06,1.97-0.12,2.93-0.3c0.24-0.04,0.5-0.51,0.56-0.82
		c0.17-0.86,0.23-1.73,0.33-2.6c0.1-0.85,0.34-1.64,1.39-1.6c0.83,0.03,1.59,1.05,1.54,1.99c-0.04,0.68-0.19,1.36-0.27,2.04
		C423.91,204.97,423.95,205.19,423.96,205.43z"/>
	<path class="st0" d="M84.31,97.22c0.74-0.1,2.21-0.35,3.69-0.47c0.39-0.03,0.93,0.23,1.18,0.54c0.24,0.3,0.39,0.92,0.24,1.22
		c-0.14,0.28-0.78,0.51-1.14,0.43c-1.87-0.38-3.61,0.08-5.3,0.76c-0.34,0.14-0.74,0.73-0.72,1.08c0.09,1.24,0.42,2.47,0.51,3.72
		c0.04,0.48-0.17,1.23-0.51,1.4c-0.34,0.17-1.1-0.08-1.43-0.4c-0.36-0.36-0.5-0.99-0.63-1.53c-0.12-0.51-0.1-1.06-0.16-1.59
		c-0.29-2.48-0.36-2.51-2.87-1.93c-0.63,0.15-1.28,0.33-1.91,0.28c-0.38-0.03-0.9-0.37-1.06-0.71c-0.52-1.07-0.38-1.29,0.81-1.48
		c1.01-0.17,2.04-0.29,3.06-0.38c1.24-0.11,1.56-0.42,1.54-1.64c-0.01-0.46-0.06-0.92-0.02-1.37c0.05-0.59,0-1.31,0.86-1.37
		c0.86-0.06,1.34,0.44,1.53,1.24c0.05,0.22,0.03,0.46,0.03,0.68C82.06,97.3,82.06,97.3,84.31,97.22z"/>
	<path class="st0" d="M385.92,52.62c-0.21,0.74-0.29,1.06-0.33,1.18c-2.05,0.23-3.95,0.45-6.06,0.69c0.3,1.73,0.49,3.37,0.9,4.97
		c0.2,0.77,0.03,1.18-0.6,1.47c-0.67,0.31-1.23,0.15-1.44-0.6c-0.52-1.85-1-3.72-1.57-5.83c-0.98,0.27-2.05,0.57-3.12,0.87
		c-0.74,0.21-1.58,0.79-1.97-0.43c-0.26-0.81,0.37-1.54,1.49-1.77c0.96-0.2,1.94-0.31,2.88-0.58c0.33-0.09,0.73-0.51,0.79-0.83
		c0.16-0.81,0.1-1.67,0.2-2.5c0.07-0.58,0.31-1.29,1.04-1.01c0.55,0.2,1.16,0.72,1.36,1.25c0.22,0.59,0.04,1.35-0.05,2.03
		c-0.09,0.65,0.04,0.83,0.77,0.83C382.03,52.35,383.86,52.51,385.92,52.62z"/>
	<path class="st0" d="M385.25,81.26c-1.18,0.24-2.2,0.48-3.24,0.65c-0.67,0.11-1.37,0.03-1.52-0.81c-0.14-0.81,0.35-1.31,1.09-1.5
		c1.02-0.27,2.06-0.48,3.19-0.74c-0.34-0.95-0.6-1.81-0.94-2.64c-0.35-0.85,0.13-1.44,0.76-1.64c0.45-0.14,1.31,0.09,1.56,0.45
		c0.48,0.68,0.8,1.56,0.94,2.39c0.25,1.44,0.41,1.65,1.88,1.65c0.93,0,1.87,0,2.77,0.18c0.35,0.07,0.77,0.62,0.83,1
		c0.04,0.26-0.46,0.81-0.78,0.87c-0.8,0.15-1.64,0.17-2.46,0.11c-0.93-0.06-1.39,0.2-1.19,1.21c0.19,0.96,0.42,1.91,0.52,2.87
		c0.07,0.69-0.02,1.43-0.92,1.57c-0.63,0.09-1.5-0.81-1.63-1.5C385.86,84.06,385.56,82.74,385.25,81.26z"/>
	<path class="st0" d="M76.63,66.79c-1.72,0.27-3.44,0.56-5.17,0.81c-0.73,0.11-0.94,0.52-0.83,1.21c0.16,0.97,0.39,1.95,0.41,2.93
		c0.01,0.56-0.32,1.12-0.5,1.68c-0.46-0.33-1.19-0.57-1.32-1c-0.37-1.18-0.55-2.43-0.69-3.66c-0.07-0.65-0.33-0.9-0.93-0.83
		c-0.83,0.1-1.66,0.18-2.46,0.38c-0.69,0.17-1.15-0.01-1.39-0.62c-0.28-0.71,0.07-1.22,0.76-1.41c0.95-0.26,1.92-0.48,2.89-0.59
		c0.78-0.09,0.81-0.48,0.74-1.09c-0.1-0.83-0.14-1.67-0.19-2.5c-0.03-0.49-0.36-1.11,0.52-1.23c0.79-0.11,1.73,0.47,1.82,1.19
		c0.1,0.79,0.16,1.59,0.22,2.39c0.05,0.75,0.39,1.03,1.19,0.99c1.67-0.09,3.35-0.15,5.02-0.06c0.6,0.03,1.18,0.55,1.77,0.85
		c-0.56,0.3-1.13,0.6-1.69,0.9C76.72,67.02,76.67,66.91,76.63,66.79z"/>
	<path class="st0" d="M409.37,79.28c-0.98,0.23-1.88,0.44-2.9,0.69c0.35,1.32,0.69,2.67,1.05,4.02c0.25,0.93-0.18,1.8-1.11,2.02
		c-0.88,0.21-1.43-0.1-1.59-1.11c-0.16-1.04-0.46-2.06-0.75-3.07c-0.42-1.45-0.92-1.69-2.35-1.16c-0.71,0.26-1.41,0.57-2.12,0.83
		c-0.66,0.23-1.3,0.3-1.56-0.58c-0.23-0.79,0-1.35,0.82-1.6c1.01-0.31,2.01-0.7,3.04-0.92c0.93-0.2,0.99-0.64,0.64-1.38
		c-0.18-0.38-0.37-0.79-0.36-1.19c0.01-0.43,0.13-1.07,0.41-1.22c0.37-0.19,1.15-0.18,1.4,0.08c0.59,0.61,1.07,1.37,1.4,2.16
		c0.34,0.83,0.73,1.07,1.55,0.67C408.26,76.85,409.35,77.61,409.37,79.28z"/>
	<path class="st0" d="M82.29,121.95c-1.29,0-2.58,0.01-3.88,0c-0.94-0.01-1.26,0.36-1.16,1.34c0.1,0.88,0.02,1.81-0.13,2.69
		c-0.05,0.31-0.53,0.79-0.78,0.77c-0.38-0.03-0.92-0.36-1.04-0.69c-0.3-0.81-0.53-1.69-0.54-2.54c0-1.06-0.48-1.12-1.29-0.93
		c-0.62,0.15-1.26,0.33-1.88,0.31c-0.32-0.01-0.86-0.42-0.88-0.67c-0.02-0.35,0.27-0.91,0.58-1.05c0.75-0.34,1.59-0.47,2.38-0.71
		c0.59-0.18,0.76-0.51,0.66-1.19c-0.23-1.61-0.32-3.24-0.42-4.87c-0.02-0.24,0.2-0.5,0.31-0.75c0.28,0.14,0.72,0.22,0.82,0.44
		c0.57,1.36,1.17,2.72,1.54,4.14c0.37,1.38,0.4,1.5,1.87,1.5c1.33,0,2.66,0.06,3.99,0.11c0.94,0.04,1.17,0.75,1.03,1.44
		c-0.08,0.39-0.65,0.69-1,1.02C82.43,122.19,82.36,122.07,82.29,121.95z"/>
	<path class="st0" d="M77.27,141.8c-1.23,0.22-2.34,0.4-3.45,0.63c-0.68,0.14-1.24,0.08-1.43-0.7c-0.2-0.8,0.12-1.39,0.9-1.6
		c0.8-0.22,1.64-0.33,2.47-0.44c0.94-0.13,1.41-0.65,1.49-1.57c0.06-0.68,0.18-1.36,0.2-2.04c0.03-0.89,0.56-1.13,1.29-1.04
		c0.68,0.08,1.17,0.3,1.07,1.24c-0.28,2.73-0.24,2.74,2.52,2.69c0.34-0.01,0.69,0,1.03-0.01c0.73-0.02,1.19,0.29,1.2,1.05
		c0.02,0.76-0.47,1.09-1.16,1.15c-0.83,0.08-1.67,0.12-2.51,0.14c-0.77,0.01-1.12,0.31-1.03,1.12c0.11,1.01,0.1,2.04,0.23,3.05
		c0.12,0.99-0.39,1.27-1.23,1.38c-0.91,0.12-1.27-0.3-1.33-1.13c-0.05-0.65-0.11-1.29-0.16-1.94
		C77.33,143.18,77.31,142.58,77.27,141.8z"/>
	<path class="st0" d="M102.11,93.29c-0.92,0.22-1.81,0.37-2.67,0.64c-0.69,0.22-1.31,0.13-1.51-0.55c-0.23-0.75,0.3-1.27,1-1.41
		c3.25-0.65,3.1-0.6,2.53-4.03c-0.13-0.76-0.36-1.69,0.76-1.92c0.82-0.17,1.5,0.61,1.61,1.65c0.32,3.13,0.68,3.36,3.91,2.66
		c0.59-0.13,1.2-0.22,1.8-0.19c0.36,0.02,0.7,0.29,1.06,0.45c-0.21,0.41-0.34,1.07-0.66,1.17c-1.24,0.42-2.52,0.77-3.82,0.96
		c-1.52,0.22-1.52,0.14-1.27,1.65c0.18,1.09,0.4,2.19,0.43,3.29c0.01,0.42-0.45,0.85-0.7,1.28c-0.31-0.22-0.8-0.38-0.91-0.68
		c-0.51-1.42-0.92-2.88-1.36-4.32C102.26,93.75,102.2,93.58,102.11,93.29z"/>
	<path class="st0" d="M360.95,53.2c2.22,0,4.23,0,6.23,0c0.08,0,0.17-0.04,0.23-0.01c0.57,0.29,1.58,0.53,1.62,0.89
		c0.1,0.83-0.71,1.12-1.5,1.18c-1.52,0.12-3.04,0.18-4.55,0.4c-1.52,0.22-1.78,0.91-0.93,2.19c0.23,0.35,0.5,0.67,0.78,0.98
		c0.56,0.65,0.63,1.33-0.02,1.92c-0.67,0.61-1.39,0.24-1.79-0.31c-0.77-1.04-1.36-2.2-2.07-3.28c-0.2-0.3-0.56-0.49-0.84-0.74
		c-0.31-0.28-0.82-0.53-0.87-0.86c-0.07-0.42,0.1-1.17,0.38-1.29c0.86-0.37,0.73-1.03,0.78-1.7c0.05-0.68,0.14-1.36,0.26-2.03
		c0.11-0.62,0.48-0.92,1.15-0.75c0.62,0.16,1.18,0.34,1.14,1.17C360.92,51.78,360.95,52.61,360.95,53.2z"/>
	<path d="M93.02,195.1c0.12-0.6,0.22-1.63,0.52-2.59c0.27-0.88,0.92-1.35,1.94-1.19c0.38,0.06,0.88-0.01,1.2-0.22
		c1.45-0.91,2.96-1.59,4.7-1.54c0.33,0.01,0.93,0.24,0.92,0.36c-0.02,0.45-0.11,1-0.39,1.32c-0.27,0.31-0.8,0.41-1.23,0.54
		c-2.36,0.7-4.07,3.03-4.03,5.5c0.01,0.42-0.08,0.89,0.08,1.25c0.74,1.65-0.83,2.17-1.52,3.09c-0.11,0.15-0.88,0.05-1.1-0.18
		c-0.35-0.35-0.65-0.89-0.71-1.38C93.22,198.57,93.16,197.05,93.02,195.1z"/>
	<path class="st0" d="M477.6,65.94c0.49,0.16,0.97,0.22,1.34,0.45c0.48,0.3,0.87,0.73,1.3,1.1c-0.4,0.36-0.76,0.77-1.21,1.06
		c-0.26,0.17-0.65,0.11-0.97,0.19c-0.36,0.09-1.01,0.24-1.01,0.34c0.02,0.49,0.07,1.23,0.38,1.41c0.9,0.51,0.96,1.4,0.6,1.94
		c-0.33,0.5-1.24,0.84-1.9,0.84c-0.44,0-1.1-0.65-1.27-1.14c-0.3-0.87-0.34-1.84-0.42-2.78c-0.09-1.04-0.25-1.16-1.16-0.7
		c-0.37,0.19-0.74,0.42-1.14,0.53c-0.64,0.19-1.25,0.11-1.53-0.59c-0.27-0.67-0.19-1.34,0.51-1.68c0.81-0.39,1.67-0.75,2.55-0.95
		c1.02-0.23,1.49-0.83,1.64-1.79c0.15-0.97,0.76-1.35,1.68-1.35c0.95,0,1.36,0.61,1,1.5c-0.13,0.32-0.29,0.62-0.38,0.94
		C477.56,65.46,477.6,65.67,477.6,65.94z"/>
	<path class="st0" d="M376.94,80.53c-1.5,0-2.9,0.01-4.3-0.01c-0.72-0.01-1,0.37-0.87,1.01c0.13,0.69,0.43,1.35,0.56,2.04
		c0.09,0.48,0.24,1.2,0,1.46c-0.39,0.42-1.1,0.72-1.67,0.72c-0.33,0-0.87-0.64-0.96-1.07c-0.28-1.29-0.38-2.61-0.57-4.1
		c-0.79,0.15-1.56,0.27-2.32,0.46c-0.9,0.24-1.6-0.1-1.83-0.91c-0.26-0.93,0.45-1.36,1.26-1.56c0.3-0.07,0.59-0.14,0.9-0.19
		c0.88-0.13,1.52-0.4,1.25-1.53c-0.19-0.79,0.41-1.13,1.02-0.86c0.58,0.26,1.33,0.78,1.43,1.3c0.19,0.94,0.74,1.05,1.43,1.13
		c1.24,0.14,2.48,0.24,3.71,0.39C376.98,78.94,377.21,79.57,376.94,80.53z"/>
	<path class="st0" d="M114.29,60.42c0.16,1.32-0.67,1.58-1.6,1.68c-2.43,0.27-2.44,0.26-2.43,2.72c0,1.07,0.16,2.19-0.9,2.9
		c-0.31,0.21-0.8,0.44-1.07,0.33c-0.56-0.22-0.76-0.7-0.59-1.4c0.24-0.98,0.35-1.99,0.4-3c0.05-0.87-0.4-1.21-1.31-0.95
		c-0.65,0.19-1.36,0.32-2.03,0.27c-0.43-0.04-0.82-0.46-1.23-0.71c0.33-0.4,0.6-0.99,1.02-1.15c0.69-0.26,1.49-0.26,2.25-0.35
		c0.68-0.08,0.88-0.43,0.81-1.09c-0.09-0.87-0.13-1.75-0.11-2.62c0.01-0.33,0.16-0.82,0.4-0.94c0.27-0.14,0.77-0.06,1.06,0.11
		c0.77,0.47,1.07,1.19,1.05,2.13c-0.04,1.7,0.03,1.72,1.73,1.73c0.5,0,0.99,0.02,1.48,0.08C113.56,60.19,113.88,60.31,114.29,60.42z
		"/>
	<path class="st0" d="M115,41.95c-1.69,0-3.24,0.02-4.78-0.02c-0.2,0-0.54-0.25-0.56-0.41c-0.03-0.2,0.18-0.6,0.34-0.63
		c0.61-0.11,1.35-0.33,1.85-0.1c0.97,0.46,1.59-0.09,2.14-0.57c0.22-0.19-0.03-0.98-0.14-1.49c-0.11-0.48-0.38-0.92-0.47-1.4
		c-0.12-0.58-0.27-1.35,0.59-1.44c0.74-0.08,1.58-0.02,1.74,1.03c0.02,0.11,0.02,0.23,0.05,0.34c0.58,2.13,0.89,2.33,3.12,2.01
		c0.49-0.07,1.02-0.22,1.47-0.11c0.38,0.1,0.93,0.54,0.93,0.83c0,0.34-0.44,0.87-0.8,1c-0.67,0.23-1.43,0.2-2.14,0.34
		c-0.76,0.15-1.13,0.51-0.75,1.37c0.48,1.08,0.85,2.2,1.27,3.31c0.08,0.21,0.24,0.45,0.2,0.64c-0.1,0.46-0.29,0.89-0.45,1.33
		c-0.39-0.19-0.96-0.29-1.14-0.6c-0.69-1.26-1.27-2.58-1.87-3.89C115.37,43.02,115.21,42.52,115,41.95z"/>
	<path class="st0" d="M90.82,70.86c-1.06,0.18-1.88,0.39-2.71,0.43c-0.46,0.02-0.93-0.23-1.4-0.36c0.25-0.51,0.37-1.26,0.79-1.49
		c0.78-0.44,1.72-0.58,2.76-0.89c0-0.9,0.01-1.95,0-3c-0.01-0.69,0.02-1.41,0.93-1.38c0.83,0.02,1.3,0.53,1.29,1.41
		c-0.02,2.91-0.01,2.91,2.78,2.95c0.46,0.01,0.92,0.02,1.37,0c0.76-0.04,1.4,0.23,1.31,1.02c-0.03,0.33-0.73,0.75-1.18,0.83
		c-0.89,0.16-1.82,0.14-2.73,0.15c-0.75,0.01-1.19,0.22-0.92,1.09c0.2,0.65,0.37,1.31,0.56,1.96c0.22,0.76,0.26,1.53-0.64,1.79
		c-0.97,0.28-1.24-0.49-1.43-1.23C91.32,73.09,91.09,72.02,90.82,70.86z"/>
	<path class="st0" d="M99.28,42c-2-0.09-2.29,0.22-2.09,1.97c0.1,0.83,0.33,1.66,0.32,2.49c-0.01,0.43-0.41,0.86-0.64,1.29
		c-0.4-0.26-1.04-0.43-1.16-0.79c-0.37-1.07-0.67-2.19-0.76-3.31c-0.08-1.02-0.41-1.37-1.4-1.12c-0.47,0.12-1.01,0.1-1.44,0.3
		c-0.75,0.35-1.28,0.28-1.5-0.56c-0.21-0.82,0.32-1.2,1.02-1.35c0.74-0.16,1.49-0.28,2.25-0.39c0.63-0.09,0.81-0.44,0.71-1.04
		c-0.17-1.01-0.31-2.03-0.4-3.05c-0.03-0.33,0.15-0.68,0.23-1.02c0.32,0.12,0.83,0.15,0.94,0.37c0.45,0.93,0.96,1.89,1.1,2.89
		c0.14,1,0.41,1.44,1.46,1.38c0.75-0.04,1.54,0.03,2.25,0.24c0.36,0.11,0.6,0.64,0.89,0.98c-0.34,0.22-0.66,0.5-1.03,0.64
		C99.72,42.05,99.35,42,99.28,42z"/>
	<path class="st1" d="M433.28,154.03c-0.1-0.98,0.66-1.22,1.43-1.33c3.34-0.49,6.68-0.94,10.02-1.41c0.64-0.09,1.27-0.24,1.9-0.4
		c0.81-0.2,1.25,0.22,1.47,0.9c0.24,0.72-0.13,1.12-0.79,1.4c-2.85,1.19-5.88,1.28-8.88,1.6c-1.23,0.13-2.46,0.35-3.68,0.57
		C433.69,155.55,433.26,155.22,433.28,154.03z"/>
	<path class="st1" d="M446.53,138.71c-2.13,0-4.15-0.06-6.16,0.03c-0.68,0.03-1.32,0.5-2.01,0.65c-0.57,0.13-1.27,0.29-1.73,0.06
		c-0.49-0.24-1.01-0.91-1.04-1.42c-0.02-0.4,0.6-1.01,1.08-1.24c2.24-1.1,4.66-0.95,7.05-0.77c1.42,0.1,2.78,0.15,4.07-0.63
		c0.24-0.15,1.09,0.15,1.18,0.41c0.18,0.53,0.28,1.47-0.02,1.72C448.28,138.1,447.34,138.35,446.53,138.71z"/>
	<path class="st0" d="M60.53,42.91c-1,0.19-1.93,0.37-2.86,0.55c-0.79,0.15-1.14-0.25-1.19-0.97c-0.05-0.69,0.3-1.07,1-1.12
		c0.27-0.02,0.53-0.02,0.8-0.04c1.89-0.15,2.43-1.09,1.66-2.86c-0.16-0.37-0.32-0.79-0.28-1.17c0.04-0.42,0.33-1.18,0.46-1.17
		c0.55,0.04,1.31,0.17,1.56,0.55c0.36,0.56,0.4,1.35,0.49,2.05c0.18,1.54,0.22,1.57,1.74,1.38c0.52-0.06,1.08-0.1,1.59,0.01
		c0.3,0.06,0.77,0.44,0.76,0.66c-0.02,0.33-0.34,0.68-0.61,0.95c-0.13,0.13-0.43,0.12-0.66,0.15c-2.13,0.26-2.37,0.52-2.46,2.68
		c-0.02,0.42,0.04,0.88-0.12,1.24c-0.16,0.35-0.59,0.84-0.86,0.82c-0.33-0.03-0.73-0.48-0.89-0.84c-0.17-0.4-0.11-0.9-0.12-1.35
		C60.52,43.98,60.53,43.53,60.53,42.91z"/>
	<path class="st2" d="M162.58,48.93c-0.25,0.3-0.47,0.65-0.77,0.9c-2.14,1.87-4.3,3.72-6.45,5.58c-1.35,1.17-2.75,2.28-4.04,3.51
		c-0.9,0.86-1.59,1.93-2.48,2.81c-0.34,0.34-1.01,0.65-1.41,0.54c-0.75-0.21-0.44-0.92-0.14-1.32c1.12-1.48,2.16-3.05,3.49-4.32
		c1.64-1.57,3.49-2.92,5.32-4.26c1.58-1.16,3.26-2.19,4.92-3.24c0.38-0.24,0.85-0.35,1.28-0.52
		C162.41,48.72,162.49,48.83,162.58,48.93z"/>
	<path class="st1" d="M474.95,124.54c1.44,0,2.89,0,4.33,0c0.84,0,1.24,0.53,1.33,1.28c0.08,0.71-0.11,1.28-1.03,1.27
		c-1.4-0.02-2.82-0.11-4.21,0.02c-1.67,0.16-3.34,0.46-4.98,0.82c-1.08,0.23-1.96,0.05-2.27-0.71c-0.35-0.85,0.14-1.51,1.15-2.16
		C471.1,123.88,473.05,124.64,474.95,124.54z"/>
	<path class="st0" d="M80.08,39.55c0.01,0.27,0.04,0.53,0.04,0.8c-0.02,1.41,0.53,1.89,1.95,1.78c0.35-0.03,0.84,0.09,1.06,0.33
		c0.43,0.46,0.3,0.92-0.36,1.1c-0.14,0.04-0.3,0.02-0.45,0.04c-2.14,0.3-2.14,0.3-1.23,2.32c0.12,0.28,0.29,0.59,0.26,0.86
		c-0.04,0.35-0.21,0.94-0.4,0.97c-0.4,0.06-1.08-0.04-1.23-0.31c-0.46-0.82-0.83-1.72-1.05-2.64c-0.26-1.08-0.83-1.55-1.91-1.48
		c-0.42,0.03-0.9,0.15-1.24-0.01c-0.38-0.17-0.79-0.57-0.89-0.95c-0.05-0.21,0.46-0.72,0.8-0.84c0.44-0.16,0.98-0.07,1.47-0.07
		c0.83,0,1.27-0.31,1.21-1.24c-0.05-0.87-0.03-1.75,0.07-2.62c0.04-0.35,0.36-0.94,0.56-0.94c0.38,0,0.98,0.26,1.08,0.56
		c0.26,0.73,0.29,1.53,0.41,2.31C80.17,39.54,80.12,39.55,80.08,39.55z"/>
	<path class="st2" d="M186.92,30.97c-0.34,0.43-0.52,0.87-0.84,1.05c-1.45,0.82-3.06,1.42-4.4,2.38c-2.52,1.81-4.88,3.83-7.32,5.75
		c-0.5,0.39-1.02,0.76-1.59,1.04c-0.2,0.1-0.59-0.05-0.81-0.2c-0.09-0.06,0.01-0.48,0.11-0.69c0.92-1.98,2.54-3.31,4.31-4.45
		c2.71-1.73,5.48-3.36,8.22-5.04c0.22-0.13,0.37-0.38,0.6-0.49c0.26-0.13,0.63-0.32,0.83-0.22
		C186.36,30.25,186.59,30.62,186.92,30.97z"/>
	<path class="st1" d="M404.44,151.06c2.56-0.28,5.11-0.6,7.67-0.79c0.56-0.04,1.17,0.38,1.72,0.68c0.12,0.07,0.16,0.62,0.04,0.72
		c-0.52,0.46-1.07,1.09-1.69,1.2c-2.87,0.49-5.76,0.86-8.65,1.18c-0.32,0.04-0.89-0.44-1.03-0.8c-0.46-1.13,0.68-2.55,1.9-2.5
		C404.41,150.86,404.42,150.96,404.44,151.06z"/>
	<path class="st1" d="M418,108.45c1.1,0.09,2.2,0.15,3.3,0.27c0.32,0.04,0.76,0.18,0.89,0.42c0.29,0.52,0.41,1.13,0.61,1.7
		c-0.54,0.18-1.14,0.61-1.62,0.5c-3.03-0.7-5.93-0.54-8.68,1.03c-0.75,0.42-1.26,0.13-1.54-0.6c-0.25-0.65-0.62-1.28,0.33-1.84
		C413.38,108.7,415.65,108.49,418,108.45z"/>
	<path class="st1" d="M357.87,158.29c-1.32,0-2.65-0.01-3.97,0c-1.05,0.01-1.84-0.56-1.82-1.31c0.02-0.74,0.98-1.44,1.91-1.42
		c3.12,0.07,6.24,0.1,9.35,0.25c0.51,0.02,1,0.59,1.5,0.91c-0.42,0.42-0.8,1.15-1.27,1.21c-1.88,0.26-3.79,0.32-5.68,0.46
		C357.87,158.36,357.87,158.33,357.87,158.29z"/>
	<path class="st1" d="M481.09,110.92c-0.43-0.3-0.8-0.61-1.22-0.85c-2.3-1.35-4.72-1.86-7.29-0.88c-0.82,0.31-1.39,0.05-1.68-0.66
		c-0.27-0.68-0.15-1.25,0.66-1.67c2.6-1.36,5.15-0.99,7.69,0.08c0.8,0.34,1.55,0.79,2.29,1.24c0.95,0.56,1.03,1.24,0.19,2
		C481.53,110.37,481.36,110.62,481.09,110.92z"/>
	<path class="st1" d="M371.35,123.23c0.11,0.15,0.24,0.29,0.33,0.46c0.39,0.69,0.77,1.39,1.16,2.09c-0.77,0.19-1.54,0.53-2.31,0.54
		c-1.31,0-2.62-0.28-3.93-0.31c-1.2-0.02-2.4,0.15-3.6,0.2c-0.38,0.02-1,0.03-1.08-0.16c-0.19-0.4-0.25-0.98-0.1-1.4
		c0.38-1.11,1.44-1.47,2.44-1.63c1.55-0.25,3.07-0.1,4.58,0.54c0.67,0.28,1.57,0.02,2.37,0
		C371.26,123.45,371.31,123.34,371.35,123.23z"/>
	<path class="st2" d="M401.69,97.49c-1.39,1.32-3.16,0.88-4.72,1.2c-2.11,0.43-4.28,0.61-6.42,0.89c-1.2,0.16-1.82-0.23-1.83-1.23
		c-0.01-1.03,0.6-1.25,1.56-1.34c2.56-0.22,5.11-0.6,7.66-0.88c0.71-0.08,1.44-0.02,2.17-0.02C401,96.11,401.52,96.55,401.69,97.49z
		"/>
	<path class="st1" d="M378.46,111.67c1.55,0,3.11-0.06,4.66,0.04c0.43,0.03,1.08,0.47,1.18,0.84c0.08,0.32-0.4,1.1-0.75,1.18
		c-1.5,0.34-3.04,0.5-4.57,0.72c-1.3,0.19-2.6,0.38-3.9,0.57c-0.61,0.09-1.26,0.46-1.69-0.37c-0.41-0.8-0.35-1.51,0.36-2.03
		c0.47-0.34,1.07-0.61,1.64-0.71c1.01-0.17,2.05-0.19,3.07-0.28C378.45,111.64,378.46,111.65,378.46,111.67z"/>
	<path class="st1" d="M413.85,137.45c-2.06,0.26-4.12,0.5-6.17,0.79c-1.41,0.2-2.45-0.15-2.62-0.99c-0.19-0.93,0.59-1.68,2.17-1.81
		c2.53-0.21,5.07-0.34,7.61-0.38c0.55-0.01,1.17,0.42,1.61,0.81c0.15,0.13-0.05,1.01-0.32,1.16c-0.64,0.37-1.41,0.51-2.12,0.73
		c-0.03,0.01-0.08,0-0.11,0C413.87,137.66,413.86,137.55,413.85,137.45z"/>
	<path class="st1" d="M446.74,118.35c0.32,0.07,0.78,0.06,1.12,0.26c0.34,0.2,0.75,0.59,0.76,0.92c0.02,0.4-0.24,0.94-0.55,1.2
		c-0.31,0.26-0.85,0.25-1.29,0.34c-2.53,0.55-5.07,1.05-7.58,1.65c-0.76,0.18-1.37,0.18-1.8-0.51c-0.47-0.75-0.05-1.3,0.6-1.56
		c1.36-0.54,2.75-1.05,4.17-1.42C443.63,118.86,445.14,118.65,446.74,118.35z"/>
	<path class="st2" d="M360.66,96.28c0.33,0.78,0.9,1.46,0.77,1.95c-0.21,0.75-0.96,1.12-1.9,1.06c-0.97-0.07-1.97,0.14-2.95,0.13
		c-1.01-0.01-2.01-0.16-3.02-0.21c-0.97-0.05-1.95-0.09-2.92-0.08c-0.69,0-1.23-0.15-1.3-0.94c-0.07-0.79,0.09-1.56,1.05-1.56
		c1.55,0,3.12-0.02,4.63,0.27c1.62,0.31,3.17,0.26,4.76,0C359.97,96.86,360.14,96.65,360.66,96.28z"/>
	<path class="st1" d="M358.85,140.89c-1.24,0-2.49,0.06-3.72-0.02c-0.68-0.05-1.11-0.52-0.91-1.28c0.24-0.89,0.81-1.51,1.77-1.52
		c0.96-0.01,1.93,0.18,2.89,0.2c1.46,0.03,2.93-0.03,4.39-0.01c0.65,0.01,1.29,0.11,1.93,0.17c-0.04,0.46,0.09,1.13-0.17,1.35
		c-0.56,0.48-1.28,0.92-1.98,1.04c-1.38,0.23-2.8,0.22-4.2,0.31C358.85,141.05,358.85,140.97,358.85,140.89z"/>
	<path class="st2" d="M127.59,81.06c0.59-1.11,0.93-2.23,1.64-3c1.74-1.89,3.66-3.62,5.49-5.43c0.46-0.45,0.86-0.96,1.32-1.42
		c0.29-0.29,0.6-0.67,0.96-0.76c0.32-0.09,0.87,0.05,1.06,0.29c0.15,0.2,0.06,0.82-0.15,1.04c-1.98,2.11-4.06,4.12-6,6.26
		c-0.9,0.99-1.54,2.23-2.34,3.32c-0.23,0.31-0.68,0.76-0.92,0.7C128.29,81.97,128.02,81.49,127.59,81.06z"/>
	<path class="st1" d="M468.18,153.56c0.8,0,1.66-0.19,2.38,0.05c0.67,0.22,1.53,0.82,1.66,1.4c0.11,0.5-0.67,1.22-1.1,1.81
		c-0.07,0.09-0.38,0.09-0.54,0.03c-2.05-0.83-4.09-0.52-6.13,0.03c-0.33,0.09-0.72,0.22-1,0.12c-0.48-0.18-1.1-0.44-1.27-0.84
		c-0.15-0.35,0.11-1.21,0.41-1.35c1.08-0.5,2.25-0.86,3.42-1.12c0.69-0.15,1.44-0.03,2.16-0.03
		C468.19,153.63,468.19,153.59,468.18,153.56z"/>
	<path class="st2" d="M339.91,98.52c-0.91,0.76-1.64,1.37-2.38,1.97c-0.07,0.05-0.23,0.03-0.33-0.01c-3.28-1.04-6.53-0.27-9.78,0.21
		c-0.35,0.05-0.73-0.11-1.1-0.17c0.12-0.41,0.12-0.92,0.38-1.2c0.7-0.77,1.53-1.26,2.7-1.22c1.48,0.04,2.96-0.25,4.45-0.26
		c1.69-0.02,3.37,0.11,5.06,0.2C339.14,98.05,339.36,98.25,339.91,98.52z"/>
	<path class="st1" d="M415.65,126.22c-0.61-0.16-1.21-0.36-1.83-0.47c-1.18-0.21-2.37-0.4-3.56-0.55c-0.48-0.06-1.05,0.16-1.46-0.02
		c-0.45-0.19-0.98-0.65-1.08-1.08c-0.08-0.34,0.35-1.05,0.72-1.19c1.86-0.73,3.74-0.7,5.63,0.02c0.8,0.3,1.68,0.58,2.51,0.54
		c0.86-0.04,1.33,0.16,1.44,0.98c0.12,0.89-0.48,1.31-1.2,1.55c-0.34,0.11-0.75,0.02-1.13,0.02
		C415.67,126.08,415.66,126.15,415.65,126.22z"/>
	<path class="st2" d="M103.34,124.62c-0.41,0.68-0.93,1.65-1.56,2.53c-1.63,2.27-3.06,4.64-3.6,7.43c-0.13,0.66-0.46,0.97-1.1,0.84
		c-0.67-0.14-0.93-0.54-0.72-1.27c0.23-0.8,0.33-1.64,0.52-2.46c0.68-2.97,2.77-5.1,4.5-7.43c0.23-0.31,0.64-0.56,1.01-0.7
		C103.04,123.31,103.45,123.53,103.34,124.62z"/>
	<path d="M118.37,196.37c0.35-0.66,0.59-1.43,1.09-1.93c0.3-0.3,1.08-0.37,1.51-0.2c0.32,0.13,0.65,0.83,0.6,1.23
		c-0.27,1.91-0.11,3.69,0.95,5.37c0.7,1.12,0.35,2.17-0.87,2.56c-0.38,0.12-1.21-0.28-1.43-0.67
		C119.12,200.8,118.29,198.76,118.37,196.37z"/>
	<path class="st1" d="M469.8,139.99c1.42,0.17,3.11,0.36,4.8,0.59c0.71,0.1,1.52,0.22,1.4,1.26c-0.11,0.96-0.67,1.36-1.65,1.28
		c-2.42-0.2-4.84-0.35-7.26-0.52c-0.78-0.05-1.17-0.43-1.15-1.25c0.02-0.83,0.27-1.45,1.2-1.47
		C467.93,139.86,468.73,139.94,469.8,139.99z"/>
	<path class="st2" d="M373.43,95.87c2.43,0.38,4.43,0.67,6.42,1.03c0.25,0.05,0.66,0.54,0.61,0.7c-0.11,0.35-0.43,0.81-0.74,0.88
		c-1.74,0.4-3.45,0.42-5.26,0.05c-1.3-0.27-2.76,0.24-4.15,0.33c-0.5,0.03-1.01-0.13-1.51-0.2c0.27-0.5,0.42-1.27,0.84-1.46
		C370.96,96.62,372.37,96.23,373.43,95.87z"/>
	<path class="st1" d="M179.94,145.61c1.59-0.16,3.17-0.37,4.76-0.45c0.53-0.03,1.08,0.29,1.62,0.45c-0.38,0.44-0.67,1.01-1.15,1.27
		c-0.66,0.37-1.45,0.64-2.2,0.7c-2.28,0.2-4.56,0.24-6.84,0.41c-0.81,0.06-1.25-0.28-1.39-1c-0.15-0.81,0.4-1.25,1.09-1.33
		c1.35-0.16,2.72-0.19,4.08-0.28C179.92,145.45,179.93,145.53,179.94,145.61z"/>
	<path class="st2" d="M115.43,101.97c-0.26,0.62-0.39,1.32-0.79,1.83c-1.67,2.17-3.25,4.38-4.12,7.02
		c-0.15,0.44-0.49,0.93-0.88,1.16c-0.65,0.38-1.21,0.06-1.38-0.66c-0.1-0.43-0.11-0.94,0.04-1.35c1.12-3.12,3.1-5.63,5.62-7.74
		c0.3-0.25,0.7-0.37,1.06-0.55C115.13,101.78,115.28,101.87,115.43,101.97z"/>
	<path class="st2" d="M416.88,98.98c-0.82,0.24-1.68,0.41-2.46,0.74c-0.68,0.29-1.2,0.25-1.54-0.41c-0.37-0.71-0.25-1.44,0.49-1.75
		c1.04-0.44,2.13-0.87,3.24-1c1.58-0.19,3.19-0.15,4.78-0.14c0.29,0,0.68,0.29,0.84,0.56c0.12,0.19,0.02,0.64-0.14,0.85
		c-0.55,0.71-1.21,1.16-2.22,1.12c-0.97-0.04-1.94,0.18-2.92,0.28C416.92,99.16,416.9,99.07,416.88,98.98z"/>
	<path class="st1" d="M182.4,89.8c0.43-0.32,0.83-0.85,1.29-0.91c1.35-0.19,2.73-0.2,4.09-0.27c1.44-0.07,2.89-0.11,4.33-0.2
		c0.67-0.04,1.38-0.17,1.48,0.76c0.09,0.81-0.28,1.26-1.18,1.3c-2.13,0.09-4.26,0.24-6.39,0.38c-0.76,0.05-1.52,0.12-2.27,0.22
		C182.96,91.2,182.64,90.8,182.4,89.8z"/>
	<path class="st2" d="M432.36,98.75c-0.19-0.2-0.78-0.6-0.95-1.13c-0.08-0.24,0.62-0.97,1.07-1.09c2.29-0.62,4.6-1.17,6.93-1.63
		c0.56-0.11,1.23,0.14,1.78,0.39c0.15,0.07,0.15,0.8-0.01,1.11c-0.18,0.33-0.6,0.57-0.97,0.73c-0.7,0.29-1.42,0.56-2.15,0.7
		C436.31,98.15,434.56,98.4,432.36,98.75z"/>
	<path class="st2" d="M462.24,87.36c0.54,0.32,1.53,0.64,1.52,0.94c-0.03,0.84-0.78,1.14-1.62,1.38c-2.47,0.71-5.17,0.79-7.28,2.56
		c-0.21,0.17-0.96,0.08-1.08-0.12c-0.22-0.35-0.35-1.07-0.15-1.29c0.56-0.63,1.25-1.3,2.01-1.56
		C457.74,88.54,459.91,88.01,462.24,87.36z"/>
	<path class="st1" d="M128.27,123.51c-0.04,0-0.08,0-0.11,0c-0.87,0.01-2.01,0.21-2.05-1.02c-0.03-1.13,1.19-1.21,1.98-1.29
		c2.35-0.25,4.71-0.39,7.07-0.46c0.4-0.01,1.03,0.48,1.18,0.88c0.23,0.62-0.18,1.01-0.92,1.1c-2.38,0.28-4.75,0.61-7.12,0.93
		C128.28,123.6,128.28,123.55,128.27,123.51z"/>
	<path class="st1" d="M159.33,146.6c-1.55-0.12-3.11-0.19-4.65-0.39c-0.35-0.04-0.83-0.48-0.9-0.8c-0.07-0.32,0.23-0.93,0.53-1.06
		c0.63-0.28,1.36-0.43,2.05-0.44c1.67-0.04,3.34-0.05,5,0.09c0.67,0.06,1.31,0.57,1.96,0.87c-0.51,0.43-0.96,1.01-1.55,1.24
		C161.03,146.42,160.17,146.45,159.33,146.6z"/>
	<path class="st2" d="M474.25,80.09c0.53-0.62,0.93-1.25,1.47-1.71c1.39-1.18,3.13-1.46,4.85-1.78c0.56-0.1,1.09-0.34,1.65-0.39
		c0.42-0.03,1,0,1.26,0.26c0.29,0.29,0.51,0.95,0.38,1.28c-0.13,0.31-0.76,0.54-1.19,0.59c-2.44,0.29-4.8,0.7-6.62,2.57
		c-0.2,0.2-0.72,0.27-1,0.16C474.77,80.97,474.61,80.56,474.25,80.09z"/>
	<path class="st1" d="M160.66,120.1c-1.03,0-2.07,0.1-3.07-0.05c-0.48-0.07-0.89-0.62-1.34-0.96c0.32-0.4,0.61-1.11,0.97-1.15
		c1.53-0.17,3.08-0.15,4.63-0.18c0.9-0.01,1.81-0.04,2.7,0.06c0.4,0.04,1.08,0.33,1.1,0.56c0.05,0.43-0.17,1.16-0.49,1.31
		c-0.62,0.3-1.39,0.33-2.1,0.38c-0.8,0.06-1.6,0.01-2.4,0.01C160.66,120.09,160.66,120.1,160.66,120.1z"/>
	<path class="st2" d="M87.69,156.41c0.33-1.04,0.62-2.09,1-3.11c0.33-0.89,0.72-1.76,1.15-2.61c0.2-0.39,0.48-0.82,0.84-1.02
		c0.69-0.4,1.31,0.11,1.08,0.96c-0.35,1.31-0.92,2.57-1.28,3.88c-0.32,1.15-0.48,2.35-0.69,3.53c-0.1,0.59-0.08,1.21-0.24,1.79
		c-0.07,0.25-0.46,0.41-0.7,0.62c-0.23-0.27-0.6-0.52-0.65-0.82c-0.16-1.04-0.21-2.11-0.3-3.16
		C87.83,156.45,87.76,156.43,87.69,156.41z"/>
	<path class="st1" d="M134.74,100.23c-0.46,0-1.01,0.16-1.35-0.04c-0.48-0.29-1.06-0.8-1.14-1.29c-0.13-0.75,0.61-0.76,1.21-0.81
		c2.42-0.19,4.85-0.48,7.27-0.55c0.51-0.01,1.27,0.65,1.5,1.19c0.31,0.71-0.49,0.64-0.95,0.71c-2.17,0.32-4.35,0.63-6.52,0.95
		C134.75,100.33,134.75,100.28,134.74,100.23z"/>
	<path class="st1" d="M179.15,68.56c1.85-0.13,3.69-0.29,5.54-0.39c0.59-0.03,1.2,0.03,1.77,0.19c0.19,0.06,0.41,0.56,0.36,0.81
		c-0.04,0.22-0.42,0.51-0.68,0.54c-2.97,0.36-5.94,0.69-8.92,1c-0.58,0.06-1.26,0.26-1.53-0.56c-0.19-0.57-0.19-1.09,0.53-1.24
		c0.96-0.2,1.93-0.35,2.9-0.52C179.13,68.45,179.14,68.51,179.15,68.56z"/>
	<path class="st1" d="M168.84,100.53c-0.13,0.26-0.24,0.8-0.55,0.98c-0.24,0.14-0.74-0.23-1.13-0.25c-1.14-0.05-2.29-0.17-3.41-0.01
		c-0.92,0.13-1.77,0.69-2.69,0.91c-0.41,0.1-0.91-0.15-1.37-0.24c0.15-0.49,0.15-1.25,0.48-1.44c2.21-1.27,4.53-2.23,7.17-1.48
		C168.05,99.2,168.73,99.44,168.84,100.53z"/>
	<path class="st1" d="M147.99,77.35c1.87,0.19,3.28,0.27,4.66,0.51c0.46,0.08,0.97,0.49,1.22,0.9c0.3,0.48,0.24,1.08-0.57,1.12
		c-2.2,0.11-4.41,0.23-6.61,0.25c-0.45,0-0.9-0.4-1.34-0.62c0.23-0.44,0.35-1.04,0.72-1.28C146.77,77.77,147.59,77.52,147.99,77.35z
		"/>
	<path class="st1" d="M195.05,102.85c0.73,1.98,0.6,2.09-1.47,2.28c-1.84,0.17-3.66,0.57-5.49,0.81c-0.5,0.06-1.06-0.01-1.52-0.21
		c-0.24-0.11-0.45-0.61-0.43-0.92c0.01-0.24,0.37-0.6,0.63-0.65c2.16-0.39,4.33-0.73,6.5-1.08
		C193.85,102.99,194.45,102.92,195.05,102.85z"/>
	<path class="st1" d="M119.52,141.75c0.55-0.24,1.09-0.64,1.66-0.68c1.01-0.07,2.05,0.16,3.06,0.13c1.29-0.05,2.57-0.28,3.85-0.34
		c0.43-0.02,0.87,0.26,1.3,0.4c-0.27,0.36-0.47,0.91-0.82,1.04c-2.85,1.06-5.74,1.75-8.64,0.14c-0.13-0.07-0.27-0.15-0.4-0.22
		C119.52,142.07,119.52,141.91,119.52,141.75z"/>
	<path class="st1" d="M189.98,124.84c-0.99,0-1.99,0.08-2.96-0.04c-0.47-0.06-0.89-0.49-1.33-0.76c0.33-0.45,0.64-1.27,1-1.29
		c1.57-0.11,3.15-0.01,4.73,0.04c0.49,0.02,1,0.25,1.45,0.15c1.13-0.23,1.25,0.63,1.32,1.27c0.08,0.8-0.66,0.77-1.24,0.77
		c-0.99,0.01-1.98,0-2.97,0C189.98,124.94,189.98,124.89,189.98,124.84z"/>
	<path d="M120.52,191.03c-0.76,0.45-1.29,1.01-1.59,0.9c-0.51-0.18-0.87-0.78-1.29-1.2c0.45-0.4,0.89-1.08,1.37-1.11
		C119.39,189.59,119.83,190.35,120.52,191.03z"/>
	<path class="st3" d="M393.04,206.62c0.97-0.26,1.93-0.51,2.9-0.77c0.04,0.13,0.08,0.26,0.13,0.39c-0.94,0.33-1.88,0.66-2.82,0.99
		C393.18,207.03,393.11,206.83,393.04,206.62z"/>
	<path class="st3" d="M108.16,194.53c0,1.07,0,2.04,0,3.1C106.03,196.22,106.38,196.2,108.16,194.53z"/>
</g>
</svg>
