<?xml version="1.0" encoding="utf-8"?>
<!-- Generator: Adobe Illustrator 26.0.1, SVG Export Plug-In . SVG Version: 6.00 Build 0)  -->
<svg version="1.1" id="Layer_1" xmlns="http://www.w3.org/2000/svg" xmlns:xlink="http://www.w3.org/1999/xlink" x="0px" y="0px"
	 viewBox="0 0 512 220" style="enable-background:new 0 0 512 220;" xml:space="preserve">
<style type="text/css">
	.st0{fill:#C1272D;}
	.st1{fill:#209940;}
	.st2{fill:#662D91;}
	.st3{fill:#FFFFFF;}
</style>
<g>
	<path d="M388.8,198.9c-0.2-1.8,0.9-3.1,2.2-4.2c0.7-0.6,1.4-1.3,2.1-1.9c0.5-0.4,1.1-0.7,1.7-0.8c1.7-0.2,4.7,1.6,5.5,3.2
		c0.3,0.5,0.2,0.8-0.3,1.2c-0.9,0.7-1.5,1.6-2.4,2.2c-0.7,0.5-1.5,0.7-2.3,1c-0.6,0.2-1.1,0.3-1,1.1c0.1,0.7,0.4,1.2,1.2,1.1
		c1.7-0.3,3.5-0.5,5.1-1c1.4-0.5,1.6-0.5,2.1,0.8c0.1,0.3,0.7,0.6,1,0.5c1.6-0.6,3-0.4,4.5,0.3c0.7,0.3,1.4,0.2,1.9-0.5
		c0.5-0.7,0.2-1.2-0.2-1.8c-0.6-0.9-1.2-1.8-1.8-2.7c-0.9-1.4-0.6-2.8,0.2-4.1c1.1-1.7,3.1-2.7,4.7-2.1c0.8,0.3,1.6,0.7,1.5,1.8
		c-0.1,0.9-1.5,2.1-2.3,2.1c-0.5,0-1.2,0.1-1.3,0.3c-0.1,0.5,0,1.1,0.3,1.6c0.6,1.1,1.3,2.2,2,3.3c0.9,1.4,0,3-1.1,3.7
		c-0.4,0.3-0.9,0.5-1.4,0.8c-1,0.8-1.9,1.3-3.3,0.7c-1-0.4-2.4-0.2-3.6-0.3c-0.7,0-2-0.9-2-1.6c-0.1-1-0.8-0.9-1.2-0.5
		c-1.6,1.7-3.7,1.3-5.6,1.2c-1.6-0.1-3.3-0.6-4.8-1.4C389.1,202.1,388.5,200.6,388.8,198.9z M393,196.6c0.1,0.2,0.1,0.4,0.2,0.6
		c0.9-0.3,1.9-0.7,2.8-1c0-0.1-0.1-0.3-0.1-0.4C395,196.1,394,196.4,393,196.6z"/>
	<path d="M98.2,197.5c-1-0.1-2.2-0.1-3.4-0.2c-0.5-0.1-1.2-0.3-1.3-0.6c-0.2-0.7-0.1-1.6,0.8-1.8c0.9-0.2,1.9-0.3,2.9-0.3
		c0.8,0,1.7,0.2,2.5,0.3c1,0.1,1.4-0.2,1.4-1.3c-0.1-2.1-0.1-4.2,0-6.4c0-0.6,0.4-1.4,0.8-1.9c0.4-0.5,1.1-0.6,1.7-0.1
		c0.6,0.5,0.8,1,0.5,1.9c-0.3,0.7-0.2,1.6-0.3,2.4c-0.1,1.3-0.1,2.6-0.1,3.9c0,0.8,0.3,1.2,1.2,1.1c1.4-0.2,2.9-0.2,4.3-0.3
		c1.1-0.1,1.8,0.5,1.8,1.3c0,0.9-1.1,1.6-2,1.6c-1.5,0.1-3,0.2-4.5,0.4c-0.2,0-0.4,0.6-0.4,0.9c0.2,1.7,0.4,3.4,0.7,5.1
		c0.1,0.8,0.2,1.6-0.7,2.1c-0.4,0.2-1.1,0.5-1.3,0.4c-0.4-0.2-0.8-0.8-0.9-1.3c-0.2-1.9-0.3-3.9-0.3-5.8c0-1-0.3-1.6-1.5-1.4
		C99.6,197.6,99,197.5,98.2,197.5z"/>
	<path d="M374.1,193.9c0.1-1.3,0.2-2.5,0.5-3.7c0.1-0.4,0.9-1.1,1-1c0.5,0.2,1.1,0.7,1.3,1.2c0.2,0.6,0.1,1.4,0.1,2
		c0.1,0.9,0.4,1.4,1.5,1.2c1.6-0.3,3.2-0.5,4.9-0.7c0.8-0.1,1.7,0.1,2.5,0.4c0.8,0.3,0.8,1.1,0.6,1.8c-0.2,0.7-0.4,1.2-1.2,1.2
		c-0.4,0-0.8,0-1.1-0.1c-1.9-0.7-3.7,0-5.5,0.5c-0.7,0.2-0.8,0.6-0.8,1.3c0,1.5,0,3,0,4.4c0,0.9-0.3,1.7-1.3,1.9
		c-0.8,0.1-1.6-0.8-1.6-1.9c0-1.3,0.1-2.6,0-3.9c0-1.4-0.3-1.4-1.7-1.3c-1.1,0.1-2.3-0.1-3.5-0.3c-0.4-0.1-0.8-0.8-0.8-1.3
		c0-0.5,0.3-1.2,0.7-1.4c0.9-0.3,1.9-0.3,2.9-0.3C373.1,193.9,373.7,193.9,374.1,193.9z"/>
	<path d="M130,204.9c-1.6,0.6-2.9,1.3-4.4,1.6c-1.3,0.3-1.8-0.3-2.3-1.6c-0.8-2.6,1.5-7.4,5.1-8c1.4-0.2,2.9,0.9,2.8,2.2
		c-0.3,2.5,1.3,4,2.9,5.4c0.4,0.3,1.2,0.1,1.7,0.2c0.5,0.1,1.2,0.2,1.3,0.4c0.1,0.5-0.1,1.2-0.4,1.6c-0.7,0.8-1.6,1.1-2.7,0.7
		C132.5,206.8,130.8,206.3,130,204.9z M128.2,199.5c-1.8,1.7-2.1,1.7,0,3.1C128.2,201.6,128.2,200.6,128.2,199.5z"/>
	<path d="M148.9,201.6c0.5-0.4,1.1-0.7,1.5-1.2c1.8-2,3.8-1.6,5.3,0.4c0.5,0.7,0.8,1.5,1.2,2.3c1,2.1,2.1,4.1,3.1,6.2
		c0.4,0.7,0.4,1.4-0.3,1.9c-0.7,0.5-1.3,0.4-1.9-0.2c-1.7-1.9-2.3-4.3-3.3-6.6c-0.1-0.3-0.2-0.6-0.4-0.8c-0.4-0.6-0.9-1.1-1.4-1.6
		c-0.6,0.5-1.2,0.9-1.7,1.5c-0.4,0.6-0.8,1.3-0.8,2c-0.2,1.2-1,1.9-1.8,2.6c-0.3,0.2-1,0.1-1.4-0.1c-0.3-0.1-0.5-0.6-0.5-1
		c-0.2-1.4-0.2-2.8-0.4-4.2c-0.1-1.4,0.5-2.4,1.1-3.5c0.2-0.3,0.7-0.4,1.1-0.6c0.2,0.4,0.4,0.8,0.5,1.1c0,0.6-0.1,1.1-0.2,1.7
		C148.7,201.5,148.8,201.5,148.9,201.6z"/>
	<path d="M424,195.4c1.4,0,2.7,0,4,0c0.8,0,1.7,0.1,1.6,1.3c-0.1,1.1-0.7,1.3-1.6,1.3c-0.8,0-1.6,0.2-2.5,0.3
		c-0.8,0.1-1,0.6-0.8,1.2c0.2,1.1,0.5,2.2,0.8,3.3c0.4,1.1-0.1,1.9-0.7,2.7c-0.5,0.6-1.4,0.1-1.8-1.1c-0.5-1.5-0.9-3.1-1.3-4.7
		c-0.2-0.8-0.5-1.2-1.4-1.1c-0.9,0.2-1.9,0.2-2.8,0.3c-1.1,0.1-1.8-0.4-1.9-1.4c-0.1-0.9,0.8-1.7,1.7-1.7c1-0.1,2-0.1,2.9-0.3
		c0.2,0,0.5-0.5,0.6-0.8c0.2-0.9,0.2-1.7,0.3-2.6c0.1-0.9,0.3-1.6,1.4-1.6c0.8,0,1.6,1.1,1.5,2c0,0.7-0.2,1.4-0.3,2
		C423.9,195,424,195.2,424,195.4z"/>
	<path class="st0" d="M76,136.8c0.5-0.6,1.3-1.8,2.3-2.9c0.3-0.3,0.8-0.5,1.2-0.5c0.4,0,0.9,0.4,1,0.7c0.1,0.3-0.2,0.9-0.5,1.1
		c-1.6,1.1-2.5,2.6-3.2,4.3c-0.1,0.3,0,1,0.3,1.3c0.9,0.8,2,1.4,3,2.3c0.4,0.3,0.7,1,0.6,1.4c-0.1,0.4-0.8,0.7-1.3,0.7
		c-0.5,0-1.1-0.3-1.5-0.6c-0.4-0.3-0.8-0.7-1.2-1c-2-1.5-2-1.5-3.4,0.7c-0.3,0.6-0.7,1.1-1.2,1.5c-0.3,0.2-0.9,0.4-1.3,0.2
		c-1.1-0.4-1.2-0.6-0.5-1.6c0.6-0.8,1.2-1.6,1.9-2.4c0.8-1,0.8-1.4-0.1-2.2c-0.3-0.3-0.7-0.6-1-1c-0.4-0.5-0.9-0.9-0.4-1.6
		c0.6-0.7,1.3-0.6,2-0.2c0.2,0.1,0.3,0.3,0.5,0.5C74.5,138.5,74.5,138.5,76,136.8z"/>
	<path class="st0" d="M89.4,46.6c-0.7,1-1.2,1.9-1.8,2.8c-0.4,0.6-0.9,1-1.6,0.5c-0.7-0.5-0.7-1.2-0.3-1.8c0.5-0.9,1.1-1.8,1.7-2.8
		c-0.9-0.4-1.7-0.9-2.5-1.2c-0.8-0.4-0.9-1.1-0.6-1.7c0.2-0.4,1-0.9,1.4-0.8c0.8,0.1,1.7,0.5,2.4,1c1.2,0.8,1.5,0.9,2.5-0.2
		c0.7-0.7,1.3-1.3,2.1-1.8c0.3-0.2,1-0.1,1.3,0.1c0.2,0.2,0.2,0.9,0.1,1.2c-0.5,0.7-1,1.3-1.7,1.8c-0.7,0.6-0.8,1.1,0,1.7
		c0.8,0.5,1.6,1.1,2.4,1.7c0.5,0.4,1,1,0.5,1.8c-0.4,0.5-1.6,0.5-2.2,0.1C91.8,48.2,90.7,47.5,89.4,46.6z"/>
	<path class="st0" d="M92.3,103.7c-1,1.4-2,2.8-3.1,4.2c-0.4,0.6-0.3,1,0.3,1.4c0.8,0.6,1.7,1.1,2.4,1.8c0.4,0.4,0.6,1,0.8,1.5
		c-0.6,0.1-1.2,0.4-1.6,0.2c-1.1-0.6-2.1-1.3-3.1-2.1c-0.5-0.4-0.9-0.4-1.2,0.1c-0.5,0.7-1,1.3-1.5,2c-0.4,0.6-0.8,0.8-1.4,0.5
		c-0.7-0.3-0.8-0.9-0.5-1.5c0.5-0.9,1-1.7,1.6-2.5c0.5-0.6,0.2-0.9-0.2-1.3c-0.7-0.5-1.3-1.1-1.9-1.6c-0.4-0.3-1-0.5-0.5-1.2
		c0.5-0.6,1.6-0.9,2.1-0.4c0.6,0.5,1.2,1,1.8,1.5c0.6,0.5,1,0.5,1.5-0.1c1.1-1.2,2.3-2.5,3.5-3.6c0.4-0.4,1.2-0.4,1.9-0.7
		c-0.2,0.6-0.4,1.2-0.6,1.8C92.5,103.8,92.4,103.7,92.3,103.7z"/>
	<path class="st0" d="M113.5,36c-0.5,0.9-1,1.6-1.6,2.5c1.2,0.7,2.4,1.4,3.6,2.1c0.8,0.5,1.1,1.4,0.6,2.2c-0.5,0.8-1.1,0.9-1.9,0.3
		c-0.8-0.6-1.8-1.1-2.7-1.6c-1.3-0.7-1.8-0.5-2.5,0.8c-0.3,0.7-0.6,1.4-0.9,2.1c-0.3,0.6-0.7,1.1-1.5,0.7c-0.7-0.4-1-1-0.6-1.7
		c0.5-0.9,0.9-1.9,1.5-2.8c0.5-0.8,0.2-1.2-0.5-1.4c-0.4-0.1-0.8-0.3-1.1-0.6c-0.3-0.3-0.7-0.8-0.6-1.2c0.1-0.4,0.7-0.9,1-0.9
		c0.8,0,1.7,0.2,2.5,0.5c0.8,0.3,1.3,0.2,1.6-0.6C111,35,112.4,34.8,113.5,36z"/>
	<path class="st1" d="M134.9,110.3c-0.9,0.9-1.8,1.8-2.7,2.7c-0.7,0.7-0.6,1.1,0.1,1.8c0.7,0.6,1.3,1.3,1.8,2c0.2,0.3,0.2,0.9,0,1.1
		c-0.3,0.2-0.9,0.4-1.2,0.2c-0.8-0.4-1.6-0.8-2.2-1.4c-0.7-0.7-1.1-0.5-1.6,0.3c-0.3,0.5-0.7,1.1-1.1,1.5c-0.2,0.2-0.9,0.3-1.1,0.1
		c-0.3-0.2-0.5-0.8-0.3-1.2c0.3-0.8,0.8-1.5,1.2-2.2c0.3-0.5,0.2-0.9-0.4-1.3c-1.3-1-2.5-2.1-3.7-3.1c-0.2-0.2-0.2-0.5-0.3-0.7
		c0.3-0.1,0.7-0.4,0.9-0.3c1.4,0.6,2.8,1.1,4,1.8c1.2,0.7,1.3,0.8,2.4-0.3c0.9-0.9,1.9-1.8,2.9-2.7c0.7-0.6,1.4-0.3,1.7,0.3
		c0.2,0.3,0,0.9,0,1.4C135.2,110.4,135.1,110.3,134.9,110.3z"/>
	<path class="st1" d="M169.1,122.1c-0.7,1-1.4,1.9-2,2.9c-0.4,0.6-0.8,0.9-1.5,0.5c-0.7-0.4-0.9-1.1-0.5-1.8
		c0.4-0.7,0.9-1.4,1.4-2.1c0.6-0.8,0.5-1.5-0.1-2.2c-0.4-0.5-0.8-1.1-1.3-1.6c-0.6-0.7-0.4-1.2,0.2-1.6c0.5-0.4,1-0.6,1.6,0.1
		c1.7,2.1,1.8,2.1,3.7,0.1c0.2-0.2,0.5-0.5,0.7-0.7c0.5-0.5,1-0.6,1.6-0.1c0.6,0.5,0.4,1.1,0,1.6c-0.5,0.6-1.1,1.3-1.7,1.9
		c-0.5,0.6-0.6,1,0.1,1.5c0.8,0.6,1.5,1.4,2.3,2c0.8,0.6,0.6,1.2,0.1,1.8c-0.6,0.7-1.1,0.7-1.7,0.1c-0.5-0.4-1-0.8-1.5-1.3
		C170.1,123,169.6,122.6,169.1,122.1z"/>
	<path class="st1" d="M174,94.7c-0.5,0.8-1,1.5-1.4,2.3c-0.3,0.6-0.8,1-1.5,0.7c-0.7-0.4-0.7-1.1-0.3-1.7c1.8-2.8,1.8-2.6-1.1-4.6
		c-0.6-0.4-1.4-0.9-0.8-1.9c0.5-0.7,1.5-0.6,2.3,0c2.4,2,2.9,1.9,4.6-0.9c0.3-0.5,0.7-1,1.1-1.4c0.3-0.2,0.7-0.3,1.1-0.4
		c0.1,0.4,0.5,1,0.4,1.3c-0.6,1.2-1.2,2.3-2,3.4c-0.9,1.2-1,1.2,0.3,2.1c0.9,0.6,1.8,1.3,2.6,2c0.3,0.3,0.3,0.9,0.4,1.4
		c-0.4,0.1-0.8,0.3-1.1,0.2c-1.4-0.6-2.7-1.4-4-2.1C174.4,94.9,174.2,94.9,174,94.7z"/>
	<path d="M113,200.1c0.1-0.6,0.2-1.6,0.5-2.6c0.3-0.9,0.9-1.4,1.9-1.2c0.4,0.1,0.9,0,1.2-0.2c1.4-0.9,3-1.6,4.7-1.5
		c0.3,0,0.9,0.2,0.9,0.4c0,0.4-0.1,1-0.4,1.3c-0.3,0.3-0.8,0.4-1.2,0.5c-2.4,0.7-4.1,3-4,5.5c0,0.4-0.1,0.9,0.1,1.2
		c0.7,1.6-0.8,2.2-1.5,3.1c-0.1,0.1-0.9,0.1-1.1-0.2c-0.3-0.4-0.7-0.9-0.7-1.4C113.2,203.6,113.2,202.1,113,200.1z"/>
	<path class="st0" d="M132.4,33.7c0.5-0.2,0.8-0.5,1.3-0.6c0.6-0.1,1.1-0.1,1.7-0.1c0,0.5,0,1.1-0.1,1.6c-0.1,0.3-0.4,0.5-0.6,0.8
		c-0.2,0.3-0.5,0.9-0.5,1c0.4,0.3,0.9,0.8,1.3,0.7c1-0.3,1.7,0.3,1.8,0.9c0.1,0.6-0.3,1.5-0.7,1.9c-0.3,0.3-1.2,0.3-1.7,0.1
		c-0.8-0.4-1.5-1.1-2.3-1.7c-0.8-0.7-1-0.6-1.3,0.3c-0.1,0.4-0.2,0.8-0.4,1.2c-0.3,0.6-0.8,1-1.5,0.7c-0.7-0.3-1.1-0.8-0.8-1.5
		c0.3-0.8,0.7-1.7,1.1-2.5c0.6-0.9,0.5-1.6-0.1-2.4c-0.6-0.8-0.4-1.5,0.2-2.1c0.7-0.7,1.4-0.5,1.8,0.4c0.1,0.3,0.2,0.6,0.4,0.9
		C132,33.4,132.2,33.6,132.4,33.7z"/>
	<path class="st0" d="M121.1,56.3c-1.1,1.1-2,2.1-3,3c-0.5,0.5-0.4,1,0.1,1.3c0.6,0.4,1.3,0.7,1.8,1c0.4,0.3,1,0.7,1,1
		c0,0.6-0.3,1.3-0.7,1.7c-0.2,0.2-1.1,0.2-1.4-0.1c-1.1-0.7-2.1-1.6-3.3-2.5c-0.5,0.7-0.9,1.3-1.3,2c-0.5,0.8-1.2,1.1-1.9,0.7
		c-0.8-0.5-0.6-1.3-0.2-2c0.2-0.3,0.3-0.5,0.5-0.8c0.5-0.7,0.8-1.4-0.2-2c-0.7-0.4-0.5-1.1,0.1-1.3c0.6-0.2,1.5-0.4,1.9-0.1
		c0.8,0.5,1.3,0.2,1.8-0.2c1-0.8,1.9-1.6,2.9-2.3C120,55.2,120.6,55.4,121.1,56.3z"/>
	<path class="st1" d="M137.7,148.4c1,0.8,0.6,1.6,0.1,2.3c-1.5,1.9-1.5,1.9,0.2,3.6c0.8,0.8,1.7,1.4,1.4,2.7c-0.1,0.4-0.3,0.9-0.5,1
		c-0.6,0.2-1,0-1.4-0.6c-0.5-0.9-1.2-1.7-1.8-2.4c-0.6-0.7-1.1-0.6-1.6,0.3c-0.3,0.6-0.7,1.2-1.2,1.6c-0.3,0.3-0.9,0.3-1.4,0.4
		c0-0.5-0.3-1.1-0.1-1.5c0.3-0.7,0.9-1.2,1.3-1.8c0.4-0.5,0.3-0.9-0.2-1.3c-0.7-0.6-1.3-1.1-1.9-1.8c-0.2-0.2-0.5-0.7-0.4-0.9
		c0.1-0.3,0.5-0.6,0.8-0.7c0.9-0.2,1.6,0.1,2.2,0.8c1.2,1.2,1.2,1.2,2.4,0c0.4-0.4,0.7-0.7,1.1-1C137,148.7,137.3,148.6,137.7,148.4
		z"/>
	<path class="st0" d="M64.4,106.6c-1.2,1.2-2.3,2.3-3.4,3.4c-0.1,0.1-0.6,0.2-0.7,0.1c-0.2-0.1-0.3-0.6-0.2-0.7
		c0.4-0.5,0.7-1.2,1.2-1.4c1-0.4,1.1-1.2,1.1-1.9c0-0.3-0.7-0.7-1.2-1c-0.4-0.3-0.9-0.4-1.3-0.7c-0.5-0.3-1.1-0.8-0.6-1.4
		c0.5-0.6,1.1-1.1,2-0.5c0.1,0.1,0.2,0.1,0.3,0.2c1.9,1.1,2.3,1,3.6-0.8c0.3-0.4,0.6-0.9,1-1.1c0.3-0.2,1-0.3,1.2-0.1
		c0.2,0.2,0.3,0.9,0.1,1.3c-0.3,0.6-0.9,1.2-1.3,1.8c-0.4,0.6-0.4,1.2,0.4,1.5c1.1,0.4,2.2,1,3.2,1.4c0.2,0.1,0.5,0.1,0.6,0.3
		c0.3,0.4,0.4,0.8,0.6,1.3c-0.4,0.1-0.9,0.5-1.2,0.4c-1.4-0.4-2.7-0.9-4.1-1.4C65.4,107.1,65,106.9,64.4,106.6z"/>
	<path class="st1" d="M153.1,154.7c-0.6,0.9-1.1,1.6-1.6,2.2c-0.3,0.3-0.8,0.5-1.2,0.7c-0.2-0.5-0.6-1.2-0.5-1.6
		c0.2-0.9,0.8-1.6,1.3-2.6c-0.6-0.6-1.4-1.4-2.1-2.1c-0.5-0.5-1-1-0.3-1.6c0.6-0.6,1.3-0.5,1.9,0.1c2,2.1,2.1,2.1,4.1,0.1
		c0.3-0.3,0.7-0.6,1-1c0.5-0.6,1.2-0.8,1.6-0.2c0.2,0.3,0,1-0.2,1.4c-0.5,0.7-1.2,1.4-1.8,2c-0.5,0.5-0.7,1,0.1,1.4
		c0.6,0.3,1.2,0.7,1.8,1c0.7,0.4,1.3,0.9,0.8,1.7c-0.5,0.9-1.2,0.5-1.9,0.1C155,155.9,154.1,155.3,153.1,154.7z"/>
	<path class="st1" d="M114.7,155.8c-1.5,1.4-1.5,1.8-0.1,2.9c0.7,0.5,1.4,0.9,2,1.5c0.3,0.3,0.3,0.9,0.5,1.4c-0.5,0.1-1,0.4-1.4,0.3
		c-1-0.5-2-1.1-2.9-1.8c-0.8-0.7-1.3-0.7-1.8,0.2c-0.2,0.4-0.6,0.8-0.8,1.2c-0.3,0.8-0.7,1.1-1.5,0.7c-0.7-0.4-0.6-1.1-0.2-1.7
		c0.4-0.6,0.9-1.3,1.3-1.9c0.4-0.5,0.3-0.9-0.2-1.2c-0.8-0.6-1.7-1.2-2.4-1.9c-0.3-0.2-0.4-0.6-0.6-0.9c0.3-0.1,0.7-0.5,0.9-0.4
		c1,0.3,2,0.7,2.8,1.3c0.8,0.6,1.3,0.7,2-0.1c0.5-0.6,1.1-1.1,1.8-1.4c0.3-0.2,0.9,0,1.3,0.1c-0.1,0.4-0.1,0.8-0.3,1.2
		C115,155.5,114.7,155.7,114.7,155.8z"/>
	<path class="st1" d="M118.5,136.8c-0.6,0.8-1.1,1.6-1.6,2.4c-0.5,0.7-1,0.6-1.5,0.2c-0.5-0.5-0.5-1-0.1-1.5
		c0.2-0.2,0.4-0.4,0.5-0.6c1.2-1.4,0.9-2.5-0.8-3.2c-0.4-0.1-0.8-0.3-1-0.6c-0.3-0.3-0.6-1.1-0.5-1.2c0.4-0.4,1-0.8,1.5-0.7
		c0.7,0.1,1.2,0.7,1.8,1.1c1.2,1,1.3,1,2.2-0.3c0.3-0.4,0.7-0.8,1.1-1.1c0.3-0.2,0.9-0.2,1-0.1c0.2,0.2,0.2,0.7,0.2,1.1
		c0,0.2-0.2,0.4-0.4,0.6c-1.3,1.7-1.3,2,0.2,3.6c0.3,0.3,0.7,0.6,0.8,1c0.1,0.4,0.2,1,0,1.2c-0.3,0.2-0.9,0.2-1.2,0
		c-0.4-0.2-0.7-0.6-1-0.9C119.2,137.6,118.9,137.3,118.5,136.8z"/>
	<path class="st2" d="M162.6,48.9c-0.2,0.3-0.5,0.7-0.8,0.9c-2.1,1.9-4.3,3.7-6.4,5.6c-1.4,1.2-2.8,2.3-4,3.5
		c-0.9,0.9-1.6,1.9-2.5,2.8c-0.3,0.3-1,0.7-1.4,0.5c-0.8-0.2-0.4-0.9-0.1-1.3c1.1-1.5,2.2-3,3.5-4.3c1.6-1.6,3.5-2.9,5.3-4.3
		c1.6-1.2,3.3-2.2,4.9-3.2c0.4-0.2,0.9-0.3,1.3-0.5C162.4,48.7,162.5,48.8,162.6,48.9z"/>
	<path class="st1" d="M141.4,127.2c0.2,0.2,0.4,0.3,0.6,0.5c1,1,1.7,1,2.6-0.1c0.2-0.3,0.7-0.5,1-0.5c0.6,0,0.9,0.4,0.5,1
		c-0.1,0.1-0.2,0.2-0.3,0.3c-1.3,1.7-1.3,1.7,0.8,2.5c0.3,0.1,0.6,0.2,0.8,0.4c0.2,0.3,0.5,0.8,0.4,1c-0.2,0.3-0.8,0.7-1.1,0.7
		c-0.9-0.3-1.8-0.6-2.6-1.1c-0.9-0.6-1.7-0.5-2.4,0.3c-0.3,0.3-0.5,0.7-0.9,0.9c-0.4,0.1-1,0.2-1.3,0c-0.2-0.1-0.2-0.8,0-1.2
		c0.2-0.4,0.6-0.7,1-1.1c0.6-0.6,0.7-1.1,0-1.7c-0.7-0.6-1.3-1.2-1.8-1.9c-0.2-0.3-0.4-0.9-0.3-1.1c0.3-0.3,0.9-0.5,1.2-0.4
		c0.7,0.3,1.3,0.9,1.9,1.3C141.5,127.1,141.4,127.2,141.4,127.2z"/>
	<path class="st2" d="M186.9,31c-0.3,0.4-0.5,0.9-0.8,1.1c-1.4,0.8-3.1,1.4-4.4,2.4c-2.5,1.8-4.9,3.8-7.3,5.8c-0.5,0.4-1,0.8-1.6,1
		c-0.2,0.1-0.6,0-0.8-0.2c-0.1-0.1,0-0.5,0.1-0.7c0.9-2,2.5-3.3,4.3-4.5c2.7-1.7,5.5-3.4,8.2-5c0.2-0.1,0.4-0.4,0.6-0.5
		c0.3-0.1,0.6-0.3,0.8-0.2C186.4,30.2,186.6,30.6,186.9,31z"/>
	<path class="st2" d="M127.6,81.1c0.6-1.1,0.9-2.2,1.6-3c1.7-1.9,3.7-3.6,5.5-5.4c0.5-0.4,0.9-1,1.3-1.4c0.3-0.3,0.6-0.7,1-0.8
		c0.3-0.1,0.9,0.1,1.1,0.3c0.1,0.2,0.1,0.8-0.1,1c-2,2.1-4.1,4.1-6,6.3c-0.9,1-1.5,2.2-2.3,3.3c-0.2,0.3-0.7,0.8-0.9,0.7
		C128.3,82,128,81.5,127.6,81.1z"/>
	<path class="st2" d="M103.3,124.6c-0.4,0.7-0.9,1.7-1.6,2.5c-1.6,2.3-3.1,4.6-3.6,7.4c-0.1,0.7-0.5,1-1.1,0.8
		c-0.7-0.1-0.9-0.5-0.7-1.3c0.2-0.8,0.3-1.6,0.5-2.5c0.7-3,2.8-5.1,4.5-7.4c0.2-0.3,0.6-0.6,1-0.7
		C103,123.3,103.4,123.5,103.3,124.6z"/>
	<path d="M138.4,201.4c0.4-0.7,0.6-1.4,1.1-1.9c0.3-0.3,1.1-0.4,1.5-0.2c0.3,0.1,0.6,0.8,0.6,1.2c-0.3,1.9-0.1,3.7,0.9,5.4
		c0.7,1.1,0.4,2.2-0.9,2.6c-0.4,0.1-1.2-0.3-1.4-0.7C139.1,205.8,138.3,203.8,138.4,201.4z"/>
	<path class="st2" d="M115.4,102c-0.3,0.6-0.4,1.3-0.8,1.8c-1.7,2.2-3.2,4.4-4.1,7c-0.2,0.4-0.5,0.9-0.9,1.2
		c-0.7,0.4-1.2,0.1-1.4-0.7c-0.1-0.4-0.1-0.9,0-1.3c1.1-3.1,3.1-5.6,5.6-7.7c0.3-0.2,0.7-0.4,1.1-0.6
		C115.1,101.8,115.3,101.9,115.4,102z"/>
	<path class="st2" d="M87.7,156.4c0.3-1,0.6-2.1,1-3.1c0.3-0.9,0.7-1.8,1.2-2.6c0.2-0.4,0.5-0.8,0.8-1c0.7-0.4,1.3,0.1,1.1,1
		c-0.3,1.3-0.9,2.6-1.3,3.9c-0.3,1.1-0.5,2.4-0.7,3.5c-0.1,0.6-0.1,1.2-0.2,1.8c-0.1,0.2-0.5,0.4-0.7,0.6c-0.2-0.3-0.6-0.5-0.7-0.8
		c-0.2-1-0.2-2.1-0.3-3.2C87.8,156.4,87.8,156.4,87.7,156.4z"/>
	<path d="M140.5,196c-0.8,0.4-1.3,1-1.6,0.9c-0.5-0.2-0.9-0.8-1.3-1.2c0.4-0.4,0.9-1.1,1.4-1.1C139.4,194.6,139.8,195.4,140.5,196z"
		/>
	<path class="st3" d="M393,196.6c1-0.3,1.9-0.5,2.9-0.8c0,0.1,0.1,0.3,0.1,0.4c-0.9,0.3-1.9,0.7-2.8,1
		C393.2,197,393.1,196.8,393,196.6z"/>
	<path class="st3" d="M128.2,199.5c0,1.1,0,2,0,3.1C126,201.2,126.4,201.2,128.2,199.5z"/>
	<path d="M39.4,13c-1.5,1.4-2.8,2.5-3.3,4.3c-0.2,0.8-0.9,1.5-1.5,2.1c-0.1,0.1-1.2-0.3-1.3-0.6c-0.2-0.9-0.5-2-0.2-2.8
		c1.1-2.6,2.5-5.2,3.8-7.8c0.5-0.9,0.7-2,1.9-2.4c1.8-0.6,2.6-0.3,3.3,0.9c1.4,2.4,3,4.6,4.5,6.9c0.3,0.4,0.8,0.6,1.1,1
		c0.3,0.5,0.7,1.1,0.6,1.6c-0.1,0.4-0.7,1.1-1,1.1c-0.7,0-1.6-0.3-2-0.8c-1.1-1.3-1.9-2.8-2.8-4.3c-0.1-0.1-0.2-0.2-0.5-0.5
		c0.1,1.1,0.2,1.9,0.3,2.6c0.3,2,0.7,4,0.9,6c0.6,5.8,1.1,11.7,1.6,17.5c0.3,2.8,0.4,5.7,0.7,8.5c0.3,3.6,0.8,7.1,1.1,10.7
		c0.4,4.1,0.5,8.3,1,12.4c0.5,4.8,1.1,9.7,1.6,14.5c0.5,4.7,0.7,9.3,1.2,14c0.2,2.5,0.7,5,1,7.5c0.4,3.9,0.7,7.9,1,11.8
		c0.2,2.4,0.5,4.9,0.6,7.4c0.1,1.5,0.1,3,0.2,4.4c0.3,3.4,0.6,6.8,0.9,10.2c0.3,4,0.7,8,0.9,12.1c0.3,6.4,0.4,12.7,0.6,19.1
		c0.1,1.6,0.4,3.2,0.7,4.8c0.1,0.7,0.6,1,1.2,0.7c3.2-1.5,6.7-1,10-0.9c4.4,0.2,8.7,0,13.1-0.3c3.8-0.3,7.5-0.1,11.3-0.2
		c3.1,0,6.2-0.1,9.4-0.1c4.8,0.1,9.5,0.3,14.3,0.5c4.6,0.2,9.1,0.3,13.7,0.6c4.2,0.2,8.5,0.6,12.7,0.8c2.9,0.2,5.7,0.4,8.6,0.5
		c2.7,0.1,5.4,0.1,8.2,0.2c2,0,4,0,5.9,0.1c3.1,0.1,6.2,0.4,9.3,0.5c5.6,0.3,11.3,0.6,16.9,0.8c3.6,0.2,7.2,0.3,10.8,0.4
		c0.7,0,1.5-0.3,2.2-0.3c0.9,0,1.7,0.1,2.6,0.2c0.9,0.1,1.8,0.5,2.8,0.6c2.3,0.1,4.6,0.2,6.9,0.2c0.6,0,1.2-0.1,2.2-0.3
		c-1.4-1.2-2.5-2.1-3.5-3.1c-0.5-0.5-0.9-1.3-1.1-2c-0.1-0.5,0.2-1.2,0.6-1.5c0.3-0.2,1.1-0.1,1.5,0.2c1.1,0.7,2.2,1.4,3.1,2.3
		c2.2,2.2,4.4,4.6,6.5,6.9c0.8,0.8,0.5,2.1-0.6,2.5c-0.8,0.3-1.7,0.5-2.5,0.8c-2.3,0.6-4.2,1.7-5.8,3.4c-0.5,0.5-1,1-1.8,0.4
		c-0.8-0.6-0.9-1.4-0.3-2.1c1.2-1.6,2.5-3.1,4.6-3.4c0.2,0,0.4-0.4,0.6-0.5c-0.2-0.1-0.5-0.4-0.7-0.4c-1.4,0-2.7,0.2-4.1,0.2
		c-2.2,0-4.4,0-6.6-0.1c-1.5-0.1-3-0.7-4.6-0.8c-2.1-0.2-4.3-0.1-6.5-0.2c-4.6-0.1-9.2-0.2-13.8-0.5c-4.2-0.2-8.3-0.6-12.5-0.8
		c-3.8-0.2-7.7-0.1-11.5-0.2c-3.1-0.1-6.2-0.3-9.2-0.4c-2.4-0.1-4.7-0.1-7.1-0.3c-4-0.3-8-0.7-12-1c-1-0.1-1.9-0.1-2.9-0.1
		c-2.4-0.1-4.7-0.3-7.1-0.4c-3.8-0.1-7.5-0.2-11.3-0.3c-5.7-0.1-11.4-0.4-17-0.4c-4.8,0-9.7,0.3-14.5,0.6c-4.5,0.3-9,0.4-13.6,0.1
		c-1.9-0.1-4-0.3-5.9,0.8c-1.2,0.7-2.8,0.8-4.2,1c-1.3,0.2-2.8-2-2.2-3.7c0.5-1.9,0.5-3.7,0.4-5.5c-0.2-4.9-0.5-9.9-0.7-14.9
		c-0.1-3-0.1-5.9-0.3-8.9c-0.3-4-0.7-8.1-1-12.1c-0.3-3.9-0.5-7.9-0.8-11.8c-0.2-2.7-0.5-5.4-0.7-8.1c-0.3-4.1-0.4-8.2-1.1-12.2
		c-0.7-3.8-1-7.6-1.2-11.4c-0.1-2.6-0.4-5.2-0.7-7.7c-0.2-2.1-0.5-4.2-0.7-6.3c-0.5-4.6-1-9.2-1.4-13.8C44,61,44,58.8,43.9,56.6
		c-0.2-2.9-0.6-5.8-0.9-8.7c-0.2-2-0.5-4.1-0.7-6.1c-0.4-4.1-0.9-8.2-1.3-12.3c-0.5-5-0.9-10.1-1.4-15.1C39.6,14,39.5,13.7,39.4,13z
		"/>
	<path class="st0" d="M105,80.3c-0.7,1-1.4,1.9-2,2.9c-0.4,0.6-0.8,0.9-1.5,0.5c-0.7-0.4-0.9-1.1-0.5-1.8c0.4-0.7,0.9-1.4,1.4-2.1
		c0.6-0.8,0.5-1.5-0.1-2.2c-0.4-0.5-0.8-1.1-1.3-1.6c-0.6-0.7-0.4-1.2,0.2-1.6c0.5-0.4,1-0.6,1.6,0.1c1.7,2.1,1.8,2.1,3.7,0.1
		c0.2-0.2,0.5-0.5,0.7-0.7c0.5-0.5,1-0.6,1.6-0.1c0.6,0.5,0.4,1.1,0,1.6c-0.5,0.6-1.1,1.3-1.7,1.9c-0.5,0.6-0.6,1,0.1,1.5
		c0.8,0.6,1.5,1.4,2.3,2c0.8,0.6,0.6,1.2,0.1,1.8c-0.6,0.7-1.1,0.7-1.7,0.1c-0.5-0.4-1-0.8-1.5-1.3C106,81.2,105.6,80.8,105,80.3z"
		/>
	<path class="st0" d="M157.8,32.5c-0.5,0.8-1,1.5-1.4,2.3c-0.3,0.6-0.8,1-1.5,0.7c-0.7-0.4-0.7-1.1-0.3-1.7c1.8-2.8,1.8-2.6-1.1-4.6
		c-0.6-0.4-1.4-0.9-0.8-1.9c0.5-0.7,1.5-0.6,2.3,0c2.4,2,2.9,1.9,4.6-0.9c0.3-0.5,0.7-1,1.1-1.4c0.3-0.2,0.7-0.3,1.1-0.4
		c0.1,0.4,0.5,1,0.4,1.3c-0.6,1.2-1.2,2.3-2,3.4c-0.9,1.2-1,1.2,0.3,2.1c0.9,0.6,1.8,1.3,2.6,2c0.3,0.3,0.3,0.9,0.4,1.4
		c-0.4,0.1-0.8,0.3-1.1,0.2c-1.4-0.6-2.7-1.4-4-2.1C158.2,32.7,158,32.6,157.8,32.5z"/>
	<path class="st0" d="M66.3,57.8c-0.6,0.8-1.1,1.6-1.6,2.4c-0.5,0.7-1,0.6-1.5,0.2c-0.5-0.5-0.5-1-0.1-1.5c0.2-0.2,0.4-0.4,0.5-0.6
		c1.2-1.4,0.9-2.5-0.8-3.2c-0.4-0.1-0.8-0.3-1-0.6c-0.3-0.3-0.6-1.1-0.5-1.2c0.4-0.4,1-0.8,1.5-0.7c0.7,0.1,1.2,0.7,1.8,1.1
		c1.2,1,1.3,1,2.2-0.3c0.3-0.4,0.7-0.8,1.1-1.1c0.3-0.2,0.9-0.2,1-0.1c0.2,0.2,0.2,0.7,0.2,1.1c0,0.2-0.2,0.4-0.4,0.6
		c-1.3,1.7-1.3,2,0.2,3.6c0.3,0.3,0.7,0.6,0.8,1c0.1,0.4,0.2,1,0,1.2c-0.3,0.2-0.9,0.2-1.2,0c-0.4-0.2-0.7-0.6-1-0.9
		C67,58.6,66.7,58.3,66.3,57.8z"/>
	<path class="st1" d="M192.2,160c-0.5,0.8-1,1.5-1.4,2.3c-0.3,0.6-0.8,1-1.5,0.7c-0.7-0.4-0.7-1.1-0.3-1.7c1.8-2.8,1.8-2.6-1.1-4.6
		c-0.6-0.4-1.4-0.9-0.8-1.9c0.5-0.7,1.5-0.6,2.3,0c2.4,2,2.9,1.9,4.6-0.9c0.3-0.5,0.7-1,1.1-1.4c0.3-0.2,0.7-0.3,1.1-0.4
		c0.1,0.4,0.5,1,0.4,1.3c-0.6,1.2-1.2,2.3-2,3.4c-0.9,1.2-1,1.2,0.3,2.1c0.9,0.6,1.8,1.3,2.6,2c0.3,0.3,0.3,0.9,0.4,1.4
		c-0.4,0.1-0.8,0.3-1.1,0.2c-1.4-0.6-2.7-1.4-4-2.1C192.6,160.2,192.5,160.2,192.2,160z"/>
	<path class="st1" d="M335.3,139c0.5-0.6,1.3-1.8,2.3-2.9c0.3-0.3,0.8-0.5,1.2-0.5c0.4,0,0.9,0.4,1,0.7c0.1,0.3-0.2,0.9-0.5,1.1
		c-1.6,1.1-2.5,2.6-3.2,4.3c-0.1,0.3,0,1,0.3,1.3c0.9,0.8,2,1.4,3,2.3c0.4,0.3,0.7,1,0.6,1.4s-0.8,0.7-1.3,0.7
		c-0.5,0-1.1-0.3-1.5-0.6c-0.4-0.3-0.8-0.7-1.2-1c-2-1.5-2-1.5-3.4,0.7c-0.3,0.6-0.7,1.1-1.2,1.5c-0.3,0.2-0.9,0.4-1.3,0.2
		c-1.1-0.4-1.2-0.6-0.5-1.6c0.6-0.8,1.2-1.6,1.9-2.4c0.8-1,0.8-1.4-0.1-2.2c-0.3-0.3-0.7-0.6-1-1c-0.4-0.5-0.9-0.9-0.4-1.6
		c0.6-0.7,1.3-0.6,2-0.2c0.2,0.1,0.3,0.3,0.5,0.5C333.8,140.6,333.8,140.6,335.3,139z"/>
	<path class="st0" d="M348.8,48.8c-0.7,1-1.2,1.9-1.8,2.8c-0.4,0.6-0.9,1-1.6,0.5c-0.7-0.5-0.7-1.2-0.3-1.8c0.5-0.9,1.1-1.8,1.7-2.8
		c-0.9-0.4-1.7-0.9-2.5-1.2c-0.8-0.4-0.9-1.1-0.6-1.7c0.2-0.4,1-0.9,1.4-0.8c0.8,0.1,1.7,0.5,2.4,1c1.2,0.8,1.5,0.9,2.5-0.2
		c0.7-0.7,1.3-1.3,2.1-1.8c0.3-0.2,1-0.1,1.3,0.1c0.2,0.2,0.2,0.9,0.1,1.2c-0.5,0.7-1,1.3-1.7,1.8c-0.7,0.6-0.8,1.1,0,1.7
		c0.8,0.5,1.6,1.1,2.4,1.7c0.5,0.4,1,1,0.5,1.8c-0.4,0.5-1.6,0.5-2.2,0.1C351.2,50.3,350,49.6,348.8,48.8z"/>
	<path class="st1" d="M351.6,105.8c-1,1.4-2,2.8-3.1,4.2c-0.4,0.6-0.3,1,0.3,1.4c0.8,0.6,1.7,1.1,2.4,1.8c0.4,0.4,0.6,1,0.8,1.5
		c-0.6,0.1-1.2,0.4-1.6,0.2c-1.1-0.6-2.1-1.3-3.1-2.1c-0.5-0.4-0.9-0.4-1.2,0.1c-0.5,0.7-1,1.3-1.5,2c-0.4,0.6-0.8,0.8-1.4,0.5
		c-0.7-0.3-0.8-0.9-0.5-1.5c0.5-0.9,1-1.7,1.6-2.5c0.5-0.6,0.2-0.9-0.2-1.3c-0.7-0.5-1.3-1.1-1.9-1.6c-0.4-0.3-1-0.5-0.5-1.2
		c0.5-0.6,1.6-0.9,2.1-0.4c0.6,0.5,1.2,1,1.8,1.5c0.6,0.5,1,0.5,1.5-0.1c1.1-1.2,2.3-2.5,3.5-3.6c0.4-0.4,1.2-0.4,1.9-0.7
		c-0.2,0.6-0.4,1.2-0.6,1.8C351.9,105.9,351.8,105.9,351.6,105.8z"/>
	<path class="st0" d="M372.9,38.1c-0.5,0.9-1,1.6-1.6,2.5c1.2,0.7,2.4,1.4,3.6,2.1c0.8,0.5,1.1,1.4,0.6,2.2
		c-0.5,0.8-1.1,0.9-1.9,0.3c-0.8-0.6-1.8-1.1-2.7-1.6c-1.3-0.7-1.8-0.5-2.5,0.8c-0.3,0.7-0.6,1.4-0.9,2.1c-0.3,0.6-0.7,1.1-1.5,0.7
		c-0.7-0.4-1-1-0.6-1.7c0.5-0.9,0.9-1.9,1.5-2.8c0.5-0.8,0.2-1.2-0.5-1.4c-0.4-0.1-0.8-0.3-1.1-0.6c-0.3-0.3-0.7-0.8-0.6-1.2
		c0.1-0.4,0.7-0.9,1-0.9c0.8,0,1.7,0.2,2.5,0.5c0.8,0.3,1.3,0.2,1.6-0.6C370.4,37.2,371.7,36.9,372.9,38.1z"/>
	<path class="st1" d="M394.3,112.4c-0.9,0.9-1.8,1.8-2.7,2.7c-0.7,0.7-0.6,1.1,0.1,1.8c0.7,0.6,1.3,1.3,1.8,2c0.2,0.3,0.2,0.9,0,1.1
		c-0.3,0.2-0.9,0.4-1.2,0.2c-0.8-0.4-1.6-0.8-2.2-1.4c-0.7-0.7-1.1-0.5-1.6,0.3c-0.3,0.5-0.7,1.1-1.1,1.5c-0.2,0.2-0.9,0.3-1.1,0.1
		c-0.3-0.2-0.5-0.8-0.3-1.2c0.3-0.8,0.8-1.5,1.2-2.2c0.3-0.5,0.2-0.9-0.4-1.3c-1.3-1-2.5-2.1-3.7-3.1c-0.2-0.2-0.2-0.5-0.3-0.7
		c0.3-0.1,0.7-0.4,0.9-0.3c1.4,0.6,2.8,1.1,4,1.8c1.2,0.7,1.3,0.8,2.4-0.3c0.9-0.9,1.9-1.8,2.9-2.7c0.7-0.6,1.4-0.3,1.7,0.3
		c0.2,0.3,0,0.9,0,1.4C394.5,112.5,394.4,112.4,394.3,112.4z"/>
	<path class="st1" d="M428.4,124.2c-0.7,1-1.4,1.9-2,2.9c-0.4,0.6-0.8,0.9-1.5,0.5c-0.7-0.4-0.9-1.1-0.5-1.8
		c0.4-0.7,0.9-1.4,1.4-2.1c0.6-0.8,0.5-1.5-0.1-2.2c-0.4-0.5-0.8-1.1-1.3-1.6c-0.6-0.7-0.4-1.2,0.2-1.6c0.5-0.4,1-0.6,1.6,0.1
		c1.7,2.1,1.8,2.1,3.7,0.1c0.2-0.2,0.5-0.5,0.7-0.7c0.5-0.5,1-0.6,1.6-0.1c0.6,0.5,0.4,1.1,0,1.6c-0.5,0.6-1.1,1.3-1.7,1.9
		c-0.5,0.6-0.6,1,0.1,1.5c0.8,0.6,1.5,1.4,2.3,2c0.8,0.6,0.6,1.2,0.1,1.8c-0.6,0.7-1.1,0.7-1.7,0.1c-0.5-0.4-1-0.8-1.5-1.3
		C429.4,125.1,429,124.7,428.4,124.2z"/>
	<path class="st0" d="M433.3,96.8c-0.5,0.8-1,1.5-1.4,2.3c-0.3,0.6-0.8,1-1.5,0.7c-0.7-0.4-0.7-1.1-0.3-1.7c1.8-2.8,1.8-2.6-1.1-4.6
		c-0.6-0.4-1.4-0.9-0.8-1.9c0.5-0.7,1.5-0.6,2.3,0c2.4,2,2.9,1.9,4.6-0.9c0.3-0.5,0.7-1,1.1-1.4c0.3-0.2,0.7-0.3,1.1-0.4
		c0.1,0.4,0.5,1,0.4,1.3c-0.6,1.2-1.2,2.3-2,3.4c-0.9,1.2-1,1.2,0.3,2.1c0.9,0.6,1.8,1.3,2.6,2c0.3,0.3,0.3,0.9,0.4,1.4
		c-0.4,0.1-0.8,0.3-1.1,0.2c-1.4-0.6-2.7-1.4-4-2.1C433.7,97.1,433.6,97,433.3,96.8z"/>
	<path class="st0" d="M391.7,35.9c0.5-0.2,0.8-0.5,1.3-0.6c0.6-0.1,1.1-0.1,1.7-0.1c0,0.5,0,1.1-0.1,1.6c-0.1,0.3-0.4,0.5-0.6,0.8
		c-0.2,0.3-0.5,0.9-0.5,1c0.4,0.3,0.9,0.8,1.3,0.7c1-0.3,1.7,0.3,1.8,0.9c0.1,0.6-0.3,1.5-0.7,1.9c-0.3,0.3-1.2,0.3-1.7,0.1
		c-0.8-0.4-1.5-1.1-2.3-1.7c-0.8-0.7-1-0.6-1.3,0.3c-0.1,0.4-0.2,0.8-0.4,1.2c-0.3,0.6-0.8,1-1.5,0.7c-0.7-0.3-1.1-0.8-0.8-1.5
		c0.3-0.8,0.7-1.7,1.1-2.5c0.6-0.9,0.5-1.6-0.1-2.4c-0.6-0.8-0.4-1.5,0.2-2.1c0.7-0.7,1.4-0.5,1.8,0.4c0.1,0.3,0.2,0.6,0.4,0.9
		C391.4,35.6,391.5,35.7,391.7,35.9z"/>
	<path class="st0" d="M380.5,58.4c-1.1,1.1-2,2.1-3,3c-0.5,0.5-0.4,1,0.1,1.3c0.6,0.4,1.3,0.7,1.8,1c0.4,0.3,1,0.7,1,1
		c0,0.6-0.3,1.3-0.7,1.7c-0.2,0.2-1.1,0.2-1.4-0.1c-1.1-0.7-2.1-1.6-3.3-2.5c-0.5,0.7-0.9,1.3-1.3,2c-0.5,0.8-1.2,1.1-1.9,0.7
		c-0.8-0.5-0.6-1.3-0.2-2c0.2-0.3,0.3-0.5,0.5-0.8c0.5-0.7,0.8-1.4-0.2-2c-0.7-0.4-0.5-1.1,0.1-1.3c0.6-0.2,1.5-0.4,1.9-0.1
		c0.8,0.5,1.3,0.2,1.8-0.2c1-0.8,1.9-1.6,2.9-2.3C379.4,57.3,380,57.6,380.5,58.4z"/>
	<path class="st1" d="M397,150.5c1,0.8,0.6,1.6,0.1,2.3c-1.5,1.9-1.5,1.9,0.2,3.6c0.8,0.8,1.7,1.4,1.4,2.7c-0.1,0.4-0.3,0.9-0.5,1
		c-0.6,0.2-1,0-1.4-0.6c-0.5-0.9-1.2-1.7-1.8-2.4c-0.6-0.7-1.1-0.6-1.6,0.3c-0.3,0.6-0.7,1.2-1.2,1.6c-0.3,0.3-0.9,0.3-1.4,0.4
		c0-0.5-0.3-1.1-0.1-1.5c0.3-0.7,0.9-1.2,1.3-1.8c0.4-0.5,0.3-0.9-0.2-1.3c-0.7-0.6-1.3-1.1-1.9-1.8c-0.2-0.2-0.5-0.7-0.4-0.9
		c0.1-0.3,0.5-0.6,0.8-0.7c0.9-0.2,1.6,0.1,2.2,0.8c1.2,1.2,1.2,1.2,2.4,0c0.4-0.4,0.7-0.7,1.1-1C396.3,150.8,396.7,150.7,397,150.5
		z"/>
	<path class="st1" d="M323.8,108.8c-1.2,1.2-2.3,2.3-3.4,3.4c-0.1,0.1-0.6,0.2-0.7,0.1c-0.2-0.1-0.3-0.6-0.2-0.7
		c0.4-0.5,0.7-1.2,1.2-1.4c1-0.4,1.1-1.2,1.1-1.9c0-0.3-0.7-0.7-1.2-1c-0.4-0.3-0.9-0.4-1.3-0.7c-0.5-0.3-1.1-0.8-0.6-1.4
		c0.5-0.6,1.1-1.1,2-0.5c0.1,0.1,0.2,0.1,0.3,0.2c1.9,1.1,2.3,1,3.6-0.8c0.3-0.4,0.6-0.9,1-1.1c0.3-0.2,1-0.3,1.2-0.1
		c0.2,0.2,0.3,0.9,0.1,1.3c-0.3,0.6-0.9,1.2-1.3,1.8c-0.4,0.6-0.4,1.2,0.4,1.5c1.1,0.4,2.2,1,3.2,1.4c0.2,0.1,0.5,0.1,0.6,0.3
		c0.3,0.4,0.4,0.8,0.6,1.3c-0.4,0.1-0.9,0.5-1.2,0.4c-1.4-0.4-2.7-0.9-4.1-1.4C324.8,109.3,324.3,109,323.8,108.8z"/>
	<path class="st1" d="M412.4,156.8c-0.6,0.9-1.1,1.6-1.6,2.2c-0.3,0.3-0.8,0.5-1.2,0.7c-0.2-0.5-0.6-1.2-0.5-1.6
		c0.2-0.9,0.8-1.6,1.3-2.6c-0.6-0.6-1.4-1.4-2.1-2.1c-0.5-0.5-1-1-0.3-1.6c0.6-0.6,1.3-0.5,1.9,0.1c2,2.1,2.1,2.1,4.1,0.1
		c0.3-0.3,0.7-0.6,1-1c0.5-0.6,1.2-0.8,1.6-0.2c0.2,0.3,0,1-0.2,1.4c-0.5,0.7-1.2,1.4-1.8,2c-0.5,0.5-0.7,1,0.1,1.4
		c0.6,0.3,1.2,0.7,1.8,1c0.7,0.4,1.3,0.9,0.8,1.7c-0.5,0.9-1.2,0.5-1.9,0.1C414.3,158,413.4,157.4,412.4,156.8z"/>
	<path class="st1" d="M374,157.9c-1.5,1.4-1.5,1.8-0.1,2.9c0.7,0.5,1.4,0.9,2,1.5c0.3,0.3,0.3,0.9,0.5,1.4c-0.5,0.1-1,0.4-1.4,0.3
		c-1-0.5-2-1.1-2.9-1.8c-0.8-0.7-1.3-0.7-1.8,0.2c-0.2,0.4-0.6,0.8-0.8,1.2c-0.3,0.8-0.7,1.1-1.5,0.7c-0.7-0.4-0.6-1.1-0.2-1.7
		c0.4-0.6,0.9-1.3,1.3-1.9c0.4-0.5,0.3-0.9-0.2-1.2c-0.8-0.6-1.7-1.2-2.4-1.9c-0.3-0.2-0.4-0.6-0.6-0.9c0.3-0.1,0.7-0.5,0.9-0.4
		c1,0.3,2,0.7,2.8,1.3c0.8,0.6,1.3,0.7,2-0.1c0.5-0.6,1.1-1.1,1.8-1.4c0.3-0.2,0.9,0,1.3,0.1c-0.1,0.4-0.1,0.8-0.3,1.2
		C374.4,157.6,374.1,157.9,374,157.9z"/>
	<path class="st1" d="M377.8,138.9c-0.6,0.8-1.1,1.6-1.6,2.4c-0.5,0.7-1,0.6-1.5,0.2c-0.5-0.5-0.5-1-0.1-1.5
		c0.2-0.2,0.4-0.4,0.5-0.6c1.2-1.4,0.9-2.5-0.8-3.2c-0.4-0.1-0.8-0.3-1-0.6c-0.3-0.3-0.6-1.1-0.5-1.2c0.4-0.4,1-0.8,1.5-0.7
		c0.7,0.1,1.2,0.7,1.8,1.1c1.2,1,1.3,1,2.2-0.3c0.3-0.4,0.7-0.8,1.1-1.1c0.3-0.2,0.9-0.2,1-0.1c0.2,0.2,0.2,0.7,0.2,1.1
		c0,0.2-0.2,0.4-0.4,0.6c-1.3,1.7-1.3,2,0.2,3.6c0.3,0.3,0.7,0.6,0.8,1c0.1,0.4,0.2,1,0,1.2c-0.3,0.2-0.9,0.2-1.2,0
		c-0.4-0.2-0.7-0.6-1-0.9C378.6,139.7,378.2,139.4,377.8,138.9z"/>
	<path class="st1" d="M400.7,129.3c0.2,0.2,0.4,0.3,0.6,0.5c1,1,1.7,1,2.6-0.1c0.2-0.3,0.7-0.5,1-0.5c0.6,0,0.9,0.4,0.5,1
		c-0.1,0.1-0.2,0.2-0.3,0.3c-1.3,1.7-1.3,1.7,0.8,2.5c0.3,0.1,0.6,0.2,0.8,0.4c0.2,0.3,0.5,0.8,0.4,1c-0.2,0.3-0.8,0.7-1.1,0.7
		c-0.9-0.3-1.8-0.6-2.6-1.1c-0.9-0.6-1.7-0.5-2.4,0.3c-0.3,0.3-0.5,0.7-0.9,0.9c-0.4,0.1-1,0.2-1.3,0c-0.2-0.1-0.2-0.8,0-1.2
		c0.2-0.4,0.6-0.7,1-1.1c0.6-0.6,0.7-1.1,0-1.7c-0.7-0.6-1.3-1.2-1.8-1.9c-0.2-0.3-0.4-0.9-0.3-1.1c0.3-0.3,0.9-0.5,1.2-0.4
		c0.7,0.3,1.3,0.9,1.9,1.3C400.8,129.3,400.8,129.3,400.7,129.3z"/>
	<path d="M298.7,15.2c-1.5,1.4-2.8,2.5-3.3,4.3c-0.2,0.8-0.9,1.5-1.5,2.1c-0.1,0.1-1.2-0.3-1.3-0.6c-0.2-0.9-0.5-2-0.2-2.8
		c1.1-2.6,2.5-5.2,3.8-7.8c0.5-0.9,0.7-2,1.9-2.4c1.8-0.6,2.6-0.3,3.3,0.9c1.4,2.4,3,4.6,4.5,6.9c0.3,0.4,0.8,0.6,1.1,1
		c0.3,0.5,0.7,1.1,0.6,1.6c-0.1,0.4-0.7,1.1-1,1.1c-0.7,0-1.6-0.3-2-0.8c-1.1-1.3-1.9-2.8-2.8-4.3c-0.1-0.1-0.2-0.2-0.5-0.5
		c0.1,1.1,0.2,1.9,0.3,2.6c0.3,2,0.7,4,0.9,6c0.6,5.8,1.1,11.7,1.6,17.5c0.3,2.8,0.4,5.7,0.7,8.5c0.3,3.6,0.8,7.1,1.1,10.7
		c0.4,4.1,0.5,8.3,1,12.4c0.5,4.8,1.1,9.7,1.6,14.5c0.5,4.7,0.7,9.3,1.2,14c0.2,2.5,0.7,5,1,7.5c0.4,3.9,0.7,7.9,1,11.8
		c0.2,2.4,0.5,4.9,0.6,7.4c0.1,1.5,0.1,3,0.2,4.4c0.3,3.4,0.6,6.8,0.9,10.2c0.3,4,0.7,8,0.9,12.1c0.3,6.4,0.4,12.7,0.6,19.1
		c0.1,1.6,0.4,3.2,0.7,4.8c0.1,0.7,0.6,1,1.2,0.7c3.2-1.5,6.7-1,10-0.9c4.4,0.2,8.7,0,13.1-0.3c3.8-0.3,7.5-0.1,11.3-0.2
		c3.1,0,6.2-0.1,9.4-0.1c4.8,0.1,9.5,0.3,14.3,0.5c4.6,0.2,9.1,0.3,13.7,0.6c4.2,0.2,8.5,0.6,12.7,0.8c2.9,0.2,5.7,0.4,8.6,0.5
		c2.7,0.1,5.4,0.1,8.2,0.2c2,0,4,0,5.9,0.1c3.1,0.1,6.2,0.4,9.3,0.5c5.6,0.3,11.3,0.6,16.9,0.8c3.6,0.2,7.2,0.3,10.8,0.4
		c0.7,0,1.5-0.3,2.2-0.3c0.9,0,1.7,0.1,2.6,0.2c0.9,0.1,1.8,0.5,2.8,0.6c2.3,0.1,4.6,0.2,6.9,0.2c0.6,0,1.2-0.1,2.2-0.3
		c-1.4-1.2-2.5-2.1-3.5-3.1c-0.5-0.5-0.9-1.3-1.1-2c-0.1-0.5,0.2-1.2,0.6-1.5c0.3-0.2,1.1-0.1,1.5,0.2c1.1,0.7,2.2,1.4,3.1,2.3
		c2.2,2.2,4.4,4.6,6.5,6.9c0.8,0.8,0.5,2.1-0.6,2.5c-0.8,0.3-1.7,0.5-2.5,0.8c-2.3,0.6-4.2,1.7-5.8,3.4c-0.5,0.5-1,1-1.8,0.4
		c-0.8-0.6-0.9-1.4-0.3-2.1c1.2-1.6,2.5-3.1,4.6-3.4c0.2,0,0.4-0.4,0.6-0.5c-0.2-0.1-0.5-0.4-0.7-0.4c-1.4,0-2.7,0.2-4.1,0.2
		c-2.2,0-4.4,0-6.6-0.1c-1.5-0.1-3-0.7-4.6-0.8c-2.1-0.2-4.3-0.1-6.5-0.2c-4.6-0.1-9.2-0.2-13.8-0.5c-4.2-0.2-8.3-0.6-12.5-0.8
		c-3.8-0.2-7.7-0.1-11.5-0.2c-3.1-0.1-6.2-0.3-9.2-0.4c-2.4-0.1-4.7-0.1-7.1-0.3c-4-0.3-8-0.7-12-1c-1-0.1-1.9-0.1-2.9-0.1
		c-2.4-0.1-4.7-0.3-7.1-0.4c-3.8-0.1-7.5-0.2-11.3-0.3c-5.7-0.1-11.4-0.4-17-0.4c-4.8,0-9.7,0.3-14.5,0.6c-4.5,0.3-9,0.4-13.6,0.1
		c-1.9-0.1-4-0.3-5.9,0.8c-1.2,0.7-2.8,0.8-4.2,1c-1.3,0.2-2.8-2-2.2-3.7c0.5-1.9,0.5-3.7,0.4-5.5c-0.2-4.9-0.5-9.9-0.7-14.9
		c-0.1-3-0.1-5.9-0.3-8.9c-0.3-4-0.7-8.1-1-12.1c-0.3-3.9-0.5-7.9-0.8-11.8c-0.2-2.7-0.5-5.4-0.7-8.1c-0.3-4.1-0.4-8.2-1.1-12.2
		c-0.7-3.8-1-7.6-1.2-11.4c-0.1-2.6-0.4-5.2-0.7-7.7c-0.2-2.1-0.5-4.2-0.7-6.3c-0.5-4.6-1-9.2-1.4-13.8c-0.2-2.2-0.2-4.5-0.4-6.7
		c-0.2-2.9-0.6-5.8-0.9-8.7c-0.2-2-0.5-4.1-0.7-6.1c-0.4-4.1-0.9-8.2-1.3-12.3c-0.5-5-0.9-10.1-1.4-15.1
		C298.9,16.1,298.8,15.8,298.7,15.2z"/>
	<path class="st0" d="M364.3,82.4c-0.7,1-1.4,1.9-2,2.9c-0.4,0.6-0.8,0.9-1.5,0.5c-0.7-0.4-0.9-1.1-0.5-1.8c0.4-0.7,0.9-1.4,1.4-2.1
		c0.6-0.8,0.5-1.5-0.1-2.2c-0.4-0.5-0.8-1.1-1.3-1.6c-0.6-0.7-0.4-1.2,0.2-1.6c0.5-0.4,1-0.6,1.6,0.1c1.7,2.1,1.8,2.1,3.7,0.1
		c0.2-0.2,0.5-0.5,0.7-0.7c0.5-0.5,1-0.6,1.6-0.1c0.6,0.5,0.4,1.1,0,1.6c-0.5,0.6-1.1,1.3-1.7,1.9c-0.5,0.6-0.6,1,0.1,1.5
		c0.8,0.6,1.5,1.4,2.3,2c0.8,0.6,0.6,1.2,0.1,1.8c-0.6,0.7-1.1,0.7-1.7,0.1c-0.5-0.4-1-0.8-1.5-1.3
		C365.4,83.3,364.9,82.9,364.3,82.4z"/>
	<path class="st0" d="M417.1,34.6c-0.5,0.8-1,1.5-1.4,2.3c-0.3,0.6-0.8,1-1.5,0.7c-0.7-0.4-0.7-1.1-0.3-1.7c1.8-2.8,1.8-2.6-1.1-4.6
		c-0.6-0.4-1.4-0.9-0.8-1.9c0.5-0.7,1.5-0.6,2.3,0c2.4,2,2.9,1.9,4.6-0.9c0.3-0.5,0.7-1,1.1-1.4c0.3-0.2,0.7-0.3,1.1-0.4
		c0.1,0.4,0.5,1,0.4,1.3c-0.6,1.2-1.2,2.3-2,3.4c-0.9,1.2-1,1.2,0.3,2.1c0.9,0.6,1.8,1.3,2.6,2c0.3,0.3,0.3,0.9,0.4,1.4
		c-0.4,0.1-0.8,0.3-1.1,0.2c-1.4-0.6-2.7-1.4-4-2.1C417.5,34.8,417.4,34.7,417.1,34.6z"/>
	<path class="st0" d="M325.6,60c-0.6,0.8-1.1,1.6-1.6,2.4c-0.5,0.7-1,0.6-1.5,0.2c-0.5-0.5-0.5-1-0.1-1.5c0.2-0.2,0.4-0.4,0.5-0.6
		c1.2-1.4,0.9-2.5-0.8-3.2c-0.4-0.1-0.8-0.3-1-0.6c-0.3-0.3-0.6-1.1-0.5-1.2c0.4-0.4,1-0.8,1.5-0.7c0.7,0.1,1.2,0.7,1.8,1.1
		c1.2,1,1.3,1,2.2-0.3c0.3-0.4,0.7-0.8,1.1-1.1c0.3-0.2,0.9-0.2,1-0.1c0.2,0.2,0.2,0.7,0.2,1.1c0,0.2-0.2,0.4-0.4,0.6
		c-1.3,1.7-1.3,2,0.2,3.6c0.3,0.3,0.7,0.6,0.8,1c0.1,0.4,0.2,1,0,1.2c-0.3,0.2-0.9,0.2-1.2,0c-0.4-0.2-0.7-0.6-1-0.9
		C326.4,60.7,326.1,60.4,325.6,60z"/>
	<path class="st1" d="M451.5,162.1c-0.5,0.8-1,1.5-1.4,2.3c-0.3,0.6-0.8,1-1.5,0.7c-0.7-0.4-0.7-1.1-0.3-1.7
		c1.8-2.8,1.8-2.6-1.1-4.6c-0.6-0.4-1.4-0.9-0.8-1.9c0.5-0.7,1.5-0.6,2.3,0c2.4,2,2.9,1.9,4.6-0.9c0.3-0.5,0.7-1,1.1-1.4
		c0.3-0.2,0.7-0.3,1.1-0.4c0.1,0.4,0.5,1,0.4,1.3c-0.6,1.2-1.2,2.3-2,3.4c-0.9,1.2-1,1.2,0.3,2.1c0.9,0.6,1.8,1.3,2.6,2
		c0.3,0.3,0.3,0.9,0.4,1.4c-0.4,0.1-0.8,0.3-1.1,0.2c-1.4-0.6-2.7-1.4-4-2.1C452,162.4,451.8,162.3,451.5,162.1z"/>
	<path class="st2" d="M384.1,94.3c-1.4,1.3-3.2,0.9-4.7,1.2c-2.1,0.4-4.3,0.6-6.4,0.9c-1.2,0.2-1.8-0.2-1.8-1.2c0-1,0.6-1.2,1.6-1.3
		c2.6-0.2,5.1-0.6,7.7-0.9c0.7-0.1,1.4,0,2.2,0C383.4,92.9,383.9,93.3,384.1,94.3z"/>
	<path class="st2" d="M343,91.1c0.3,0.8,0.9,1.5,0.8,1.9c-0.2,0.8-1,1.1-1.9,1.1c-1-0.1-2,0.1-3,0.1c-1,0-2-0.2-3-0.2
		c-1-0.1-2-0.1-2.9-0.1c-0.7,0-1.2-0.2-1.3-0.9c-0.1-0.8,0.1-1.6,1-1.6c1.5,0,3.1,0,4.6,0.3c1.6,0.3,3.2,0.3,4.8,0
		C342.4,91.7,342.5,91.4,343,91.1z"/>
	<path class="st2" d="M322.3,93.3c-0.9,0.8-1.6,1.4-2.4,2c-0.1,0.1-0.2,0-0.3,0c-3.3-1-6.5-0.3-9.8,0.2c-0.4,0.1-0.7-0.1-1.1-0.2
		c0.1-0.4,0.1-0.9,0.4-1.2c0.7-0.8,1.5-1.3,2.7-1.2c1.5,0,3-0.2,4.5-0.3c1.7,0,3.4,0.1,5.1,0.2C321.5,92.8,321.7,93,322.3,93.3z"/>
	<path class="st2" d="M355.8,92.7c2.4,0.4,4.4,0.7,6.4,1c0.2,0.1,0.7,0.5,0.6,0.7c-0.1,0.3-0.4,0.8-0.7,0.9
		c-1.7,0.4-3.5,0.4-5.3,0.1c-1.3-0.3-2.8,0.2-4.1,0.3c-0.5,0-1-0.1-1.5-0.2c0.3-0.5,0.4-1.3,0.8-1.5C353.3,93.4,354.8,93,355.8,92.7
		z"/>
	<path class="st2" d="M399.1,96.6c-0.9,0-1.7,0-2.6,0.1c-0.7,0.1-1.2-0.1-1.4-0.8c-0.2-0.8,0.1-1.5,0.9-1.6c1.1-0.2,2.3-0.3,3.4-0.1
		c1.6,0.2,3.1,0.7,4.7,1.1c0.3,0.1,0.6,0.5,0.7,0.8c0.1,0.2-0.1,0.6-0.4,0.8c-0.7,0.5-1.5,0.8-2.4,0.5c-0.9-0.3-1.9-0.3-2.9-0.5
		C399.1,96.8,399.1,96.7,399.1,96.6z"/>
	<path class="st2" d="M414.3,102.3c-0.1-0.3-0.4-0.9-0.3-1.5c0.1-0.2,1-0.5,1.5-0.4c2.3,0.6,4.6,1.3,6.8,2.1c0.5,0.2,1,0.7,1.3,1.2
		c0.1,0.1-0.3,0.8-0.6,1c-0.3,0.2-0.8,0.2-1.2,0.1c-0.8-0.1-1.5-0.2-2.2-0.5C418,103.7,416.4,103.1,414.3,102.3z"/>
	<path class="st2" d="M444.4,113.1c0.2,0.6,0.8,1.5,0.6,1.7c-0.6,0.6-1.3,0.4-2.1,0c-2.3-1-4.5-2.7-7.2-2.7c-0.3,0-0.8-0.6-0.8-0.8
		c0.1-0.4,0.4-1,0.7-1.1c0.8-0.1,1.8-0.2,2.5,0.1C440.2,111.1,442.2,112.1,444.4,113.1z"/>
	<path class="st2" d="M453.3,118.7c0.8,0,1.6-0.1,2.3,0c1.8,0.3,3.1,1.5,4.5,2.6c0.4,0.4,1,0.6,1.4,1c0.3,0.3,0.6,0.8,0.6,1.1
		c0,0.4-0.4,1-0.7,1.1c-0.3,0.1-0.9-0.2-1.2-0.5c-1.8-1.7-3.6-3.2-6.2-3.4c-0.3,0-0.7-0.4-0.8-0.7
		C452.9,119.6,453.1,119.3,453.3,118.7z"/>
	<path class="st1" d="M154,84.7c-0.5,0.8-1,1.5-1.4,2.3c-0.3,0.6-0.8,1-1.5,0.7c-0.7-0.4-0.7-1.1-0.3-1.7c1.8-2.8,1.8-2.6-1.1-4.6
		c-0.6-0.4-1.4-0.9-0.8-1.9c0.5-0.7,1.5-0.6,2.3,0c2.4,2,2.9,1.9,4.6-0.9c0.3-0.5,0.7-1,1.1-1.4c0.3-0.2,0.7-0.3,1.1-0.4
		c0.1,0.4,0.5,1,0.4,1.3c-0.6,1.2-1.2,2.3-2,3.4c-0.9,1.2-1,1.2,0.3,2.1c0.9,0.6,1.8,1.3,2.6,2c0.3,0.3,0.3,0.9,0.4,1.4
		c-0.4,0.1-0.8,0.3-1.1,0.2c-1.4-0.6-2.7-1.4-4-2.1C154.4,84.9,154.2,84.9,154,84.7z"/>
	<path class="st0" d="M413.3,86.8c-0.5,0.8-1,1.5-1.4,2.3c-0.3,0.6-0.8,1-1.5,0.7c-0.7-0.4-0.7-1.1-0.3-1.7c1.8-2.8,1.8-2.6-1.1-4.6
		c-0.6-0.4-1.4-0.9-0.8-1.9c0.5-0.7,1.5-0.6,2.3,0c2.4,2,2.9,1.9,4.6-0.9c0.3-0.5,0.7-1,1.1-1.4c0.3-0.2,0.7-0.3,1.1-0.4
		c0.1,0.4,0.5,1,0.4,1.3c-0.6,1.2-1.2,2.3-2,3.4c-0.9,1.2-1,1.2,0.3,2.1c0.9,0.6,1.8,1.3,2.6,2c0.3,0.3,0.3,0.9,0.4,1.4
		c-0.4,0.1-0.8,0.3-1.1,0.2c-1.4-0.6-2.7-1.4-4-2.1C413.7,87.1,413.6,87,413.3,86.8z"/>
</g>
</svg>
