<?xml version="1.0" encoding="utf-8"?>
<!-- Generator: Adobe Illustrator 26.0.1, SVG Export Plug-In . SVG Version: 6.00 Build 0)  -->
<svg version="1.1" id="Layer_1" xmlns="http://www.w3.org/2000/svg" xmlns:xlink="http://www.w3.org/1999/xlink" x="0px" y="0px"
	 viewBox="0 0 512 347" style="enable-background:new 0 0 512 347;" xml:space="preserve">
<style type="text/css">
	.st0{fill:#FFFFFF;}
	.st1{fill:#662D8D;}
	.st2{fill:#0000FF;}
	.st3{fill:#BD272D;}
</style>
<g>
	<path class="st0" d="M512,354.86c-170.67,0-341.33,0-512,0C0,234.57,0,114.29,0-6c170.67,0,341.33,0,512,0
		C512,114.29,512,234.57,512,354.86z M51.23,31.83c0.51,1.79,0.9,3.22,1.33,4.64c0.46,1.51,1.08,2.98,1.39,4.51
		c0.44,2.15,0.67,4.34,1,6.5c0.1,0.65,0.2,1.3,0.34,1.94c0.36,1.57,0.82,3.12,1.09,4.7c0.23,1.31,0.15,2.67,0.38,3.97
		c0.45,2.55,1.03,5.07,1.53,7.62c0.56,2.83,1.09,5.66,1.61,8.5c0.29,1.55,0.57,3.11,0.82,4.67c0.42,2.74,0.79,5.49,1.22,8.23
		c0.29,1.9,0.63,3.79,0.95,5.68c0.44,2.57,0.9,5.14,1.31,7.72c0.4,2.48,0.78,4.96,1.11,7.45c0.32,2.47,0.53,4.96,0.84,7.43
		c0.27,2.13,0.66,4.25,0.92,6.38c0.28,2.36,0.46,4.74,0.7,7.11c0.25,2.51,0.54,5.01,0.79,7.52c0.23,2.27,0.39,4.54,0.66,6.81
		c0.38,3.24,0.81,6.47,1.24,9.7c0.34,2.59,0.73,5.17,1.06,7.76c0.29,2.26,0.58,4.52,0.8,6.79c0.24,2.39,0.32,4.8,0.63,7.18
		c0.33,2.51,0.95,4.99,1.26,7.5c0.38,3.07,0.55,6.17,0.84,9.26c0.34,3.59,0.81,7.16,1.05,10.76c0.29,4.29,0.38,8.58,0.57,12.88
		c0.08,1.88,0.16,3.76,0.27,5.63c0.16,2.72,0.35,5.45,0.52,8.17c0.19,2.89,0.38,5.77,0.55,8.66c0.12,2.01,0.21,4.01,0.28,6.02
		c0.16,4.25,0.3,8.5,0.46,12.76c0.04,1.04,0.18,2.08,0.25,3.13c0.14,2.09,0.29,4.19,0.39,6.28c0.05,1.12-0.05,2.26-0.01,3.38
		c0.05,1.52,0.13,3.04,0.27,4.55c0.12,1.3,0.37,2.58,0.48,3.87c0.13,1.64,0.17,3.29,0.27,4.93c0.1,1.73,0.25,3.47,0.31,5.2
		c0.03,0.96,0,1.93-0.11,2.88c-0.18,1.6,0.6,3.23-0.35,4.85c-0.38,0.65-0.56,1.88-0.19,2.42c1.19,1.77,0.99,3.67,0.91,5.55
		c-0.07,1.6,0.37,2.95,1.18,4.04c1.47,0,2.82,0.08,4.16-0.02c1.94-0.15,3.87-0.44,5.8-0.67c2.5-0.3,4.99-0.75,7.5-0.89
		c3.84-0.22,7.72-0.02,11.55-0.37c4.47-0.4,8.9-1.32,13.37-1.78c3.11-0.32,6.27-0.34,9.41-0.29c4.33,0.07,8.66,0.38,12.99,0.5
		c5.47,0.14,10.94,0.19,16.41,0.29c2.08,0.04,4.16,0.06,6.24,0.18c4.76,0.27,9.51,0.67,14.26,0.87c6.17,0.26,12.34,0.42,18.51,0.53
		c2.69,0.05,5.39-0.18,8.09-0.23c2.35-0.04,4.7,0.02,7.04-0.01c5.39-0.07,10.77-0.17,16.16-0.27c4.37-0.08,8.74-0.24,13.1-0.25
		c3.85,0,7.7,0.16,11.55,0.25c3.33,0.08,6.65,0.26,9.98,0.25c5.78-0.02,11.57-0.22,17.35-0.22c2.39,0,4.77,0.34,7.16,0.47
		c5.75,0.3,11.49,0.69,17.24,0.81c4.54,0.1,9.09-0.21,13.64-0.21c3.95,0,7.9,0.17,11.85,0.25c2.5,0.05,4.99,0.05,7.49,0.09
		c4.17,0.06,8.34,0.12,12.5,0.21c0.92,0.02,1.85,0.19,2.77,0.21c2.14,0.05,4.28,0.01,6.42,0.08c2.87,0.09,5.73,0.28,8.6,0.37
		c2.08,0.06,4.17-0.01,6.25,0.05c2.11,0.06,4.22,0.25,6.33,0.29c3.26,0.06,6.52-0.04,9.78,0.06c2.94,0.09,5.87,0.44,8.8,0.53
		c4.75,0.15,9.51,0.2,14.27,0.29c1.66,0.03,3.31,0.02,4.97,0.08c3.98,0.14,7.95,0.36,11.93,0.44c2.02,0.04,4.05-0.14,6.07-0.25
		c0.79-0.04,1.59-0.27,2.37-0.24c3.44,0.14,6.87,0.33,10.3,0.53c1.68,0.1,3.36,0.31,5.04,0.38c1.76,0.08,3.53,0.13,5.28,0.05
		c1.64-0.07,3.28-0.32,5.19-0.52c-0.59,0.59-1.06,1.06-1.53,1.53c-1.82,1.82-3.53,3.78-5.51,5.4c-1.02,0.83-0.77,1.45-0.37,2.25
		c0.19,0.38,0.57,0.66,0.91,1.05c0.55-0.3,1.26-0.56,1.81-1.01c1.63-1.36,3.24-2.75,4.79-4.2c1.87-1.76,3.61-3.65,5.52-5.37
		c1.15-1.04,1.06-2.22-0.12-3.08c-2.09-1.52-4.06-3.22-5.99-4.95c-1.13-1.02-2.03-2.3-3.12-3.37c-0.62-0.61-1.24-0.42-1.72,0.35
		c-0.65,1.04-0.51,2.37,0.27,3.31c1.42,1.7,2.76,3.45,4.14,5.18c0.19-0.13,0.39-0.27,0.58-0.4c-1.66,0.15-3.33,0.46-4.99,0.43
		c-4.41-0.09-8.81-0.41-13.22-0.48c-3.3-0.05-6.6,0.2-9.9,0.22c-3.51,0.02-7.02-0.11-10.52-0.11c-2.87,0-5.75,0.13-8.62,0.1
		c-3.38-0.03-6.75-0.16-10.13-0.27c-1.61-0.05-3.22-0.12-4.82-0.24c-2.14-0.16-4.27-0.41-6.41-0.54c-1.67-0.1-3.33,0.11-4.93-0.77
		c-0.57-0.31-1.53,0.05-2.31,0.15c-0.47,0.06-0.93,0.31-1.4,0.31c-1.47,0.01-2.95-0.08-4.42-0.1c-4.74-0.06-9.48-0.08-14.23-0.16
		c-3.82-0.06-7.65-0.17-11.47-0.26c-3.79-0.09-7.57-0.18-11.36-0.27c-3.59-0.09-7.17-0.18-10.76-0.27
		c-13.49-0.34-27,0.68-40.49-0.53c-1.37-0.12-2.75,0-4.13-0.06c-2.85-0.14-5.69-0.45-8.53-0.46c-4.34-0.02-8.69,0.2-13.03,0.22
		c-2.4,0.01-4.81-0.17-7.21-0.25c-2.7-0.09-5.39-0.18-8.09-0.25c-4.31-0.11-8.61-0.28-12.92-0.26c-2.54,0.01-5.08,0.4-7.63,0.49
		c-4.53,0.15-9.07,0.21-13.6,0.28c-4.04,0.07-8.09,0.12-12.13,0.18c-1.27,0.02-2.54,0.11-3.81,0.08c-1.47-0.04-2.94-0.23-4.41-0.24
		c-5.05-0.03-10.1,0.04-15.14-0.04c-2.01-0.03-4.02-0.4-6.03-0.5c-4.46-0.22-8.93-0.38-13.39-0.55c-2.32-0.09-4.65-0.2-6.97-0.26
		c-4.14-0.11-8.28-0.2-12.42-0.27c-2.12-0.04-4.25,0.02-6.36-0.05c-3.29-0.12-6.58-0.45-9.87-0.45c-2.89,0-5.78,0.31-8.66,0.5
		c-2.39,0.16-4.79,0.33-7.18,0.56c-3.3,0.32-6.6,0.8-9.91,1.03c-3.17,0.22-6.35,0.19-9.53,0.31c-0.97,0.04-1.93,0.24-2.91,0.32
		c-3.23,0.26-6.46,0.53-9.7,0.71c-0.31,0.02-0.89-0.48-0.93-0.78c-0.42-3.51-0.77-7.03-1.12-10.55c-0.09-0.87-0.16-1.74-0.15-2.62
		c0.01-2.19,0.23-4.39,0.08-6.57c-0.21-3.22-0.78-6.42-0.98-9.64c-0.17-2.73-0.07-5.49-0.01-8.23c0.01-0.51,0.27-1.23,0.65-1.47
		c1.5-0.94,1.68-2.46,2.03-3.95c0.18-0.75,0.43-1.53,0.84-2.18c0.58-0.93,1.41-1.71,2.01-2.63c1.14-1.76,1.94-3.82,3.33-5.34
		c3.11-3.4,4.74-7.73,7.54-11.31c1.1-1.4,1.84-3.08,2.85-4.56c2.46-3.6,4.94-7.18,7.49-10.72c1.08-1.51,2.47-2.8,3.49-4.34
		c1.99-3.01,3.67-6.23,5.74-9.18c3.24-4.62,6.66-9.12,10.07-13.61c1.63-2.15,3.37-4.23,5.17-6.24c2.07-2.3,4.27-4.49,6.41-6.74
		c0.15-0.15,0.17-0.42,0.32-0.58c0.95-1.07,1.86-2.17,2.87-3.17c2.22-2.18,4.62-4.18,6.69-6.49c1.01-1.13,2.08-2,3.39-2.68
		c0.54-0.28,1.04-0.66,1.51-1.05c0.93-0.78,1.79-1.67,2.76-2.4c1.22-0.91,2.58-1.64,3.79-2.57c1.13-0.86,2.02-2.06,3.22-2.78
		c1.92-1.16,4.04-2,6.01-3.08c1.03-0.57,1.86-1.51,2.9-2.05c1.4-0.72,2.91-1.22,4.38-1.8c1.09-0.43,2.17-0.9,3.3-1.21
		c0.63-0.18,1.36,0.01,2.02-0.11c1.03-0.19,2.03-0.57,3.07-0.72c1.58-0.23,3.17-0.41,4.76-0.47c2.43-0.08,4.87-0.03,7.31-0.02
		c0.62,0,1.27-0.01,1.86,0.15c1.94,0.51,3.83,1.17,5.78,1.63c3.82,0.9,6.91,3.19,10.13,5.2c2.65,1.66,5.06,3.68,7.57,5.57
		c3.3,2.48,6.58,4.97,9.86,7.48c0.82,0.63,1.63,1.3,2.31,2.07c0.78,0.88,1.24,2.17,2.16,2.79c1.59,1.06,2.94,2.21,3.93,3.87
		c0.7,1.16,1.67,2.16,2.49,3.25c0.84,1.12,1.71,2.22,2.43,3.41c1.14,1.89,1.96,4.01,3.3,5.73c2.3,2.97,4.89,5.71,7.38,8.53
		c2.3,2.6,4.62,5.18,6.94,7.76c1.58,1.76,3.03,3.65,4.77,5.23c3.15,2.89,6.26,5.84,9.7,8.4c1.13,0.84,2.22,1.74,3.36,2.58
		c1.63,1.2,3.48,2.18,4.88,3.61c1.97,2.01,4.38,3.19,6.78,4.45c0.38,0.2,0.74,0.67,1.08,0.64c1.45-0.13,2.16,0.88,2.69,1.42
		c1.38,0.38,2.38,0.71,3.4,0.92c2.27,0.45,4.53,0.98,6.83,1.2c2.55,0.25,5.11,0.1,7.68-0.09c2.85-0.22,5.73,0,8.59-0.1
		c2.3-0.08,4.5-0.77,6.67-1.54c1.77-0.63,3.58-1.18,5.31-1.91c1.8-0.76,3.51-1.76,5.31-2.54c0.91-0.4,1.98-0.42,2.89-0.83
		c1.9-0.85,3.69-1.94,5.61-2.76c2.83-1.21,5.59-2.51,8.2-4.17c3.14-2.01,6.45-3.74,9.63-5.69c1.86-1.14,3.64-2.44,5.4-3.74
		c1.63-1.21,3.19-2.52,4.79-3.77c1.26-0.99,2.55-1.93,3.81-2.93c0.88-0.7,1.68-1.51,2.59-2.17c1.91-1.39,3.93-2.62,5.78-4.08
		c1.52-1.2,2.85-2.63,4.28-3.94c3.15-2.9,6.31-5.78,9.46-8.69c0.69-0.64,1.36-1.31,1.99-2.02c2.38-2.7,4.7-5.45,7.1-8.13
		c2.32-2.58,4.71-5.09,7.07-7.63c0.38-0.41,0.75-0.84,1.17-1.2c1.74-1.51,3.57-2.92,5.22-4.52c1.77-1.72,3.33-3.66,5.06-5.42
		c1.64-1.67,3.38-3.25,5.1-4.84c0.82-0.76,1.68-1.46,2.54-2.17c2.83-2.34,5.75-4.59,8.49-7.04c2.24-2,4.26-4.24,6.4-6.35
		c1.8-1.77,3.66-3.48,5.48-5.23c2.68-2.58,5.34-5.17,8.03-7.74c0.94-0.9,1.89-1.8,2.9-2.61c1.43-1.16,2.94-2.22,4.4-3.35
		c1.35-1.05,2.7-2.12,4-3.23c0.21-0.18,0.37-0.79,0.24-0.95c-0.54-0.66-1.19-1.24-1.84-1.8c-0.06-0.05-0.42,0.17-0.59,0.32
		c-2.32,2.15-4.61,4.34-6.95,6.47c-3.44,3.13-6.96,6.18-10.38,9.34c-2.01,1.86-3.89,3.86-5.83,5.8c-2.66,2.66-5.28,5.34-7.98,7.95
		c-1.27,1.23-2.64,2.38-4.04,3.47c-2.33,1.81-4.83,3.42-7.06,5.35c-2.37,2.06-4.49,4.4-6.73,6.6c-0.44,0.43-0.97,0.77-1.41,1.2
		c-2.05,2.02-4.1,4.03-6.11,6.08c-0.99,1-1.88,2.09-2.86,3.1c-1.37,1.42-2.83,2.75-4.15,4.21c-1.22,1.35-2.24,2.89-3.48,4.22
		c-1.87,2-3.89,3.86-5.76,5.86c-1.01,1.08-1.72,2.44-2.76,3.46c-2.51,2.48-5.06,4.94-7.75,7.21c-3.27,2.76-6.69,5.36-10.1,7.96
		c-2.56,1.95-5.21,3.77-7.8,5.68c-0.99,0.73-1.9,1.56-2.88,2.31c-0.45,0.35-0.95,0.63-1.44,0.92c-1.36,0.82-2.72,1.64-4.08,2.45
		c-2.38,1.41-4.08,3.69-6.68,4.87c-2.88,1.3-5.56,3.04-8.36,4.52c-2.52,1.33-5.06,2.66-7.66,3.83c-2.02,0.91-4.16,1.54-6.24,2.32
		c-2.33,0.88-4.59,1.96-6.97,2.66c-3.04,0.89-6.13,1.67-9.25,2.12c-2.54,0.36-5.16,0.24-7.74,0.2c-2.06-0.03-4.12-0.36-6.18-0.38
		c-3.01-0.04-5.84-0.73-8.57-1.91c-4.3-1.85-8.36-4.05-11.98-7.11c-4.59-3.87-9.65-7.18-13.77-11.63c-2.11-2.28-4.53-4.26-6.68-6.5
		c-3.27-3.41-6.58-6.82-9.59-10.46c-2.18-2.63-3.9-5.64-5.8-8.5c-0.71-1.06-1.26-2.23-2.02-3.24c-0.96-1.3-2.31-2.37-3.05-3.77
		c-1.86-3.49-4.95-5.87-7.54-8.69c-1.78-1.93-3.85-3.58-5.81-5.33c-0.81-0.72-1.65-1.41-2.53-2.03c-1.23-0.85-2.57-1.54-3.77-2.43
		c-2.38-1.76-4.66-3.67-7.08-5.37c-1.24-0.87-2.73-1.37-4.03-2.17c-1.12-0.69-2.02-1.77-3.19-2.3c-2.56-1.15-5.25-2.02-7.86-3.07
		c-2.31-0.94-4.71-1.12-7.16-1.08c-1.63,0.03-3.26,0.01-4.89,0.01c-0.27,0-0.54-0.02-0.81,0.01c-2.77,0.35-5.53,0.89-8.31,1.02
		c-2.85,0.13-5.37,1.28-7.93,2.24c-2.24,0.84-4.4,2.05-6.38,3.41c-2.81,1.92-6.04,3.08-8.67,5.39c-2.65,2.33-5.83,4.05-8.72,6.11
		c-1.33,0.95-2.57,2.03-3.75,3.16c-1.24,1.18-2.34,2.5-3.52,3.75c-2.08,2.19-4.24,4.32-6.24,6.57c-2.56,2.88-5.02,5.86-7.51,8.81
		c-2.05,2.44-4.13,4.86-6.09,7.37c-1.78,2.29-3.4,4.7-5.1,7.05c-1.8,2.47-3.68,4.88-5.39,7.4c-1.8,2.66-3.38,5.46-5.18,8.12
		c-1.24,1.82-2.77,3.45-4.03,5.25c-2.34,3.35-4.59,6.78-6.88,10.17c-2.09,3.1-4.22,6.18-6.28,9.3c-1.57,2.38-3.03,4.83-4.59,7.21
		c-1.19,1.81-2.44,3.59-3.73,5.34c-0.48,0.65-1.12,1.17-1.69,1.75c-0.31-2.27-0.27-4.26-0.32-6.25c-0.04-1.64-0.2-3.29-0.24-4.93
		c-0.05-1.94,0.06-3.89-0.06-5.82c-0.3-4.81-0.7-9.61-1.05-14.41c-0.19-2.57-0.39-5.14-0.55-7.72c-0.2-3.17-0.37-6.35-0.53-9.53
		c-0.11-2.24-0.11-4.48-0.31-6.71c-0.38-4.32-0.9-8.64-1.31-12.96c-0.24-2.48-0.29-4.97-0.57-7.45c-0.47-4.18-1.06-8.35-1.6-12.53
		c-0.37-2.84-0.75-5.68-1.1-8.53c-0.37-2.96-0.72-5.91-1.04-8.87c-0.14-1.28-0.15-2.58-0.29-3.86c-0.56-4.95-1.15-9.89-1.72-14.84
		c-0.25-2.2-0.44-4.4-0.69-6.59c-0.25-2.19-0.53-4.38-0.81-6.56c-0.32-2.51-0.6-5.02-0.97-7.52c-0.36-2.49-0.85-4.95-1.18-7.44
		c-0.42-3.16-0.66-6.34-1.13-9.49c-0.53-3.61-1.26-7.19-1.84-10.8c-0.4-2.49-0.64-5-1.05-7.48c-0.5-2.99-1.11-5.96-1.65-8.94
		c-0.83-4.6-1.65-9.2-2.44-13.8c-0.31-1.79-0.48-3.61-0.83-5.39c-0.57-2.95-1.22-5.88-1.87-8.81c-0.46-2.05-1-4.07-1.49-6.11
		c-0.07-0.29-0.06-0.6-0.12-1.23c0.67,0.83,1.26,1.32,1.53,1.94c0.67,1.55,2.37,2.5,2.4,4.44c0.01,0.69,0.81,1.21,1.36,0.69
		c0.87-0.81,1.55-1.86,2.17-2.89c0.06-0.1-0.84-0.78-1.3-1.2c-0.13-0.12-0.27-0.24-0.38-0.38c-1.42-1.77-2.92-3.48-4.23-5.32
		c-1.16-1.64-2.19-3.39-3.15-5.16c-0.67-1.22-1.89-1.12-2.88-1.23c-0.51-0.06-1.36,0.79-1.68,1.42c-0.86,1.71-1.55,3.5-2.25,5.28
		c-0.57,1.46-1.1,2.94-1.59,4.43c-0.24,0.73-0.59,1.54-0.46,2.24c0.09,0.49,1.13,1.3,1.36,1.19c0.83-0.41,1.73-1.02,2.16-1.8
		c0.77-1.4,1.21-2.98,1.81-4.49C50.68,32.97,50.92,32.5,51.23,31.83z M484.58,340.24c0.48-0.78,0.88-1.32,1.16-1.92
		c0.42-0.92,1.32-1.79,0.71-2.92c-0.84-1.54-1.68-3.1-2.68-4.54c-0.52-0.74-0.3-1.08,0.21-1.56c0.88-0.84,1.72-1.71,2.58-2.57
		c0.81-0.8,0.51-1.83,0.12-2.54c-0.17-0.3-1.52-0.26-2.12,0.05c-0.79,0.41-1.35,1.24-2.03,1.87c-0.27,0.25-0.6,0.42-1,0.69
		c-0.81-1.74-1.55-3.47-3.94-3c-0.59,2.18-0.59,4.21,1.36,5.56c-1.5,3.39-3.03,6.65-4.31,10c-0.2,0.52,0.59,1.74,1.24,2.17
		c0.75,0.5,1.33-0.22,1.59-1.06c0.21-0.67,0.51-1.31,0.81-1.94c0.81-1.71,1.65-3.42,2.48-5.12c1.35,1.47,2.86,2.61,1.63,4.57
		c-0.09,0.14-0.05,0.51,0.07,0.61C483.15,339.18,483.89,339.71,484.58,340.24z M25.82,32.85c0.11,0.06,0.21,0.11,0.32,0.17
		c0.03,0.27,0.03,0.54,0.08,0.8c0.25,1.46,0.59,2.92,0.75,4.39c0.11,1.07-0.34,1.9-1.62,1.66c-1.11-0.2-2.19-0.57-3.3-0.79
		c-0.4-0.08-0.84,0.08-1.27,0.13c0.13,0.4,0.15,0.95,0.42,1.18c0.81,0.67,1.66,1.36,2.61,1.78c0.85,0.38,1.91,0.74,2.76,0.56
		c2.02-0.42,3.61-2.66,3.33-4.68c-0.28-1.99-0.84-3.94-1.37-5.88c-0.34-1.26-0.88-2.47-1.26-3.73c-0.38-1.27-2.01-2.03-2.99-1.19
		c-0.41,0.36-0.44,1.23-0.53,1.89c-0.19,1.47-0.45,2.92-1.96,3.6c-1.71,0.76-2.89-0.09-2.61-1.92c0.19-1.27,0.64-2.5,0.98-3.75
		c-1.47-0.75-3.19,0.07-3.43,1.68c-0.13,0.87-0.17,1.76-0.35,2.62c-0.4,1.87,0.98,3.77,2.9,3.91c0.45,0.03,0.9,0,1.34,0.07
		c1.54,0.22,2.98,0.11,4.08-1.17C25.09,33.75,25.45,33.3,25.82,32.85z"/>
	<path d="M51.23,31.83c-0.31,0.67-0.55,1.14-0.74,1.63c-0.59,1.5-1.04,3.08-1.81,4.49c-0.43,0.78-1.34,1.39-2.16,1.8
		c-0.23,0.11-1.27-0.7-1.36-1.19c-0.13-0.69,0.22-1.51,0.46-2.24c0.49-1.49,1.01-2.97,1.59-4.43c0.7-1.78,1.39-3.58,2.25-5.28
		c0.32-0.63,1.17-1.48,1.68-1.42c0.98,0.12,2.21,0.01,2.88,1.23c0.96,1.77,1.98,3.52,3.15,5.16c1.31,1.84,2.81,3.56,4.23,5.32
		c0.11,0.14,0.25,0.26,0.38,0.38c0.46,0.42,1.36,1.1,1.3,1.2c-0.62,1.03-1.3,2.08-2.17,2.89c-0.56,0.52-1.35,0-1.36-0.69
		c-0.03-1.93-1.74-2.89-2.4-4.44c-0.27-0.62-0.86-1.1-1.53-1.94c0.06,0.63,0.05,0.94,0.12,1.23c0.49,2.04,1.03,4.07,1.49,6.11
		c0.66,2.93,1.3,5.87,1.87,8.81c0.35,1.78,0.52,3.6,0.83,5.39c0.8,4.6,1.61,9.21,2.44,13.8c0.54,2.98,1.16,5.95,1.65,8.94
		c0.41,2.48,0.65,4.99,1.05,7.48c0.58,3.61,1.31,7.19,1.84,10.8c0.47,3.15,0.71,6.33,1.13,9.49c0.33,2.49,0.82,4.96,1.18,7.44
		c0.36,2.5,0.65,5.01,0.97,7.52c0.27,2.19,0.56,4.37,0.81,6.56c0.25,2.2,0.44,4.4,0.69,6.59c0.56,4.95,1.16,9.89,1.72,14.84
		c0.14,1.28,0.15,2.58,0.29,3.86c0.32,2.96,0.68,5.92,1.04,8.87c0.35,2.85,0.74,5.69,1.1,8.53c0.54,4.18,1.13,8.35,1.6,12.53
		c0.28,2.47,0.34,4.97,0.57,7.45c0.41,4.32,0.92,8.63,1.31,12.96c0.2,2.23,0.19,4.47,0.31,6.71c0.16,3.18,0.33,6.35,0.53,9.53
		c0.16,2.57,0.36,5.15,0.55,7.72c0.35,4.8,0.75,9.61,1.05,14.41c0.12,1.93,0.01,3.88,0.06,5.82c0.04,1.64,0.2,3.29,0.24,4.93
		c0.04,1.99,0.01,3.97,0.32,6.25c0.57-0.58,1.22-1.1,1.69-1.75c1.29-1.75,2.54-3.53,3.73-5.34c1.56-2.38,3.02-4.83,4.59-7.21
		c2.06-3.12,4.19-6.2,6.28-9.3c2.29-3.39,4.53-6.81,6.88-10.17c1.26-1.81,2.79-3.43,4.03-5.25c1.8-2.66,3.38-5.46,5.18-8.12
		c1.71-2.53,3.6-4.93,5.39-7.4c1.71-2.35,3.32-4.76,5.1-7.05c1.96-2.52,4.04-4.93,6.09-7.37c2.48-2.95,4.94-5.93,7.51-8.81
		c2.01-2.26,4.17-4.38,6.24-6.57c1.18-1.24,2.28-2.56,3.52-3.75c1.18-1.13,2.43-2.21,3.75-3.16c2.89-2.07,6.07-3.78,8.72-6.11
		c2.63-2.31,5.86-3.47,8.67-5.39c1.98-1.36,4.14-2.57,6.38-3.41c2.55-0.96,5.07-2.11,7.93-2.24c2.78-0.13,5.54-0.67,8.31-1.02
		c0.27-0.03,0.54-0.01,0.81-0.01c1.63,0,3.26,0.02,4.89-0.01c2.45-0.04,4.85,0.14,7.16,1.08c2.61,1.06,5.29,1.92,7.86,3.07
		c1.17,0.53,2.07,1.61,3.19,2.3c1.3,0.8,2.79,1.3,4.03,2.17c2.42,1.71,4.69,3.62,7.08,5.37c1.2,0.89,2.54,1.58,3.77,2.43
		c0.89,0.61,1.73,1.31,2.53,2.03c1.97,1.75,4.04,3.4,5.81,5.33c2.59,2.82,5.68,5.19,7.54,8.69c0.75,1.4,2.09,2.47,3.05,3.77
		c0.76,1.02,1.31,2.18,2.02,3.24c1.9,2.86,3.63,5.86,5.8,8.5c3.01,3.64,6.32,7.04,9.59,10.46c2.15,2.24,4.58,4.22,6.68,6.5
		c4.12,4.45,9.18,7.76,13.77,11.63c3.63,3.06,7.69,5.26,11.98,7.11c2.73,1.18,5.57,1.87,8.57,1.91c2.06,0.03,4.12,0.35,6.18,0.38
		c2.58,0.04,5.2,0.16,7.74-0.2c3.12-0.45,6.22-1.23,9.25-2.12c2.38-0.69,4.64-1.78,6.97-2.66c2.08-0.79,4.22-1.42,6.24-2.32
		c2.6-1.17,5.14-2.5,7.66-3.83c2.8-1.48,5.48-3.22,8.36-4.52c2.61-1.18,4.31-3.46,6.68-4.87c1.36-0.81,2.72-1.63,4.08-2.45
		c0.49-0.3,0.99-0.58,1.44-0.92c0.97-0.75,1.89-1.58,2.88-2.31c2.59-1.91,5.24-3.73,7.8-5.68c3.41-2.6,6.82-5.2,10.1-7.96
		c2.7-2.27,5.24-4.73,7.75-7.21c1.04-1.03,1.76-2.39,2.76-3.46c1.87-2,3.9-3.85,5.76-5.86c1.24-1.33,2.26-2.87,3.48-4.22
		c1.32-1.46,2.78-2.79,4.15-4.21c0.98-1.01,1.87-2.1,2.86-3.1c2.02-2.05,4.06-4.07,6.11-6.08c0.44-0.43,0.97-0.77,1.41-1.2
		c2.24-2.2,4.36-4.54,6.73-6.6c2.22-1.93,4.73-3.54,7.06-5.35c1.4-1.09,2.77-2.24,4.04-3.47c2.7-2.61,5.32-5.3,7.98-7.95
		c1.94-1.94,3.82-3.94,5.83-5.8c3.42-3.16,6.93-6.21,10.38-9.34c2.34-2.13,4.63-4.32,6.95-6.47c0.17-0.15,0.53-0.37,0.59-0.32
		c0.65,0.56,1.3,1.14,1.84,1.8c0.13,0.16-0.03,0.77-0.24,0.95c-1.3,1.11-2.65,2.18-4,3.23c-1.45,1.13-2.96,2.2-4.4,3.35
		c-1.01,0.82-1.96,1.71-2.9,2.61c-2.68,2.57-5.35,5.17-8.03,7.74c-1.82,1.75-3.68,3.46-5.48,5.23c-2.15,2.1-4.16,4.35-6.4,6.35
		c-2.74,2.44-5.65,4.7-8.49,7.04c-0.86,0.71-1.73,1.41-2.54,2.17c-1.72,1.59-3.46,3.17-5.1,4.84c-1.73,1.76-3.29,3.7-5.06,5.42
		c-1.65,1.6-3.48,3.01-5.22,4.52c-0.42,0.37-0.79,0.79-1.17,1.2c-2.36,2.54-4.75,5.05-7.07,7.63c-2.4,2.68-4.73,5.43-7.1,8.13
		c-0.62,0.71-1.29,1.38-1.99,2.02c-3.14,2.9-6.31,5.79-9.46,8.69c-1.43,1.31-2.76,2.74-4.28,3.94c-1.85,1.46-3.87,2.69-5.78,4.08
		c-0.91,0.66-1.71,1.47-2.59,2.17c-1.25,1-2.55,1.94-3.81,2.93c-1.6,1.25-3.16,2.56-4.79,3.77c-1.76,1.3-3.53,2.6-5.4,3.74
		c-3.18,1.95-6.49,3.68-9.63,5.69c-2.61,1.67-5.37,2.96-8.2,4.17c-1.91,0.82-3.71,1.91-5.61,2.76c-0.9,0.41-1.98,0.43-2.89,0.83
		c-1.8,0.78-3.5,1.78-5.31,2.54c-1.73,0.73-3.54,1.28-5.31,1.91c-2.16,0.77-4.36,1.46-6.67,1.54c-2.86,0.1-5.74-0.11-8.59,0.1
		c-2.57,0.19-5.14,0.35-7.68,0.09c-2.29-0.23-4.56-0.75-6.83-1.2c-1.03-0.2-2.03-0.54-3.4-0.92c-0.52-0.54-1.24-1.55-2.69-1.42
		c-0.34,0.03-0.7-0.44-1.08-0.64c-2.4-1.26-4.81-2.44-6.78-4.45c-1.4-1.43-3.25-2.4-4.88-3.61c-1.14-0.84-2.22-1.74-3.36-2.58
		c-3.44-2.56-6.55-5.51-9.7-8.4c-1.73-1.59-3.19-3.48-4.77-5.23c-2.32-2.58-4.64-5.16-6.94-7.76c-2.49-2.82-5.07-5.57-7.38-8.53
		c-1.34-1.72-2.16-3.85-3.3-5.73c-0.72-1.19-1.6-2.29-2.43-3.41c-0.82-1.09-1.79-2.09-2.49-3.25c-0.99-1.66-2.35-2.81-3.93-3.87
		c-0.93-0.62-1.38-1.91-2.16-2.79c-0.68-0.77-1.49-1.44-2.31-2.07c-3.27-2.51-6.56-5-9.86-7.48c-2.5-1.88-4.92-3.91-7.57-5.57
		c-3.21-2.01-6.31-4.31-10.13-5.2c-1.95-0.46-3.84-1.12-5.78-1.63c-0.59-0.16-1.24-0.14-1.86-0.15c-2.44-0.01-4.87-0.06-7.31,0.02
		c-1.59,0.05-3.18,0.24-4.76,0.47c-1.04,0.15-2.04,0.54-3.07,0.72c-0.66,0.12-1.38-0.06-2.02,0.11c-1.12,0.31-2.21,0.79-3.3,1.21
		c-1.47,0.58-2.98,1.08-4.38,1.8c-1.04,0.54-1.87,1.48-2.9,2.05c-1.97,1.09-4.09,1.92-6.01,3.08c-1.2,0.72-2.09,1.92-3.22,2.78
		c-1.21,0.93-2.57,1.66-3.79,2.57c-0.97,0.73-1.83,1.62-2.76,2.4c-0.47,0.39-0.97,0.77-1.51,1.05c-1.31,0.68-2.37,1.55-3.39,2.68
		c-2.07,2.31-4.47,4.31-6.69,6.49c-1.02,1-1.93,2.1-2.87,3.17c-0.14,0.16-0.17,0.42-0.32,0.58c-2.13,2.25-4.34,4.43-6.41,6.74
		c-1.8,2.01-3.54,4.09-5.17,6.24c-3.41,4.49-6.83,8.99-10.07,13.61c-2.07,2.95-3.75,6.17-5.74,9.18c-1.02,1.54-2.41,2.84-3.49,4.34
		c-2.54,3.54-5.03,7.12-7.49,10.72c-1.01,1.48-1.75,3.16-2.85,4.56c-2.8,3.58-4.43,7.91-7.54,11.31c-1.39,1.52-2.19,3.57-3.33,5.34
		c-0.6,0.92-1.42,1.7-2.01,2.63c-0.41,0.65-0.66,1.43-0.84,2.18c-0.35,1.49-0.53,3.01-2.03,3.95c-0.38,0.24-0.64,0.96-0.65,1.47
		c-0.06,2.74-0.16,5.5,0.01,8.23c0.2,3.22,0.77,6.42,0.98,9.64c0.14,2.18-0.07,4.38-0.08,6.57c-0.01,0.87,0.07,1.75,0.15,2.62
		c0.35,3.52,0.69,7.04,1.12,10.55c0.04,0.31,0.62,0.8,0.93,0.78c3.24-0.19,6.47-0.45,9.7-0.71c0.97-0.08,1.93-0.28,2.91-0.32
		c3.18-0.12,6.36-0.09,9.53-0.31c3.31-0.23,6.6-0.71,9.91-1.03c2.39-0.23,4.78-0.4,7.18-0.56c2.89-0.2,5.78-0.51,8.66-0.5
		c3.29,0,6.58,0.33,9.87,0.45c2.12,0.08,4.24,0.02,6.36,0.05c4.14,0.07,8.28,0.16,12.42,0.27c2.33,0.06,4.65,0.17,6.97,0.26
		c4.46,0.18,8.93,0.33,13.39,0.55c2.01,0.1,4.02,0.47,6.03,0.5c5.05,0.07,10.09,0,15.14,0.04c1.47,0.01,2.94,0.21,4.41,0.24
		c1.27,0.03,2.54-0.06,3.81-0.08c4.04-0.06,8.09-0.11,12.13-0.18c4.53-0.08,9.07-0.13,13.6-0.28c2.54-0.08,5.08-0.48,7.63-0.49
		c4.31-0.02,8.61,0.15,12.92,0.26c2.7,0.07,5.39,0.16,8.09,0.25c2.4,0.08,4.81,0.26,7.21,0.25c4.34-0.02,8.69-0.24,13.03-0.22
		c2.85,0.01,5.69,0.33,8.53,0.46c1.37,0.07,2.76-0.06,4.13,0.06c13.48,1.21,26.99,0.19,40.49,0.53c3.59,0.09,7.17,0.18,10.76,0.27
		c3.79,0.09,7.57,0.18,11.36,0.27c3.82,0.09,7.65,0.2,11.47,0.26c4.74,0.07,9.48,0.1,14.23,0.16c1.47,0.02,2.95,0.11,4.42,0.1
		c0.47,0,0.93-0.25,1.4-0.31c0.78-0.1,1.74-0.47,2.31-0.15c1.6,0.88,3.26,0.67,4.93,0.77c2.14,0.12,4.27,0.38,6.41,0.54
		c1.6,0.12,3.21,0.18,4.82,0.24c3.38,0.11,6.75,0.24,10.13,0.27c2.87,0.03,5.75-0.11,8.62-0.1c3.51,0.01,7.02,0.13,10.52,0.11
		c3.3-0.02,6.6-0.27,9.9-0.22c4.41,0.07,8.81,0.39,13.22,0.48c1.66,0.03,3.32-0.27,4.99-0.43c-0.19,0.13-0.39,0.27-0.58,0.4
		c-1.38-1.73-2.72-3.48-4.14-5.18c-0.78-0.93-0.92-2.27-0.27-3.31c0.48-0.77,1.1-0.97,1.72-0.35c1.09,1.08,1.99,2.35,3.12,3.37
		c1.92,1.73,3.9,3.43,5.99,4.95c1.18,0.86,1.27,2.04,0.12,3.08c-1.9,1.72-3.65,3.61-5.52,5.37c-1.55,1.45-3.15,2.85-4.79,4.2
		c-0.55,0.46-1.26,0.71-1.81,1.01c-0.34-0.38-0.72-0.67-0.91-1.05c-0.4-0.8-0.64-1.41,0.37-2.25c1.98-1.62,3.69-3.58,5.51-5.4
		c0.47-0.47,0.94-0.94,1.53-1.53c-1.91,0.2-3.55,0.45-5.19,0.52c-1.76,0.08-3.52,0.03-5.28-0.05c-1.68-0.07-3.36-0.28-5.04-0.38
		c-3.43-0.2-6.87-0.39-10.3-0.53c-0.79-0.03-1.58,0.2-2.37,0.24c-2.02,0.11-4.05,0.29-6.07,0.25c-3.98-0.08-7.95-0.3-11.93-0.44
		c-1.65-0.06-3.31-0.05-4.97-0.08c-4.76-0.09-9.51-0.13-14.27-0.29c-2.94-0.1-5.87-0.44-8.8-0.53c-3.26-0.1-6.52-0.01-9.78-0.06
		c-2.11-0.04-4.22-0.23-6.33-0.29c-2.08-0.06-4.17,0.02-6.25-0.05c-2.87-0.09-5.73-0.28-8.6-0.37c-2.14-0.07-4.28-0.03-6.42-0.08
		c-0.92-0.02-1.85-0.19-2.77-0.21c-4.17-0.08-8.34-0.14-12.5-0.21c-2.5-0.04-4.99-0.04-7.49-0.09c-3.95-0.08-7.9-0.25-11.85-0.25
		c-4.55,0.01-9.09,0.31-13.64,0.21c-5.75-0.12-11.5-0.51-17.24-0.81c-2.39-0.13-4.78-0.47-7.16-0.47c-5.78,0-11.57,0.2-17.35,0.22
		c-3.33,0.01-6.65-0.17-9.98-0.25c-3.85-0.1-7.7-0.26-11.55-0.25c-4.37,0-8.74,0.17-13.1,0.25c-5.39,0.1-10.77,0.19-16.16,0.27
		c-2.35,0.03-4.7-0.03-7.04,0.01c-2.7,0.05-5.39,0.27-8.09,0.23c-6.17-0.11-12.34-0.27-18.51-0.53c-4.76-0.2-9.51-0.6-14.26-0.87
		c-2.08-0.12-4.16-0.14-6.24-0.18c-5.47-0.1-10.94-0.14-16.41-0.29c-4.33-0.11-8.66-0.43-12.99-0.5c-3.14-0.05-6.29-0.03-9.41,0.29
		c-4.47,0.45-8.89,1.37-13.37,1.78c-3.83,0.34-7.7,0.15-11.55,0.37c-2.51,0.14-5,0.59-7.5,0.89c-1.93,0.24-3.86,0.52-5.8,0.67
		c-1.34,0.11-2.69,0.02-4.16,0.02c-0.8-1.1-1.25-2.45-1.18-4.04c0.08-1.88,0.28-3.78-0.91-5.55c-0.36-0.54-0.19-1.77,0.19-2.42
		c0.95-1.61,0.18-3.24,0.35-4.85c0.1-0.95,0.14-1.92,0.11-2.88c-0.06-1.74-0.21-3.47-0.31-5.2c-0.09-1.64-0.13-3.29-0.27-4.93
		c-0.11-1.3-0.36-2.58-0.48-3.87c-0.14-1.51-0.22-3.03-0.27-4.55c-0.04-1.13,0.06-2.26,0.01-3.38c-0.09-2.1-0.25-4.19-0.39-6.28
		c-0.07-1.04-0.21-2.08-0.25-3.13c-0.17-4.25-0.3-8.5-0.46-12.76c-0.08-2.01-0.16-4.01-0.28-6.02c-0.17-2.89-0.36-5.78-0.55-8.66
		c-0.17-2.72-0.36-5.45-0.52-8.17c-0.11-1.88-0.19-3.75-0.27-5.63c-0.19-4.29-0.28-8.59-0.57-12.88c-0.24-3.59-0.71-7.17-1.05-10.76
		c-0.29-3.08-0.46-6.18-0.84-9.26c-0.31-2.51-0.93-4.99-1.26-7.5c-0.31-2.38-0.39-4.79-0.63-7.18c-0.23-2.27-0.51-4.53-0.8-6.79
		c-0.34-2.59-0.72-5.17-1.06-7.76c-0.43-3.23-0.86-6.47-1.24-9.7c-0.26-2.26-0.43-4.54-0.66-6.81c-0.25-2.51-0.54-5.01-0.79-7.52
		c-0.24-2.37-0.42-4.75-0.7-7.11c-0.25-2.13-0.65-4.25-0.92-6.38c-0.31-2.47-0.52-4.96-0.84-7.43c-0.32-2.49-0.71-4.97-1.11-7.45
		c-0.41-2.58-0.87-5.15-1.31-7.72c-0.32-1.89-0.66-3.78-0.95-5.68c-0.42-2.74-0.79-5.49-1.22-8.23c-0.24-1.56-0.53-3.12-0.82-4.67
		c-0.53-2.84-1.06-5.67-1.61-8.5c-0.5-2.54-1.08-5.07-1.53-7.62c-0.23-1.31-0.15-2.67-0.38-3.97c-0.27-1.58-0.73-3.13-1.09-4.7
		c-0.15-0.64-0.24-1.29-0.34-1.94c-0.33-2.17-0.56-4.36-1-6.5c-0.32-1.53-0.94-3-1.39-4.51C52.13,35.04,51.74,33.61,51.23,31.83z"/>
	<path d="M484.58,340.24c-0.7-0.53-1.43-1.06-2.13-1.64c-0.12-0.1-0.16-0.47-0.07-0.61c1.23-1.95-0.28-3.09-1.63-4.57
		c-0.83,1.71-1.67,3.41-2.48,5.12c-0.3,0.63-0.6,1.28-0.81,1.94c-0.26,0.83-0.84,1.55-1.59,1.06c-0.65-0.43-1.44-1.65-1.24-2.17
		c1.28-3.35,2.82-6.61,4.31-10c-1.95-1.35-1.95-3.38-1.36-5.56c2.39-0.48,3.13,1.25,3.94,3c0.39-0.27,0.73-0.44,1-0.69
		c0.68-0.63,1.24-1.46,2.03-1.87c0.6-0.31,1.95-0.35,2.12-0.05c0.39,0.71,0.69,1.73-0.12,2.54c-0.86,0.85-1.7,1.73-2.58,2.57
		c-0.51,0.48-0.73,0.82-0.21,1.56c1.01,1.43,1.85,2.99,2.68,4.54c0.61,1.13-0.28,2-0.71,2.92
		C485.46,338.92,485.06,339.46,484.58,340.24z"/>
	<path d="M25.82,32.85c-0.37,0.45-0.73,0.91-1.11,1.35c-1.1,1.28-2.54,1.38-4.08,1.17c-0.44-0.06-0.89-0.03-1.34-0.07
		c-1.92-0.14-3.3-2.04-2.9-3.91c0.18-0.86,0.22-1.75,0.35-2.62c0.24-1.61,1.96-2.44,3.43-1.68c-0.34,1.25-0.78,2.48-0.98,3.75
		c-0.28,1.83,0.9,2.68,2.61,1.92c1.52-0.68,1.78-2.13,1.96-3.6c0.08-0.66,0.11-1.53,0.53-1.89c0.98-0.84,2.61-0.08,2.99,1.19
		c0.38,1.26,0.92,2.46,1.26,3.73c0.53,1.94,1.09,3.89,1.37,5.88c0.28,2.02-1.31,4.26-3.33,4.68c-0.85,0.18-1.92-0.18-2.76-0.56
		c-0.95-0.43-1.8-1.11-2.61-1.78c-0.28-0.23-0.29-0.78-0.42-1.18c0.42-0.05,0.87-0.21,1.27-0.13c1.11,0.22,2.19,0.59,3.3,0.79
		c1.28,0.23,1.73-0.59,1.62-1.66c-0.16-1.47-0.49-2.93-0.75-4.39c-0.05-0.26-0.05-0.53-0.08-0.8C26.03,32.96,25.93,32.9,25.82,32.85
		z"/>
</g>
<g>
	<path class="st1" d="M337.58,9.82c-1.92,1.64-3.87,3.29-5.81,4.95c-1.71,1.47-3.48,2.88-5.12,4.42c-1.91,1.79-3.7,3.71-5.57,5.54
		c-3.15,3.09-6.29,6.19-9.5,9.22c-3.18,3-6.44,5.91-9.68,8.85c-4.44,4.02-8.87,8.05-13.35,12.03c-2.32,2.06-4.73,4.02-7.11,6.02
		c-1.02,0.86-2.1,1.64-3.05,2.56c-2.51,2.44-4.89,5.03-7.47,7.4c-2.59,2.39-5.35,4.59-8.05,6.86c-1.15,0.97-2.33,1.91-3.47,2.89
		c-1.39,1.19-2.74,2.42-4.14,3.59c-1.53,1.28-3.15,2.44-4.63,3.77c-4.4,3.98-8.76,8.01-13.13,12.03c-2.51,2.31-4.94,4.71-7.52,6.94
		c-2.57,2.23-5.3,4.27-7.93,6.43c-1.99,1.64-3.93,3.33-5.89,5c-2.94,2.5-5.89,4.99-8.82,7.5c-2.63,2.24-5.23,4.51-7.86,6.75
		c-1.58,1.35-3.22,2.64-4.78,4.02c-1.12,1-2.13,2.12-3.21,3.16c-1.83,1.76-3.63,3.56-5.53,5.25c-4.23,3.76-8.53,7.45-12.78,11.19
		c-3.08,2.7-6.19,5.37-9.17,8.18c-1.31,1.24-2.28,2.82-3.49,4.17c-1.16,1.28-2.39,2.5-3.67,3.66c-2.09,1.9-4.29,3.68-6.36,5.6
		c-2.53,2.34-4.96,4.8-7.47,7.17c-2.37,2.24-4.87,4.37-7.17,6.68c-1.62,1.63-2.97,3.52-4.5,5.25c-1.33,1.5-2.76,2.92-4.11,4.4
		c-2.04,2.24-4.02,4.53-6.07,6.75c-0.9,0.98-1.96,1.81-2.89,2.76c-1.39,1.42-2.69,2.93-4.09,4.33c-2.62,2.61-5.04,5.36-7.13,8.44
		c-1.26,1.86-2.99,3.41-4.32,5.23c-2.02,2.76-3.78,5.71-5.82,8.46c-1.88,2.54-4.01,4.89-5.96,7.37c-0.76,0.96-1.33,2.07-2.04,3.08
		c-0.93,1.34-1.75,2.82-2.92,3.91c-1.32,1.22-1.59,2.67-1.81,4.26c-0.05,0.39-0.38,0.75-0.58,1.12c-0.16-0.06-0.31-0.12-0.47-0.18
		c0-1.83-0.1-3.66,0.05-5.48c0.05-0.67,0.64-1.33,1.08-1.92c0.74-0.99,1.57-1.92,2.33-2.9c1.8-2.33,3.65-4.63,5.36-7.04
		c1.99-2.79,3.74-5.75,5.78-8.51c2.26-3.05,4.74-5.95,7.12-8.92c1.3-1.62,2.56-3.28,3.93-4.84c1.27-1.45,2.66-2.78,3.98-4.17
		c0.95-1,1.86-2.05,2.83-3.03c1.87-1.91,3.79-3.77,5.66-5.69c1.03-1.05,1.98-2.18,2.98-3.25c2.53-2.72,5.05-5.44,7.6-8.13
		c2.35-2.49,4.69-4.99,7.14-7.38c1.75-1.7,3.7-3.19,5.51-4.83c1.29-1.17,2.47-2.48,3.76-3.66c2.69-2.47,5.5-4.81,8.11-7.37
		c2.39-2.34,4.5-4.96,6.87-7.33c2.14-2.14,4.42-4.15,6.69-6.16c2.24-1.97,4.58-3.81,6.82-5.78c2.31-2.04,4.53-4.18,6.82-6.25
		c2.44-2.21,4.93-4.37,7.36-6.59c1.11-1.01,2.08-2.18,3.21-3.16c3.47-3,7.01-5.93,10.49-8.91c1.74-1.49,3.41-3.06,5.16-4.54
		c4.97-4.21,9.98-8.36,14.94-12.58c3.01-2.57,5.97-5.2,8.92-7.84c4.41-3.93,8.77-7.9,13.19-11.81c1.96-1.73,4.04-3.32,6.03-5
		c4.22-3.56,8.48-7.07,12.6-10.75c1.59-1.42,2.83-3.22,4.31-4.95c0.15,0.09,0.39,0.22,0.56,0.32c1.72-1.67,3.34-3.34,5.07-4.91
		c1.57-1.43,3.25-2.74,4.88-4.1c1.07-0.89,2.17-1.75,3.19-2.7c2.37-2.22,4.66-4.53,7.05-6.73c1.63-1.5,3.4-2.85,5.08-4.3
		c1.03-0.89,2-1.85,3.02-2.75c3.68-3.25,7.41-6.45,11.05-9.74c1.44-1.3,2.65-2.85,4.04-4.2c2.45-2.37,4.97-4.67,7.45-7.01
		c0.32-0.3,0.52-0.71,0.81-1.04c2.45-2.73,4.9-5.45,7.98-7.54c0.83-0.56,1.45-1.43,2.21-2.1c0.76-0.67,1.59-1.26,2.36-1.92
		c0.59-0.51,1.19-1.03,1.69-1.63c0.95-1.14,2.21-1.52,3.08-0.51c0.46,0.53,0.19,1.7,0.16,2.58c0,0.06-0.79,0.11-1.21,0.12
		C337.99,9.94,337.77,9.85,337.58,9.82z"/>
</g>
<g>
	<path class="st2" d="M182.03,23.97c1.33-1.17,1.89-1.26,3.05-0.36c0.2,0.15,0.4,0.37,0.47,0.59c0.5,1.56,1.01,3.12,1.45,4.71
		c0.54,1.96,2.62,3.06,4.5,2.4c0.74-0.26,1.54-0.37,2.31-0.55c-0.07-0.96-0.41-0.99-4.65-0.26c-0.14-0.6-0.53-1.29-0.38-1.83
		c0.26-0.97,1.17-1.06,2.11-1.04c2.2,0.05,2.32-0.27,1.52-2.31c-0.33-0.83-0.39-1.84-0.29-2.74c0.06-0.48,0.64-1.09,1.13-1.28
		c0.42-0.16,1.04,0.18,1.56,0.33c0.13,0.04,0.28,0.22,0.3,0.35c0.18,1.4,0.32,2.8,0.49,4.2c0.06,0.53,0.23,0.84,0.91,0.67
		c2.08-0.52,4.19-0.9,6.25-1.49c0.56-0.16,1.04-0.78,1.44-1.29c1.29-1.63,2.42-1.39,4.06-0.23c1.42,1.01,1.77,2.02,1.64,3.54
		c-0.02,0.23,0.33,0.56,0.59,0.74c1.11,0.8,2.24,1.56,3.35,2.33c-0.61,1.86-1.5,2.33-3.76,1.31c-0.44-0.2-0.87-0.44-1.25-0.73
		c-0.69-0.53-1.25-0.36-1.87,0.16c-0.57,0.48-1.2,0.91-1.86,1.25c-1.62,0.82-3.19-0.07-3.31-1.88c-0.06-0.91,0.09-1.84,0.15-2.95
		c-1.7,0.54-3.37,1.06-5.08,1.6c-0.13,1.16,0.14,2.15,1.16,2.95c1.15,0.9,0.08,1.69-0.39,2.34c-0.14,0.18-1.24-0.03-1.58-0.37
		c-0.72-0.72-1.24-1.65-1.84-2.49c-1.18,1.84-3.03,2.88-5.36,2.7c-0.93-0.07-1.9-0.62-2.69-1.17c-0.7-0.49-1.05-0.62-1.74,0.03
		c-0.99,0.93-2.12,1.72-3.28,2.45c-1.17,0.74-2.37,0.33-3.3-0.47c-0.66-0.56-1.18-0.91-2.14-0.94c-0.91-0.03-1.81-0.78-2.7-1.23
		c-0.31-0.16-0.61-0.34-0.91-0.51c-1.26,2.13-3.03,3.58-5.35,4.28c-1.29,0.39-2.8-1-3.29-2.79c-0.74-2.67,0.4-4.91,1.52-7.17
		c0.17-0.35,0.49-0.63,0.68-0.98c0.58-1.07,1.28-1.82,2.63-1.18c0.18,0.09,0.44,0.01,0.65,0.01c0.25-2.1,0.41-4.17,0.76-6.21
		c0.16-0.93,0.66-1.8,1.05-2.68c0.43-0.94,1.21-1.33,2.19-1.04c0.61,0.17,0.68,1.72,0.2,2.54c-1.53,2.63-1.55,5.47-1.03,8.35
		c0.07,0.4,0.37,1.03,0.64,1.08c1.25,0.21,0.99,1.11,0.94,1.86c-0.08,1.16,1.24,3.19,2.37,3.31c0.26,0.03,0.77-0.47,0.84-0.8
		c0.34-1.54,0.34-3.2,0.92-4.63c0.43-1.06,1.5-1.92,2.44-2.68C180.54,23.52,181.33,23.88,182.03,23.97z M165.88,31.74
		c0.01,1.86,0.33,2.23,1.79,1.79c0.84-0.25,1.59-0.92,2.29-1.51c0.93-0.78,0.74-1.71,0.25-2.69c-0.27-0.53-0.45-1.14-0.54-1.74
		c-0.16-1.1-0.48-1.27-1.47-0.73C166.13,28,166.24,30.1,165.88,31.74z M182.06,25.64c-1.48,1.4-2.35,3.01-2.57,4.93
		c-0.07,0.63-0.11,1.47,0.23,1.89c0.72,0.89,1.8,0.35,2.48-0.09c0.73-0.47,1.72-1.48,1.62-2.08
		C183.56,28.75,182.74,27.32,182.06,25.64z M204.44,29.53c2.36-0.71,2.75-1.46,1.74-3.3C205.59,27.35,205.05,28.36,204.44,29.53z"/>
	<path class="st1" d="M384.89,92.38c0-0.62-0.03-1.42,0.01-2.22c0.07-1.46,0.07-2.93,0.31-4.36c0.18-1.09,1.21-1.1,2.04-0.93
		c0.72,0.15,0.89,0.6,0.73,1.5c-0.22,1.2,0,2.51,0.2,3.75c0.27,1.67,0.71,3.32,1.04,4.99c0.25,1.28,1.1,2.11,1.97,2.99
		c0.54,0.55,0.83,1.34,1.26,2.06c-2.96,1.54-3.95-1.2-5.49-2.05c-0.71,1.18-1.19,2.45-2.07,3.33c-1.76,1.76-2.64,2.25-4.35,0.7
		c-0.3-0.27-0.46-0.72-0.72-1.14c-1.93,1.08-3.86,2.23-5.84,3.25c-1.5,0.78-3.57,0.25-4.49-1c-1.06-1.44-1.06-1.44-2.63-0.16
		c-1.54-3.07-3.05-6.07-4.64-9.24c-1.16,1.71-2.52,2.98-2.5,5.12c0.01,0.73-0.94,1.54-1.59,2.17c-0.44,0.42-1.84-0.63-1.8-1.44
		c0.11-2.13,0.3-4.25,0.57-6.36c0.03-0.26,1.02-0.7,1.12-0.6c1.2,1.21,1.76,0.06,2.43-0.6c1.22-1.19,2.24-1.52,3.09-0.71
		c0.85,0.81,1.61,1.79,2.18,2.81c0.78,1.41,1.35,2.93,1.96,4.3c0.28-0.27,0.55-0.75,0.79-0.73c2.51,0.22,3.59-1.62,4.68-3.29
		c0.95-1.45,2.16-2.27,3.84-2.1c0.62,0.06,1.36,0.61,1.69,1.15c0.26,0.42,0.08,1.21-0.11,1.77c-0.7,2.09-2.83,2.5-4.38,3.6
		c-0.82,0.58-1.56,1.28-2.27,1.88c0.67,1.32,1.47,1.41,2.46,0.98c1.6-0.68,3.24-1.27,4.81-2.01c0.43-0.2,0.79-0.75,0.98-1.22
		c0.48-1.22,0.78-2.51,1.28-3.72c0.37-0.88,0.86-1.77,1.51-2.44C383.22,92.14,384.06,92.38,384.89,92.38z M385.22,94.11
		c-1.73,1.53-2.19,3.44-2.46,5.49C384.2,99.36,385.64,96.22,385.22,94.11z"/>
	<path class="st1" d="M345.71,99.69c0.11-0.41,0.34-0.84,0.3-1.24c-0.3-3.6,1.35-6.31,3.98-8.49c0.7-0.58,1.7-0.85,2.62-1.09
		c0.34-0.09,1.13,0.3,1.17,0.55c0.06,0.41-0.21,1.09-0.56,1.29c-2.81,1.63-3.9,4.05-3.73,7.24c0.05,0.95-0.22,2.11-0.77,2.84
		c-0.62,0.8-1.67,1.44-2.66,1.75c-1.18,0.37-2.37-0.01-3.21-1.07c-0.46-0.58-0.94-0.62-1.44-0.03c-0.2,0.24-0.43,0.47-0.67,0.67
		c-1.33,1.1-1.8,1.03-2.84-0.41c-0.61-0.84-2.25-0.58-3.14,0.5c-1.18,1.42-3.67,1.46-5.36,0.79c-1.87-0.74-2.76-1.91-3.09-3.72
		c-0.13-0.73-0.31-1.51-0.2-2.22c0.12-0.76,0.61-1.48-0.25-2.09c0.3-0.41,0.66-1.21,0.88-1.17c1.14,0.21,1.56-0.68,2.16-1.24
		c0.65-0.6,1.19-1.32,1.79-1.97c2.32-2.57,5.23-0.85,6.61,1.04c0.98,1.34-0.15,3.58-2.56,4c-1.35,0.23-2.67,0.65-4.03,0.77
		c-1.66,0.15-1.55,1.47-1.61,2.43c-0.06,1.03,0.81,1.65,1.83,1.93c1.25,0.35,2.45-0.02,3.52-0.49c1.03-0.45,2.47-0.33,2.97-1.73
		c0.34-0.95,0.61-1.94,1.08-2.81c0.52-0.95,1.18-1.83,1.93-2.61c0.11-0.12,0.99,0.46,1.49,0.76c0.32,0.19,0.56,0.5,0.88,0.67
		c0.9,0.48,1.48,1.11,1.64,2.19c0.14,1.01,0.5,1.98,0.76,2.97C345.37,99.7,345.54,99.69,345.71,99.69z M341.09,95.9
		c-0.33,1.09-0.58,1.92-0.9,2.98C341.57,98.2,341.7,97.73,341.09,95.9z"/>
	<path class="st3" d="M173.59,63.48c0.35-1.08,0.56-2.01,0.96-2.84c0.59-1.22,1.27-2.41,2-3.55c0.45-0.7,1.17-0.83,1.86-0.32
		c0.71,0.53,1.44,0.46,2.18,0.22c0.88-0.28,1.47,0.05,1.73,0.84c0.42,1.29,0.92,2.59,1.06,3.92c0.21,1.93,1.93,2.99,3.55,2.51
		c0.42-0.13,1.09,0.15,1.46,0.46c0.15,0.13-0.08,0.91-0.32,1.27c-0.66,0.99-3.16,1.66-4.18,1c-1.33-0.86-2.53-1.92-3.93-3.01
		c-0.54,0.51-1.32,1.26-2.11,2c-1.27,1.2-2.49,1.34-3.89,0.36c-1.16-0.82-2.28-1.69-3.39-2.58c-0.25-0.2-0.35-0.58-0.56-0.95
		c-1.09,0.9-2.15,1.93-3.37,2.72c-1.17,0.76-2.71,0.51-3.55-0.33c-1.06-1.05-1.33-2.28-0.72-3.62c0.75-1.64,1.51-3.26,2.33-4.87
		c0.78-1.54,1.72-1.82,3.59-0.85c-0.35-1.77-0.6-3.28-0.95-4.75c-0.31-1.28,0.27-2.16,1.52-2.18c1.26-0.02,1.39,0.98,1.51,1.79
		c0.64,4.17,0.88,8.42,2.8,12.3C173.22,63.11,173.3,63.17,173.59,63.48z M165.52,63.33c1.26-0.86,3.11-0.96,3.58-2.79
		c0.34-1.35-0.27-2.27-1.67-2.61C165.54,59.47,164.65,61.83,165.52,63.33z M179.08,59.85c-1.22,0.55-2.32,2.12-2.18,3.42
		c1.03-0.82,1.92-1.54,2.84-2.28C179.47,60.51,179.27,60.18,179.08,59.85z"/>
	<path class="st3" d="M122.61,65.64c-0.5-1.49-1.19-2.64-1.2-3.79c-0.03-2.34,1.09-4.28,3.19-5.38c0.54-0.28,1.49,0.23,2.17,0.36
		c0.19,1.38-0.36,1.96-1.28,2.51c-1.42,0.85-1.62,2.79-0.6,4.08c0.16,0.21,0.35,0.4,0.5,0.62c1.31,1.89,1.04,2.96-1.1,4.06
		c-0.4,0.21-0.97,0.33-1.39,0.22c-1.04-0.25-2.05-0.67-3.08-0.97c-0.21-0.06-0.49,0.12-0.73,0.2c-1.44,0.46-2.85,1.11-4.33,1.33
		c-2.73,0.41-5.53-2.02-4.9-5.07c-1.1,0-2.2-0.07-3.28,0.06c-0.22,0.03-0.53,0.81-0.48,1.21c0.1,0.73,0.56,1.41,0.62,2.13
		c0.05,0.55-0.3,1.12-0.47,1.69c-0.58-0.25-1.35-0.34-1.68-0.78c-0.51-0.66-0.72-1.55-1.04-2.35c-0.45-1.12-0.64-2.33-2.38-2.33
		c-0.74,0-1.54-0.83-2.17-1.43c-0.26-0.25-0.35-1.02-0.16-1.31c0.19-0.29,0.86-0.42,1.28-0.37c0.71,0.08,1.4,0.37,2.08,0.56
		c0-1.03-0.17-1.96,0.06-2.77c0.16-0.53,0.83-1.13,1.39-1.29c0.85-0.24,0.9,0.57,0.97,1.2c0.09,0.79,0.04,1.64,0.33,2.35
		c0.18,0.44,0.91,0.95,1.36,0.93c2.34-0.11,4.87,0.42,6.65-1.9c0.85-1.1,2.12-1.37,3.47-0.77c0.32,0.14,0.68,0.19,1.01,0.3
		c0.91,0.31,2.03,0.49,1.99,1.76c-0.03,1.18-0.49,2.25-1.69,2.73c-1.46,0.59-2.96,1.07-4.5,1.62c0.13,0.9,1.71,1.83,3.05,1.35
		c0.88-0.31,1.78-0.85,2.39-1.53c0.64-0.71,1.08-0.65,1.78-0.23C121.08,65.03,121.78,65.27,122.61,65.64z"/>
	<path class="st1" d="M489.27,105.56c-1.72-1.67-1.3-4.07-2.08-6.06c-0.12-0.31-0.24-0.73-0.48-0.86c-0.86-0.44-3.53,1.15-3.56,2.13
		c-0.04,1.63-1.86,3.37-3.38,2.81c-1.3,2.5-3.23,4.2-6.13,4.43c-2.34,0.19-3.43-1.64-2.49-3.84c0.43-0.99,0.66-2.08,0.88-3.15
		c0.12-0.61,0-1.26,0.06-1.89c0.05-0.49,0.08-1.11,0.38-1.42c0.57-0.57,1.37-1.38,1.99-1.31c1.32,0.14,2-0.66,2.81-1.3
		c0.89-0.7,1.71-0.69,2.39,0.16c1,1.26,1.97,1.42,3.54,0.91c1.24-0.41,2.56-0.73,3.85-0.79c2.55-0.12,3.77,1.13,3.91,3.7
		c0.08,1.38,0.18,2.75,0.27,4.12C491.32,104.61,490.6,105.34,489.27,105.56z M478.56,101.05c0.15-0.08,0.29-0.17,0.44-0.25
		c-0.35-0.72-0.65-1.47-1.08-2.13c-0.17-0.26-0.63-0.33-0.96-0.49c-0.06,0.4-0.3,0.95-0.13,1.18
		C477.31,99.99,477.97,100.49,478.56,101.05z"/>
	<path class="st3" d="M206.85,63.63c0.68,0.22,1.6,0.23,1.98,0.7c0.72,0.89-0.07,2.03-1.38,2.17c-1.43,0.15-2.71-0.26-3.89-1.05
		c-0.58-0.39-1.17-0.76-1.56-1.01c-1.36,0.99-2.52,2-3.83,2.76c-1.29,0.74-3.43-0.83-3.37-2.52c0.04-1.24,0.41-2.47,0.65-3.79
		c-1.13,0.31-2.29,0.57-3.43,0.94c-0.97,0.31-0.95,1.02-0.23,1.5c1.11,0.75,0.38,1.37-0.04,1.96c-0.53,0.75-1.34,1.09-2.02,0.3
		c-0.67-0.77-1.1-1.75-1.68-2.72c-0.86,0.6-2.16,1.07-2.61-0.36c-0.49-1.59,1.35-1.66,2.31-2.44c0-0.65-0.15-1.45,0.05-2.15
		c0.15-0.53,0.79-1.3,1.18-1.28c0.54,0.02,1.64-0.06,1.5,1.2c-0.06,0.49,0.19,1.02,0.33,1.71c1.15-0.25,2.28-0.4,3.35-0.73
		c2.19-0.69,4.37-1.41,6.34-2.67c0.4-0.26,1.29,0.25,1.96,0.41c-0.12,0.49-0.3,0.97-0.35,1.46c-0.05,0.47-0.17,1.1,0.07,1.4
		c1.35,1.68,2.8,3.28,4.21,4.91C206.53,64.1,206.69,63.86,206.85,63.63z M197.56,64.06c2.71-0.82,3.12-1.73,1.7-3.18
		c-0.27,0.49-0.53,0.98-0.8,1.47C198.21,62.84,197.95,63.33,197.56,64.06z"/>
	<path d="M346.06,69.94c-0.98-0.33-1.73-0.59-2.57-0.87c-0.49,0.32-1.14,0.76-1.81,1.17c-1.63,1.01-3.34,0.16-4.32-0.69
		c-1.57-1.37-2.27-0.06-3.06,0.53c-1.4,1.04-3.85,0.97-4.9-0.42c-2.39-3.18-0.63-7.49,2.07-9.38c0.26-0.18,0.72-0.13,1.08-0.12
		c0.85,0.02,1.7,0.06,2.55,0.11c1.18,0.07,1.87,0.81,2.22,1.82c0.24,0.69,0.3,1.47,0.32,2.22c0.09,2.54,2.33,4.19,4.83,3.54
		c0.25-0.07,0.53-0.06,0.92-0.11c-0.22-0.42-0.43-0.75-0.57-1.1c-0.34-0.92-1.19-1.87,0.34-2.63c0.43-0.22,0.68-0.91,0.9-1.43
		c0.97-2.35,2.82-3.71,5.18-3.62c0.36,0.01,1,0.43,1,0.66c0,0.46-0.27,1.27-0.57,1.34c-2.85,0.72-2.59,3.05-2.85,5.16
		C346.67,67.31,346.35,68.5,346.06,69.94z M333.05,62.96c-1.3,0.04-2.34,2.38-1.95,3.9c0.28,1.07,1.27,1.23,1.77,1.09
		c0.7-0.19,1.75-1.06,1.71-1.58c-0.09-1.15-0.74-2.27-1.19-3.39C333.37,62.94,333.14,62.97,333.05,62.96z"/>
	<path d="M380.91,63.45c-2.93,1.93-5.63,3.75-8.39,5.5c-1.41,0.89-4.28,0.63-5.43-0.47c-1.36-1.31-1.61-2.86-1.12-4.73
		c0.74-2.83,2.85-4.2,5.22-5.18c0.84-0.35,2.13,0.16,3.13,0.52c0.62,0.23,0.42,1.87-0.39,2.46c-1.51,1.11-3.13,2.09-4.89,3.25
		c-0.13,1.5,1.05,2.48,2.99,1.86c1.45-0.47,2.83-1.17,4.17-1.91c1.15-0.64,1.11-0.72,0.52-2.14c1.17-0.51,2.33-1.03,3.32-1.47
		c0-1.27-0.1-2.42,0.05-3.54c0.06-0.48,0.65-0.9,1-1.35c0.46,0.45,1.1,0.82,1.34,1.37c0.36,0.81,0.45,1.75,0.68,2.78
		c2.39-1.07,4.64-2.08,6.89-3.09c0.14,0.16,0.28,0.32,0.41,0.47c-0.27,0.46-0.43,1.06-0.83,1.35c-1.72,1.24-3.54,2.35-5.26,3.61
		c-0.29,0.21-0.34,0.89-0.32,1.34c0.05,0.92,0.43,1.86,0.29,2.73c-0.09,0.56-0.79,1.31-1.34,1.43c-0.46,0.1-1.16-0.33-1.1-1.38
		C381.9,65.86,381.32,64.83,380.91,63.45z"/>
	<path class="st1" d="M413.8,94.07c-0.08-3.12,0.8-5.85,2.62-8.18c0.87-1.11,2.19-0.5,3.17,0.02c0.78,0.43,1.39,1.22,2,1.91
		c0.19,0.21,0.29,0.8,0.16,0.93c-0.24,0.24-0.68,0.31-1.06,0.36c-0.19,0.03-0.41-0.13-0.6-0.23c-2.5-1.2-2.69-0.48-3.3,1.59
		c-0.37,1.25-0.51,2.56-0.84,4.27c1.89-0.16,3.42-0.29,4.96-0.41c0.95-0.08,1.91-0.14,2.86-0.21c0.08,0,0.15,0.08,0.23,0.11
		c0.8,0.33,2.2-1.33,2.47,0.76c0.13,1,0.44,1.98,0.51,2.98c0.09,1.24,0.8,0.48,1.47,0.6c-0.13-0.81-0.39-1.52-0.31-2.18
		c0.07-0.63,0.32-1.51,0.78-1.77c0.67-0.39,1.42-0.07,1.69,0.88c0.15,0.54,0.49,1.04,0.74,1.55c0.77,1.57,0.32,3-1.26,3.73
		c-0.9,0.42-1.86,0.94-2.81,0.98c-1.94,0.07-2.64-0.77-2.69-2.74c-0.02-0.63,0.05-1.26-0.02-1.89c-0.06-0.6-0.24-1.18-0.37-1.79
		c-1.63,0.55-3.19,1.08-4.76,1.6c-0.29,0.1-0.58,0.23-0.88,0.26c-1.55,0.17-2.05,1.24-1.23,2.63c0.38,0.65,0.79,1.3,0.98,2.01
		c0.1,0.36-0.25,0.85-0.4,1.28c-0.37-0.21-0.89-0.32-1.07-0.63c-0.89-1.55-1.81-3.1-2.47-4.75c-0.54-1.34-1.43-0.78-2.2-0.65
		c-1.32,0.23-2.88-0.84-2.7-2.02c0.11-0.69,0.32-1.27,1.31-0.87C411.81,94.64,412.92,94.84,413.8,94.07z"/>
	<path class="st1" d="M435.31,94.69c1.67-0.99,3.06-0.23,4.5,1.12c1.22,1.14,2.71,1.98,4.13,2.98c0.98-1.78,1.81-3.33,2.67-4.86
		c0.92-1.66,2.65-2.02,4.14-0.87c0.81,0.63,0.8,1.69-0.16,1.95c-1.87,0.5-2.62,1.8-2.86,3.5c-0.11,0.78-0.2,1.92,0.24,2.34
		c0.48,0.46,1.63,0.51,2.38,0.31c0.94-0.25,1.72-1.03,2.65-1.39c0.53-0.21,1.4-0.27,1.78,0.02c0.63,0.49,0.26,1.12-0.29,1.68
		c-1.48,1.5-3.22,2.55-5.31,2.76c-1.99,0.2-3.52-0.62-4.32-2.57c-0.12-0.29-0.27-0.56-0.46-0.96c-2.62,0.46-4.77-0.7-6.5-2.4
		c-0.75,0.88-1.29,1.65-1.97,2.27c-0.38,0.35-1.19,0.75-1.46,0.58c-0.54-0.35-1.27-1.16-1.17-1.62c0.36-1.67-0.82-2.8-1.16-4.2
		c-0.08-0.34-0.24-0.67-0.26-1.01c-0.05-1.08,0.4-1.42,1.38-0.95C433.9,93.68,434.47,94.15,435.31,94.69z"/>
	<path d="M415.56,61.51c-1.35,0.15-2.85,0.32-4.36,0.49c0.67,1.85,1.34,3.72,2.04,5.64c-1.88,0.51-2.38-0.98-3.19-1.65
		c-0.83-0.69-1.2-1.93-1.76-2.93c-0.3-0.53-0.41-0.96-1.35-0.77c-1.72,0.34-3.02,0.44-3.61-1.02c-0.14-0.35-0.16-1.02,0.05-1.2
		c0.46-0.38,1.12-0.75,1.68-0.74c0.93,0.03,1.84,0.37,2.4,0.49c1.41-2.29,2.52-4.38,3.92-6.25c0.97-1.3,2.26-2.4,3.55-3.4
		c0.42-0.33,1.31-0.05,2.36-0.05c-0.51,0.76-0.72,1.35-1.13,1.63c-2.35,1.62-3.54,4.14-5.07,6.4c-0.14,0.21-0.12,0.7,0.03,0.89
		c0.19,0.22,0.63,0.4,0.91,0.34c1.27-0.27,2.53-0.62,3.79-0.96c1.24-0.33,3.03,1.16,3.23,2.65c0.04,0.29,0.34,0.54,0.53,0.8
		c0.23-0.27,0.66-0.55,0.64-0.81c-0.05-0.86,0.28-1.36,1.08-1.59c0.99-0.28,1.56,0.4,1.98,1.05c0.27,0.42,0.37,1.18,0.17,1.61
		c-0.41,0.86-0.98,1.7-1.66,2.36c-1.41,1.35-3,1.2-4.3-0.34C416.8,63.34,416.23,62.44,415.56,61.51z"/>
	<path class="st2" d="M96.33,19.79c1.67,0.25,2.2,1.02,2.11,2.51c-0.13,2.2-0.03,4.41-0.03,6.79c0.45-0.18,1.05-0.26,1.43-0.59
		c1.66-1.43,3.68-0.72,5.52-0.9c0.64-0.06,1.44,0.84,1.14,1.88c-0.21,0.73-0.27,1.73-0.77,2.1c-0.67,0.49-1.47-0.03-2.09-0.67
		c-0.25-0.26-0.87-0.38-1.22-0.26c-1.08,0.36-2.13,0.82-3.14,1.35c-0.19,0.1-0.28,0.69-0.2,0.99c0.43,1.5,0.83,3.02,1.46,4.44
		c0.5,1.13,0.07,1.84-0.76,2.31c-0.89,0.5-1.85-0.18-2.16-1.35c-0.42-1.6-0.81-3.21-1.25-4.81c-0.24-0.86-0.75-0.82-1.54-0.55
		c-1.16,0.41-2.4,0.6-3.61,0.82c-1.01,0.19-1.38-0.51-1.42-1.33c-0.04-0.76,0.09-1.5,1.12-1.65c1.17-0.17,2.32-0.44,3.48-0.68
		c1.23-0.26,1.5-0.9,1.14-2.14C94.72,25.22,95.16,22.47,96.33,19.79z"/>
	<path class="st1" d="M464.82,99.12c-1.06-0.32-2.01-0.65-2.98-0.89c-0.29-0.07-0.78-0.02-0.92,0.17c-0.16,0.22-0.12,0.67-0.03,0.99
		c0.38,1.44,0.87,2.84,1.16,4.3c0.08,0.4-0.37,1.27-0.66,1.31c-0.69,0.09-1.66,0.51-2.05-0.62c-0.51-1.45-1.13-2.86-1.52-4.34
		c-0.23-0.88-0.64-1.11-1.47-1.2c-0.74-0.08-1.51-0.34-2.14-0.73c-0.36-0.22-0.73-0.98-0.6-1.29c0.18-0.44,0.52-0.97,1.43-0.73
		c1.76,0.48,2.16-0.08,1.76-1.88c-0.18-0.82-0.42-1.79,0.56-2.25c1.06-0.5,1.61,0.42,2.21,1.06c0.08,0.09,0.13,0.24,0.14,0.37
		c0.19,2.22,1.84,2.29,3.51,2.56c1.72,0.27,3.42,0.62,4.81,1.93c0.83,0.78,1.05,1.51,0.59,2.42c-0.65,1.3-1.14,2.54-0.65,4.05
		c0.2,0.62,0.35,1.59-0.76,1.81c-0.95,0.19-1.52-0.1-1.95-1.1C464.49,103.14,464.31,101.28,464.82,99.12z"/>
	<path d="M356.44,71.79c2.04-0.59,2.5-3.14,2.36-5.03c-0.5,0.42-1.01,0.8-1.46,1.24c-0.85,0.81-2.15,1.04-2.81,0.45
		c-0.78-0.7-1.58-2.2-1.34-3.08c0.52-1.94,1.64-3.73,2.61-5.54c0.53-0.99,1.68-0.88,2.4-0.56c1.14,0.5,2.13,1.38,3.14,2.15
		c0.2,0.15,0.31,0.53,0.33,0.81c0.12,1.73,0.31,3.47,0.26,5.2c-0.09,2.78-1.48,4.99-3.55,6.74c-0.94,0.8-2.55,0.46-3.42-0.52
		c-0.33-0.37-0.82-0.65-1.01-1.07c-0.2-0.46-0.13-1.04-0.18-1.57c0.49-0.01,1.02-0.13,1.47,0
		C355.69,71.14,356.05,71.52,356.44,71.79z M357.69,62.59c-1.06,0.82-1.72,1.65-1.49,3.06C358.42,64.27,358.47,64.18,357.69,62.59z"
		/>
	<path d="M320.92,65.05c0.38,1.56,0.84,2.99,1.02,4.45c0.07,0.56-0.33,1.51-0.79,1.73c-0.73,0.36-1.41-0.05-1.61-1.04
		c-0.28-1.37-0.64-2.73-1.07-4.05c-0.13-0.4-0.56-0.92-0.92-0.99c-1.47-0.28-2.97-0.41-4.46-0.58c-1.09-0.13-1.04-1.11-0.97-1.72
		c0.04-0.39,0.85-0.96,1.35-0.99c1.04-0.06,2.1,0.19,3.16,0.29c0.31,0.03,0.62-0.01,0.93-0.02c-0.01-0.38,0.05-0.78-0.06-1.13
		c-0.41-1.36-0.94-2.68-1.3-4.05c-0.38-1.42,0.41-2.32,1.75-2.07c0.3,0.05,0.71,0.39,0.79,0.67c0.59,2.05,1.1,4.13,1.68,6.18
		c0.07,0.25,0.48,0.61,0.67,0.58c1.7-0.34,3.47-0.43,4.94-1.57c0.3-0.23,1.04-0.26,1.34-0.05c0.5,0.34,0.86,0.97,0.12,1.52
		c-0.72,0.53-1.39,1.2-2.2,1.52C323.9,64.29,322.42,64.62,320.92,65.05z"/>
	<path class="st2" d="M116.47,33.68c0.82-2.86,1.39-5.4,3.65-7.03c0.83-0.6,1.73-0.66,2.34,0.49c0.18,0.34,0.62,0.63,1,0.76
		c1.19,0.41,1.4,1.38,1.7,2.44c0.33,1.19,0.85,2.35,1.45,3.44c0.19,0.35,0.88,0.47,1.36,0.6c0.85,0.24,1.19,0.59,0.71,1.51
		c-0.58,1.11-1.51,1.39-2.56,1.11c-0.7-0.18-1.5-0.54-1.93-1.07c-0.89-1.11-1.8-0.84-2.47-0.07c-1.13,1.29-2.67,1.34-3.75,0.73
		C117.13,36.14,116.89,34.59,116.47,33.68z M121.72,29.12c-1.42,1.26-2.27,2.57-2.22,4.34c2.13,0.24,2.76-0.1,2.64-1.41
		C122.06,31.15,121.89,30.25,121.72,29.12z"/>
	<path class="st3" d="M362.3,210.08c1.48-2.12,3.01-4.08,6.09-2.83c-0.22,0.36-0.36,0.75-0.62,0.99c-0.57,0.53-0.69,1.05-0.63,1.86
		c0.05,0.62-0.49,1.51-1.03,1.9c-1.21,0.88-0.59,1.46,0.14,2.06c0.47,0.39,1.02,0.71,1.58,0.96c0.83,0.36,1.09,1.07,0.8,1.73
		c-0.19,0.45-0.92,0.93-1.4,0.93c-0.78-0.01-1.57-0.37-2.34-0.64c-0.44-0.15-0.84-0.4-1.27-0.61c-0.44,1.32-1.22,1.82-2.19,1.47
		c-1.06-0.38-1.67-1.36-1-2.4c1.19-1.85,0.26-2.95-0.93-4.12c-0.33-0.33-0.87-0.63-0.94-1.01c-0.13-0.69-0.18-1.53,0.13-2.1
		c0.17-0.31,1.29-0.45,1.7-0.21C361.08,208.47,361.55,209.25,362.3,210.08z"/>
	<path d="M450.76,58.11c2.05,0.18,3.87-0.8,5.77,0.22c1.33,0.71,3.02,3.51,2.52,4.94c-0.18,0.51-0.7,1.1-1.19,1.24
		c-0.4,0.11-1.05-0.3-1.44-0.65c-0.37-0.33-0.64-0.85-0.79-1.33c-0.59-1.93-3.08-2.51-4.6-1c0.35,0.64,0.68,1.3,1.07,1.94
		c0.57,0.93,0.05,1.63-0.57,2.18c-0.75,0.66-1.46,0.25-1.9-0.45c-0.51-0.81-0.97-1.67-1.27-2.57c-0.25-0.76-0.57-0.82-1.14-0.45
		c-0.94,0.61-1.64,0.11-2.09-0.61c-0.4-0.65,0.44-1.79,1.41-1.93c1-0.14,1.41-0.6,1.24-1.6c-0.03-0.17-0.07-0.4,0.01-0.53
		c0.35-0.61,0.63-1.59,1.13-1.72c0.85-0.23,1.37,0.55,1.56,1.42C450.55,57.52,450.68,57.85,450.76,58.11z"/>
	<path class="st3" d="M205.49,163.16c0.24,0.83,0.47,1.65,0.71,2.48c0.75-0.43,1.51-0.85,2.25-1.29c0.19-0.11,0.33-0.44,0.49-0.44
		c0.58,0.01,1.16,0.12,1.74,0.19c-0.21,0.52-0.28,1.19-0.66,1.51c-0.9,0.76-2.46,1.17-2.77,2.06c-0.29,0.83,0.66,2.12,1.11,3.18
		c0.44,1.04,1,2.04,1.41,3.1c0.36,0.92-0.31,1.73-1.17,1.37c-0.75-0.32-1.43-0.94-1.97-1.57c-0.46-0.55-0.61-1.35-1.03-1.96
		c-0.24-0.35-0.79-0.82-1.08-0.75c-0.63,0.16-1.22,0.48-1.07,1.46c0.19,1.33-0.97,2.44-2.3,2.31c-0.32-0.03-0.82-0.44-0.86-0.72
		c-0.19-1.41,0.01-2.72,1.11-3.8c0.62-0.61,1.14-1.36,1.56-2.12c0.18-0.33-0.02-0.88-0.07-1.32c-0.13-1.2-0.95-2.53,0.39-3.47
		c0.58-0.41,1.4-0.46,2.11-0.68C205.43,162.84,205.46,163,205.49,163.16z"/>
	<path class="st3" d="M246.26,173.9c1.57-0.89,2.99-1.84,4.54-2.49c0.43-0.18,1.24,0.54,2.16,0.98c-0.85,0.61-1.33,1-1.85,1.33
		c-0.52,0.33-1.12,0.54-1.59,0.92c-0.63,0.5-1.41,1.02-1.67,1.71c-0.22,0.56,0.19,1.39,0.39,2.08c0.19,0.67,0.44,1.33,0.7,1.99
		c0.24,0.61,0.63,1.28-0.25,1.64c-0.8,0.32-1.74,0.75-2.25-0.46c-0.29-0.68-0.51-1.38-0.85-2.33c-0.36,0.34-0.76,0.63-1.04,1
		c-0.55,0.73-1.25,1.42-2.09,0.88c-0.81-0.52-0.84-1.52-0.29-2.38c0.38-0.59,0.94-1.09,1.24-1.71c0.77-1.61-0.12-2.87-1.09-4.02
		c-1.15-1.36-1.26-2.12-0.3-3.09c0.87-0.88,1.88-0.72,2.45,0.39C245.11,171.61,245.76,172.9,246.26,173.9z"/>
	<path class="st3" d="M271.81,222.13c-1.08,0.19-1.9,0.4-2.73,0.43c-0.16,0.01-0.5-0.7-0.48-1.07c0.02-0.4,0.26-0.89,0.56-1.17
		c1.27-1.16,1.26-2.3,0.23-3.61c-0.43-0.54-0.78-1.23-0.9-1.9c-0.1-0.6-0.01-1.67,0.31-1.81c0.6-0.27,1.59-0.25,2.14,0.09
		c0.65,0.4,1.08,1.24,1.49,1.95c0.37,0.65,0.68,0.72,1.21,0.21c0.41-0.4,0.94-0.68,1.33-1.1c0.78-0.86,1.5-0.34,1.87,0.25
		c0.25,0.41-0.01,1.17-0.12,1.76c-0.03,0.14-0.36,0.22-0.55,0.33c-2.42,1.39-2.51,1.65-1.42,4.19c0.34,0.8,0.72,1.58,1.04,2.39
		c0.33,0.87-0.13,2.27-0.77,2.48c-0.86,0.28-2-0.4-2.41-1.43c-0.19-0.49-0.35-0.99-0.54-1.48
		C271.95,222.36,271.79,222.1,271.81,222.13z"/>
	<path class="st3" d="M360.18,236.49c-0.56,0.74-1.12,1.29-1.42,1.95c-0.44,0.97-1.27,1.13-1.97,0.79c-0.36-0.18-0.6-1.21-0.45-1.72
		c0.28-0.98,0.98-1.83,1.32-2.8c0.23-0.67,0.25-1.46,0.2-2.18c-0.05-0.67-0.45-1.32-0.46-1.98c0-0.48,0.38-0.97,0.59-1.46
		c0.67,0.3,1.41,0.5,1.99,0.93c0.38,0.28,0.52,0.89,0.81,1.44c0.85-0.66,1.59-1.27,2.37-1.81c0.75-0.52,1.56-0.54,2.12,0.23
		c0.55,0.77,0.1,1.43-0.54,1.95c-0.24,0.19-0.58,0.27-0.78,0.49c-0.51,0.55-1.48,1.34-1.35,1.71c0.3,0.85,0.41,2.16,1.92,2.14
		c0.31,0,0.75,0.65,0.91,1.08c0.37,0.95-0.36,1.53-1.01,1.95c-1.24,0.78-2.38,0.29-3.29-1.24
		C360.85,237.5,360.56,237.08,360.18,236.49z"/>
	<path class="st3" d="M296.77,240.05c1.03,0.93,1.77,1.6,2.52,2.25c0.65,0.57,0.81,1.25,0.33,1.97c-0.51,0.76-2.01,1.17-2.56,0.74
		c-0.32-0.25-0.58-0.56-0.87-0.85c-0.28-0.28-0.54-0.58-0.86-0.93c-0.34,0.24-0.73,0.57-1.17,0.83c-0.38,0.23-1.09,0.64-1.17,0.54
		c-0.41-0.46-0.87-1.05-0.9-1.62c-0.03-0.6,0.37-1.24,0.66-1.82c0.38-0.74,0.45-1.28-0.17-2.03c-1.19-1.45-1.09-3.38,0.01-4.13
		c0.82-0.56,1.54-0.29,1.87,0.65c0.25,0.72,0.59,1.4,0.92,2.17c1.39-1.14,2.64-2.12,3.84-3.16c0.72-0.63,1.47-0.73,2.12-0.1
		c0.52,0.51-0.12,1.73-0.94,2.36C299.2,237.86,298.09,238.91,296.77,240.05z"/>
	<path class="st3" d="M336.32,239.76c0.57,1.38,1.06,2.63,1.6,3.86c1.03,2.34,0.7,2.99-1.85,3.4c-0.57-1.64-1.15-3.3-1.82-5.2
		c-0.91,0.92-1.52,1.65-2.25,2.22c-0.28,0.22-1.1,0.25-1.22,0.07c-0.55-0.85-0.87-1.91,0.06-2.64c1.22-0.96,0.73-1.88,0.23-2.89
		c-0.15-0.31-0.47-0.66-0.4-0.92c0.17-0.72,0.33-1.77,0.82-2.01c0.86-0.42,1.64,0.18,2.09,1.11c0.71,1.48,0.68,1.37,2.1,0.43
		c0.84-0.56,1.91-0.92,2.91-1.02c0.46-0.05,1.22,0.66,1.45,1.19c0.33,0.78-0.24,1.06-1.06,1.23
		C338.03,238.79,337.19,239.36,336.32,239.76z"/>
	<path class="st3" d="M226.53,178.96c1.16-0.73,2.12-1.47,3.19-1.92c0.49-0.21,1.52-0.07,1.76,0.28c0.42,0.61,0.23,1.23-0.75,1.64
		c-1.1,0.47-2,1.41-2.88,2.06c0.91,1.85,1.79,3.55,2.57,5.29c0.62,1.4-0.22,2.46-1.74,2.28c-0.22-0.03-0.52-0.15-0.61-0.32
		c-0.61-1.14-1.17-2.3-1.83-3.62c-0.51,0.36-0.89,0.82-1.34,0.92c-0.61,0.13-1.29-0.01-1.94-0.04c0.03-0.6-0.09-1.26,0.12-1.77
		c0.5-1.19,1.28-2.14,0.27-3.61c-0.84-1.23-0.1-2.74,1.14-2.94c0.42-0.07,0.99,0.25,1.35,0.56
		C226.18,178.04,226.31,178.54,226.53,178.96z"/>
	<path class="st2" d="M140.38,28.9c-0.63,1.47-1.25,2.93-1.89,4.39c-0.18,0.4-0.32,0.91-0.64,1.13c-0.51,0.35-1.25,0.79-1.72,0.64
		c-0.45-0.14-0.83-0.95-0.98-1.53c-0.43-1.64,0.12-3.17,0.72-4.68c0.47-1.19,1.32-1.48,2.39-0.64c0.54-0.58,1.11-1.14,1.64-1.75
		c0.93-1.07,2.48-1.04,3.21,0.18c0.79,1.31,1.46,2.7,2.19,4.05c0.33,0.61,0.58,1.31,1.05,1.79c0.74,0.76,0.96,1.39,0.04,2.11
		c-0.9,0.7-1.82,0.24-2.29-0.4c-0.9-1.22-1.52-2.64-2.29-3.97c-0.26-0.44-0.58-0.85-0.87-1.28
		C140.75,28.93,140.56,28.92,140.38,28.9z"/>
	<path class="st3" d="M196.75,145.02c-0.36,0.79-1,1.58-1,2.37c0,1.2-0.8,1.44-1.53,1.69c-0.47,0.16-1.48,0.04-1.56-0.19
		c-0.25-0.73-0.48-1.74-0.16-2.33c0.73-1.34,1.79-2.51,2.71-3.74c-0.13-0.99-0.36-2.07-0.38-3.15c-0.02-0.79,0.47-1.22,1.37-1.29
		c0.97-0.07,1.06,0.59,1.3,1.19c0.11,0.28,0.18,0.57,0.35,1.12c0.73-0.71,1.25-1.4,1.95-1.83c0.49-0.3,1.2-0.23,1.81-0.32
		c-0.05,0.51-0.09,1.02-0.17,1.52c-0.02,0.11-0.18,0.19-0.27,0.29c-0.62,0.65-1.76,1.31-1.74,1.94c0.03,1.05,0.74,2.11,1.27,3.1
		c0.63,1.18,0.56,1.73-0.55,2.21c-0.89,0.38-1.8,0.67-2.13-0.76c-0.13-0.58-0.49-1.11-0.75-1.66
		C197.08,145.13,196.91,145.07,196.75,145.02z"/>
	<path class="st3" d="M224.06,153.25c1.05-0.38,1.84-0.7,2.66-0.94c0.86-0.24,1.35,0.25,0.99,1.03c-0.24,0.52-0.73,0.98-1.22,1.3
		c-0.9,0.6-1.03,1.25-0.57,2.21c0.72,1.53,1.75,3,1.25,4.87c-2.41,0.91-2.89-0.99-3.62-2.79c-0.4,0.52-0.67,0.84-0.9,1.18
		c-0.58,0.9-1.48,0.87-2.24,0.53c-0.23-0.1-0.2-1.18-0.01-1.71c0.34-0.94,0.9-1.81,1.37-2.72c-0.42-0.84-0.89-1.73-1.33-2.63
		c-0.56-1.14-0.05-2.12,0.68-2.9c0.77-0.83,1.84-0.44,2.22,0.65C223.56,151.98,223.82,152.62,224.06,153.25z"/>
	<path class="st3" d="M245.83,203.97c-0.43,1.83-0.68,1.98-3.13,1.81c0.14-0.92,0.13-1.85,0.44-2.67c0.5-1.33,1.39-2.49,0.89-4.1
		c-0.38-1.25,0.04-2.27,1.63-2.32c0.21-0.01,0.42-0.11,0.77-0.2c0.19,0.5,0.41,1.06,0.69,1.8c0.58-0.4,1.11-0.95,1.76-1.17
		c0.56-0.19,1.24-0.02,1.87-0.01c-0.13,0.6-0.08,1.38-0.44,1.75c-0.69,0.71-1.62,1.19-2.55,1.83c0.87,1.56,1.79,3.11,2.6,4.71
		c0.34,0.68,0.74,1.5-0.31,2.05c-0.93,0.49-1.68,0.4-2.28-0.52C247.18,206.03,246.58,205.12,245.83,203.97z"/>
	<path d="M474.34,58.52c1.07-0.46,2.26-1.09,3.53-1.48c1.1-0.34,2.12-0.47,3.14,0.71c0.99,1.14,2.13,2.09,2.56,3.6
		c0.08,0.28,0.27,0.6,0.5,0.76c1.05,0.71,0.66,1.49,0.01,2.07c-0.76,0.68-1.7,0.55-2.39-0.17c-0.44-0.46-0.64-1.14-0.99-1.69
		c-0.54-0.85-1.05-1.73-1.71-2.48c-0.48-0.55-2.4,0.39-2.88,1.28c-0.39,0.73-0.79,1.47-1.28,2.13c-0.56,0.75-1.27,0.74-1.96,0.11
		c-0.93-0.85-1.62-4.42-0.96-5.46c0.2-0.31,0.83-0.67,1.07-0.56C473.5,57.57,473.87,58.08,474.34,58.52z"/>
	<path class="st3" d="M78.28,66.55c-0.36,0.71-0.66,1.26-0.93,1.83c-0.19,0.39-0.25,0.91-0.54,1.16c-0.45,0.39-1.18,0.96-1.56,0.82
		c-0.88-0.33-1.12-1.24-0.78-2.14c0.43-1.15,1.01-2.24,1.42-3.39c0.14-0.39,0.05-0.91-0.07-1.33c-0.35-1.2-0.92-2.35-1.12-3.57
		c-0.16-0.98,0.45-1.26,1.32-0.69c0.42,0.28,0.74,0.73,1.07,1.14c0.47,0.58,0.9,1.2,1.3,1.74c1.68-0.8,2.27-2.87,4.24-3.25
		c0.49,2.17-0.75,3.42-2.06,4.46c-0.83,0.66-0.46,0.95,0.02,1.41c0.34,0.33,0.63,0.7,1,0.99c0.98,0.75,0.5,1.39-0.04,2.13
		c-0.72,0.98-1.32,0.29-1.9-0.08C79.23,67.53,78.91,67.13,78.28,66.55z"/>
	<path class="st3" d="M343.36,220.61c0.42-0.26,0.97-0.69,1.58-0.97c0.43-0.2,0.95-0.2,1.43-0.3c-0.06,0.62,0.08,1.36-0.22,1.82
		c-0.39,0.6-1.12,0.97-1.94,1.62c0.89,1.38,1.77,2.66,2.55,4.01c0.2,0.34,0.17,1.22,0.09,1.24c-0.72,0.19-1.73,0.59-2.17,0.27
		c-0.96-0.7-1.64-1.78-2.49-2.77c-1.22,0.65-1.24,2.05-1.35,3.4c-2.2-0.36-2.81-1.41-2.02-3.54c0.17-0.45,0.4-0.9,0.71-1.26
		c0.85-1.01,0.91-2.02,0.17-3.1c-0.44-0.64-0.63-1.22,0.13-1.85c0.7-0.58,1.18-0.34,1.75,0.15
		C342.09,219.76,342.67,220.12,343.36,220.61z"/>
	<path class="st3" d="M132.51,60.38c1.53-0.67,3.12-1.38,4.73-2.08c0.4-0.17,0.82-0.38,1.23-0.4c0.3-0.02,0.75,0.17,0.87,0.41
		c0.12,0.24,0.04,0.76-0.15,0.96c-0.56,0.57-1.18,1.12-1.86,1.54c-0.82,0.51-1.71,0.94-2.6,1.31c-1.22,0.5-1.39,1.32-1.13,2.53
		c0.21,0.98,0.32,2.1,0.06,3.04c-0.34,1.23-1.22,1.32-2.01,0.29c-0.37-0.48-0.43-1.2-0.58-1.83c-0.16-0.66-0.25-1.33-0.37-2
		c-0.11,0.12-0.22,0.24-0.33,0.36c-0.57-0.13-1.41-0.08-1.65-0.43c-0.73-1.05-0.05-1.77,0.93-2.28c-0.24-1.14-0.57-2.28-0.69-3.44
		c-0.04-0.43,0.35-1.01,0.71-1.32c0.14-0.12,0.9,0.16,1.11,0.45C131.39,58.35,131.88,59.31,132.51,60.38z"/>
	<path class="st3" d="M316.2,233.29c-0.28,0.19-0.39,0.26-0.5,0.33c-0.53,0.31-1.17,0.99-1.57,0.87c-1.08-0.33-1.58-1.39-1.25-2.43
		c0.37-1.19,0.12-2.15-0.4-3.16c-0.87-1.7-0.61-2.25,1.2-2.8c0.13-0.04,0.24-0.12,0.43-0.23c0.43,0.52,0.87,1.05,1.55,1.87
		c0.75-0.85,1.46-1.63,2.16-2.44c0.58-0.67,1.13-0.76,1.81-0.1c0.74,0.72,0.6,1.3-0.11,1.9c-0.68,0.57-1.4,1.11-1.98,1.77
		c-0.21,0.24-0.22,0.91-0.03,1.2c0.75,1.14,1.59,2.22,2.44,3.29c0.59,0.74,0.22,1.46-0.29,1.8c-0.39,0.27-1.27,0.19-1.71-0.09
		C317.28,234.67,316.81,233.95,316.2,233.29z"/>
	<path class="st3" d="M160.69,167.75c0.9-0.68,1.63-1.36,2.48-1.81c0.31-0.17,0.9,0.17,1.36,0.28c-0.13,0.39-0.17,0.85-0.41,1.15
		c-0.5,0.64-1.16,1.16-1.63,1.82c-0.15,0.21,0,0.77,0.19,1.06c0.51,0.81,1.18,1.52,1.66,2.35c0.47,0.81,0.68,1.82-0.29,2.35
		c-0.88,0.48-1.76,0.2-2.33-0.79c-0.22-0.38-0.68-0.63-1.03-0.94c-0.21,0.44-0.6,0.89-0.59,1.33c0.04,1.01-0.41,1.31-1.33,1.37
		c-1.05,0.06-1.37-0.59-1.38-1.39c-0.01-0.63,0.18-1.3,0.42-1.9c0.5-1.28,1.27-2.43,0-3.81c-0.51-0.56-0.4-1.64,0.54-2.15
		c0.85-0.46,1.53-0.27,1.99,0.62C160.43,167.48,160.6,167.64,160.69,167.75z"/>
	<path class="st3" d="M289.94,221.03c-1.56,0.88-2.23,0.49-2.22-1.34c0-1.29,0.15-2.5-0.44-3.81c-0.74-1.63,0.34-3.07,1.8-2.66
		c0.66,0.19,1.13,1.02,1.91,1.77c0.35-0.2,1.06-0.51,1.66-0.98c1.01-0.8,1.84-0.8,2.71,0.64c-0.41,0.39-0.86,0.87-1.37,1.29
		c-0.54,0.45-1.16,0.81-1.67,1.3c-0.16,0.15-0.17,0.62-0.05,0.85c0.39,0.74,0.97,1.38,1.26,2.15c0.22,0.58,0.38,1.62,0.08,1.87
		c-0.45,0.36-1.38,0.41-1.99,0.22C290.99,222.12,290.5,221.48,289.94,221.03z"/>
	<path class="st3" d="M266.79,194.68c0.67-0.54,1.39-1.07,2.04-1.67c0.91-0.83,1.53-0.23,1.97,0.45c0.48,0.75,0.14,1.37-0.6,1.9
		c-0.83,0.59-1.54,1.33-2.74,2.4c1.06,0.81,1.95,1.31,2.59,2.04c0.29,0.33,0.31,1.3,0.03,1.61c-0.5,0.57-1.23,1.27-2.15,0.65
		c-0.54-0.37-0.99-0.88-1.51-0.98c-0.65,0.06-1.34,0.29-1.94,0.15c-0.6-0.15-1.12-0.68-0.55-1.43c1.09-1.43,0.68-2.83-0.31-4.01
		c-0.96-1.14-0.24-1.92,0.46-2.46c0.79-0.61,1.74-0.57,2.19,0.66C266.36,194.25,266.62,194.46,266.79,194.68z"/>
	<path d="M428.96,61.59c-0.75,0.88-1.35,1.73-2.1,2.41c-0.68,0.62-1.46,0.5-1.71-0.48c-0.36-1.4-0.65-2.82-0.82-4.25
		c-0.15-1.26,0.76-1.86,1.9-1.45c0.47,0.17,1.04,0.26,1.51,0.16c1.89-0.4,2.66-0.14,3.57,1.5c0.7,1.25,1.59,2.2,3,2.68
		c1.03,0.35,0.98,1,0.27,1.78c-1.33,1.44-4.19,0.16-5.15-1.53C429.24,62.07,429.04,61.74,428.96,61.59z"/>
	<path d="M436.61,62.77c0.17-2.97,1.7-4.54,3.35-6c0.68-0.6,1.91-0.14,2.37,0.69c0.43,0.78-0.06,2.36-0.98,2.59
		c-1.62,0.4-1.52,1.56-1.36,2.71c0.08,0.53,0.61,0.77,1.18,1.08c1.15,0.63,2.12,0.07,3.13,0.25c0.79,0.14,1.03,1.04,0.5,1.69
		c-0.64,0.79-1.39,1.35-2.51,1.24c-1.82-0.18-3.73-0.16-4.77-2.05C437.07,64.14,436.79,63.22,436.61,62.77z"/>
	<path class="st2" d="M110.09,37.04c-1.5-0.08-2.16-0.71-2.24-2.16c-0.08-1.47-0.2-2.94-0.26-4.4c-0.05-1,0.31-1.47,1.47-1.62
		c0.92-0.12,1.76-0.91,2.62-1.41c0.9-0.53,1.74-1.22,2.71-1.56c0.68-0.24,1.96-0.32,2.2,0.03c0.59,0.91-0.19,1.55-1.04,2.05
		c-1.51,0.89-3.13,1.77-3.79,3.52c-0.33,0.88-0.3,1.9-0.39,2.86c-0.06,0.6,0.15,1.26-0.78,1.47
		C110.37,35.85,110.28,36.53,110.09,37.04z"/>
	<path d="M466.73,65.41c-1.81,0.01-3.09-1.84-2.95-3.52c0.17-1.94,1.17-3.33,2.31-4.71c0.16-0.2,0.51-0.45,0.68-0.4
		c0.35,0.11,0.72,0.35,0.93,0.65c0.4,0.55,0.65,1.19,1.03,1.75c0.25,0.36,0.71,0.59,0.92,0.97c0.47,0.89,1.4,2.06,1.14,2.7
		c-0.62,1.5-1.96,2.56-3.76,2.7C466.91,65.57,466.79,65.45,466.73,65.41z"/>
	<path class="st1" d="M315.75,83.13c2.11,0.82,1.64,2.45,1.85,3.71c0.33,1.96,0.47,3.97,0.55,5.96c0.07,1.77,0.38,3.38,1.55,4.81
		c0.22,0.27-0.21,1.22-0.54,1.71c-0.14,0.21-0.96,0.24-1.22,0.03c-0.61-0.49-1.34-1.1-1.54-1.79c-0.51-1.8-0.9-3.67-1.09-5.53
		c-0.23-2.26-0.28-4.54-0.27-6.81C315.03,84.51,315.5,83.82,315.75,83.13z"/>
	<path d="M290.76,59.58c0.78,0.25,1.46,0.42,2.1,0.68c1.89,0.8,3.51-0.27,5.21-0.75c1.09-0.3,2.13-0.82,3.24-1
		c0.44-0.07,1.25,0.42,1.41,0.84c0.16,0.41-0.16,1.43-0.5,1.55c-2.61,0.93-5.26,1.74-7.92,2.53c-1.07,0.32-4.06-0.73-4.55-1.62
		c-0.26-0.47-0.45-1.16-0.3-1.61C289.57,59.88,290.32,59.78,290.76,59.58z"/>
	<path class="st2" d="M97.74,217.5c0.36-1.11,0.62-2.32,1.14-3.42c0.82-1.75,2.92-1.14,3.73-0.19c0.99,1.16,1.4,2.43,1.01,3.96
		c-0.27,1.05-1.04,1.44-1.91,1.77c-0.33,0.12-0.68,0.17-1.01,0.27C99.37,220.31,97.69,218.98,97.74,217.5z"/>
	<path class="st1" d="M299.92,91.94c-0.8,0.17-1.59,0.4-2.39,0.51c-1.82,0.27-3.65,0.54-5.49,0.71c-0.91,0.08-2.09-1.4-1.83-2.28
		c0.08-0.27,0.66-0.63,0.92-0.57c2.29,0.57,4.47,0.09,6.66-0.53c1.02-0.28,2.07-0.54,3.12-0.56c0.46-0.01,1,0.56,1.34,0.99
		c0.1,0.12-0.3,0.78-0.6,1.04c-0.47,0.4-1.05,0.66-1.58,0.98C300.01,92.13,299.96,92.04,299.92,91.94z"/>
	<path class="st2" d="M77.89,31.56c0,1.83-0.96,2.83-2.7,2.83c-1.76,0-2.69-1.01-2.7-2.87c-0.02-2.29,1.44-3.86,3.14-3.87
		C76.58,27.64,77.89,29.94,77.89,31.56z"/>
	<path class="st2" d="M85.83,238.05c-0.09-2.28,1.05-3.41,2.16-4.32c1.46-1.19,3.15-0.06,3.5,2.17c0.27,1.71-1.66,3.98-3.38,3.98
		C86.27,239.88,85.83,239.41,85.83,238.05z"/>
	<path class="st2" d="M107.96,236.95c-0.01,1.44-1.71,2.96-3.28,2.93c-1.34-0.02-2.93-1.56-2.92-2.84c0-1.45,1.21-3.08,2.29-3.09
		C106.29,233.93,107.97,235.22,107.96,236.95z"/>
	<path class="st2" d="M124.15,187.21c0.02,2.14-1.62,3.62-2.86,3.79c-0.72,0.1-2.25-2.28-2.27-3.42c-0.04-1.83,0.93-3.39,2.16-3.27
		C123,184.48,124.15,184.94,124.15,187.21z"/>
	<path class="st2" d="M154.89,177.38c0.09,2.66-3.4,3.87-5.02,3.38c-0.99-0.3-1.51-1.71-1.14-2.93c0.52-1.7,3.77-2.9,5.18-1.86
		C154.35,176.29,154.57,176.9,154.89,177.38z"/>
	<path class="st2" d="M174.63,167.01c-1.31,0-2.42-1.03-2.44-2.25c-0.02-1.63,1.84-3.4,3.57-3.41c0.78-0.01,1.93,1.58,1.95,2.69
		C177.73,165.15,175.81,167,174.63,167.01z"/>
	<path class="st2" d="M184.07,141.56c-0.01,1.87-1.29,3.5-2.79,3.54c-1.32,0.03-2.43-1.29-2.46-2.93c-0.02-1.04,1.95-2.7,3.2-2.7
		C183.5,139.47,184.08,140.06,184.07,141.56z"/>
	<path class="st2" d="M164.7,146.49c1.31,0.01,2,0.78,1.83,2.01c-0.3,2.11-1.92,3.47-3.99,3.36c-0.74-0.04-1.82-1.23-1.65-1.97
		C161.26,148.31,162.59,146.39,164.7,146.49z"/>
	<path class="st2" d="M109.84,205.69c-0.26,1.09-1.42,2.64-2.3,2.87c-0.46,0.12-0.99,0.1-1.4,0.31c-0.69,0.36-1.27,0.29-1.56-0.38
		c-0.28-0.64-1.16-1.25-0.27-2.11c0.37-0.35,0.54-0.89,0.83-1.33c1.21-1.83,1.26-1.95,3.21-1.26
		C108.99,204.02,109.35,205.03,109.84,205.69z"/>
	<path class="st2" d="M134.37,196.14c-1.53,0.05-2.05-0.73-1.47-1.82c0.47-0.89,0.89-1.84,1.54-2.59c0.71-0.83,1.76-1.18,2.82-0.61
		c0.55,0.3,1.38,0.85,1.36,1.27c-0.04,1.14-0.17,2.45-1.52,2.95C136.11,195.69,135.09,195.93,134.37,196.14z"/>
	<path class="st2" d="M124.55,210.19c-2.2,0-3.38-0.68-3.36-1.92c0.02-1.6,1.37-2.93,2.97-2.93c1.31,0,2.69,1.44,2.69,2.8
		C126.85,208.99,125.51,210.19,124.55,210.19z"/>
	<path class="st2" d="M133.42,174.11c-0.1,2.04-0.94,3.21-2.3,3.14c-1.63-0.09-2.43-1.21-2.38-2.67c0.06-1.75,1.2-2.79,3-2.71
		C132.82,171.91,133.49,172.8,133.42,174.11z"/>
	<path class="st2" d="M152.5,158.26c-0.29,1.96-1.47,3.38-2.92,3.35c-1.32-0.03-2.12-1.12-1.82-2.41c0.21-0.88,0.09-1.93,1.08-2.41
		c0.71-0.34,1.7-0.91,2.19-0.66C151.71,156.48,152.03,157.52,152.5,158.26z"/>
	<path class="st2" d="M129.93,28.82c1.78,1.04,2.46,2.24,2.52,3.87c0.03,0.73,0.29,1.46,0.52,2.16c0.42,1.25-0.48,1.84-1.3,1.87
		c-0.5,0.01-1.28-0.9-1.5-1.55c-0.48-1.39-0.78-2.86-0.94-4.32C129.17,30.23,129.66,29.55,129.93,28.82z"/>
	<path class="st1" d="M465.89,95.61c-1.17,0.02-2.75-1.06-2.71-1.89c0.06-1.35,1.35-1.26,1.98-1.17c0.74,0.11,1.63,0.82,1.97,1.51
		C467.34,94.52,467.12,95.74,465.89,95.61z"/>
	<path d="M457.31,55.35c-0.57,0.62-0.88,1.2-1.36,1.41c-0.28,0.13-0.89-0.24-1.22-0.54c-0.34-0.31-0.69-0.79-0.71-1.21
		c-0.03-0.51,0.2-1.1,0.5-1.53c0.09-0.13,0.85,0.04,1.17,0.27C456.23,54.16,456.67,54.71,457.31,55.35z"/>
	<path class="st2" d="M128.77,22.29c1.21,0.39,1.65,0.97,1.76,1.82c0.15,1.05-0.6,2.07-1.27,1.93c-0.66-0.14-1.28-1.31-1.53-2.14
		C127.62,23.51,128.4,22.84,128.77,22.29z"/>
	<path class="st2" d="M165.88,31.74c0.37-1.64,0.26-3.74,2.33-4.87c0.99-0.54,1.31-0.36,1.47,0.73c0.09,0.59,0.27,1.2,0.54,1.74
		c0.49,0.98,0.68,1.92-0.25,2.69c-0.7,0.59-1.45,1.25-2.29,1.51C166.21,33.97,165.89,33.6,165.88,31.74z"/>
	<path class="st2" d="M182.06,25.64c0.68,1.68,1.49,3.11,1.76,4.65c0.1,0.6-0.89,1.61-1.62,2.08c-0.68,0.44-1.76,0.98-2.48,0.09
		c-0.34-0.42-0.31-1.27-0.23-1.89C179.71,28.65,180.58,27.04,182.06,25.64z"/>
	<path class="st2" d="M204.44,29.53c0.62-1.17,1.15-2.18,1.74-3.3C207.19,28.08,206.8,28.83,204.44,29.53z"/>
	<path class="st1" d="M385.22,94.11c0.41,2.11-1.02,5.25-2.46,5.49C383.04,97.55,383.5,95.64,385.22,94.11z"/>
	<path class="st1" d="M341.09,95.9c0.61,1.83,0.48,2.3-0.9,2.98C340.51,97.82,340.76,96.99,341.09,95.9z"/>
	<path class="st3" d="M165.52,63.33c-0.86-1.5,0.02-3.86,1.9-5.4c1.4,0.34,2.02,1.26,1.67,2.61
		C168.63,62.37,166.78,62.47,165.52,63.33z"/>
	<path class="st3" d="M179.08,59.85c0.19,0.33,0.38,0.66,0.66,1.14c-0.92,0.74-1.82,1.45-2.84,2.28
		C176.76,61.97,177.86,60.4,179.08,59.85z"/>
	<path class="st1" d="M478.56,101.05c-0.59-0.56-1.24-1.06-1.72-1.69c-0.17-0.23,0.07-0.78,0.13-1.18c0.33,0.16,0.79,0.23,0.96,0.49
		c0.43,0.67,0.73,1.42,1.08,2.13C478.85,100.88,478.7,100.96,478.56,101.05z"/>
	<path class="st3" d="M197.56,64.06c0.39-0.73,0.64-1.22,0.91-1.71c0.26-0.49,0.53-0.98,0.8-1.47
		C200.68,62.34,200.27,63.24,197.56,64.06z"/>
	<path class="st0" d="M333.05,62.96c0.09,0.01,0.32-0.02,0.34,0.03c0.45,1.12,1.1,2.23,1.19,3.39c0.04,0.51-1.01,1.38-1.71,1.58
		c-0.51,0.14-1.49-0.02-1.77-1.09C330.7,65.34,331.74,63,333.05,62.96z"/>
	<path class="st0" d="M357.69,62.59c0.77,1.58,0.73,1.68-1.49,3.06C355.97,64.24,356.64,63.41,357.69,62.59z"/>
	<path class="st2" d="M121.72,29.12c0.17,1.13,0.34,2.02,0.42,2.93c0.12,1.31-0.52,1.65-2.64,1.41
		C119.45,31.69,120.3,30.38,121.72,29.12z"/>
</g>
</svg>
