<?xml version="1.0" encoding="utf-8"?>
<!-- Generator: Adobe Illustrator 26.0.1, SVG Export Plug-In . SVG Version: 6.00 Build 0)  -->
<svg version="1.1" id="Layer_1" xmlns="http://www.w3.org/2000/svg" xmlns:xlink="http://www.w3.org/1999/xlink" x="0px" y="0px"
	 viewBox="0 0 512 347" style="enable-background:new 0 0 512 347;" xml:space="preserve">
<style type="text/css">
	.st0{fill:#FFFFFF;}
	.st1{fill:#349937;}
	.st2{fill:#0000FF;}
	.st3{fill:#BD272D;}
</style>
<g>
	<path class="st0" d="M512,354.9c-170.7,0-341.3,0-512,0C0,234.6,0,114.3,0-6c170.7,0,341.3,0,512,0C512,114.3,512,234.6,512,354.9z
		 M51.2,31.8c0.5,1.8,0.9,3.2,1.3,4.6c0.5,1.5,1.1,3,1.4,4.5c0.4,2.2,0.7,4.3,1,6.5c0.1,0.7,0.2,1.3,0.3,1.9
		c0.4,1.6,0.8,3.1,1.1,4.7c0.2,1.3,0.2,2.7,0.4,4c0.5,2.5,1,5.1,1.5,7.6c0.6,2.8,1.1,5.7,1.6,8.5c0.3,1.6,0.6,3.1,0.8,4.7
		c0.4,2.7,0.8,5.5,1.2,8.2c0.3,1.9,0.6,3.8,1,5.7c0.4,2.6,0.9,5.1,1.3,7.7c0.4,2.5,0.8,5,1.1,7.4c0.3,2.5,0.5,5,0.8,7.4
		c0.3,2.1,0.7,4.2,0.9,6.4c0.3,2.4,0.5,4.7,0.7,7.1c0.2,2.5,0.5,5,0.8,7.5c0.2,2.3,0.4,4.5,0.7,6.8c0.4,3.2,0.8,6.5,1.2,9.7
		c0.3,2.6,0.7,5.2,1.1,7.8c0.3,2.3,0.6,4.5,0.8,6.8c0.2,2.4,0.3,4.8,0.6,7.2c0.3,2.5,0.9,5,1.3,7.5c0.4,3.1,0.6,6.2,0.8,9.3
		c0.3,3.6,0.8,7.2,1.1,10.8c0.3,4.3,0.4,8.6,0.6,12.9c0.1,1.9,0.2,3.8,0.3,5.6c0.2,2.7,0.3,5.4,0.5,8.2c0.2,2.9,0.4,5.8,0.6,8.7
		c0.1,2,0.2,4,0.3,6c0.2,4.2,0.3,8.5,0.5,12.8c0,1,0.2,2.1,0.2,3.1c0.1,2.1,0.3,4.2,0.4,6.3c0.1,1.1-0.1,2.3,0,3.4
		c0.1,1.5,0.1,3,0.3,4.5c0.1,1.3,0.4,2.6,0.5,3.9c0.1,1.6,0.2,3.3,0.3,4.9c0.1,1.7,0.2,3.5,0.3,5.2c0,1,0,1.9-0.1,2.9
		c-0.2,1.6,0.6,3.2-0.3,4.9c-0.4,0.6-0.6,1.9-0.2,2.4c1.2,1.8,1,3.7,0.9,5.5c-0.1,1.6,0.4,3,1.2,4c1.5,0,2.8,0.1,4.2,0
		c1.9-0.1,3.9-0.4,5.8-0.7c2.5-0.3,5-0.8,7.5-0.9c3.8-0.2,7.7,0,11.6-0.4c4.5-0.4,8.9-1.3,13.4-1.8c3.1-0.3,6.3-0.3,9.4-0.3
		c4.3,0.1,8.7,0.4,13,0.5c5.5,0.1,10.9,0.2,16.4,0.3c2.1,0,4.2,0.1,6.2,0.2c4.8,0.3,9.5,0.7,14.3,0.9c6.2,0.3,12.3,0.4,18.5,0.5
		c2.7,0,5.4-0.2,8.1-0.2c2.4,0,4.7,0,7,0c5.4-0.1,10.8-0.2,16.2-0.3c4.4-0.1,8.7-0.2,13.1-0.2c3.9,0,7.7,0.2,11.5,0.2
		c3.3,0.1,6.6,0.3,10,0.2c5.8,0,11.6-0.2,17.4-0.2c2.4,0,4.8,0.3,7.2,0.5c5.8,0.3,11.5,0.7,17.2,0.8c4.5,0.1,9.1-0.2,13.6-0.2
		c4,0,7.9,0.2,11.9,0.2c2.5,0,5,0,7.5,0.1c4.2,0.1,8.3,0.1,12.5,0.2c0.9,0,1.9,0.2,2.8,0.2c2.1,0,4.3,0,6.4,0.1
		c2.9,0.1,5.7,0.3,8.6,0.4c2.1,0.1,4.2,0,6.2,0c2.1,0.1,4.2,0.2,6.3,0.3c3.3,0.1,6.5,0,9.8,0.1c2.9,0.1,5.9,0.4,8.8,0.5
		c4.8,0.1,9.5,0.2,14.3,0.3c1.7,0,3.3,0,5,0.1c4,0.1,8,0.4,11.9,0.4c2,0,4-0.1,6.1-0.2c0.8,0,1.6-0.3,2.4-0.2
		c3.4,0.1,6.9,0.3,10.3,0.5c1.7,0.1,3.4,0.3,5,0.4c1.8,0.1,3.5,0.1,5.3,0c1.6-0.1,3.3-0.3,5.2-0.5c-0.6,0.6-1.1,1.1-1.5,1.5
		c-1.8,1.8-3.5,3.8-5.5,5.4c-1,0.8-0.8,1.5-0.4,2.2c0.2,0.4,0.6,0.7,0.9,1c0.5-0.3,1.3-0.6,1.8-1c1.6-1.4,3.2-2.8,4.8-4.2
		c1.9-1.8,3.6-3.6,5.5-5.4c1.1-1,1.1-2.2-0.1-3.1c-2.1-1.5-4.1-3.2-6-5c-1.1-1-2-2.3-3.1-3.4c-0.6-0.6-1.2-0.4-1.7,0.4
		c-0.6,1-0.5,2.4,0.3,3.3c1.4,1.7,2.8,3.5,4.1,5.2c0.2-0.1,0.4-0.3,0.6-0.4c-1.7,0.1-3.3,0.5-5,0.4c-4.4-0.1-8.8-0.4-13.2-0.5
		c-3.3,0-6.6,0.2-9.9,0.2c-3.5,0-7-0.1-10.5-0.1c-2.9,0-5.8,0.1-8.6,0.1c-3.4,0-6.8-0.2-10.1-0.3c-1.6,0-3.2-0.1-4.8-0.2
		c-2.1-0.2-4.3-0.4-6.4-0.5c-1.7-0.1-3.3,0.1-4.9-0.8c-0.6-0.3-1.5,0-2.3,0.1c-0.5,0.1-0.9,0.3-1.4,0.3c-1.5,0-3-0.1-4.4-0.1
		c-4.7-0.1-9.5-0.1-14.2-0.2c-3.8-0.1-7.6-0.2-11.5-0.3c-3.8-0.1-7.6-0.2-11.4-0.3c-3.6-0.1-7.2-0.2-10.8-0.3
		c-13.5-0.3-27,0.7-40.5-0.5c-1.4-0.1-2.8,0-4.1-0.1c-2.9-0.1-5.7-0.5-8.5-0.5c-4.3,0-8.7,0.2-13,0.2c-2.4,0-4.8-0.2-7.2-0.2
		c-2.7-0.1-5.4-0.2-8.1-0.2c-4.3-0.1-8.6-0.3-12.9-0.3c-2.5,0-5.1,0.4-7.6,0.5c-4.5,0.1-9.1,0.2-13.6,0.3c-4,0.1-8.1,0.1-12.1,0.2
		c-1.3,0-2.5,0.1-3.8,0.1c-1.5,0-2.9-0.2-4.4-0.2c-5.1,0-10.1,0-15.1,0c-2,0-4-0.4-6-0.5c-4.5-0.2-8.9-0.4-13.4-0.5
		c-2.3-0.1-4.6-0.2-7-0.3c-4.1-0.1-8.3-0.2-12.4-0.3c-2.1,0-4.2,0-6.4,0c-3.3-0.1-6.6-0.5-9.9-0.5c-2.9,0-5.8,0.3-8.7,0.5
		c-2.4,0.2-4.8,0.3-7.2,0.6c-3.3,0.3-6.6,0.8-9.9,1c-3.2,0.2-6.3,0.2-9.5,0.3c-1,0-1.9,0.2-2.9,0.3c-3.2,0.3-6.5,0.5-9.7,0.7
		c-0.3,0-0.9-0.5-0.9-0.8c-0.4-3.5-0.8-7-1.1-10.5c-0.1-0.9-0.2-1.7-0.2-2.6c0-2.2,0.2-4.4,0.1-6.6c-0.2-3.2-0.8-6.4-1-9.6
		c-0.2-2.7-0.1-5.5,0-8.2c0-0.5,0.3-1.2,0.7-1.5c1.5-0.9,1.7-2.5,2-4c0.2-0.8,0.4-1.5,0.8-2.2c0.6-0.9,1.4-1.7,2-2.6
		c1.1-1.8,1.9-3.8,3.3-5.3c3.1-3.4,4.7-7.7,7.5-11.3c1.1-1.4,1.8-3.1,2.8-4.6c2.5-3.6,4.9-7.2,7.5-10.7c1.1-1.5,2.5-2.8,3.5-4.3
		c2-3,3.7-6.2,5.7-9.2c3.2-4.6,6.7-9.1,10.1-13.6c1.6-2.1,3.4-4.2,5.2-6.2c2.1-2.3,4.3-4.5,6.4-6.7c0.1-0.1,0.2-0.4,0.3-0.6
		c0.9-1.1,1.9-2.2,2.9-3.2c2.2-2.2,4.6-4.2,6.7-6.5c1-1.1,2.1-2,3.4-2.7c0.5-0.3,1-0.7,1.5-1.1c0.9-0.8,1.8-1.7,2.8-2.4
		c1.2-0.9,2.6-1.6,3.8-2.6c1.1-0.9,2-2.1,3.2-2.8c1.9-1.2,4-2,6-3.1c1-0.6,1.9-1.5,2.9-2.1c1.4-0.7,2.9-1.2,4.4-1.8
		c1.1-0.4,2.2-0.9,3.3-1.2c0.6-0.2,1.4,0,2-0.1c1-0.2,2-0.6,3.1-0.7c1.6-0.2,3.2-0.4,4.8-0.5c2.4-0.1,4.9,0,7.3,0
		c0.6,0,1.3,0,1.9,0.1c1.9,0.5,3.8,1.2,5.8,1.6c3.8,0.9,6.9,3.2,10.1,5.2c2.6,1.7,5.1,3.7,7.6,5.6c3.3,2.5,6.6,5,9.9,7.5
		c0.8,0.6,1.6,1.3,2.3,2.1c0.8,0.9,1.2,2.2,2.2,2.8c1.6,1.1,2.9,2.2,3.9,3.9c0.7,1.2,1.7,2.2,2.5,3.2c0.8,1.1,1.7,2.2,2.4,3.4
		c1.1,1.9,2,4,3.3,5.7c2.3,3,4.9,5.7,7.4,8.5c2.3,2.6,4.6,5.2,6.9,7.8c1.6,1.8,3,3.6,4.8,5.2c3.1,2.9,6.3,5.8,9.7,8.4
		c1.1,0.8,2.2,1.7,3.4,2.6c1.6,1.2,3.5,2.2,4.9,3.6c2,2,4.4,3.2,6.8,4.4c0.4,0.2,0.7,0.7,1.1,0.6c1.5-0.1,2.2,0.9,2.7,1.4
		c1.4,0.4,2.4,0.7,3.4,0.9c2.3,0.4,4.5,1,6.8,1.2c2.5,0.2,5.1,0.1,7.7-0.1c2.9-0.2,5.7,0,8.6-0.1c2.3-0.1,4.5-0.8,6.7-1.5
		c1.8-0.6,3.6-1.2,5.3-1.9c1.8-0.8,3.5-1.8,5.3-2.5c0.9-0.4,2-0.4,2.9-0.8c1.9-0.9,3.7-1.9,5.6-2.8c2.8-1.2,5.6-2.5,8.2-4.2
		c3.1-2,6.5-3.7,9.6-5.7c1.9-1.1,3.6-2.4,5.4-3.7c1.6-1.2,3.2-2.5,4.8-3.8c1.3-1,2.5-1.9,3.8-2.9c0.9-0.7,1.7-1.5,2.6-2.2
		c1.9-1.4,3.9-2.6,5.8-4.1c1.5-1.2,2.9-2.6,4.3-3.9c3.1-2.9,6.3-5.8,9.5-8.7c0.7-0.6,1.4-1.3,2-2c2.4-2.7,4.7-5.4,7.1-8.1
		c2.3-2.6,4.7-5.1,7.1-7.6c0.4-0.4,0.8-0.8,1.2-1.2c1.7-1.5,3.6-2.9,5.2-4.5c1.8-1.7,3.3-3.7,5.1-5.4c1.6-1.7,3.4-3.2,5.1-4.8
		c0.8-0.8,1.7-1.5,2.5-2.2c2.8-2.3,5.8-4.6,8.5-7c2.2-2,4.3-4.2,6.4-6.4c1.8-1.8,3.7-3.5,5.5-5.2c2.7-2.6,5.3-5.2,8-7.7
		c0.9-0.9,1.9-1.8,2.9-2.6c1.4-1.2,2.9-2.2,4.4-3.3c1.4-1.1,2.7-2.1,4-3.2c0.2-0.2,0.4-0.8,0.2-0.9c-0.5-0.7-1.2-1.2-1.8-1.8
		c-0.1-0.1-0.4,0.2-0.6,0.3c-2.3,2.2-4.6,4.3-7,6.5c-3.4,3.1-7,6.2-10.4,9.3c-2,1.9-3.9,3.9-5.8,5.8c-2.7,2.7-5.3,5.3-8,7.9
		c-1.3,1.2-2.6,2.4-4,3.5c-2.3,1.8-4.8,3.4-7.1,5.4c-2.4,2.1-4.5,4.4-6.7,6.6c-0.4,0.4-1,0.8-1.4,1.2c-2,2-4.1,4-6.1,6.1
		c-1,1-1.9,2.1-2.9,3.1c-1.4,1.4-2.8,2.8-4.1,4.2c-1.2,1.4-2.2,2.9-3.5,4.2c-1.9,2-3.9,3.9-5.8,5.9c-1,1.1-1.7,2.4-2.8,3.5
		c-2.5,2.5-5.1,4.9-7.8,7.2c-3.3,2.8-6.7,5.4-10.1,8c-2.6,1.9-5.2,3.8-7.8,5.7c-1,0.7-1.9,1.6-2.9,2.3c-0.5,0.4-1,0.6-1.4,0.9
		c-1.4,0.8-2.7,1.6-4.1,2.4c-2.4,1.4-4.1,3.7-6.7,4.9c-2.9,1.3-5.6,3-8.4,4.5c-2.5,1.3-5.1,2.7-7.7,3.8c-2,0.9-4.2,1.5-6.2,2.3
		c-2.3,0.9-4.6,2-7,2.7c-3,0.9-6.1,1.7-9.2,2.1c-2.5,0.4-5.2,0.2-7.7,0.2c-2.1,0-4.1-0.4-6.2-0.4c-3,0-5.8-0.7-8.6-1.9
		c-4.3-1.9-8.4-4.1-12-7.1c-4.6-3.9-9.6-7.2-13.8-11.6c-2.1-2.3-4.5-4.3-6.7-6.5c-3.3-3.4-6.6-6.8-9.6-10.5
		c-2.2-2.6-3.9-5.6-5.8-8.5c-0.7-1.1-1.3-2.2-2-3.2c-1-1.3-2.3-2.4-3.1-3.8c-1.9-3.5-4.9-5.9-7.5-8.7c-1.8-1.9-3.9-3.6-5.8-5.3
		c-0.8-0.7-1.6-1.4-2.5-2c-1.2-0.9-2.6-1.5-3.8-2.4c-2.4-1.8-4.7-3.7-7.1-5.4c-1.2-0.9-2.7-1.4-4-2.2c-1.1-0.7-2-1.8-3.2-2.3
		c-2.6-1.1-5.2-2-7.9-3.1c-2.3-0.9-4.7-1.1-7.2-1.1c-1.6,0-3.3,0-4.9,0c-0.3,0-0.5,0-0.8,0c-2.8,0.4-5.5,0.9-8.3,1
		c-2.9,0.1-5.4,1.3-7.9,2.2c-2.2,0.8-4.4,2.1-6.4,3.4c-2.8,1.9-6,3.1-8.7,5.4c-2.6,2.3-5.8,4.1-8.7,6.1c-1.3,0.9-2.6,2-3.8,3.2
		c-1.2,1.2-2.3,2.5-3.5,3.8c-2.1,2.2-4.2,4.3-6.2,6.6c-2.6,2.9-5,5.9-7.5,8.8c-2.1,2.4-4.1,4.9-6.1,7.4c-1.8,2.3-3.4,4.7-5.1,7.1
		c-1.8,2.5-3.7,4.9-5.4,7.4c-1.8,2.7-3.4,5.5-5.2,8.1c-1.2,1.8-2.8,3.4-4,5.2c-2.3,3.4-4.6,6.8-6.9,10.2c-2.1,3.1-4.2,6.2-6.3,9.3
		c-1.6,2.4-3,4.8-4.6,7.2c-1.2,1.8-2.4,3.6-3.7,5.3c-0.5,0.6-1.1,1.2-1.7,1.8c-0.3-2.3-0.3-4.3-0.3-6.2c0-1.6-0.2-3.3-0.2-4.9
		c-0.1-1.9,0.1-3.9-0.1-5.8c-0.3-4.8-0.7-9.6-1.1-14.4c-0.2-2.6-0.4-5.1-0.6-7.7c-0.2-3.2-0.4-6.4-0.5-9.5c-0.1-2.2-0.1-4.5-0.3-6.7
		c-0.4-4.3-0.9-8.6-1.3-13c-0.2-2.5-0.3-5-0.6-7.4c-0.5-4.2-1.1-8.4-1.6-12.5c-0.4-2.8-0.8-5.7-1.1-8.5c-0.4-3-0.7-5.9-1-8.9
		c-0.1-1.3-0.2-2.6-0.3-3.9c-0.6-4.9-1.2-9.9-1.7-14.8c-0.2-2.2-0.4-4.4-0.7-6.6s-0.5-4.4-0.8-6.6c-0.3-2.5-0.6-5-1-7.5
		c-0.4-2.5-0.8-4.9-1.2-7.4c-0.4-3.2-0.7-6.3-1.1-9.5c-0.5-3.6-1.3-7.2-1.8-10.8c-0.4-2.5-0.6-5-1.1-7.5c-0.5-3-1.1-6-1.7-8.9
		c-0.8-4.6-1.7-9.2-2.4-13.8c-0.3-1.8-0.5-3.6-0.8-5.4c-0.6-3-1.2-5.9-1.9-8.8c-0.5-2-1-4.1-1.5-6.1c-0.1-0.3-0.1-0.6-0.1-1.2
		c0.7,0.8,1.3,1.3,1.5,1.9c0.7,1.5,2.4,2.5,2.4,4.4c0,0.7,0.8,1.2,1.4,0.7c0.9-0.8,1.5-1.9,2.2-2.9c0.1-0.1-0.8-0.8-1.3-1.2
		c-0.1-0.1-0.3-0.2-0.4-0.4c-1.4-1.8-2.9-3.5-4.2-5.3c-1.2-1.6-2.2-3.4-3.2-5.2c-0.7-1.2-1.9-1.1-2.9-1.2c-0.5-0.1-1.4,0.8-1.7,1.4
		c-0.9,1.7-1.5,3.5-2.2,5.3c-0.6,1.5-1.1,2.9-1.6,4.4c-0.2,0.7-0.6,1.5-0.5,2.2c0.1,0.5,1.1,1.3,1.4,1.2c0.8-0.4,1.7-1,2.2-1.8
		c0.8-1.4,1.2-3,1.8-4.5C50.7,33,50.9,32.5,51.2,31.8z M484.6,340.2c0.5-0.8,0.9-1.3,1.2-1.9c0.4-0.9,1.3-1.8,0.7-2.9
		c-0.8-1.5-1.7-3.1-2.7-4.5c-0.5-0.7-0.3-1.1,0.2-1.6c0.9-0.8,1.7-1.7,2.6-2.6c0.8-0.8,0.5-1.8,0.1-2.5c-0.2-0.3-1.5-0.3-2.1,0
		c-0.8,0.4-1.4,1.2-2,1.9c-0.3,0.2-0.6,0.4-1,0.7c-0.8-1.7-1.5-3.5-3.9-3c-0.6,2.2-0.6,4.2,1.4,5.6c-1.5,3.4-3,6.6-4.3,10
		c-0.2,0.5,0.6,1.7,1.2,2.2c0.8,0.5,1.3-0.2,1.6-1.1c0.2-0.7,0.5-1.3,0.8-1.9c0.8-1.7,1.6-3.4,2.5-5.1c1.4,1.5,2.9,2.6,1.6,4.6
		c-0.1,0.1,0,0.5,0.1,0.6C483.1,339.2,483.9,339.7,484.6,340.2z M25.8,32.8c0.1,0.1,0.2,0.1,0.3,0.2c0,0.3,0,0.5,0.1,0.8
		c0.2,1.5,0.6,2.9,0.8,4.4c0.1,1.1-0.3,1.9-1.6,1.7c-1.1-0.2-2.2-0.6-3.3-0.8c-0.4-0.1-0.8,0.1-1.3,0.1c0.1,0.4,0.1,1,0.4,1.2
		c0.8,0.7,1.7,1.4,2.6,1.8c0.9,0.4,1.9,0.7,2.8,0.6c2-0.4,3.6-2.7,3.3-4.7c-0.3-2-0.8-3.9-1.4-5.9c-0.3-1.3-0.9-2.5-1.3-3.7
		c-0.4-1.3-2-2-3-1.2c-0.4,0.4-0.4,1.2-0.5,1.9c-0.2,1.5-0.5,2.9-2,3.6c-1.7,0.8-2.9-0.1-2.6-1.9c0.2-1.3,0.6-2.5,1-3.8
		c-1.5-0.8-3.2,0.1-3.4,1.7c-0.1,0.9-0.2,1.8-0.4,2.6c-0.4,1.9,1,3.8,2.9,3.9c0.5,0,0.9,0,1.3,0.1c1.5,0.2,3,0.1,4.1-1.2
		C25.1,33.8,25.5,33.3,25.8,32.8z"/>
	<path d="M51.2,31.8c-0.3,0.7-0.5,1.1-0.7,1.6c-0.6,1.5-1,3.1-1.8,4.5c-0.4,0.8-1.3,1.4-2.2,1.8c-0.2,0.1-1.3-0.7-1.4-1.2
		c-0.1-0.7,0.2-1.5,0.5-2.2c0.5-1.5,1-3,1.6-4.4c0.7-1.8,1.4-3.6,2.2-5.3c0.3-0.6,1.2-1.5,1.7-1.4c1,0.1,2.2,0,2.9,1.2
		c1,1.8,2,3.5,3.2,5.2c1.3,1.8,2.8,3.6,4.2,5.3c0.1,0.1,0.2,0.3,0.4,0.4c0.5,0.4,1.4,1.1,1.3,1.2c-0.6,1-1.3,2.1-2.2,2.9
		c-0.6,0.5-1.3,0-1.4-0.7c0-1.9-1.7-2.9-2.4-4.4c-0.3-0.6-0.9-1.1-1.5-1.9c0.1,0.6,0,0.9,0.1,1.2c0.5,2,1,4.1,1.5,6.1
		c0.7,2.9,1.3,5.9,1.9,8.8c0.3,1.8,0.5,3.6,0.8,5.4c0.8,4.6,1.6,9.2,2.4,13.8c0.5,3,1.2,5.9,1.7,8.9c0.4,2.5,0.7,5,1.1,7.5
		c0.6,3.6,1.3,7.2,1.8,10.8c0.5,3.2,0.7,6.3,1.1,9.5c0.3,2.5,0.8,5,1.2,7.4c0.4,2.5,0.7,5,1,7.5c0.3,2.2,0.6,4.4,0.8,6.6
		c0.2,2.2,0.4,4.4,0.7,6.6c0.6,4.9,1.2,9.9,1.7,14.8c0.1,1.3,0.2,2.6,0.3,3.9c0.3,3,0.7,5.9,1,8.9c0.3,2.9,0.7,5.7,1.1,8.5
		c0.5,4.2,1.1,8.4,1.6,12.5c0.3,2.5,0.3,5,0.6,7.4c0.4,4.3,0.9,8.6,1.3,13c0.2,2.2,0.2,4.5,0.3,6.7c0.2,3.2,0.3,6.4,0.5,9.5
		c0.2,2.6,0.4,5.1,0.6,7.7c0.3,4.8,0.8,9.6,1.1,14.4c0.1,1.9,0,3.9,0.1,5.8c0,1.6,0.2,3.3,0.2,4.9c0,2,0,4,0.3,6.2
		c0.6-0.6,1.2-1.1,1.7-1.8c1.3-1.8,2.5-3.5,3.7-5.3c1.6-2.4,3-4.8,4.6-7.2c2.1-3.1,4.2-6.2,6.3-9.3c2.3-3.4,4.5-6.8,6.9-10.2
		c1.3-1.8,2.8-3.4,4-5.2c1.8-2.7,3.4-5.5,5.2-8.1c1.7-2.5,3.6-4.9,5.4-7.4c1.7-2.4,3.3-4.8,5.1-7.1c2-2.5,4-4.9,6.1-7.4
		c2.5-2.9,4.9-5.9,7.5-8.8c2-2.3,4.2-4.4,6.2-6.6c1.2-1.2,2.3-2.6,3.5-3.8c1.2-1.1,2.4-2.2,3.8-3.2c2.9-2.1,6.1-3.8,8.7-6.1
		c2.6-2.3,5.9-3.5,8.7-5.4c2-1.4,4.1-2.6,6.4-3.4c2.6-1,5.1-2.1,7.9-2.2c2.8-0.1,5.5-0.7,8.3-1c0.3,0,0.5,0,0.8,0c1.6,0,3.3,0,4.9,0
		c2.4,0,4.9,0.1,7.2,1.1c2.6,1.1,5.3,1.9,7.9,3.1c1.2,0.5,2.1,1.6,3.2,2.3c1.3,0.8,2.8,1.3,4,2.2c2.4,1.7,4.7,3.6,7.1,5.4
		c1.2,0.9,2.5,1.6,3.8,2.4c0.9,0.6,1.7,1.3,2.5,2c2,1.8,4,3.4,5.8,5.3c2.6,2.8,5.7,5.2,7.5,8.7c0.8,1.4,2.1,2.5,3.1,3.8
		c0.8,1,1.3,2.2,2,3.2c1.9,2.9,3.6,5.9,5.8,8.5c3,3.6,6.3,7,9.6,10.5c2.1,2.2,4.6,4.2,6.7,6.5c4.1,4.4,9.2,7.8,13.8,11.6
		c3.6,3.1,7.7,5.3,12,7.1c2.7,1.2,5.6,1.9,8.6,1.9c2.1,0,4.1,0.4,6.2,0.4c2.6,0,5.2,0.2,7.7-0.2c3.1-0.4,6.2-1.2,9.2-2.1
		c2.4-0.7,4.6-1.8,7-2.7c2.1-0.8,4.2-1.4,6.2-2.3c2.6-1.2,5.1-2.5,7.7-3.8c2.8-1.5,5.5-3.2,8.4-4.5c2.6-1.2,4.3-3.5,6.7-4.9
		c1.4-0.8,2.7-1.6,4.1-2.4c0.5-0.3,1-0.6,1.4-0.9c1-0.8,1.9-1.6,2.9-2.3c2.6-1.9,5.2-3.7,7.8-5.7c3.4-2.6,6.8-5.2,10.1-8
		c2.7-2.3,5.2-4.7,7.8-7.2c1-1,1.8-2.4,2.8-3.5c1.9-2,3.9-3.9,5.8-5.9c1.2-1.3,2.3-2.9,3.5-4.2c1.3-1.5,2.8-2.8,4.1-4.2
		c1-1,1.9-2.1,2.9-3.1c2-2.1,4.1-4.1,6.1-6.1c0.4-0.4,1-0.8,1.4-1.2c2.2-2.2,4.4-4.5,6.7-6.6c2.2-1.9,4.7-3.5,7.1-5.4
		c1.4-1.1,2.8-2.2,4-3.5c2.7-2.6,5.3-5.3,8-7.9c1.9-1.9,3.8-3.9,5.8-5.8c3.4-3.2,6.9-6.2,10.4-9.3c2.3-2.1,4.6-4.3,7-6.5
		c0.2-0.2,0.5-0.4,0.6-0.3c0.6,0.6,1.3,1.1,1.8,1.8c0.1,0.2,0,0.8-0.2,0.9c-1.3,1.1-2.6,2.2-4,3.2c-1.5,1.1-3,2.2-4.4,3.3
		c-1,0.8-2,1.7-2.9,2.6c-2.7,2.6-5.4,5.2-8,7.7c-1.8,1.8-3.7,3.5-5.5,5.2c-2.1,2.1-4.2,4.4-6.4,6.4c-2.7,2.4-5.6,4.7-8.5,7
		c-0.9,0.7-1.7,1.4-2.5,2.2c-1.7,1.6-3.5,3.2-5.1,4.8c-1.7,1.8-3.3,3.7-5.1,5.4c-1.6,1.6-3.5,3-5.2,4.5c-0.4,0.4-0.8,0.8-1.2,1.2
		c-2.4,2.5-4.8,5.1-7.1,7.6c-2.4,2.7-4.7,5.4-7.1,8.1c-0.6,0.7-1.3,1.4-2,2c-3.1,2.9-6.3,5.8-9.5,8.7c-1.4,1.3-2.8,2.7-4.3,3.9
		c-1.9,1.5-3.9,2.7-5.8,4.1c-0.9,0.7-1.7,1.5-2.6,2.2c-1.2,1-2.5,1.9-3.8,2.9c-1.6,1.2-3.2,2.6-4.8,3.8c-1.8,1.3-3.5,2.6-5.4,3.7
		c-3.2,1.9-6.5,3.7-9.6,5.7c-2.6,1.7-5.4,3-8.2,4.2c-1.9,0.8-3.7,1.9-5.6,2.8c-0.9,0.4-2,0.4-2.9,0.8c-1.8,0.8-3.5,1.8-5.3,2.5
		c-1.7,0.7-3.5,1.3-5.3,1.9c-2.2,0.8-4.4,1.5-6.7,1.5c-2.9,0.1-5.7-0.1-8.6,0.1c-2.6,0.2-5.1,0.4-7.7,0.1c-2.3-0.2-4.6-0.8-6.8-1.2
		c-1-0.2-2-0.5-3.4-0.9c-0.5-0.5-1.2-1.6-2.7-1.4c-0.3,0-0.7-0.4-1.1-0.6c-2.4-1.3-4.8-2.4-6.8-4.4c-1.4-1.4-3.2-2.4-4.9-3.6
		c-1.1-0.8-2.2-1.7-3.4-2.6c-3.4-2.6-6.5-5.5-9.7-8.4c-1.7-1.6-3.2-3.5-4.8-5.2c-2.3-2.6-4.6-5.2-6.9-7.8c-2.5-2.8-5.1-5.6-7.4-8.5
		c-1.3-1.7-2.2-3.9-3.3-5.7c-0.7-1.2-1.6-2.3-2.4-3.4c-0.8-1.1-1.8-2.1-2.5-3.2c-1-1.7-2.4-2.8-3.9-3.9c-0.9-0.6-1.4-1.9-2.2-2.8
		c-0.7-0.8-1.5-1.4-2.3-2.1c-3.3-2.5-6.6-5-9.9-7.5c-2.5-1.9-4.9-3.9-7.6-5.6c-3.2-2-6.3-4.3-10.1-5.2c-1.9-0.5-3.8-1.1-5.8-1.6
		c-0.6-0.2-1.2-0.1-1.9-0.1c-2.4,0-4.9-0.1-7.3,0c-1.6,0.1-3.2,0.2-4.8,0.5c-1,0.1-2,0.5-3.1,0.7c-0.7,0.1-1.4-0.1-2,0.1
		c-1.1,0.3-2.2,0.8-3.3,1.2c-1.5,0.6-3,1.1-4.4,1.8c-1,0.5-1.9,1.5-2.9,2.1c-2,1.1-4.1,1.9-6,3.1c-1.2,0.7-2.1,1.9-3.2,2.8
		c-1.2,0.9-2.6,1.7-3.8,2.6c-1,0.7-1.8,1.6-2.8,2.4c-0.5,0.4-1,0.8-1.5,1.1c-1.3,0.7-2.4,1.6-3.4,2.7c-2.1,2.3-4.5,4.3-6.7,6.5
		c-1,1-1.9,2.1-2.9,3.2c-0.1,0.2-0.2,0.4-0.3,0.6c-2.1,2.2-4.3,4.4-6.4,6.7c-1.8,2-3.5,4.1-5.2,6.2c-3.4,4.5-6.8,9-10.1,13.6
		c-2.1,2.9-3.8,6.2-5.7,9.2c-1,1.5-2.4,2.8-3.5,4.3c-2.5,3.5-5,7.1-7.5,10.7c-1,1.5-1.8,3.2-2.8,4.6c-2.8,3.6-4.4,7.9-7.5,11.3
		c-1.4,1.5-2.2,3.6-3.3,5.3c-0.6,0.9-1.4,1.7-2,2.6c-0.4,0.6-0.7,1.4-0.8,2.2c-0.3,1.5-0.5,3-2,4c-0.4,0.2-0.6,1-0.7,1.5
		c-0.1,2.7-0.2,5.5,0,8.2c0.2,3.2,0.8,6.4,1,9.6c0.1,2.2-0.1,4.4-0.1,6.6c0,0.9,0.1,1.8,0.2,2.6c0.3,3.5,0.7,7,1.1,10.5
		c0,0.3,0.6,0.8,0.9,0.8c3.2-0.2,6.5-0.5,9.7-0.7c1-0.1,1.9-0.3,2.9-0.3c3.2-0.1,6.4-0.1,9.5-0.3c3.3-0.2,6.6-0.7,9.9-1
		c2.4-0.2,4.8-0.4,7.2-0.6c2.9-0.2,5.8-0.5,8.7-0.5c3.3,0,6.6,0.3,9.9,0.5c2.1,0.1,4.2,0,6.4,0c4.1,0.1,8.3,0.2,12.4,0.3
		c2.3,0.1,4.6,0.2,7,0.3c4.5,0.2,8.9,0.3,13.4,0.5c2,0.1,4,0.5,6,0.5c5.1,0.1,10.1,0,15.1,0c1.5,0,2.9,0.2,4.4,0.2
		c1.3,0,2.5-0.1,3.8-0.1c4-0.1,8.1-0.1,12.1-0.2c4.5-0.1,9.1-0.1,13.6-0.3c2.5-0.1,5.1-0.5,7.6-0.5c4.3,0,8.6,0.1,12.9,0.3
		c2.7,0.1,5.4,0.2,8.1,0.2c2.4,0.1,4.8,0.3,7.2,0.2c4.3,0,8.7-0.2,13-0.2c2.9,0,5.7,0.3,8.5,0.5c1.4,0.1,2.8-0.1,4.1,0.1
		c13.5,1.2,27,0.2,40.5,0.5c3.6,0.1,7.2,0.2,10.8,0.3c3.8,0.1,7.6,0.2,11.4,0.3c3.8,0.1,7.6,0.2,11.5,0.3c4.7,0.1,9.5,0.1,14.2,0.2
		c1.5,0,3,0.1,4.4,0.1c0.5,0,0.9-0.2,1.4-0.3c0.8-0.1,1.7-0.5,2.3-0.1c1.6,0.9,3.3,0.7,4.9,0.8c2.1,0.1,4.3,0.4,6.4,0.5
		c1.6,0.1,3.2,0.2,4.8,0.2c3.4,0.1,6.8,0.2,10.1,0.3c2.9,0,5.8-0.1,8.6-0.1c3.5,0,7,0.1,10.5,0.1c3.3,0,6.6-0.3,9.9-0.2
		c4.4,0.1,8.8,0.4,13.2,0.5c1.7,0,3.3-0.3,5-0.4c-0.2,0.1-0.4,0.3-0.6,0.4c-1.4-1.7-2.7-3.5-4.1-5.2c-0.8-0.9-0.9-2.3-0.3-3.3
		c0.5-0.8,1.1-1,1.7-0.4c1.1,1.1,2,2.4,3.1,3.4c1.9,1.7,3.9,3.4,6,5c1.2,0.9,1.3,2,0.1,3.1c-1.9,1.7-3.6,3.6-5.5,5.4
		c-1.5,1.5-3.1,2.9-4.8,4.2c-0.5,0.5-1.3,0.7-1.8,1c-0.3-0.4-0.7-0.7-0.9-1c-0.4-0.8-0.6-1.4,0.4-2.2c2-1.6,3.7-3.6,5.5-5.4
		c0.5-0.5,0.9-0.9,1.5-1.5c-1.9,0.2-3.5,0.5-5.2,0.5c-1.8,0.1-3.5,0-5.3,0c-1.7-0.1-3.4-0.3-5-0.4c-3.4-0.2-6.9-0.4-10.3-0.5
		c-0.8,0-1.6,0.2-2.4,0.2c-2,0.1-4,0.3-6.1,0.2c-4-0.1-8-0.3-11.9-0.4c-1.6-0.1-3.3,0-5-0.1c-4.8-0.1-9.5-0.1-14.3-0.3
		c-2.9-0.1-5.9-0.4-8.8-0.5c-3.3-0.1-6.5,0-9.8-0.1c-2.1,0-4.2-0.2-6.3-0.3c-2.1-0.1-4.2,0-6.2,0c-2.9-0.1-5.7-0.3-8.6-0.4
		c-2.1-0.1-4.3,0-6.4-0.1c-0.9,0-1.9-0.2-2.8-0.2c-4.2-0.1-8.3-0.1-12.5-0.2c-2.5,0-5,0-7.5-0.1c-4-0.1-7.9-0.2-11.9-0.2
		c-4.5,0-9.1,0.3-13.6,0.2c-5.8-0.1-11.5-0.5-17.2-0.8c-2.4-0.1-4.8-0.5-7.2-0.5c-5.8,0-11.6,0.2-17.4,0.2c-3.3,0-6.6-0.2-10-0.2
		c-3.9-0.1-7.7-0.3-11.6-0.2c-4.4,0-8.7,0.2-13.1,0.2c-5.4,0.1-10.8,0.2-16.2,0.3c-2.4,0-4.7,0-7,0c-2.7,0-5.4,0.3-8.1,0.2
		c-6.2-0.1-12.3-0.3-18.5-0.5c-4.8-0.2-9.5-0.6-14.3-0.9c-2.1-0.1-4.2-0.1-6.2-0.2c-5.5-0.1-10.9-0.1-16.4-0.3
		c-4.3-0.1-8.7-0.4-13-0.5c-3.1,0-6.3,0-9.4,0.3c-4.5,0.5-8.9,1.4-13.4,1.8c-3.8,0.3-7.7,0.1-11.6,0.4c-2.5,0.1-5,0.6-7.5,0.9
		c-1.9,0.2-3.9,0.5-5.8,0.7c-1.3,0.1-2.7,0-4.2,0c-0.8-1.1-1.2-2.5-1.2-4c0.1-1.9,0.3-3.8-0.9-5.5c-0.4-0.5-0.2-1.8,0.2-2.4
		c0.9-1.6,0.2-3.2,0.3-4.9c0.1-1,0.1-1.9,0.1-2.9c-0.1-1.7-0.2-3.5-0.3-5.2c-0.1-1.6-0.1-3.3-0.3-4.9c-0.1-1.3-0.4-2.6-0.5-3.9
		c-0.1-1.5-0.2-3-0.3-4.5c0-1.1,0.1-2.3,0-3.4c-0.1-2.1-0.2-4.2-0.4-6.3c-0.1-1-0.2-2.1-0.2-3.1c-0.2-4.2-0.3-8.5-0.5-12.8
		c-0.1-2-0.2-4-0.3-6c-0.2-2.9-0.4-5.8-0.6-8.7c-0.2-2.7-0.4-5.4-0.5-8.2c-0.1-1.9-0.2-3.8-0.3-5.6c-0.2-4.3-0.3-8.6-0.6-12.9
		c-0.2-3.6-0.7-7.2-1.1-10.8c-0.3-3.1-0.5-6.2-0.8-9.3c-0.3-2.5-0.9-5-1.3-7.5c-0.3-2.4-0.4-4.8-0.6-7.2c-0.2-2.3-0.5-4.5-0.8-6.8
		c-0.3-2.6-0.7-5.2-1.1-7.8c-0.4-3.2-0.9-6.5-1.2-9.7c-0.3-2.3-0.4-4.5-0.7-6.8c-0.2-2.5-0.5-5-0.8-7.5c-0.2-2.4-0.4-4.8-0.7-7.1
		c-0.2-2.1-0.7-4.2-0.9-6.4c-0.3-2.5-0.5-5-0.8-7.4c-0.3-2.5-0.7-5-1.1-7.4c-0.4-2.6-0.9-5.2-1.3-7.7c-0.3-1.9-0.7-3.8-1-5.7
		c-0.4-2.7-0.8-5.5-1.2-8.2c-0.2-1.6-0.5-3.1-0.8-4.7c-0.5-2.8-1.1-5.7-1.6-8.5c-0.5-2.5-1.1-5.1-1.5-7.6c-0.2-1.3-0.2-2.7-0.4-4
		c-0.3-1.6-0.7-3.1-1.1-4.7c-0.2-0.6-0.2-1.3-0.3-1.9c-0.3-2.2-0.6-4.4-1-6.5c-0.3-1.5-0.9-3-1.4-4.5C52.1,35,51.7,33.6,51.2,31.8z"
		/>
	<path d="M484.6,340.2c-0.7-0.5-1.4-1.1-2.1-1.6c-0.1-0.1-0.2-0.5-0.1-0.6c1.2-2-0.3-3.1-1.6-4.6c-0.8,1.7-1.7,3.4-2.5,5.1
		c-0.3,0.6-0.6,1.3-0.8,1.9c-0.3,0.8-0.8,1.5-1.6,1.1c-0.6-0.4-1.4-1.6-1.2-2.2c1.3-3.4,2.8-6.6,4.3-10c-2-1.4-2-3.4-1.4-5.6
		c2.4-0.5,3.1,1.2,3.9,3c0.4-0.3,0.7-0.4,1-0.7c0.7-0.6,1.2-1.5,2-1.9c0.6-0.3,2-0.4,2.1,0c0.4,0.7,0.7,1.7-0.1,2.5
		c-0.9,0.9-1.7,1.7-2.6,2.6c-0.5,0.5-0.7,0.8-0.2,1.6c1,1.4,1.9,3,2.7,4.5c0.6,1.1-0.3,2-0.7,2.9
		C485.5,338.9,485.1,339.5,484.6,340.2z"/>
	<path d="M25.8,32.8c-0.4,0.5-0.7,0.9-1.1,1.3c-1.1,1.3-2.5,1.4-4.1,1.2c-0.4-0.1-0.9,0-1.3-0.1c-1.9-0.1-3.3-2-2.9-3.9
		c0.2-0.9,0.2-1.8,0.4-2.6c0.2-1.6,2-2.4,3.4-1.7c-0.3,1.2-0.8,2.5-1,3.8c-0.3,1.8,0.9,2.7,2.6,1.9c1.5-0.7,1.8-2.1,2-3.6
		c0.1-0.7,0.1-1.5,0.5-1.9c1-0.8,2.6-0.1,3,1.2c0.4,1.3,0.9,2.5,1.3,3.7c0.5,1.9,1.1,3.9,1.4,5.9c0.3,2-1.3,4.3-3.3,4.7
		c-0.9,0.2-1.9-0.2-2.8-0.6c-1-0.4-1.8-1.1-2.6-1.8c-0.3-0.2-0.3-0.8-0.4-1.2c0.4,0,0.9-0.2,1.3-0.1c1.1,0.2,2.2,0.6,3.3,0.8
		c1.3,0.2,1.7-0.6,1.6-1.7c-0.2-1.5-0.5-2.9-0.8-4.4c0-0.3,0-0.5-0.1-0.8C26,33,25.9,32.9,25.8,32.8z"/>
</g>
<g>
	<path class="st1" d="M337.6,9.8c-1.9,1.6-3.9,3.3-5.8,4.9c-1.7,1.5-3.5,2.9-5.1,4.4c-1.9,1.8-3.7,3.7-5.6,5.5
		c-3.1,3.1-6.3,6.2-9.5,9.2c-3.2,3-6.4,5.9-9.7,8.9c-4.4,4-8.9,8-13.4,12c-2.3,2.1-4.7,4-7.1,6c-1,0.9-2.1,1.6-3,2.6
		c-2.5,2.4-4.9,5-7.5,7.4c-2.6,2.4-5.4,4.6-8,6.9c-1.1,1-2.3,1.9-3.5,2.9c-1.4,1.2-2.7,2.4-4.1,3.6c-1.5,1.3-3.1,2.4-4.6,3.8
		c-4.4,4-8.8,8-13.1,12c-2.5,2.3-4.9,4.7-7.5,6.9c-2.6,2.2-5.3,4.3-7.9,6.4c-2,1.6-3.9,3.3-5.9,5c-2.9,2.5-5.9,5-8.8,7.5
		c-2.6,2.2-5.2,4.5-7.9,6.8c-1.6,1.4-3.2,2.6-4.8,4c-1.1,1-2.1,2.1-3.2,3.2c-1.8,1.8-3.6,3.6-5.5,5.2c-4.2,3.8-8.5,7.4-12.8,11.2
		c-3.1,2.7-6.2,5.4-9.2,8.2c-1.3,1.2-2.3,2.8-3.5,4.2c-1.2,1.3-2.4,2.5-3.7,3.7c-2.1,1.9-4.3,3.7-6.4,5.6c-2.5,2.3-5,4.8-7.5,7.2
		c-2.4,2.2-4.9,4.4-7.2,6.7c-1.6,1.6-3,3.5-4.5,5.2c-1.3,1.5-2.8,2.9-4.1,4.4c-2,2.2-4,4.5-6.1,6.8c-0.9,1-2,1.8-2.9,2.8
		c-1.4,1.4-2.7,2.9-4.1,4.3c-2.6,2.6-5,5.4-7.1,8.4c-1.3,1.9-3,3.4-4.3,5.2c-2,2.8-3.8,5.7-5.8,8.5c-1.9,2.5-4,4.9-6,7.4
		c-0.8,1-1.3,2.1-2,3.1c-0.9,1.3-1.8,2.8-2.9,3.9c-1.3,1.2-1.6,2.7-1.8,4.3c-0.1,0.4-0.4,0.8-0.6,1.1c-0.2-0.1-0.3-0.1-0.5-0.2
		c0-1.8-0.1-3.7,0.1-5.5c0.1-0.7,0.6-1.3,1.1-1.9c0.7-1,1.6-1.9,2.3-2.9c1.8-2.3,3.7-4.6,5.4-7c2-2.8,3.7-5.8,5.8-8.5
		c2.3-3.1,4.7-5.9,7.1-8.9c1.3-1.6,2.6-3.3,3.9-4.8c1.3-1.4,2.7-2.8,4-4.2c0.9-1,1.9-2.1,2.8-3c1.9-1.9,3.8-3.8,5.7-5.7
		c1-1.1,2-2.2,3-3.2c2.5-2.7,5-5.4,7.6-8.1c2.4-2.5,4.7-5,7.1-7.4c1.8-1.7,3.7-3.2,5.5-4.8c1.3-1.2,2.5-2.5,3.8-3.7
		c2.7-2.5,5.5-4.8,8.1-7.4c2.4-2.3,4.5-5,6.9-7.3c2.1-2.1,4.4-4.1,6.7-6.2c2.2-2,4.6-3.8,6.8-5.8c2.3-2,4.5-4.2,6.8-6.2
		c2.4-2.2,4.9-4.4,7.4-6.6c1.1-1,2.1-2.2,3.2-3.2c3.5-3,7-5.9,10.5-8.9c1.7-1.5,3.4-3.1,5.2-4.5c5-4.2,10-8.4,14.9-12.6
		c3-2.6,6-5.2,8.9-7.8c4.4-3.9,8.8-7.9,13.2-11.8c2-1.7,4-3.3,6-5c4.2-3.6,8.5-7.1,12.6-10.8c1.6-1.4,2.8-3.2,4.3-4.9
		c0.1,0.1,0.4,0.2,0.6,0.3c1.7-1.7,3.3-3.3,5.1-4.9c1.6-1.4,3.2-2.7,4.9-4.1c1.1-0.9,2.2-1.8,3.2-2.7c2.4-2.2,4.7-4.5,7-6.7
		c1.6-1.5,3.4-2.8,5.1-4.3c1-0.9,2-1.8,3-2.8c3.7-3.2,7.4-6.5,11-9.7c1.4-1.3,2.6-2.9,4-4.2c2.5-2.4,5-4.7,7.5-7
		c0.3-0.3,0.5-0.7,0.8-1c2.5-2.7,4.9-5.4,8-7.5c0.8-0.6,1.5-1.4,2.2-2.1c0.8-0.7,1.6-1.3,2.4-1.9c0.6-0.5,1.2-1,1.7-1.6
		c1-1.1,2.2-1.5,3.1-0.5c0.5,0.5,0.2,1.7,0.2,2.6c0,0.1-0.8,0.1-1.2,0.1C338,9.9,337.8,9.9,337.6,9.8z"/>
</g>
<g>
	<path class="st2" d="M182,24c1.3-1.2,1.9-1.3,3.1-0.4c0.2,0.1,0.4,0.4,0.5,0.6c0.5,1.6,1,3.1,1.4,4.7c0.5,2,2.6,3.1,4.5,2.4
		c0.7-0.3,1.5-0.4,2.3-0.5c-0.1-1-0.4-1-4.6-0.3c-0.1-0.6-0.5-1.3-0.4-1.8c0.3-1,1.2-1.1,2.1-1c2.2,0,2.3-0.3,1.5-2.3
		c-0.3-0.8-0.4-1.8-0.3-2.7c0.1-0.5,0.6-1.1,1.1-1.3c0.4-0.2,1,0.2,1.6,0.3c0.1,0,0.3,0.2,0.3,0.4c0.2,1.4,0.3,2.8,0.5,4.2
		c0.1,0.5,0.2,0.8,0.9,0.7c2.1-0.5,4.2-0.9,6.2-1.5c0.6-0.2,1-0.8,1.4-1.3c1.3-1.6,2.4-1.4,4.1-0.2c1.4,1,1.8,2,1.6,3.5
		c0,0.2,0.3,0.6,0.6,0.7c1.1,0.8,2.2,1.6,3.4,2.3c-0.6,1.9-1.5,2.3-3.8,1.3c-0.4-0.2-0.9-0.4-1.2-0.7c-0.7-0.5-1.2-0.4-1.9,0.2
		c-0.6,0.5-1.2,0.9-1.9,1.3c-1.6,0.8-3.2-0.1-3.3-1.9c-0.1-0.9,0.1-1.8,0.1-3c-1.7,0.5-3.4,1.1-5.1,1.6c-0.1,1.2,0.1,2.1,1.2,3
		c1.1,0.9,0.1,1.7-0.4,2.3c-0.1,0.2-1.2,0-1.6-0.4c-0.7-0.7-1.2-1.7-1.8-2.5c-1.2,1.8-3,2.9-5.4,2.7c-0.9-0.1-1.9-0.6-2.7-1.2
		c-0.7-0.5-1.1-0.6-1.7,0c-1,0.9-2.1,1.7-3.3,2.5c-1.2,0.7-2.4,0.3-3.3-0.5c-0.7-0.6-1.2-0.9-2.1-0.9c-0.9,0-1.8-0.8-2.7-1.2
		c-0.3-0.2-0.6-0.3-0.9-0.5c-1.3,2.1-3,3.6-5.4,4.3c-1.3,0.4-2.8-1-3.3-2.8c-0.7-2.7,0.4-4.9,1.5-7.2c0.2-0.4,0.5-0.6,0.7-1
		c0.6-1.1,1.3-1.8,2.6-1.2c0.2,0.1,0.4,0,0.6,0c0.2-2.1,0.4-4.2,0.8-6.2c0.2-0.9,0.7-1.8,1.1-2.7c0.4-0.9,1.2-1.3,2.2-1
		c0.6,0.2,0.7,1.7,0.2,2.5c-1.5,2.6-1.6,5.5-1,8.4c0.1,0.4,0.4,1,0.6,1.1c1.2,0.2,1,1.1,0.9,1.9c-0.1,1.2,1.2,3.2,2.4,3.3
		c0.3,0,0.8-0.5,0.8-0.8c0.3-1.5,0.3-3.2,0.9-4.6c0.4-1.1,1.5-1.9,2.4-2.7C180.5,23.5,181.3,23.9,182,24z M165.9,31.7
		c0,1.9,0.3,2.2,1.8,1.8c0.8-0.2,1.6-0.9,2.3-1.5c0.9-0.8,0.7-1.7,0.2-2.7c-0.3-0.5-0.4-1.1-0.5-1.7c-0.2-1.1-0.5-1.3-1.5-0.7
		C166.1,28,166.2,30.1,165.9,31.7z M182.1,25.6c-1.5,1.4-2.4,3-2.6,4.9c-0.1,0.6-0.1,1.5,0.2,1.9c0.7,0.9,1.8,0.3,2.5-0.1
		c0.7-0.5,1.7-1.5,1.6-2.1C183.6,28.8,182.7,27.3,182.1,25.6z M204.4,29.5c2.4-0.7,2.8-1.5,1.7-3.3
		C205.6,27.4,205.1,28.4,204.4,29.5z"/>
	<path class="st1" d="M384.9,92.4c0-0.6,0-1.4,0-2.2c0.1-1.5,0.1-2.9,0.3-4.4c0.2-1.1,1.2-1.1,2-0.9c0.7,0.2,0.9,0.6,0.7,1.5
		c-0.2,1.2,0,2.5,0.2,3.8c0.3,1.7,0.7,3.3,1,5c0.2,1.3,1.1,2.1,2,3c0.5,0.6,0.8,1.3,1.3,2.1c-3,1.5-4-1.2-5.5-2.1
		c-0.7,1.2-1.2,2.4-2.1,3.3c-1.8,1.8-2.6,2.2-4.4,0.7c-0.3-0.3-0.5-0.7-0.7-1.1c-1.9,1.1-3.9,2.2-5.8,3.2c-1.5,0.8-3.6,0.2-4.5-1
		c-1.1-1.4-1.1-1.4-2.6-0.2c-1.5-3.1-3-6.1-4.6-9.2c-1.2,1.7-2.5,3-2.5,5.1c0,0.7-0.9,1.5-1.6,2.2c-0.4,0.4-1.8-0.6-1.8-1.4
		c0.1-2.1,0.3-4.2,0.6-6.4c0-0.3,1-0.7,1.1-0.6c1.2,1.2,1.8,0.1,2.4-0.6c1.2-1.2,2.2-1.5,3.1-0.7s1.6,1.8,2.2,2.8
		c0.8,1.4,1.4,2.9,2,4.3c0.3-0.3,0.5-0.8,0.8-0.7c2.5,0.2,3.6-1.6,4.7-3.3c1-1.4,2.2-2.3,3.8-2.1c0.6,0.1,1.4,0.6,1.7,1.2
		c0.3,0.4,0.1,1.2-0.1,1.8c-0.7,2.1-2.8,2.5-4.4,3.6c-0.8,0.6-1.6,1.3-2.3,1.9c0.7,1.3,1.5,1.4,2.5,1c1.6-0.7,3.2-1.3,4.8-2
		c0.4-0.2,0.8-0.8,1-1.2c0.5-1.2,0.8-2.5,1.3-3.7c0.4-0.9,0.9-1.8,1.5-2.4C383.2,92.1,384.1,92.4,384.9,92.4z M385.2,94.1
		c-1.7,1.5-2.2,3.4-2.5,5.5C384.2,99.4,385.6,96.2,385.2,94.1z"/>
	<path class="st1" d="M345.7,99.7c0.1-0.4,0.3-0.8,0.3-1.2c-0.3-3.6,1.4-6.3,4-8.5c0.7-0.6,1.7-0.8,2.6-1.1c0.3-0.1,1.1,0.3,1.2,0.6
		c0.1,0.4-0.2,1.1-0.6,1.3c-2.8,1.6-3.9,4.1-3.7,7.2c0,0.9-0.2,2.1-0.8,2.8c-0.6,0.8-1.7,1.4-2.7,1.8c-1.2,0.4-2.4,0-3.2-1.1
		c-0.5-0.6-0.9-0.6-1.4,0c-0.2,0.2-0.4,0.5-0.7,0.7c-1.3,1.1-1.8,1-2.8-0.4c-0.6-0.8-2.2-0.6-3.1,0.5c-1.2,1.4-3.7,1.5-5.4,0.8
		c-1.9-0.7-2.8-1.9-3.1-3.7c-0.1-0.7-0.3-1.5-0.2-2.2c0.1-0.8,0.6-1.5-0.2-2.1c0.3-0.4,0.7-1.2,0.9-1.2c1.1,0.2,1.6-0.7,2.2-1.2
		c0.6-0.6,1.2-1.3,1.8-2c2.3-2.6,5.2-0.8,6.6,1c1,1.3-0.1,3.6-2.6,4c-1.4,0.2-2.7,0.7-4,0.8c-1.7,0.2-1.5,1.5-1.6,2.4
		c-0.1,1,0.8,1.7,1.8,1.9c1.2,0.3,2.5,0,3.5-0.5c1-0.4,2.5-0.3,3-1.7c0.3-0.9,0.6-1.9,1.1-2.8c0.5-0.9,1.2-1.8,1.9-2.6
		c0.1-0.1,1,0.5,1.5,0.8c0.3,0.2,0.6,0.5,0.9,0.7c0.9,0.5,1.5,1.1,1.6,2.2c0.1,1,0.5,2,0.8,3C345.4,99.7,345.5,99.7,345.7,99.7z
		 M341.1,95.9c-0.3,1.1-0.6,1.9-0.9,3C341.6,98.2,341.7,97.7,341.1,95.9z"/>
	<path class="st3" d="M173.6,63.5c0.4-1.1,0.6-2,1-2.8c0.6-1.2,1.3-2.4,2-3.5c0.4-0.7,1.2-0.8,1.9-0.3c0.7,0.5,1.4,0.5,2.2,0.2
		c0.9-0.3,1.5,0,1.7,0.8c0.4,1.3,0.9,2.6,1.1,3.9c0.2,1.9,1.9,3,3.6,2.5c0.4-0.1,1.1,0.2,1.5,0.5c0.1,0.1-0.1,0.9-0.3,1.3
		c-0.7,1-3.2,1.7-4.2,1c-1.3-0.9-2.5-1.9-3.9-3c-0.5,0.5-1.3,1.3-2.1,2c-1.3,1.2-2.5,1.3-3.9,0.4c-1.2-0.8-2.3-1.7-3.4-2.6
		c-0.2-0.2-0.4-0.6-0.6-1c-1.1,0.9-2.1,1.9-3.4,2.7c-1.2,0.8-2.7,0.5-3.6-0.3c-1.1-1.1-1.3-2.3-0.7-3.6c0.8-1.6,1.5-3.3,2.3-4.9
		c0.8-1.5,1.7-1.8,3.6-0.8c-0.4-1.8-0.6-3.3-0.9-4.8c-0.3-1.3,0.3-2.2,1.5-2.2c1.3,0,1.4,1,1.5,1.8c0.6,4.2,0.9,8.4,2.8,12.3
		C173.2,63.1,173.3,63.2,173.6,63.5z M165.5,63.3c1.3-0.9,3.1-1,3.6-2.8c0.3-1.3-0.3-2.3-1.7-2.6C165.5,59.5,164.6,61.8,165.5,63.3z
		 M179.1,59.8c-1.2,0.5-2.3,2.1-2.2,3.4c1-0.8,1.9-1.5,2.8-2.3C179.5,60.5,179.3,60.2,179.1,59.8z"/>
	<path class="st3" d="M122.6,65.6c-0.5-1.5-1.2-2.6-1.2-3.8c0-2.3,1.1-4.3,3.2-5.4c0.5-0.3,1.5,0.2,2.2,0.4c0.2,1.4-0.4,2-1.3,2.5
		c-1.4,0.8-1.6,2.8-0.6,4.1c0.2,0.2,0.3,0.4,0.5,0.6c1.3,1.9,1,3-1.1,4.1c-0.4,0.2-1,0.3-1.4,0.2c-1-0.2-2.1-0.7-3.1-1
		c-0.2-0.1-0.5,0.1-0.7,0.2c-1.4,0.5-2.8,1.1-4.3,1.3c-2.7,0.4-5.5-2-4.9-5.1c-1.1,0-2.2-0.1-3.3,0.1c-0.2,0-0.5,0.8-0.5,1.2
		c0.1,0.7,0.6,1.4,0.6,2.1c0.1,0.6-0.3,1.1-0.5,1.7c-0.6-0.2-1.3-0.3-1.7-0.8c-0.5-0.7-0.7-1.6-1-2.3c-0.4-1.1-0.6-2.3-2.4-2.3
		c-0.7,0-1.5-0.8-2.2-1.4c-0.3-0.2-0.3-1-0.2-1.3c0.2-0.3,0.9-0.4,1.3-0.4c0.7,0.1,1.4,0.4,2.1,0.6c0-1-0.2-2,0.1-2.8
		c0.2-0.5,0.8-1.1,1.4-1.3c0.8-0.2,0.9,0.6,1,1.2c0.1,0.8,0,1.6,0.3,2.3c0.2,0.4,0.9,1,1.4,0.9c2.3-0.1,4.9,0.4,6.7-1.9
		c0.8-1.1,2.1-1.4,3.5-0.8c0.3,0.1,0.7,0.2,1,0.3c0.9,0.3,2,0.5,2,1.8c0,1.2-0.5,2.2-1.7,2.7c-1.5,0.6-3,1.1-4.5,1.6
		c0.1,0.9,1.7,1.8,3.1,1.3c0.9-0.3,1.8-0.8,2.4-1.5c0.6-0.7,1.1-0.7,1.8-0.2C121.1,65,121.8,65.3,122.6,65.6z"/>
	<path class="st1" d="M489.3,105.6c-1.7-1.7-1.3-4.1-2.1-6.1c-0.1-0.3-0.2-0.7-0.5-0.9c-0.9-0.4-3.5,1.2-3.6,2.1
		c0,1.6-1.9,3.4-3.4,2.8c-1.3,2.5-3.2,4.2-6.1,4.4c-2.3,0.2-3.4-1.6-2.5-3.8c0.4-1,0.7-2.1,0.9-3.2c0.1-0.6,0-1.3,0.1-1.9
		c0-0.5,0.1-1.1,0.4-1.4c0.6-0.6,1.4-1.4,2-1.3c1.3,0.1,2-0.7,2.8-1.3c0.9-0.7,1.7-0.7,2.4,0.2c1,1.3,2,1.4,3.5,0.9
		c1.2-0.4,2.6-0.7,3.9-0.8c2.5-0.1,3.8,1.1,3.9,3.7c0.1,1.4,0.2,2.8,0.3,4.1C491.3,104.6,490.6,105.3,489.3,105.6z M478.6,101.1
		c0.1-0.1,0.3-0.2,0.4-0.2c-0.4-0.7-0.6-1.5-1.1-2.1c-0.2-0.3-0.6-0.3-1-0.5c-0.1,0.4-0.3,0.9-0.1,1.2
		C477.3,100,478,100.5,478.6,101.1z"/>
	<path class="st3" d="M206.9,63.6c0.7,0.2,1.6,0.2,2,0.7c0.7,0.9-0.1,2-1.4,2.2c-1.4,0.2-2.7-0.3-3.9-1.1c-0.6-0.4-1.2-0.8-1.6-1
		c-1.4,1-2.5,2-3.8,2.8c-1.3,0.7-3.4-0.8-3.4-2.5c0-1.2,0.4-2.5,0.6-3.8c-1.1,0.3-2.3,0.6-3.4,0.9c-1,0.3-0.9,1-0.2,1.5
		c1.1,0.8,0.4,1.4,0,2c-0.5,0.8-1.3,1.1-2,0.3c-0.7-0.8-1.1-1.8-1.7-2.7c-0.9,0.6-2.2,1.1-2.6-0.4c-0.5-1.6,1.4-1.7,2.3-2.4
		c0-0.7-0.1-1.5,0.1-2.2c0.1-0.5,0.8-1.3,1.2-1.3c0.5,0,1.6-0.1,1.5,1.2c-0.1,0.5,0.2,1,0.3,1.7c1.1-0.2,2.3-0.4,3.4-0.7
		c2.2-0.7,4.4-1.4,6.3-2.7c0.4-0.3,1.3,0.2,2,0.4c-0.1,0.5-0.3,1-0.4,1.5c-0.1,0.5-0.2,1.1,0.1,1.4c1.4,1.7,2.8,3.3,4.2,4.9
		C206.5,64.1,206.7,63.9,206.9,63.6z M197.6,64.1c2.7-0.8,3.1-1.7,1.7-3.2c-0.3,0.5-0.5,1-0.8,1.5C198.2,62.8,197.9,63.3,197.6,64.1
		z"/>
	<path d="M346.1,69.9c-1-0.3-1.7-0.6-2.6-0.9c-0.5,0.3-1.1,0.8-1.8,1.2c-1.6,1-3.3,0.2-4.3-0.7c-1.6-1.4-2.3-0.1-3.1,0.5
		c-1.4,1-3.9,1-4.9-0.4c-2.4-3.2-0.6-7.5,2.1-9.4c0.3-0.2,0.7-0.1,1.1-0.1c0.9,0,1.7,0.1,2.5,0.1c1.2,0.1,1.9,0.8,2.2,1.8
		c0.2,0.7,0.3,1.5,0.3,2.2c0.1,2.5,2.3,4.2,4.8,3.5c0.2-0.1,0.5-0.1,0.9-0.1c-0.2-0.4-0.4-0.8-0.6-1.1c-0.3-0.9-1.2-1.9,0.3-2.6
		c0.4-0.2,0.7-0.9,0.9-1.4c1-2.3,2.8-3.7,5.2-3.6c0.4,0,1,0.4,1,0.7c0,0.5-0.3,1.3-0.6,1.3c-2.9,0.7-2.6,3-2.9,5.2
		C346.7,67.3,346.4,68.5,346.1,69.9z M333,63c-1.3,0-2.3,2.4-2,3.9c0.3,1.1,1.3,1.2,1.8,1.1c0.7-0.2,1.8-1.1,1.7-1.6
		c-0.1-1.2-0.7-2.3-1.2-3.4C333.4,62.9,333.1,63,333,63z"/>
	<path d="M380.9,63.5c-2.9,1.9-5.6,3.7-8.4,5.5c-1.4,0.9-4.3,0.6-5.4-0.5c-1.4-1.3-1.6-2.9-1.1-4.7c0.7-2.8,2.9-4.2,5.2-5.2
		c0.8-0.3,2.1,0.2,3.1,0.5c0.6,0.2,0.4,1.9-0.4,2.5c-1.5,1.1-3.1,2.1-4.9,3.2c-0.1,1.5,1,2.5,3,1.9c1.5-0.5,2.8-1.2,4.2-1.9
		c1.1-0.6,1.1-0.7,0.5-2.1c1.2-0.5,2.3-1,3.3-1.5c0-1.3-0.1-2.4,0-3.5c0.1-0.5,0.6-0.9,1-1.3c0.5,0.5,1.1,0.8,1.3,1.4
		c0.4,0.8,0.5,1.8,0.7,2.8c2.4-1.1,4.6-2.1,6.9-3.1c0.1,0.2,0.3,0.3,0.4,0.5c-0.3,0.5-0.4,1.1-0.8,1.3c-1.7,1.2-3.5,2.3-5.3,3.6
		c-0.3,0.2-0.3,0.9-0.3,1.3c0,0.9,0.4,1.9,0.3,2.7c-0.1,0.6-0.8,1.3-1.3,1.4c-0.5,0.1-1.2-0.3-1.1-1.4
		C381.9,65.9,381.3,64.8,380.9,63.5z"/>
	<path class="st1" d="M413.8,94.1c-0.1-3.1,0.8-5.8,2.6-8.2c0.9-1.1,2.2-0.5,3.2,0c0.8,0.4,1.4,1.2,2,1.9c0.2,0.2,0.3,0.8,0.2,0.9
		c-0.2,0.2-0.7,0.3-1.1,0.4c-0.2,0-0.4-0.1-0.6-0.2c-2.5-1.2-2.7-0.5-3.3,1.6c-0.4,1.2-0.5,2.6-0.8,4.3c1.9-0.2,3.4-0.3,5-0.4
		c1-0.1,1.9-0.1,2.9-0.2c0.1,0,0.1,0.1,0.2,0.1c0.8,0.3,2.2-1.3,2.5,0.8c0.1,1,0.4,2,0.5,3c0.1,1.2,0.8,0.5,1.5,0.6
		c-0.1-0.8-0.4-1.5-0.3-2.2c0.1-0.6,0.3-1.5,0.8-1.8c0.7-0.4,1.4-0.1,1.7,0.9c0.1,0.5,0.5,1,0.7,1.6c0.8,1.6,0.3,3-1.3,3.7
		c-0.9,0.4-1.9,0.9-2.8,1c-1.9,0.1-2.6-0.8-2.7-2.7c0-0.6,0-1.3,0-1.9c-0.1-0.6-0.2-1.2-0.4-1.8c-1.6,0.6-3.2,1.1-4.8,1.6
		c-0.3,0.1-0.6,0.2-0.9,0.3c-1.5,0.2-2,1.2-1.2,2.6c0.4,0.7,0.8,1.3,1,2c0.1,0.4-0.2,0.8-0.4,1.3c-0.4-0.2-0.9-0.3-1.1-0.6
		c-0.9-1.6-1.8-3.1-2.5-4.8c-0.5-1.3-1.4-0.8-2.2-0.7c-1.3,0.2-2.9-0.8-2.7-2c0.1-0.7,0.3-1.3,1.3-0.9
		C411.8,94.6,412.9,94.8,413.8,94.1z"/>
	<path class="st1" d="M435.3,94.7c1.7-1,3.1-0.2,4.5,1.1c1.2,1.1,2.7,2,4.1,3c1-1.8,1.8-3.3,2.7-4.9c0.9-1.7,2.6-2,4.1-0.9
		c0.8,0.6,0.8,1.7-0.2,1.9c-1.9,0.5-2.6,1.8-2.9,3.5c-0.1,0.8-0.2,1.9,0.2,2.3c0.5,0.5,1.6,0.5,2.4,0.3c0.9-0.2,1.7-1,2.6-1.4
		c0.5-0.2,1.4-0.3,1.8,0c0.6,0.5,0.3,1.1-0.3,1.7c-1.5,1.5-3.2,2.6-5.3,2.8c-2,0.2-3.5-0.6-4.3-2.6c-0.1-0.3-0.3-0.6-0.5-1
		c-2.6,0.5-4.8-0.7-6.5-2.4c-0.8,0.9-1.3,1.7-2,2.3c-0.4,0.3-1.2,0.8-1.5,0.6c-0.5-0.3-1.3-1.2-1.2-1.6c0.4-1.7-0.8-2.8-1.2-4.2
		c-0.1-0.3-0.2-0.7-0.3-1c0-1.1,0.4-1.4,1.4-0.9C433.9,93.7,434.5,94.2,435.3,94.7z"/>
	<path d="M415.6,61.5c-1.4,0.2-2.9,0.3-4.4,0.5c0.7,1.8,1.3,3.7,2,5.6c-1.9,0.5-2.4-1-3.2-1.7c-0.8-0.7-1.2-1.9-1.8-2.9
		c-0.3-0.5-0.4-1-1.4-0.8c-1.7,0.3-3,0.4-3.6-1c-0.1-0.3-0.2-1,0-1.2c0.5-0.4,1.1-0.8,1.7-0.7c0.9,0,1.8,0.4,2.4,0.5
		c1.4-2.3,2.5-4.4,3.9-6.2c1-1.3,2.3-2.4,3.5-3.4c0.4-0.3,1.3,0,2.4,0c-0.5,0.8-0.7,1.3-1.1,1.6c-2.4,1.6-3.5,4.1-5.1,6.4
		c-0.1,0.2-0.1,0.7,0,0.9c0.2,0.2,0.6,0.4,0.9,0.3c1.3-0.3,2.5-0.6,3.8-1c1.2-0.3,3,1.2,3.2,2.7c0,0.3,0.3,0.5,0.5,0.8
		c0.2-0.3,0.7-0.5,0.6-0.8c0-0.9,0.3-1.4,1.1-1.6c1-0.3,1.6,0.4,2,1c0.3,0.4,0.4,1.2,0.2,1.6c-0.4,0.9-1,1.7-1.7,2.4
		c-1.4,1.3-3,1.2-4.3-0.3C416.8,63.3,416.2,62.4,415.6,61.5z"/>
	<path class="st2" d="M96.3,19.8c1.7,0.2,2.2,1,2.1,2.5c-0.1,2.2,0,4.4,0,6.8c0.4-0.2,1.1-0.3,1.4-0.6c1.7-1.4,3.7-0.7,5.5-0.9
		c0.6-0.1,1.4,0.8,1.1,1.9c-0.2,0.7-0.3,1.7-0.8,2.1c-0.7,0.5-1.5,0-2.1-0.7c-0.2-0.3-0.9-0.4-1.2-0.3c-1.1,0.4-2.1,0.8-3.1,1.4
		c-0.2,0.1-0.3,0.7-0.2,1c0.4,1.5,0.8,3,1.5,4.4c0.5,1.1,0.1,1.8-0.8,2.3c-0.9,0.5-1.8-0.2-2.2-1.3c-0.4-1.6-0.8-3.2-1.2-4.8
		c-0.2-0.9-0.8-0.8-1.5-0.5c-1.2,0.4-2.4,0.6-3.6,0.8c-1,0.2-1.4-0.5-1.4-1.3c0-0.8,0.1-1.5,1.1-1.6c1.2-0.2,2.3-0.4,3.5-0.7
		c1.2-0.3,1.5-0.9,1.1-2.1C94.7,25.2,95.2,22.5,96.3,19.8z"/>
	<path class="st1" d="M464.8,99.1c-1.1-0.3-2-0.7-3-0.9c-0.3-0.1-0.8,0-0.9,0.2c-0.2,0.2-0.1,0.7,0,1c0.4,1.4,0.9,2.8,1.2,4.3
		c0.1,0.4-0.4,1.3-0.7,1.3c-0.7,0.1-1.7,0.5-2-0.6c-0.5-1.4-1.1-2.9-1.5-4.3c-0.2-0.9-0.6-1.1-1.5-1.2c-0.7-0.1-1.5-0.3-2.1-0.7
		c-0.4-0.2-0.7-1-0.6-1.3c0.2-0.4,0.5-1,1.4-0.7c1.8,0.5,2.2-0.1,1.8-1.9c-0.2-0.8-0.4-1.8,0.6-2.2c1.1-0.5,1.6,0.4,2.2,1.1
		c0.1,0.1,0.1,0.2,0.1,0.4c0.2,2.2,1.8,2.3,3.5,2.6c1.7,0.3,3.4,0.6,4.8,1.9c0.8,0.8,1,1.5,0.6,2.4c-0.6,1.3-1.1,2.5-0.6,4.1
		c0.2,0.6,0.4,1.6-0.8,1.8c-1,0.2-1.5-0.1-2-1.1C464.5,103.1,464.3,101.3,464.8,99.1z"/>
	<path d="M356.4,71.8c2-0.6,2.5-3.1,2.4-5c-0.5,0.4-1,0.8-1.5,1.2c-0.9,0.8-2.1,1-2.8,0.4c-0.8-0.7-1.6-2.2-1.3-3.1
		c0.5-1.9,1.6-3.7,2.6-5.5c0.5-1,1.7-0.9,2.4-0.6c1.1,0.5,2.1,1.4,3.1,2.2c0.2,0.2,0.3,0.5,0.3,0.8c0.1,1.7,0.3,3.5,0.3,5.2
		c-0.1,2.8-1.5,5-3.5,6.7c-0.9,0.8-2.5,0.5-3.4-0.5c-0.3-0.4-0.8-0.7-1-1.1c-0.2-0.5-0.1-1-0.2-1.6c0.5,0,1-0.1,1.5,0
		C355.7,71.1,356,71.5,356.4,71.8z M357.7,62.6c-1.1,0.8-1.7,1.6-1.5,3.1C358.4,64.3,358.5,64.2,357.7,62.6z"/>
	<path d="M320.9,65.1c0.4,1.6,0.8,3,1,4.4c0.1,0.6-0.3,1.5-0.8,1.7c-0.7,0.4-1.4-0.1-1.6-1c-0.3-1.4-0.6-2.7-1.1-4.1
		c-0.1-0.4-0.6-0.9-0.9-1c-1.5-0.3-3-0.4-4.5-0.6c-1.1-0.1-1-1.1-1-1.7c0-0.4,0.9-1,1.4-1c1-0.1,2.1,0.2,3.2,0.3c0.3,0,0.6,0,0.9,0
		c0-0.4,0-0.8-0.1-1.1c-0.4-1.4-0.9-2.7-1.3-4c-0.4-1.4,0.4-2.3,1.8-2.1c0.3,0,0.7,0.4,0.8,0.7c0.6,2,1.1,4.1,1.7,6.2
		c0.1,0.2,0.5,0.6,0.7,0.6c1.7-0.3,3.5-0.4,4.9-1.6c0.3-0.2,1-0.3,1.3,0c0.5,0.3,0.9,1,0.1,1.5c-0.7,0.5-1.4,1.2-2.2,1.5
		C323.9,64.3,322.4,64.6,320.9,65.1z"/>
	<path class="st2" d="M116.5,33.7c0.8-2.9,1.4-5.4,3.7-7c0.8-0.6,1.7-0.7,2.3,0.5c0.2,0.3,0.6,0.6,1,0.8c1.2,0.4,1.4,1.4,1.7,2.4
		c0.3,1.2,0.8,2.3,1.4,3.4c0.2,0.3,0.9,0.5,1.4,0.6c0.8,0.2,1.2,0.6,0.7,1.5c-0.6,1.1-1.5,1.4-2.6,1.1c-0.7-0.2-1.5-0.5-1.9-1.1
		c-0.9-1.1-1.8-0.8-2.5-0.1c-1.1,1.3-2.7,1.3-3.8,0.7C117.1,36.1,116.9,34.6,116.5,33.7z M121.7,29.1c-1.4,1.3-2.3,2.6-2.2,4.3
		c2.1,0.2,2.8-0.1,2.6-1.4C122.1,31.1,121.9,30.2,121.7,29.1z"/>
	<path class="st3" d="M362.3,210.1c1.5-2.1,3-4.1,6.1-2.8c-0.2,0.4-0.4,0.8-0.6,1c-0.6,0.5-0.7,1.1-0.6,1.9c0,0.6-0.5,1.5-1,1.9
		c-1.2,0.9-0.6,1.5,0.1,2.1c0.5,0.4,1,0.7,1.6,1c0.8,0.4,1.1,1.1,0.8,1.7c-0.2,0.4-0.9,0.9-1.4,0.9c-0.8,0-1.6-0.4-2.3-0.6
		c-0.4-0.1-0.8-0.4-1.3-0.6c-0.4,1.3-1.2,1.8-2.2,1.5c-1.1-0.4-1.7-1.4-1-2.4c1.2-1.9,0.3-2.9-0.9-4.1c-0.3-0.3-0.9-0.6-0.9-1
		c-0.1-0.7-0.2-1.5,0.1-2.1c0.2-0.3,1.3-0.4,1.7-0.2C361.1,208.5,361.5,209.2,362.3,210.1z"/>
	<path d="M450.8,58.1c2,0.2,3.9-0.8,5.8,0.2c1.3,0.7,3,3.5,2.5,4.9c-0.2,0.5-0.7,1.1-1.2,1.2c-0.4,0.1-1-0.3-1.4-0.7
		c-0.4-0.3-0.6-0.8-0.8-1.3c-0.6-1.9-3.1-2.5-4.6-1c0.4,0.6,0.7,1.3,1.1,1.9c0.6,0.9,0,1.6-0.6,2.2c-0.8,0.7-1.5,0.2-1.9-0.4
		c-0.5-0.8-1-1.7-1.3-2.6c-0.2-0.8-0.6-0.8-1.1-0.5c-0.9,0.6-1.6,0.1-2.1-0.6c-0.4-0.7,0.4-1.8,1.4-1.9c1-0.1,1.4-0.6,1.2-1.6
		c0-0.2-0.1-0.4,0-0.5c0.4-0.6,0.6-1.6,1.1-1.7c0.9-0.2,1.4,0.5,1.6,1.4C450.5,57.5,450.7,57.8,450.8,58.1z"/>
	<path class="st3" d="M205.5,163.2c0.2,0.8,0.5,1.6,0.7,2.5c0.8-0.4,1.5-0.9,2.2-1.3c0.2-0.1,0.3-0.4,0.5-0.4c0.6,0,1.2,0.1,1.7,0.2
		c-0.2,0.5-0.3,1.2-0.7,1.5c-0.9,0.8-2.5,1.2-2.8,2.1c-0.3,0.8,0.7,2.1,1.1,3.2c0.4,1,1,2,1.4,3.1c0.4,0.9-0.3,1.7-1.2,1.4
		c-0.8-0.3-1.4-0.9-2-1.6c-0.5-0.6-0.6-1.4-1-2c-0.2-0.4-0.8-0.8-1.1-0.8c-0.6,0.2-1.2,0.5-1.1,1.5c0.2,1.3-1,2.4-2.3,2.3
		c-0.3,0-0.8-0.4-0.9-0.7c-0.2-1.4,0-2.7,1.1-3.8c0.6-0.6,1.1-1.4,1.6-2.1c0.2-0.3,0-0.9-0.1-1.3c-0.1-1.2-0.9-2.5,0.4-3.5
		c0.6-0.4,1.4-0.5,2.1-0.7C205.4,162.8,205.5,163,205.5,163.2z"/>
	<path class="st3" d="M246.3,173.9c1.6-0.9,3-1.8,4.5-2.5c0.4-0.2,1.2,0.5,2.2,1c-0.9,0.6-1.3,1-1.9,1.3s-1.1,0.5-1.6,0.9
		c-0.6,0.5-1.4,1-1.7,1.7c-0.2,0.6,0.2,1.4,0.4,2.1c0.2,0.7,0.4,1.3,0.7,2c0.2,0.6,0.6,1.3-0.2,1.6c-0.8,0.3-1.7,0.8-2.2-0.5
		c-0.3-0.7-0.5-1.4-0.9-2.3c-0.4,0.3-0.8,0.6-1,1c-0.6,0.7-1.2,1.4-2.1,0.9c-0.8-0.5-0.8-1.5-0.3-2.4c0.4-0.6,0.9-1.1,1.2-1.7
		c0.8-1.6-0.1-2.9-1.1-4c-1.1-1.4-1.3-2.1-0.3-3.1c0.9-0.9,1.9-0.7,2.4,0.4C245.1,171.6,245.8,172.9,246.3,173.9z"/>
	<path class="st3" d="M271.8,222.1c-1.1,0.2-1.9,0.4-2.7,0.4c-0.2,0-0.5-0.7-0.5-1.1c0-0.4,0.3-0.9,0.6-1.2c1.3-1.2,1.3-2.3,0.2-3.6
		c-0.4-0.5-0.8-1.2-0.9-1.9c-0.1-0.6,0-1.7,0.3-1.8c0.6-0.3,1.6-0.2,2.1,0.1c0.6,0.4,1.1,1.2,1.5,1.9c0.4,0.6,0.7,0.7,1.2,0.2
		c0.4-0.4,0.9-0.7,1.3-1.1c0.8-0.9,1.5-0.3,1.9,0.2c0.2,0.4,0,1.2-0.1,1.8c0,0.1-0.4,0.2-0.5,0.3c-2.4,1.4-2.5,1.6-1.4,4.2
		c0.3,0.8,0.7,1.6,1,2.4c0.3,0.9-0.1,2.3-0.8,2.5c-0.9,0.3-2-0.4-2.4-1.4c-0.2-0.5-0.4-1-0.5-1.5C272,222.4,271.8,222.1,271.8,222.1
		z"/>
	<path class="st3" d="M360.2,236.5c-0.6,0.7-1.1,1.3-1.4,1.9c-0.4,1-1.3,1.1-2,0.8c-0.4-0.2-0.6-1.2-0.5-1.7c0.3-1,1-1.8,1.3-2.8
		c0.2-0.7,0.2-1.5,0.2-2.2c0-0.7-0.5-1.3-0.5-2c0-0.5,0.4-1,0.6-1.5c0.7,0.3,1.4,0.5,2,0.9c0.4,0.3,0.5,0.9,0.8,1.4
		c0.9-0.7,1.6-1.3,2.4-1.8c0.8-0.5,1.6-0.5,2.1,0.2c0.5,0.8,0.1,1.4-0.5,1.9c-0.2,0.2-0.6,0.3-0.8,0.5c-0.5,0.6-1.5,1.3-1.4,1.7
		c0.3,0.9,0.4,2.2,1.9,2.1c0.3,0,0.8,0.6,0.9,1.1c0.4,0.9-0.4,1.5-1,1.9c-1.2,0.8-2.4,0.3-3.3-1.2
		C360.9,237.5,360.6,237.1,360.2,236.5z"/>
	<path class="st3" d="M296.8,240.1c1,0.9,1.8,1.6,2.5,2.2c0.6,0.6,0.8,1.2,0.3,2c-0.5,0.8-2,1.2-2.6,0.7c-0.3-0.2-0.6-0.6-0.9-0.9
		c-0.3-0.3-0.5-0.6-0.9-0.9c-0.3,0.2-0.7,0.6-1.2,0.8c-0.4,0.2-1.1,0.6-1.2,0.5c-0.4-0.5-0.9-1.1-0.9-1.6c0-0.6,0.4-1.2,0.7-1.8
		c0.4-0.7,0.5-1.3-0.2-2c-1.2-1.4-1.1-3.4,0-4.1c0.8-0.6,1.5-0.3,1.9,0.6c0.2,0.7,0.6,1.4,0.9,2.2c1.4-1.1,2.6-2.1,3.8-3.2
		c0.7-0.6,1.5-0.7,2.1-0.1c0.5,0.5-0.1,1.7-0.9,2.4C299.2,237.9,298.1,238.9,296.8,240.1z"/>
	<path class="st3" d="M336.3,239.8c0.6,1.4,1.1,2.6,1.6,3.9c1,2.3,0.7,3-1.9,3.4c-0.6-1.6-1.1-3.3-1.8-5.2c-0.9,0.9-1.5,1.6-2.2,2.2
		c-0.3,0.2-1.1,0.2-1.2,0.1c-0.5-0.9-0.9-1.9,0.1-2.6c1.2-1,0.7-1.9,0.2-2.9c-0.1-0.3-0.5-0.7-0.4-0.9c0.2-0.7,0.3-1.8,0.8-2
		c0.9-0.4,1.6,0.2,2.1,1.1c0.7,1.5,0.7,1.4,2.1,0.4c0.8-0.6,1.9-0.9,2.9-1c0.5-0.1,1.2,0.7,1.5,1.2c0.3,0.8-0.2,1.1-1.1,1.2
		C338,238.8,337.2,239.4,336.3,239.8z"/>
	<path class="st3" d="M226.5,179c1.2-0.7,2.1-1.5,3.2-1.9c0.5-0.2,1.5-0.1,1.8,0.3c0.4,0.6,0.2,1.2-0.8,1.6c-1.1,0.5-2,1.4-2.9,2.1
		c0.9,1.9,1.8,3.6,2.6,5.3c0.6,1.4-0.2,2.5-1.7,2.3c-0.2,0-0.5-0.1-0.6-0.3c-0.6-1.1-1.2-2.3-1.8-3.6c-0.5,0.4-0.9,0.8-1.3,0.9
		c-0.6,0.1-1.3,0-1.9,0c0-0.6-0.1-1.3,0.1-1.8c0.5-1.2,1.3-2.1,0.3-3.6c-0.8-1.2-0.1-2.7,1.1-2.9c0.4-0.1,1,0.2,1.4,0.6
		C226.2,178,226.3,178.5,226.5,179z"/>
	<path class="st2" d="M140.4,28.9c-0.6,1.5-1.2,2.9-1.9,4.4c-0.2,0.4-0.3,0.9-0.6,1.1c-0.5,0.3-1.2,0.8-1.7,0.6
		c-0.4-0.1-0.8-1-1-1.5c-0.4-1.6,0.1-3.2,0.7-4.7c0.5-1.2,1.3-1.5,2.4-0.6c0.5-0.6,1.1-1.1,1.6-1.8c0.9-1.1,2.5-1,3.2,0.2
		c0.8,1.3,1.5,2.7,2.2,4c0.3,0.6,0.6,1.3,1.1,1.8c0.7,0.8,1,1.4,0,2.1c-0.9,0.7-1.8,0.2-2.3-0.4c-0.9-1.2-1.5-2.6-2.3-4
		c-0.3-0.4-0.6-0.9-0.9-1.3C140.8,28.9,140.6,28.9,140.4,28.9z"/>
	<path class="st3" d="M196.8,145c-0.4,0.8-1,1.6-1,2.4c0,1.2-0.8,1.4-1.5,1.7c-0.5,0.2-1.5,0-1.6-0.2c-0.2-0.7-0.5-1.7-0.2-2.3
		c0.7-1.3,1.8-2.5,2.7-3.7c-0.1-1-0.4-2.1-0.4-3.1c0-0.8,0.5-1.2,1.4-1.3c1-0.1,1.1,0.6,1.3,1.2c0.1,0.3,0.2,0.6,0.4,1.1
		c0.7-0.7,1.2-1.4,1.9-1.8c0.5-0.3,1.2-0.2,1.8-0.3c-0.1,0.5-0.1,1-0.2,1.5c0,0.1-0.2,0.2-0.3,0.3c-0.6,0.6-1.8,1.3-1.7,1.9
		c0,1.1,0.7,2.1,1.3,3.1c0.6,1.2,0.6,1.7-0.6,2.2c-0.9,0.4-1.8,0.7-2.1-0.8c-0.1-0.6-0.5-1.1-0.8-1.7
		C197.1,145.1,196.9,145.1,196.8,145z"/>
	<path class="st3" d="M224.1,153.2c1.1-0.4,1.8-0.7,2.7-0.9c0.9-0.2,1.4,0.2,1,1c-0.2,0.5-0.7,1-1.2,1.3c-0.9,0.6-1,1.2-0.6,2.2
		c0.7,1.5,1.8,3,1.2,4.9c-2.4,0.9-2.9-1-3.6-2.8c-0.4,0.5-0.7,0.8-0.9,1.2c-0.6,0.9-1.5,0.9-2.2,0.5c-0.2-0.1-0.2-1.2,0-1.7
		c0.3-0.9,0.9-1.8,1.4-2.7c-0.4-0.8-0.9-1.7-1.3-2.6c-0.6-1.1-0.1-2.1,0.7-2.9c0.8-0.8,1.8-0.4,2.2,0.6
		C223.6,152,223.8,152.6,224.1,153.2z"/>
	<path class="st3" d="M245.8,204c-0.4,1.8-0.7,2-3.1,1.8c0.1-0.9,0.1-1.9,0.4-2.7c0.5-1.3,1.4-2.5,0.9-4.1c-0.4-1.2,0-2.3,1.6-2.3
		c0.2,0,0.4-0.1,0.8-0.2c0.2,0.5,0.4,1.1,0.7,1.8c0.6-0.4,1.1-0.9,1.8-1.2c0.6-0.2,1.2,0,1.9,0c-0.1,0.6-0.1,1.4-0.4,1.8
		c-0.7,0.7-1.6,1.2-2.6,1.8c0.9,1.6,1.8,3.1,2.6,4.7c0.3,0.7,0.7,1.5-0.3,2.1c-0.9,0.5-1.7,0.4-2.3-0.5
		C247.2,206,246.6,205.1,245.8,204z"/>
	<path d="M474.3,58.5c1.1-0.5,2.3-1.1,3.5-1.5c1.1-0.3,2.1-0.5,3.1,0.7c1,1.1,2.1,2.1,2.6,3.6c0.1,0.3,0.3,0.6,0.5,0.8
		c1,0.7,0.7,1.5,0,2.1c-0.8,0.7-1.7,0.6-2.4-0.2c-0.4-0.5-0.6-1.1-1-1.7c-0.5-0.8-1-1.7-1.7-2.5c-0.5-0.5-2.4,0.4-2.9,1.3
		c-0.4,0.7-0.8,1.5-1.3,2.1c-0.6,0.7-1.3,0.7-2,0.1c-0.9-0.8-1.6-4.4-1-5.5c0.2-0.3,0.8-0.7,1.1-0.6
		C473.5,57.6,473.9,58.1,474.3,58.5z"/>
	<path class="st3" d="M78.3,66.6c-0.4,0.7-0.7,1.3-0.9,1.8c-0.2,0.4-0.2,0.9-0.5,1.2c-0.4,0.4-1.2,1-1.6,0.8
		c-0.9-0.3-1.1-1.2-0.8-2.1c0.4-1.2,1-2.2,1.4-3.4c0.1-0.4,0.1-0.9-0.1-1.3c-0.3-1.2-0.9-2.3-1.1-3.6c-0.2-1,0.4-1.3,1.3-0.7
		c0.4,0.3,0.7,0.7,1.1,1.1c0.5,0.6,0.9,1.2,1.3,1.7c1.7-0.8,2.3-2.9,4.2-3.2c0.5,2.2-0.8,3.4-2.1,4.5c-0.8,0.7-0.5,0.9,0,1.4
		c0.3,0.3,0.6,0.7,1,1c1,0.8,0.5,1.4,0,2.1c-0.7,1-1.3,0.3-1.9-0.1C79.2,67.5,78.9,67.1,78.3,66.6z"/>
	<path class="st3" d="M343.4,220.6c0.4-0.3,1-0.7,1.6-1c0.4-0.2,1-0.2,1.4-0.3c-0.1,0.6,0.1,1.4-0.2,1.8c-0.4,0.6-1.1,1-1.9,1.6
		c0.9,1.4,1.8,2.7,2.5,4c0.2,0.3,0.2,1.2,0.1,1.2c-0.7,0.2-1.7,0.6-2.2,0.3c-1-0.7-1.6-1.8-2.5-2.8c-1.2,0.6-1.2,2.1-1.4,3.4
		c-2.2-0.4-2.8-1.4-2-3.5c0.2-0.4,0.4-0.9,0.7-1.3c0.9-1,0.9-2,0.2-3.1c-0.4-0.6-0.6-1.2,0.1-1.9c0.7-0.6,1.2-0.3,1.8,0.1
		C342.1,219.8,342.7,220.1,343.4,220.6z"/>
	<path class="st3" d="M132.5,60.4c1.5-0.7,3.1-1.4,4.7-2.1c0.4-0.2,0.8-0.4,1.2-0.4c0.3,0,0.8,0.2,0.9,0.4s0,0.8-0.1,1
		c-0.6,0.6-1.2,1.1-1.9,1.5c-0.8,0.5-1.7,0.9-2.6,1.3c-1.2,0.5-1.4,1.3-1.1,2.5c0.2,1,0.3,2.1,0.1,3c-0.3,1.2-1.2,1.3-2,0.3
		c-0.4-0.5-0.4-1.2-0.6-1.8c-0.2-0.7-0.2-1.3-0.4-2c-0.1,0.1-0.2,0.2-0.3,0.4c-0.6-0.1-1.4-0.1-1.6-0.4c-0.7-1-0.1-1.8,0.9-2.3
		c-0.2-1.1-0.6-2.3-0.7-3.4c0-0.4,0.4-1,0.7-1.3c0.1-0.1,0.9,0.2,1.1,0.5C131.4,58.3,131.9,59.3,132.5,60.4z"/>
	<path class="st3" d="M316.2,233.3c-0.3,0.2-0.4,0.3-0.5,0.3c-0.5,0.3-1.2,1-1.6,0.9c-1.1-0.3-1.6-1.4-1.2-2.4
		c0.4-1.2,0.1-2.1-0.4-3.2c-0.9-1.7-0.6-2.2,1.2-2.8c0.1,0,0.2-0.1,0.4-0.2c0.4,0.5,0.9,1.1,1.5,1.9c0.8-0.9,1.5-1.6,2.2-2.4
		c0.6-0.7,1.1-0.8,1.8-0.1c0.7,0.7,0.6,1.3-0.1,1.9c-0.7,0.6-1.4,1.1-2,1.8c-0.2,0.2-0.2,0.9,0,1.2c0.8,1.1,1.6,2.2,2.4,3.3
		c0.6,0.7,0.2,1.5-0.3,1.8c-0.4,0.3-1.3,0.2-1.7-0.1C317.3,234.7,316.8,233.9,316.2,233.3z"/>
	<path class="st3" d="M160.7,167.8c0.9-0.7,1.6-1.4,2.5-1.8c0.3-0.2,0.9,0.2,1.4,0.3c-0.1,0.4-0.2,0.9-0.4,1.1
		c-0.5,0.6-1.2,1.2-1.6,1.8c-0.1,0.2,0,0.8,0.2,1.1c0.5,0.8,1.2,1.5,1.7,2.4c0.5,0.8,0.7,1.8-0.3,2.4c-0.9,0.5-1.8,0.2-2.3-0.8
		c-0.2-0.4-0.7-0.6-1-0.9c-0.2,0.4-0.6,0.9-0.6,1.3c0,1-0.4,1.3-1.3,1.4c-1.1,0.1-1.4-0.6-1.4-1.4c0-0.6,0.2-1.3,0.4-1.9
		c0.5-1.3,1.3-2.4,0-3.8c-0.5-0.6-0.4-1.6,0.5-2.1c0.9-0.5,1.5-0.3,2,0.6C160.4,167.5,160.6,167.6,160.7,167.8z"/>
	<path class="st3" d="M289.9,221c-1.6,0.9-2.2,0.5-2.2-1.3c0-1.3,0.1-2.5-0.4-3.8c-0.7-1.6,0.3-3.1,1.8-2.7c0.7,0.2,1.1,1,1.9,1.8
		c0.4-0.2,1.1-0.5,1.7-1c1-0.8,1.8-0.8,2.7,0.6c-0.4,0.4-0.9,0.9-1.4,1.3c-0.5,0.4-1.2,0.8-1.7,1.3c-0.2,0.1-0.2,0.6,0,0.9
		c0.4,0.7,1,1.4,1.3,2.1c0.2,0.6,0.4,1.6,0.1,1.9c-0.5,0.4-1.4,0.4-2,0.2C291,222.1,290.5,221.5,289.9,221z"/>
	<path class="st3" d="M266.8,194.7c0.7-0.5,1.4-1.1,2-1.7c0.9-0.8,1.5-0.2,2,0.4c0.5,0.8,0.1,1.4-0.6,1.9c-0.8,0.6-1.5,1.3-2.7,2.4
		c1.1,0.8,2,1.3,2.6,2c0.3,0.3,0.3,1.3,0,1.6c-0.5,0.6-1.2,1.3-2.1,0.6c-0.5-0.4-1-0.9-1.5-1c-0.6,0.1-1.3,0.3-1.9,0.1
		c-0.6-0.1-1.1-0.7-0.5-1.4c1.1-1.4,0.7-2.8-0.3-4c-1-1.1-0.2-1.9,0.5-2.5c0.8-0.6,1.7-0.6,2.2,0.7
		C266.4,194.2,266.6,194.5,266.8,194.7z"/>
	<path d="M429,61.6c-0.8,0.9-1.4,1.7-2.1,2.4c-0.7,0.6-1.5,0.5-1.7-0.5c-0.4-1.4-0.6-2.8-0.8-4.2c-0.1-1.3,0.8-1.9,1.9-1.5
		c0.5,0.2,1,0.3,1.5,0.2c1.9-0.4,2.7-0.1,3.6,1.5c0.7,1.2,1.6,2.2,3,2.7c1,0.3,1,1,0.3,1.8c-1.3,1.4-4.2,0.2-5.1-1.5
		C429.2,62.1,429,61.7,429,61.6z"/>
	<path d="M436.6,62.8c0.2-3,1.7-4.5,3.4-6c0.7-0.6,1.9-0.1,2.4,0.7c0.4,0.8-0.1,2.4-1,2.6c-1.6,0.4-1.5,1.6-1.4,2.7
		c0.1,0.5,0.6,0.8,1.2,1.1c1.1,0.6,2.1,0.1,3.1,0.2c0.8,0.1,1,1,0.5,1.7c-0.6,0.8-1.4,1.3-2.5,1.2c-1.8-0.2-3.7-0.2-4.8-2.1
		C437.1,64.1,436.8,63.2,436.6,62.8z"/>
	<path class="st2" d="M110.1,37c-1.5-0.1-2.2-0.7-2.2-2.2c-0.1-1.5-0.2-2.9-0.3-4.4c-0.1-1,0.3-1.5,1.5-1.6c0.9-0.1,1.8-0.9,2.6-1.4
		c0.9-0.5,1.7-1.2,2.7-1.6c0.7-0.2,2-0.3,2.2,0c0.6,0.9-0.2,1.5-1,2c-1.5,0.9-3.1,1.8-3.8,3.5c-0.3,0.9-0.3,1.9-0.4,2.9
		c-0.1,0.6,0.2,1.3-0.8,1.5C110.4,35.8,110.3,36.5,110.1,37z"/>
	<path d="M466.7,65.4c-1.8,0-3.1-1.8-3-3.5c0.2-1.9,1.2-3.3,2.3-4.7c0.2-0.2,0.5-0.5,0.7-0.4c0.4,0.1,0.7,0.3,0.9,0.7
		c0.4,0.5,0.6,1.2,1,1.8c0.2,0.4,0.7,0.6,0.9,1c0.5,0.9,1.4,2.1,1.1,2.7c-0.6,1.5-2,2.6-3.8,2.7C466.9,65.6,466.8,65.4,466.7,65.4z"
		/>
	<path class="st1" d="M315.8,83.1c2.1,0.8,1.6,2.4,1.9,3.7c0.3,2,0.5,4,0.5,6c0.1,1.8,0.4,3.4,1.5,4.8c0.2,0.3-0.2,1.2-0.5,1.7
		c-0.1,0.2-1,0.2-1.2,0c-0.6-0.5-1.3-1.1-1.5-1.8c-0.5-1.8-0.9-3.7-1.1-5.5c-0.2-2.3-0.3-4.5-0.3-6.8
		C315,84.5,315.5,83.8,315.8,83.1z"/>
	<path d="M290.8,59.6c0.8,0.2,1.5,0.4,2.1,0.7c1.9,0.8,3.5-0.3,5.2-0.8c1.1-0.3,2.1-0.8,3.2-1c0.4-0.1,1.2,0.4,1.4,0.8
		c0.2,0.4-0.2,1.4-0.5,1.5c-2.6,0.9-5.3,1.7-7.9,2.5c-1.1,0.3-4.1-0.7-4.5-1.6c-0.3-0.5-0.5-1.2-0.3-1.6
		C289.6,59.9,290.3,59.8,290.8,59.6z"/>
	<path class="st2" d="M97.7,217.5c0.4-1.1,0.6-2.3,1.1-3.4c0.8-1.8,2.9-1.1,3.7-0.2c1,1.2,1.4,2.4,1,4c-0.3,1.1-1,1.4-1.9,1.8
		c-0.3,0.1-0.7,0.2-1,0.3C99.4,220.3,97.7,219,97.7,217.5z"/>
	<path class="st1" d="M299.9,91.9c-0.8,0.2-1.6,0.4-2.4,0.5c-1.8,0.3-3.6,0.5-5.5,0.7c-0.9,0.1-2.1-1.4-1.8-2.3
		c0.1-0.3,0.7-0.6,0.9-0.6c2.3,0.6,4.5,0.1,6.7-0.5c1-0.3,2.1-0.5,3.1-0.6c0.5,0,1,0.6,1.3,1c0.1,0.1-0.3,0.8-0.6,1
		c-0.5,0.4-1,0.7-1.6,1C300,92.1,300,92,299.9,91.9z"/>
	<path class="st2" d="M77.9,31.6c0,1.8-1,2.8-2.7,2.8c-1.8,0-2.7-1-2.7-2.9c0-2.3,1.4-3.9,3.1-3.9C76.6,27.6,77.9,29.9,77.9,31.6z"
		/>
	<path class="st2" d="M85.8,238.1c-0.1-2.3,1.1-3.4,2.2-4.3c1.5-1.2,3.2-0.1,3.5,2.2c0.3,1.7-1.7,4-3.4,4
		C86.3,239.9,85.8,239.4,85.8,238.1z"/>
	<path class="st2" d="M108,236.9c0,1.4-1.7,3-3.3,2.9c-1.3,0-2.9-1.6-2.9-2.8c0-1.4,1.2-3.1,2.3-3.1
		C106.3,233.9,108,235.2,108,236.9z"/>
	<path class="st2" d="M124.2,187.2c0,2.1-1.6,3.6-2.9,3.8c-0.7,0.1-2.2-2.3-2.3-3.4c0-1.8,0.9-3.4,2.2-3.3
		C123,184.5,124.2,184.9,124.2,187.2z"/>
	<path class="st2" d="M154.9,177.4c0.1,2.7-3.4,3.9-5,3.4c-1-0.3-1.5-1.7-1.1-2.9c0.5-1.7,3.8-2.9,5.2-1.9
		C154.4,176.3,154.6,176.9,154.9,177.4z"/>
	<path class="st2" d="M174.6,167c-1.3,0-2.4-1-2.4-2.2c0-1.6,1.8-3.4,3.6-3.4c0.8,0,1.9,1.6,1.9,2.7
		C177.7,165.1,175.8,167,174.6,167z"/>
	<path class="st2" d="M184.1,141.6c0,1.9-1.3,3.5-2.8,3.5c-1.3,0-2.4-1.3-2.5-2.9c0-1,1.9-2.7,3.2-2.7
		C183.5,139.5,184.1,140.1,184.1,141.6z"/>
	<path class="st2" d="M164.7,146.5c1.3,0,2,0.8,1.8,2c-0.3,2.1-1.9,3.5-4,3.4c-0.7,0-1.8-1.2-1.6-2
		C161.3,148.3,162.6,146.4,164.7,146.5z"/>
	<path class="st2" d="M109.8,205.7c-0.3,1.1-1.4,2.6-2.3,2.9c-0.5,0.1-1,0.1-1.4,0.3c-0.7,0.4-1.3,0.3-1.6-0.4
		c-0.3-0.6-1.2-1.2-0.3-2.1c0.4-0.4,0.5-0.9,0.8-1.3c1.2-1.8,1.3-1.9,3.2-1.3C109,204,109.3,205,109.8,205.7z"/>
	<path class="st2" d="M134.4,196.1c-1.5,0.1-2.1-0.7-1.5-1.8c0.5-0.9,0.9-1.8,1.5-2.6c0.7-0.8,1.8-1.2,2.8-0.6
		c0.6,0.3,1.4,0.9,1.4,1.3c0,1.1-0.2,2.4-1.5,2.9C136.1,195.7,135.1,195.9,134.4,196.1z"/>
	<path class="st2" d="M124.6,210.2c-2.2,0-3.4-0.7-3.4-1.9c0-1.6,1.4-2.9,3-2.9c1.3,0,2.7,1.4,2.7,2.8
		C126.8,209,125.5,210.2,124.6,210.2z"/>
	<path class="st2" d="M133.4,174.1c-0.1,2-0.9,3.2-2.3,3.1c-1.6-0.1-2.4-1.2-2.4-2.7c0.1-1.8,1.2-2.8,3-2.7
		C132.8,171.9,133.5,172.8,133.4,174.1z"/>
	<path class="st2" d="M152.5,158.3c-0.3,2-1.5,3.4-2.9,3.4c-1.3,0-2.1-1.1-1.8-2.4c0.2-0.9,0.1-1.9,1.1-2.4c0.7-0.3,1.7-0.9,2.2-0.7
		C151.7,156.5,152,157.5,152.5,158.3z"/>
	<path class="st2" d="M129.9,28.8c1.8,1,2.5,2.2,2.5,3.9c0,0.7,0.3,1.5,0.5,2.2c0.4,1.2-0.5,1.8-1.3,1.9c-0.5,0-1.3-0.9-1.5-1.5
		c-0.5-1.4-0.8-2.9-0.9-4.3C129.2,30.2,129.7,29.5,129.9,28.8z"/>
	<path class="st1" d="M465.9,95.6c-1.2,0-2.8-1.1-2.7-1.9c0.1-1.3,1.4-1.3,2-1.2c0.7,0.1,1.6,0.8,2,1.5
		C467.3,94.5,467.1,95.7,465.9,95.6z"/>
	<path d="M457.3,55.3c-0.6,0.6-0.9,1.2-1.4,1.4c-0.3,0.1-0.9-0.2-1.2-0.5c-0.3-0.3-0.7-0.8-0.7-1.2c0-0.5,0.2-1.1,0.5-1.5
		c0.1-0.1,0.9,0,1.2,0.3C456.2,54.2,456.7,54.7,457.3,55.3z"/>
	<path class="st2" d="M128.8,22.3c1.2,0.4,1.6,1,1.8,1.8c0.1,1-0.6,2.1-1.3,1.9c-0.7-0.1-1.3-1.3-1.5-2.1
		C127.6,23.5,128.4,22.8,128.8,22.3z"/>
	<path class="st2" d="M165.9,31.7c0.4-1.6,0.3-3.7,2.3-4.9c1-0.5,1.3-0.4,1.5,0.7c0.1,0.6,0.3,1.2,0.5,1.7c0.5,1,0.7,1.9-0.2,2.7
		c-0.7,0.6-1.4,1.2-2.3,1.5C166.2,34,165.9,33.6,165.9,31.7z"/>
	<path class="st2" d="M182.1,25.6c0.7,1.7,1.5,3.1,1.8,4.6c0.1,0.6-0.9,1.6-1.6,2.1c-0.7,0.4-1.8,1-2.5,0.1
		c-0.3-0.4-0.3-1.3-0.2-1.9C179.7,28.6,180.6,27,182.1,25.6z"/>
	<path class="st2" d="M204.4,29.5c0.6-1.2,1.1-2.2,1.7-3.3C207.2,28.1,206.8,28.8,204.4,29.5z"/>
	<path class="st1" d="M385.2,94.1c0.4,2.1-1,5.2-2.5,5.5C383,97.6,383.5,95.6,385.2,94.1z"/>
	<path class="st1" d="M341.1,95.9c0.6,1.8,0.5,2.3-0.9,3C340.5,97.8,340.8,97,341.1,95.9z"/>
	<path class="st3" d="M165.5,63.3c-0.9-1.5,0-3.9,1.9-5.4c1.4,0.3,2,1.3,1.7,2.6C168.6,62.4,166.8,62.5,165.5,63.3z"/>
	<path class="st3" d="M179.1,59.8c0.2,0.3,0.4,0.7,0.7,1.1c-0.9,0.7-1.8,1.5-2.8,2.3C176.8,62,177.9,60.4,179.1,59.8z"/>
	<path class="st1" d="M478.6,101.1c-0.6-0.6-1.2-1.1-1.7-1.7c-0.2-0.2,0.1-0.8,0.1-1.2c0.3,0.2,0.8,0.2,1,0.5
		c0.4,0.7,0.7,1.4,1.1,2.1C478.9,100.9,478.7,101,478.6,101.1z"/>
	<path class="st3" d="M197.6,64.1c0.4-0.7,0.6-1.2,0.9-1.7c0.3-0.5,0.5-1,0.8-1.5C200.7,62.3,200.3,63.2,197.6,64.1z"/>
	<path class="st0" d="M333,63c0.1,0,0.3,0,0.3,0c0.5,1.1,1.1,2.2,1.2,3.4c0,0.5-1,1.4-1.7,1.6c-0.5,0.1-1.5,0-1.8-1.1
		C330.7,65.3,331.7,63,333,63z"/>
	<path class="st0" d="M357.7,62.6c0.8,1.6,0.7,1.7-1.5,3.1C356,64.2,356.6,63.4,357.7,62.6z"/>
	<path class="st2" d="M121.7,29.1c0.2,1.1,0.3,2,0.4,2.9c0.1,1.3-0.5,1.7-2.6,1.4C119.4,31.7,120.3,30.4,121.7,29.1z"/>
</g>
</svg>
