<?xml version="1.0" encoding="utf-8"?>
<!-- Generator: Adobe Illustrator 26.0.1, SVG Export Plug-In . SVG Version: 6.00 Build 0)  -->
<svg version="1.1" id="Layer_1" xmlns="http://www.w3.org/2000/svg" xmlns:xlink="http://www.w3.org/1999/xlink" x="0px" y="0px"
	 viewBox="0 0 512 257" style="enable-background:new 0 0 512 257;" xml:space="preserve">
<style type="text/css">
	.st0{fill:#FFFFFF;}
</style>
<g>
	<g>
		<path class="st0" d="M512,257.04c-170.66,0-341.32,0-512,0C0,171.37,0,85.7,0,0c170.65,0,341.32,0,512,0
			C512,85.66,512,171.35,512,257.04z M339.29,172.87c0.24-5.65-1.11-10.79-2.22-16.08c0.77,0.51,1.47,0.98,2.34,1.56
			c0.26-0.77,0.47-1.29,0.6-1.82c0.23-0.98-0.39-1.88-1.38-1.9c-2.63-0.06-5.27-0.03-7.9-0.08c-2.59-0.04-5.18-0.12-7.77-0.19
			c-2.72-0.07-5.44-0.28-8,1.03c-0.71,0.36-0.96,0.84-0.63,1.4c0.25,0.42,0.84,0.7,1.33,0.91c0.21,0.09,0.56-0.17,0.86-0.22
			c1.06-0.2,2.13-0.37,3.25-0.57c-0.06,0.73-0.19,1.25-0.12,1.75c0.21,1.49,0.49,2.97,0.75,4.46c0.48,2.8,0.89,5.62,1.46,8.4
			c0.44,2.15,0.52,2.11-1.4,2.79c-1,0.35-1.23,1.12-0.96,2.09c0.27,0.98,0.86,0.78,1.6,0.55c1.81-0.54,3.64-1.26,5.49-1.41
			c3.7-0.3,7.42-0.29,11.13-0.36c0.72-0.01,1.51,0.04,2.17,0.3c0.97,0.38,1.72,0.43,2.63-0.24c0.53-0.4,1.33-0.6,0.95-1.35
			c-0.22-0.44-0.97-0.75-1.54-0.86C341,172.86,340.04,172.91,339.29,172.87z M427.74,126.89c-1.03-0.21-1.82-0.32-2.59-0.54
			c-1.05-0.31-1.69,0-1.91,1.08c-0.23,1.13,0.65,1.38,1.39,1.45c1.82,0.16,3.58,0.51,5.51,0.06c3.34-0.77,6.78-1.22,10.2-1.43
			c3.13-0.19,6.29,0,9.42,0.26c1.46,0.12,2.73,0.46,3.81-0.96c0.48-0.63,0.55-1.05-0.12-1.28c-1.04-0.36-2.14-0.59-3.23-0.72
			c-0.68-0.08-1.12-0.17-1.29-0.94c-0.51-2.27-1.12-4.52-1.63-6.78c-0.31-1.39-0.52-2.81-0.83-4.54c1.49,0.48,2.6,0.87,3.74,1.2
			c0.34,0.1,0.83,0.19,1.07,0.03c0.54-0.36,0.98-0.88,1.49-1.36c-0.92-1.01-1.86-1.81-3.34-1.63c-0.58,0.07-1.2-0.19-1.8-0.19
			c-3.4-0.04-6.81-0.09-10.21-0.05c-2.81,0.04-5.62,0.39-8.41,0.23c-1.15-0.06-2.26-0.18-3.38,0.08c-0.8,0.18-1.52,0.55-1.35,1.56
			c0.14,0.84,0.59,1.26,1.55,1.11c0.27-0.04,0.81,0.4,0.91,0.72c0.21,0.69,0.24,1.45,0.28,2.18c0.13,2.67,0.22,5.34,0.36,8.01
			C427.43,125.18,427.6,125.92,427.74,126.89z M333.74,67.37c-0.31-1.74,0.94-2.91,1.53-4.29c0.27-0.65,1.01-1.54,1.56-1.55
			c1.9-0.04,3.87-0.64,5.74,0.38c0.75,0.41,1.48,0.06,1.8-0.74c0.29-0.74-0.18-1.12-0.8-1.52c-1.69-1.09-3.57-0.6-5.31-0.56
			c-5.44,0.12-10.87,0.47-16.31,0.77c-0.43,0.02-1.07,0.33-1.18,0.66c-0.13,0.38,0.06,1.21,0.36,1.35c1.55,0.77,2,2.23,2.57,3.65
			c1.15,2.89,2.36,5.75,3.55,8.63c0.41,0.98,0.18,1.48-0.98,1.67c-0.96,0.16-1.9,0.6-2.77,1.07c-0.39,0.21-0.59,0.77-0.88,1.18
			c0.5,0.22,1.01,0.65,1.5,0.62c0.8-0.05,1.59-0.37,2.37-0.62c1.68-0.54,3.44-0.35,5.19-1.11c2.01-0.87,4.47-0.82,6.74-0.94
			c2.49-0.13,5,0.07,7.49-0.06c0.55-0.03,1.13-0.74,1.57-1.25c0.12-0.15-0.12-0.84-0.39-1.03c-0.39-0.29-1.19-0.64-1.39-0.47
			c-1.1,0.96-2.27,0.41-3.32,0.44c0-0.78,0.12-1.49-0.02-2.13c-0.44-1.97-1.06-3.91-1.46-5.89c-0.27-1.33-1-2.16-2.47-2.95
			c-0.19,1.06-0.66,2.04-0.47,2.87c0.61,2.65,1.46,5.24,2.22,7.88c-2.87,0.47-5.43,0.89-8.22,1.35c0.16-0.74,0.28-1.22,0.36-1.71
			c0.2-1.27,0.78-2.65,0.48-3.8C332.45,68.02,332.71,67.63,333.74,67.37z M315.64,11.38c0.28-0.05,0.56-0.11,0.84-0.16
			c1.91-0.34,2.97,0.26,3.49,2.03c0.58,1.98,1.2,3.96,1.65,5.97c0.27,1.19,0.24,2.45,0.35,3.77c-0.95,0.13-1.76,0.2-2.55,0.37
			c-0.73,0.15-1.46,0.4-1.38,1.38c0.08,0.96,0.77,1.03,1.51,0.97c0.26-0.02,0.51-0.08,0.77-0.11c1.74-0.26,3.48-0.54,5.22-0.76
			c1.07-0.13,2.15-0.13,3.22-0.25c3.12-0.37,6.24-0.79,9.36-1.17c0.51-0.06,1.15-0.2,1.52,0.04c1.34,0.87,1.91-0.28,2.56-0.95
			c0.5-0.51,0.27-1.2-0.44-1.43c-0.51-0.17-1.09-0.2-1.63-0.15c-1.35,0.12-2.7,0.33-4.22,0.52c0.28-2.16,0.05-4.16,1.14-5.96
			c1.02-1.68,1.94-3.41,2.99-5.07c0.15-0.24,0.84-0.39,1.13-0.26c0.82,0.36,1.09-0.17,1.42-0.68c0.16-0.25,0.31-0.51,0.42-0.78
			c0.16-0.39,0.49-0.92,0.35-1.17c-0.17-0.29-0.76-0.48-1.16-0.48c-1.55,0.01-3.09,0.19-4.64,0.17c-3.99-0.05-7.9,0.54-11.82,1.15
			c-2.71,0.42-5.5,0.42-8.25,0.43C315.78,8.8,315.13,9.5,315.64,11.38z M485.23,154.02c-0.31,1.01-0.59,1.88-0.84,2.76
			c-0.16,0.57-0.72,1.35,0.28,1.58c0.93,0.22,1.03,0.83,1.09,1.52c0.2,2.45,0.35,4.91,0.55,7.37c0.06,0.74-0.19,1.18-0.94,1.27
			c-1.11,0.13-2.23,0.33-3.34,0.32c-1.09-0.01-1.5,0.49-1.5,1.48c0,1.01,0.6,1.39,1.52,1.31c0.47-0.04,0.92-0.21,1.39-0.28
			c1.16-0.19,2.37-0.91,3.25,0.68c0.3,0.55,1.07,0.81,1.76,0.07c0.42-0.44,1.04-0.75,1.63-0.97c2.67-1.03,5.47-0.57,8.21-0.52
			c1.16,0.02,2.4,0.31,3.46,0.8c1.67,0.76,1.21-1.6,2.38-1.46c0.09,0.01,0.33-0.35,0.29-0.47c-0.09-0.26-0.26-0.6-0.48-0.7
			c-0.58-0.25-1.21-0.45-1.83-0.57c-0.81-0.15-1.66-0.09-2.43-0.33c-0.44-0.13-0.98-0.61-1.09-1.03c-0.53-2.04-0.97-4.12-1.37-6.19
			c-0.36-1.84-0.62-3.69-0.99-5.93c1.45,0.3,2.53,0.5,3.59,0.74c0.63,0.14,1.24,0.45,1.87,0.45c1.2,0.01,1.98-1.24,1.25-1.99
			c-0.62-0.63-1.53-1.25-2.38-1.35c-2.44-0.3-4.91-0.3-7.36-0.49c-1.58-0.12-3.15-0.43-4.73-0.56c-2.29-0.19-4.61-0.69-6.85,0.26
			C481.52,153.76,481.52,153.76,485.23,154.02z M386.51,158.85c-0.08-0.63-0.23-1.1-0.19-1.56c0.07-0.78-0.18-1.16-0.96-1.39
			c-0.79-0.23-1.27,0.02-1.61,0.66c-0.58,1.11-1.12,2.23-1.67,3.36c-0.97,2.02-1.93,4.05-3.03,6.37c-0.15-0.58-0.23-0.82-0.28-1.06
			c-0.51-2.36-0.98-4.72-1.54-7.07c-0.17-0.72-0.4-1.58-1.55-1.25c-1.18,0.33-1.1,1.13-0.85,2.03c0.12,0.41,0.29,0.81,0.39,1.23
			c0.76,3.12,1.51,6.25,2.25,9.38c0.04,0.18-0.05,0.4-0.09,0.68c-0.37-0.09-0.65-0.14-0.93-0.22c-1.03-0.31-2.03-0.75-3.08-0.9
			c-1.05-0.15-1.53,0.52-1.01,1.42c0.4,0.68,1.09,1.42,1.8,1.63c1.09,0.32,2.3,0.27,3.46,0.27c4.75,0.01,9.5-0.17,14.24,0
			c4.35,0.15,8.69,0.71,13.04,0.92c0.62,0.03,1.35-0.86,1.91-1.44c0.14-0.15-0.07-0.96-0.31-1.08c-0.52-0.25-1.16-0.33-1.75-0.34
			c-0.52,0-1.05,0.19-1.34,0.25c-0.15-1.29-0.28-2.4-0.41-3.5c-0.08-0.64-0.18-1.28-0.24-1.93c-0.29-2.75-0.59-5.49-0.84-8.24
			c-0.09-0.99-0.6-1.59-1.54-1.54c-1.06,0.06-0.91,1.02-0.86,1.71c0.18,2.63,0.41,5.25,0.63,7.87c0.15,1.8,0.32,3.61,0.49,5.54
			c-3.58-0.21-7.05-0.5-10.53-0.6c-3.47-0.1-6.95-0.02-10.18-0.02c0.57-1.1,1.25-2.4,1.93-3.7c0.26-0.5,0.54-0.98,0.76-1.5
			c0.51-1.22,1.06-2.43,1.47-3.68C384.47,159.95,384.78,158.79,386.51,158.85z M377.61,113.31c1.73,5.71,3.39,11.2,5.13,16.98
			c-1.52,0.07-3.09,0.11-4.66,0.25c-0.51,0.05-1.37,0.28-1.42,0.56c-0.1,0.56,0.07,1.33,0.43,1.77c0.28,0.35,1.04,0.57,1.52,0.48
			c2.14-0.42,4.26-0.99,6.39-1.48c2.46-0.57,4.86-1.36,7.48-1.21c0.54,0.03,1.29-1.24,1.68-2.04c0.13-0.27-0.2-1.33-1.21-1.07
			c-1.66,0.43-3.36,0.75-5.01,1.21c-1.39,0.39-1.71,0.21-1.34-1.21c0.71-2.65,1.52-5.28,2.35-7.89c0.6-1.89,1.18-3.78,3.16-4.83
			c0.64-0.34,0.47-1.07-0.15-1.49c-0.97-0.65-3.14,0.13-3.6,1.23c-0.8,1.91-1.66,3.8-2.45,5.72c-0.73,1.76-1.41,3.54-2.16,5.43
			c-0.32-1.02-0.62-1.95-0.9-2.88c-0.83-2.76-1.57-5.55-2.53-8.27c-0.36-1.02-0.25-1.29,0.76-1.43c2.52-0.36,5.03-0.84,7.56-1.15
			c0.98-0.12,2.02,0.02,3.01,0.19c0.65,0.11,1.31,0.49,1.7-0.29c0.37-0.73,0.59-1.53,0.88-2.29c-0.75-0.24-1.49-0.5-2.24-0.71
			c-0.14-0.04-0.33,0.1-0.5,0.12c-3.53,0.57-7.06,1.15-10.59,1.68c-2,0.3-4.02,0.44-6.01,0.77c-1.53,0.26-2.1,1.02-2.24,2.78
			C374.35,113.93,376.01,113.62,377.61,113.31z M332.28,128.28c-0.61-1.24-0.99-2.33-1.62-3.25c-1.05-1.52-2.3-2.9-3.37-4.41
			c-0.23-0.33-0.24-1.03-0.05-1.42c0.66-1.45,1.43-2.85,2.21-4.24c0.16-0.28,0.61-0.57,0.9-0.55c1.68,0.13,3.35,0.36,5.22,0.57
			c0.25-0.09,0.85-0.15,1.25-0.46c0.64-0.49,1.66-1.2,1.61-1.73c-0.09-0.94-1.07-1.06-2.06-0.87c-1.13,0.21-2.32,0.23-3.48,0.24
			c-3.66,0.02-7.33-0.03-10.99,0.02c-0.7,0.01-1.46,0.28-2.06,0.64c-0.33,0.2-0.47,0.84-0.51,1.29c-0.01,0.12,0.65,0.35,1.03,0.44
			c0.33,0.08,0.7,0.02,1.39,0.02c-1.06,0.84-0.82,1.38-0.19,2c0.54,0.54,0.85,1.32,1.38,1.87c1.31,1.37,1.42,2.72,0.22,4.21
			c-0.23,0.29-0.27,0.72-0.43,1.07c-0.66,1.45-1.28,2.93-2.01,4.34c-0.28,0.53-0.79,1.22-1.28,1.3c-1.01,0.17-1.68,0.46-1.61,1.56
			c0.08,1.24,1.09,1.27,1.92,1.18c3.21-0.34,6.41-0.79,9.62-1.16c1.38-0.16,2.79-0.42,4.14-0.25c0.63,0.08,1.16,0.34,1.56-0.2
			c0.35-0.48,0.81-1.23,0.65-1.64c-0.16-0.43-0.99-0.76-1.56-0.83C333.47,127.96,332.74,128.21,332.28,128.28z M430.48,156.14
			c0.75,1.03,1.36,1.88,1.99,2.73c0.47,0.62,0.89,1.3,1.45,1.82c1.83,1.69,1.78,3.4,0.87,5.67c-0.72,1.81-1.14,3.06-3.42,2.64
			c-0.91-0.17-1.35,0.68-1.23,1.59c0.11,0.82,0.51,1.33,1.48,1.23c2.67-0.27,5.33-0.53,8.01-0.7c0.65-0.04,1.31,0.33,1.97,0.48
			c0.31,0.07,0.63,0.14,0.94,0.1c0.65-0.08,1.29-0.26,1.93-0.35c0.81-0.11,1.68,0,2.41-0.28c0.48-0.19,1.1-0.94,1.04-1.35
			c-0.07-0.44-0.8-0.99-1.33-1.12c-0.99-0.25-2.07-0.17-3.08-0.36c-0.54-0.1-1.17-0.37-1.52-0.78c-0.96-1.1-1.77-2.34-2.7-3.47
			c-0.76-0.93-1.01-1.88-0.48-3c0.73-1.56,1.52-3.11,2.14-4.71c0.4-1.02,1.05-0.78,1.64-0.47c1.72,0.91,1.68,0.92,2.95-0.52
			c0.64-0.73,0.38-1.36-0.26-1.73c-0.52-0.3-1.22-0.38-1.84-0.37c-2.81,0.08-5.61,0.23-8.41,0.34c-2.6,0.11-5.2,0.21-7.8,0.31
			C427.44,156.33,427.58,156.42,430.48,156.14z M373.06,10.78c0.03-0.08,0.05-0.17,0.08-0.25c0.81,0.25,1.82,0.28,2.38,0.79
			c1.45,1.34,2.76,2.86,4,4.41c0.36,0.45,0.56,1.28,0.42,1.82c-0.36,1.33-0.89,2.62-1.5,3.86c-0.21,0.43-0.83,0.78-1.33,0.91
			c-0.9,0.24-1.88,0.19-2.78,0.45c-0.36,0.1-0.89,0.8-0.81,1.02c0.19,0.49,0.67,0.9,1.12,1.23c0.19,0.14,0.59,0.03,0.89,0
			c3.3-0.33,6.6-0.7,9.91-0.97c1.52-0.13,3.07,0.02,4.58-0.15c0.62-0.07,1.17-0.67,1.76-1.03c-0.37-0.53-0.76-1.53-1.1-1.52
			c-1.52,0.08-2.47-0.3-3.39-1.68c-0.89-1.34-2.44-2.24-3.65-3.38c-0.22-0.21-0.39-0.79-0.26-1.02c1.04-1.88,2.09-3.77,3.27-5.56
			c0.52-0.78,2.99-1.16,3.6-0.54c1.25,1.27,1.88,0.34,2.54-0.54c0.23-0.3,0.48-0.81,0.37-1.09c-0.12-0.31-0.64-0.65-0.99-0.65
			c-1.77-0.02-3.54-0.03-5.3,0.12c-4.51,0.41-9.02,0.9-13.53,1.38c-0.67,0.07-1.41,0.19-1.96,0.54c-0.35,0.22-0.54,0.9-0.55,1.37
			c0,0.18,0.68,0.46,1.09,0.54C372.26,10.93,372.67,10.82,373.06,10.78z M498.9,121.64c-0.12,0.02-0.29,0.06-0.45,0.08
			c-1.74,0.2-1.97,0.29-2.23-1.39c-0.3-1.87-0.36-3.78-0.68-5.65c-0.21-1.21,0.26-1.47,1.3-1.37c1.16,0.11,2.34,0.32,3.48,0.22
			c0.54-0.05,1.02-0.74,1.53-1.14c-0.48-0.37-0.94-1.03-1.45-1.06c-3.06-0.21-6.13-0.44-9.18-0.33c-3.32,0.12-6.62,0.59-9.93,0.91
			c-0.86,0.08-1.58,0.42-1.57,1.38c0.01,0.98,0.72,1.34,1.61,1.23c0.7-0.09,1.04,0.18,1.19,0.84c0.5,2.14,1.03,4.28,1.54,6.42
			c0.2,0.83-0.06,1.39-0.97,1.45c-0.94,0.07-1.89,0.08-2.84,0.12c-0.73,0.03-1.38,0.13-1.41,1.11c-0.03,1.02,0.58,1.25,1.39,1.3
			c0.34,0.02,0.69,0.04,1.04,0.01c2.15-0.19,4.3-0.35,6.44-0.59c1.32-0.15,2.62-0.42,3.94-0.62c0.85-0.13,2.06-0.62,2.49-0.24
			c1.13,0.99,2.26,0.66,3.39,0.46c0.83-0.14,1.62-0.58,2.42-0.89c-0.3-0.72-0.59-1.43-0.9-2.15
			C499.04,121.71,498.99,121.7,498.9,121.64z M381.68,71.78c0.56-0.62,1.26-1.11,1.57-1.79c0.84-1.83,1.73-3.69,2.21-5.63
			c0.93-3.72,3.72-4.86,6.96-5.39c1.05-0.17,1.6-0.61,1.51-1.49c-0.1-0.93-0.98-1.12-1.81-0.97c-0.8,0.15-1.57,0.52-2.37,0.58
			c-4.35,0.29-8.7,0.51-13.05,0.77c-1.2,0.07-2.4,0.13-3.58,0.31c-0.4,0.06-0.73,0.5-1.09,0.77c0.39,0.34,0.74,0.87,1.19,0.99
			c0.73,0.19,1.54,0.17,2.32,0.15c0.97-0.03,1.47,0.27,1.28,1.35c-0.08,0.46-0.09,0.98,0.05,1.41c0.96,2.86,1.96,5.7,2.95,8.54
			c0.09,0.26,0.15,0.53,0.25,0.86c-0.59,0.06-1.06,0.09-1.52,0.15c-0.51,0.07-1.02,0.21-1.54,0.25c-0.94,0.08-1.9,0.23-2.82,0.12
			c-0.77-0.1-1.49-0.38-1.79,0.59c-0.27,0.89,0.43,1.79,1.48,1.88c0.68,0.06,1.39,0.02,2.06-0.1c4.14-0.73,8.28-1.16,12.5-1.05
			c1.55,0.04,3.13-0.5,4.65-0.95c0.36-0.11,0.52-0.91,0.77-1.4c-0.47-0.16-0.96-0.48-1.42-0.44c-0.67,0.05-1.31,0.49-1.97,0.51
			c-2.8,0.11-5.59,0.13-8.39,0.17C381.96,71.96,381.85,71.87,381.68,71.78z M490.96,67.02c-0.31-0.75-0.41-1.46-0.81-1.84
			c-0.75-0.71-1.69-1.21-2.53-1.82c-0.91-0.66-0.78-1.43-0.22-2.24c0.81-1.17,1.64-2.32,2.4-3.53c0.19-0.3,0.13-0.77,0.18-1.16
			c-0.43-0.03-0.9-0.18-1.29-0.07c-0.32,0.1-0.56,0.5-0.82,0.78c-0.86,0.93-1.7,1.88-2.73,3.01c-0.45-1.15-0.7-2.14-1.22-2.95
			c-0.3-0.48-1.01-0.89-1.57-0.96c-0.88-0.1-0.87,0.7-0.74,1.3c0.2,0.91,0.28,1.98,0.83,2.65c1.5,1.85,1.44,3.51,0.5,5.67
			c-0.83,1.9-1.7,2.96-3.86,2.98c-1.89,0.01-3.77,0.41-5.66,0.49c-1.73,0.07-3.07-0.95-4.39-1.95c-0.26-0.2-0.72-0.31-1.03-0.23
			c-0.16,0.04-0.28,0.59-0.27,0.9c0.03,1.36,1.31,2.82,2.92,3.06c1.56,0.23,3.19,0.44,4.75,0.25c6.42-0.76,12.82-1.69,19.23-2.53
			c0.33-0.04,0.77,0.07,1.04,0.27c1.45,1.11,3.39,0.69,4.33-1.1C497.13,65.74,493.8,67.62,490.96,67.02z M467.85,8.83
			c-0.08,1.01-0.23,1.74-0.18,2.45c0.12,1.72,0.35,3.43,0.51,5.15c0.16,1.73-0.12,2.06-1.77,2.02c-0.68-0.01-1.37-0.14-2.05-0.24
			c-0.86-0.13-1.71-0.13-2.1,0.79c-0.32,0.74,0.51,1.87,1.53,2.02c0.75,0.11,1.55,0.04,2.31-0.07c0.87-0.13,1.66-0.27,2.41,0.43
			c0.24,0.22,0.88,0.14,1.28,0.01c2.1-0.67,4.11-1.74,6.46-0.78c0.4,0.16,1.2-0.66,1.82-1.03c-0.37-0.43-0.67-1.12-1.13-1.26
			c-1.72-0.5-3.42-1.28-5.31-0.67c-0.22,0.07-0.83-0.33-0.86-0.55c-0.27-2.43-0.46-4.87-0.68-7.31c-0.07-0.72,0.21-0.99,0.95-1.01
			c1.96-0.07,3.93-0.17,5.89-0.35c1.49-0.14,2.98-0.37,4.46-0.66c0.85-0.16,1.32-1.43,0.7-1.75c-0.47-0.24-1.15-0.12-1.74-0.07
			c-2.7,0.2-5.48,0.92-8.08,0.53c-3.45-0.52-6.58,0.46-9.81,1.02c-0.44,0.08-0.74,0.9-1.11,1.37c0.43,0.32,0.85,0.88,1.3,0.9
			c0.84,0.05,1.69-0.2,2.54-0.36C466.06,9.25,466.92,9.04,467.85,8.83z M194.61,156.98c0,1.71-0.12,3.01,0.03,4.28
			c0.22,1.78,0.57,3.56,1,5.3c0.18,0.7,0.73,1.37,1.66,0.97c0.94-0.4,1.31-1.18,0.9-2.12c-1.03-2.37-1.05-4.86-1.17-7.37
			c-0.06-1.19,0.35-1.79,1.44-2.25c2.05-0.87,4.37-1.05,6.2-2.43c0.23-0.17,0.4-0.44,0.59-0.67c-0.25-0.11-0.5-0.31-0.75-0.31
			c-0.6,0-1.22,0.03-1.8,0.17c-1.38,0.35-2.74,0.76-4.1,1.17c-1.41,0.42-1.69,0.22-2.02-1.19c-0.26-1.13-0.63-2.24-1.04-3.32
			c-0.43-1.12-1.27-1.6-2.52-1.6c-3.72,0-7.26,0.86-10.74,2.05c-0.96,0.33-1.61,0.96-1.27,1.91c0.35,0.98,1.39,0.98,2.23,0.69
			c1.72-0.61,3.26-1.7,5.18-1.8c1.36-0.07,2.72-0.3,4.08-0.34c0.31-0.01,0.81,0.43,0.92,0.75c0.32,1.02,0.56,2.08,0.68,3.14
			c0.03,0.3-0.37,0.8-0.7,0.95c-1.01,0.48-2.07,0.86-3.14,1.22c-0.9,0.3-1.33,0.84-1,1.76c0.38,1.06,1.16,0.61,1.83,0.37
			C192.15,157.92,193.18,157.52,194.61,156.98z M19.67,112.43c0.07-0.99,0.13-1.98,0.2-2.97c0.16-2.25,0.42-2.37,2.49-1.57
			c1.82,0.71,3.72,1.23,5.69,0.65c0.87-0.26,1.59-0.77,1.3-1.89c-0.28-1.08-1.21-1.13-1.98-0.95c-2.19,0.51-4.29,0.02-6.4-0.37
			c-2.54-0.47-2.84-0.3-3.54,2.22c-0.06,0.21-0.13,0.42-0.14,0.63c-0.12,2.63-0.34,5.26-0.26,7.88c0.02,0.71,0.91,1.49,1.56,2.06
			c0.5,0.44,1.27,0.53,1.86,0.89c1.44,0.9,2.96,1.73,4.23,2.84c1.3,1.13,0.92,2.97-0.76,3.46c-1.26,0.37-2.69,0.24-4.05,0.24
			c-1.07,0-2.15-0.2-3.22-0.17c-0.36,0.01-0.72,0.44-1.08,0.67c0.31,0.25,0.57,0.59,0.92,0.73c0.76,0.31,1.59,0.43,2.33,0.77
			c2.7,1.22,5.75,0.68,7.77-1.55c1.24-1.37,1.48-4.13,0.29-5.23c-1.37-1.28-2.8-2.65-4.46-3.43
			C20.17,116.28,19.29,114.81,19.67,112.43z M66.44,173.38c-0.19,0.02-0.38,0.05-0.57,0.07c-0.35-1.02-1.06-2.06-0.99-3.05
			c0.21-3.13,0.58-6.26,1.16-9.34c0.27-1.44,1.22-2.74,1.77-4.14c0.13-0.32,0.02-1-0.21-1.14c-0.75-0.46-2.06,0.02-2.41,0.88
			c-0.54,1.31-1.09,2.64-1.42,4.01c-0.43,1.84-0.82,3.72-0.91,5.6c-0.11,2.13-0.14,4.35,0.3,6.42c0.48,2.25,2.16,4.25,5.06,3.73
			c3.04-0.55,5.24-2.34,6.9-4.85c0.82-1.24,0.88-2.46,0.11-3.88c-1.37-2.54-4.08-2.86-5.83-0.55C67.98,169,66.7,170.93,66.44,173.38
			z M28.29,60.91c0.09-4.3-2.21-6.31-5.64-5.77c-0.98,0.15-1.97,0.3-2.94,0.51c-2.34,0.51-2.7,0.98-2.66,3.29
			c0,0.17-0.08,0.37-0.02,0.51c0.25,0.58,0.39,1.37,0.84,1.66c0.79,0.52,1.23-0.28,1.56-0.88c0.67-1.23,1.61-2.1,2.98-2.52
			c2-0.63,3.64,0.69,3.27,2.76c-0.26,1.48-0.61,2.96-1.08,4.4c-0.47,1.46-0.35,2.7,0.79,3.79c0.72,0.69,1.38,1.43,2.09,2.13
			c0.78,0.78,0.96,1.79,0.43,2.61c-0.41,0.63-1.35,1.34-2.02,1.31c-2.13-0.08-4.29-0.31-6.18-1.53c-0.35-0.22-0.86-0.19-1.29-0.28
			c0.1,0.53,0.02,1.29,0.35,1.56c0.95,0.79,2.03,1.47,3.13,2.04c2.56,1.33,5.18,0.91,7.28-1.06c2.01-1.88,2.12-3.5,0.4-5.65
			c-0.76-0.94-1.62-1.82-2.24-2.84c-0.3-0.5-0.34-1.3-0.2-1.9C27.52,63.4,28.05,61.77,28.29,60.91z M433.46,59.11
			c0.31-0.21,0.41-0.32,0.52-0.35c2.65-0.55,5.29-1.12,7.95-1.62c0.71-0.13,1.24-0.32,1-1.11c-0.2-0.65-0.56-1.31-1.49-0.97
			c-2.76,1.01-5.63,1.19-8.53,1.3c-2.23,0.08-4.47,0.22-6.54,1.27c-0.79,0.4-1.77,0.62-1.23,1.81c0.59,1.29,1.41,0.32,2.16,0.15
			c1.28-0.3,2.56-0.55,3.99-0.86c0.05,1.03,0.01,1.76,0.13,2.46c0.25,1.47,0.58,2.93,0.88,4.39c0.32,1.54,0.64,3.09,1.01,4.91
			c-1.44,0.25-3.15,0.57-4.87,0.82c-0.74,0.11-1.6,0.03-1.59,1.07c0.01,1.09,0.7,1.53,1.75,1.32c1.69-0.33,3.4-0.63,5.07-1.07
			c2.49-0.65,5.12-0.87,7.35-2.35c1.48-0.99,1.46-1.61,0-2.53c-1.66,1.83-4.13,1.22-6.04,2.23c0.83-0.79,0.75-1.65,0.52-2.57
			C434.8,64.62,434.13,61.82,433.46,59.11z M433.18,21.93c0.03,0.17,0.05,0.34,0.08,0.51c1.37-0.13,2.75-0.17,4.09-0.43
			c0.43-0.08,0.74-0.76,1.11-1.17c-0.53-0.25-1.03-0.62-1.58-0.71c-1.39-0.22-2.8-0.26-4.19-0.47c-0.35-0.05-0.85-0.45-0.91-0.77
			c-0.53-2.52-1-5.06-1.42-7.6c-0.04-0.25,0.33-0.8,0.55-0.82c1.63-0.13,3.22-0.89,4.94-0.2c0.37,0.15,1.12-0.49,1.61-0.88
			c0.17-0.13,0.21-0.81,0.11-0.86c-0.71-0.37-1.47-0.89-2.21-0.89c-1.97,0.01-3.94,0.27-5.91,0.4c-2.45,0.16-4.91,0.28-7.36,0.46
			c-0.34,0.02-0.89,0.24-0.94,0.45c-0.09,0.41-0.03,1.02,0.23,1.3c0.3,0.33,0.89,0.56,1.35,0.55c1.46-0.01,2.92-0.2,4.39-0.21
			c0.33,0,0.91,0.35,0.95,0.61c0.38,2.63,0.62,5.29,1.03,7.91c0.15,0.95-0.14,1.28-0.99,1.36c-1.42,0.14-2.83,0.32-4.25,0.41
			c-0.97,0.06-1.21,0.49-0.91,1.36c0.39,1.15,1.34,1.36,3.17,0.96C428.44,22.69,430.82,22.34,433.18,21.93z M484.78,52.74
			c-2.48,0.29-4.96,0.62-7.45,0.88c-2.88,0.3-5.76,0.54-8.64,0.82c-0.69,0.07-1.43,0.33-1.23,1.14c0.11,0.44,0.75,0.93,1.23,1.04
			c0.78,0.19,1.65,0,2.44,0.15c0.46,0.09,1.15,0.47,1.22,0.83c0.32,1.47,0.48,2.98,0.63,4.48c0.14,1.41,0.15,2.84,0.29,4.25
			c0.03,0.33,0.31,0.84,0.56,0.9c0.5,0.12,1.11,0.12,1.58-0.07c0.69-0.27,1.28-0.69,0.97-1.68c-0.27-0.85-0.41-1.75-0.56-2.64
			c-0.25-1.49-0.35-3.01-0.72-4.47c-0.47-1.87-0.37-2.22,1.61-2.42c3.56-0.36,7.14-0.71,10.71-0.86c3.17-0.13,6.3,0.2,9.13,1.92
			c0.25,0.15,0.76-0.12,1.15-0.19c-0.22-0.58-0.29-1.51-0.69-1.69C493.15,53.41,489.07,52.6,484.78,52.74z M183.92,107.9
			c0.16,1.05,0.23,1.95,0.44,2.82c0.49,2.01,0.98,4.02,1.65,5.97c0.16,0.45,1.05,0.65,1.61,0.96c0.18-0.47,0.43-0.92,0.53-1.41
			c0.07-0.32-0.07-0.67-0.11-1.01c-0.42-3.29-0.96-6.57-1.23-9.87c-0.18-2.21-0.01-2.22-2.19-2.97c0-0.25-0.03-0.51,0-0.76
			c0.16-1.26-0.77-1.88-1.65-2.2c-0.77-0.28-2.07-0.42-2.53,0.02c-1.71,1.61-3.53,3.21-4.26,5.6c-0.45,1.47-0.05,2.83,0.87,3.88
			c0.81,0.92,2.07,0.7,3.17,0.33c0.77-0.26,1.52-0.61,2.29-0.9C182.92,108.19,183.36,108.07,183.92,107.9z M132.33,121.4
			c-0.08-0.17-0.15-0.35-0.23-0.52c0.27-0.36,0.53-0.74,0.82-1.09c2.5-3.04,3.27-6.68,1.07-10.28c-2-3.28-4.74-3.68-7.25-0.75
			c-0.67,0.78-1.29,1.68-0.45,2.49c0.99,0.96,1.58-0.24,2.17-0.82c1.13-1.12,1.98-1.11,2.99,0.13c1.81,2.22,1.67,5.8-0.35,7.84
			c-1.18,1.2-2.48,2.29-3.56,3.57c-0.37,0.44-0.43,1.35-0.26,1.94c0.09,0.33,0.98,0.7,1.44,0.62c4.66-0.84,9.3-1.77,13.95-2.69
			c0.29-0.06,0.63-0.16,0.8-0.37c0.26-0.3,0.56-0.74,0.51-1.07c-0.04-0.23-0.65-0.56-0.97-0.52c-1.58,0.17-3.16,0.46-4.73,0.69
			C136.3,120.85,134.31,121.12,132.33,121.4z M170.79,70.38c-0.14,0.11-0.28,0.22-0.42,0.32c0.2,0.46,0.32,0.96,0.61,1.36
			c0.39,0.55,0.83,1.12,1.38,1.49c0.44,0.3,1.17,0.56,1.61,0.4c1.29-0.46,2.54-1.07,3.74-1.74c2.06-1.16,2.8-3.02,2.12-5.29
			c-0.94-3.15-2.36-5.96-5.78-7.12c-1.12-0.38-0.95-1.05-0.38-1.78c0.88-1.13,2.08-1.65,3.49-1.69c1.56-0.04,3.11-0.02,4.67-0.08
			c1.09-0.04,2.09-0.98,1.99-1.79c-0.15-1.1-1.12-1.94-2.17-1.73c-2.23,0.46-4.47,0.9-6.65,1.53c-2.67,0.77-4.2,2.73-4.93,5.33
			c-0.33,1.18,0.23,2.16,1.45,2.26c2.79,0.23,4.36,1.89,5.57,4.19c0.87,1.66,0.94,2.84-0.03,3.94c-1.27,1.43-2.9,1.84-4.53,1.13
			C171.96,70.87,171.37,70.63,170.79,70.38z M176.94,21.45c0.05,0.47,0.1,0.75,0.11,1.04c0.07,2.59,0.11,5.18,0.23,7.77
			c0.03,0.66,0.26,1.35,0.55,1.95c0.12,0.25,0.67,0.47,0.97,0.41c0.28-0.06,0.58-0.46,0.7-0.78c0.13-0.35,0.08-0.77,0.09-1.15
			c0.05-4.02,0.08-8.04,0.15-12.06c0.01-0.95,0.27-1.92,0.13-2.84c-0.07-0.49-0.7-0.97-1.19-1.29c-0.11-0.07-0.85,0.49-0.99,0.87
			c-0.29,0.8-0.31,1.69-0.57,2.5c-0.2,0.6-0.47,1.41-0.95,1.66c-2.46,1.25-5.16,1.66-7.89,1.82c-0.95,0.06-1.6-0.5-1.38-1.56
			c0.25-1.26,0.68-2.5,0.88-3.77c0.09-0.53-0.02-1.44-0.36-1.63c-0.77-0.44-1.54-0.06-1.83,0.84c-0.5,1.54-1.05,3.09-1.37,4.68
			c-0.47,2.3,0.77,3.85,3.1,3.88c2.78,0.04,5.49-0.4,8.02-1.67C175.8,21.86,176.32,21.69,176.94,21.45z M82.23,22.84
			c-0.66,0.04-1.25,0.02-1.81,0.12c-0.78,0.14-1.14-0.19-1.27-0.9c-0.18-1.06-0.37-2.12-0.55-3.18c-0.56-3.36-2.58-5.48-5.96-5.41
			c-2.28,0.05-4.57-0.15-6.86-0.21c-0.51-0.01-1.03,0.05-1.52,0.2c-0.6,0.18-1.3,0.35-1.1,1.28c0.18,0.88,0.76,1.03,1.54,1.02
			c2.51-0.03,5.02,0.02,7.52-0.06c1.54-0.05,2.7,0.56,3.22,1.91c0.53,1.39,0.74,2.9,1.07,4.37c0.26,1.12-0.32,1.47-1.34,1.46
			c-1.9-0.02-3.81,0-5.71-0.02c-0.83-0.01-1.47,0.12-1.4,1.19c0.07,1.09,0.59,1.32,1.63,1.21c1.96-0.21,3.93-0.22,5.9-0.36
			c1.05-0.08,1.27,0.45,1.15,1.33c-0.12,0.85-0.33,1.71-0.29,2.55c0.02,0.4,0.47,0.91,0.86,1.1c0.24,0.11,0.97-0.23,1.06-0.5
			c0.38-1.2,0.71-2.43,0.85-3.68c0.11-0.96,0.38-1.52,1.4-1.68C81.47,24.45,82.12,24,82.23,22.84z M121.66,29.42
			c0.28-0.57,0.4-0.84,0.54-1.09c0.82-1.47,1.77-2.87,2.44-4.4c1.77-3.98,0.5-7.13-3.29-8.68c-0.78-0.32-2.02-0.32-2.72,0.09
			c-1.77,1.03-3.37,2.36-4.99,3.63c-0.2,0.15-0.12,0.66-0.17,1.01c0.31-0.04,0.66,0,0.93-0.14c0.37-0.18,0.64-0.57,1.02-0.72
			c0.88-0.36,1.86-0.51,2.68-0.97c2.36-1.33,4.67-0.07,4.78,2.65c0.12,2.79-1.66,4.74-2.96,6.9c-0.69,1.14-1.66,2.12-2.26,3.3
			c-0.26,0.51-0.05,1.4,0.22,1.99c0.1,0.21,1.07,0.13,1.59-0.02c1.41-0.38,2.78-0.92,4.19-1.29c2.62-0.69,5.27-1.27,7.88-1.98
			c0.32-0.09,0.51-0.7,0.76-1.06c-0.35-0.14-0.71-0.43-1.04-0.39c-2.35,0.3-4.68,0.69-7.02,1.02
			C123.47,29.38,122.68,29.36,121.66,29.42z M408.96,247.23c1.36-0.38,2.73-0.71,4.07-1.14c0.67-0.22,1.37-1.91,0.97-2.23
			c-0.67-0.55-1.26-0.18-1.8,0.34c-0.2,0.19-0.54,0.36-0.81,0.35c-1.54-0.06-3.14,0.03-4.61-0.36c-0.69-0.19-1.6-1.36-1.56-2.04
			c0.05-0.85,0.83-1.83,1.56-2.43c0.57-0.47,1.56-0.38,2.32-0.65c2.16-0.75,4.43-1.41,5.42-3.79c0.21-0.5,0.29-1.23,0.07-1.69
			c-0.48-1-2.92-1.65-3.85-1.03c-1.71,1.15-3.39,2.37-4.97,3.69c-0.64,0.54-1.17,0.94-2.03,0.81c-0.8-0.12-1.36,0.14-1.34,1.1
			c0.03,1.27-0.01,2.55,0.04,3.82c0.02,0.54,0.12,1.12,0.35,1.61C403.92,246.02,406.1,247.23,408.96,247.23z M392.2,153.57
			c5.13,0.27,8.84,0.42,12.54,0.7c0.71,0.05,1.36,0.71,2.07,0.99c0.36,0.14,0.82,0.14,1.19,0.06c0.25-0.06,0.39-0.49,0.65-0.59
			c1.35-0.5,0.74-1.15,0.08-1.66c-0.42-0.32-1-0.53-1.53-0.6c-2.01-0.26-4.02-0.5-6.04-0.66c-6.18-0.46-12.35-0.37-18.5,0.38
			c-2.72,0.33-5.42,0.85-8.13,1.27c-0.34,0.05-0.72,0.09-1.03-0.03c-1.04-0.41-1.67,0-1.69,1.01c-0.02,0.9,0.39,1.76,1.56,1.56
			c1.64-0.28,3.26-0.73,4.91-0.93C383.39,154.47,388.49,153.96,392.2,153.57z M388.43,229.6c-0.26,0.58-0.36,1.32-0.76,1.58
			c-1.03,0.66-1.2,1.52-0.95,2.57c0.21,0.9-0.31,1.1-1.02,1.28c-1.53,0.38-3.05,0.8-4.55,1.27c-0.79,0.25-1.22,1.67-0.86,2.58
			c0.37,0.94,1.13,0.81,1.85,0.6c1.32-0.38,2.62-0.84,3.93-1.24c0.39-0.12,0.8-0.19,1.33-0.32c0.26,2.34,1.53,4.38,0.58,6.72
			c-0.39,0.96,0.5,1.3,1.21,1.45c1.09,0.22,2.31-1.27,2.04-2.35c-0.4-1.63-0.78-3.27-1.08-4.92c-0.07-0.36,0.17-1.09,0.4-1.15
			c1.8-0.48,3.63-0.92,5.47-1.19c0.78-0.11,1.54,0.03,1.49-1.05c-0.05-0.96-0.68-1.32-1.6-1.28c-1.03,0.04-2.07,0.07-3.11,0.08
			c-3.76,0.03-3.29,0.09-3.23-3.15C389.58,230.31,389.36,229.63,388.43,229.6z M126.75,66.12c0.08,0.7,0.16,1.28,0.22,1.87
			c0.27,2.53,0.5,5.07,0.83,7.59c0.08,0.59,0.53,1.14,0.79,1.67c0.82-0.74,1.42-1.29,2.21-2c-0.17-0.75-0.53-1.73-0.62-2.74
			c-0.29-3.4-0.46-6.81-0.73-10.21c-0.04-0.55-0.38-1.09-0.6-1.63c-0.2-0.49-0.55-0.95-0.61-1.45c-0.16-1.38-2.21-2.9-3.43-2.25
			c-2.06,1.09-4.12,2.32-4.91,4.74c-0.46,1.41-0.63,2.87,0.44,4.16c1.16,1.4,2.67,1.19,4.18,0.86
			C125.2,66.59,125.85,66.37,126.75,66.12z M68.26,71.69c-2.05-1.85-1.48-4.24-0.8-6.58c0.45-1.56,1.22-3.03,1.68-4.59
			c0.16-0.54,0.05-1.57-0.29-1.76c-0.72-0.41-1.61-0.26-2.06,0.69c-0.46,0.98-0.96,1.94-1.37,2.93c-1.07,2.62-1.58,5.35-0.82,8.1
			c0.72,2.58,2.84,5.06,5.61,4.51c2.39-0.47,4.5-1.46,6.1-3.38c1.01-1.2,0.91-2.5-0.31-3.79c-1.06-1.12-2.44-1.3-3.55-0.29
			C71.01,68.85,69.66,70.29,68.26,71.69z M72.75,119.14c-0.18,2.38-0.39,4.59-0.5,6.81c-0.03,0.56,0.27,1.14,0.41,1.7
			c0.55-0.31,1.28-0.49,1.6-0.96c0.39-0.57,0.53-1.36,0.63-2.08c0.17-1.24,0.11-2.51,0.35-3.73c0.53-2.74,1.19-5.46,1.75-8.19
			c0.07-0.36-0.13-0.79-0.21-1.18c-0.51,0.12-1.2,0.08-1.49,0.4c-0.44,0.48-0.7,1.18-0.88,1.83c-0.52,1.93-1.64,3.21-3.65,3.58
			c-0.89,0.16-1.79,0.31-2.69,0.29c-3.1-0.04-3.46-0.02-2.55-3.48c0.48-1.83,1.6-3.49,2.36-5.26c0.14-0.33-0.09-0.82-0.15-1.24
			c-0.63,0.25-1.4,0.35-1.85,0.79c-0.57,0.55-0.94,1.34-1.31,2.07c-1.11,2.18-1.82,4.48-1.82,6.95c0,1.62,0.52,2.21,2.09,2.41
			c0.89,0.11,1.82,0.16,2.71,0.07C69.19,119.74,70.83,119.44,72.75,119.14z M69.68,250.56c1.97,0.75,2.91-1.14,2.51-2.79
			c-0.29-1.21-0.38-2.48-0.63-3.7c-0.19-0.9,0.13-1.43,0.99-1.63c1.93-0.45,3.88-0.85,5.81-1.31c0.58-0.14,1.24-0.28,1.66-0.65
			c0.29-0.25,0.3-0.91,0.26-1.38c-0.01-0.14-0.62-0.38-0.92-0.33c-2.51,0.37-5.02,0.77-7.51,1.21c-0.81,0.14-1.08-0.13-1.17-0.91
			c-0.23-1.92-0.47-3.85-0.86-5.74c-0.1-0.49-0.78-0.85-1.2-1.27c-0.3,0.43-0.89,0.87-0.87,1.29c0.11,2.05,0.3,4.11,0.63,6.14
			c0.15,0.96-0.13,1.43-0.99,1.58c-1.06,0.18-2.16,0.17-3.2,0.43c-0.48,0.12-1.1,0.6-1.21,1.04c-0.29,1.1,0.53,1.49,1.45,1.44
			c1.53-0.09,3.04-0.31,4.8-0.5C69.37,245.75,69.52,248.06,69.68,250.56z M439.49,247.99c0.26,0,0.63,0.11,0.76-0.02
			c0.44-0.44,1.04-0.94,1.1-1.47c0.04-0.34-0.78-1.12-1.19-1.1c-1.94,0.08-3.11-0.66-3.49-2.55c-0.16-0.8-0.17-1.63-0.29-2.44
			c-0.16-1.07,0.22-1.74,1.31-2.01c1.3-0.32,2.59-0.66,3.87-1.02c0.84-0.24,1.47-0.81,1.17-1.68c-0.11-0.31-1.06-0.46-1.61-0.43
			c-0.85,0.04-1.69,0.34-2.54,0.44c-1.38,0.17-1.55-0.08-1.2-1.39c0.2-0.75,0.5-1.53,0.43-2.27c-0.05-0.48-0.64-1.01-1.12-1.28
			c-0.18-0.1-0.96,0.38-1.08,0.72c-0.43,1.3-0.64,2.68-1.07,3.99c-0.15,0.46-0.61,1.01-1.06,1.16c-1.34,0.48-2.73,0.85-4.12,1.13
			c-0.93,0.19-1.08,0.69-0.93,1.48c0.17,0.9,0.84,0.92,1.5,0.79c0.97-0.2,1.93-0.48,2.88-0.76c0.77-0.23,1.14-0.04,1.12,0.83
			c-0.02,0.86,0.05,1.73,0.12,2.59C434.27,245.55,436.66,247.85,439.49,247.99z M425.18,235.19c0.56-0.19,0.98-0.28,1.36-0.47
			c0.96-0.46,1.63-2,1.2-2.87c-0.52-1.07-1.55-1.2-2.44-0.77c-1.5,0.72-3.05,1.48-4.28,2.57c-2.05,1.81-2.85,5.57-0.51,7.9
			c0.92,0.92,1.59,2.16,2.11,3.37c0.23,0.52-0.05,1.45-0.41,1.95c-0.17,0.23-1.29,0.12-1.67-0.2c-1.03-0.86-1.89-1.93-2.85-2.89
			c-0.25-0.25-0.61-0.59-0.89-0.56c-0.23,0.02-0.6,0.54-0.58,0.82c0.04,0.71,0.07,1.53,0.43,2.08c1.12,1.71,2.73,2.86,4.65,3.57
			c0.3,0.11,0.71,0.13,0.99,0.01c2.74-1.17,4.31-4.24,2.01-6.92c-0.97-1.13-1.76-2.46-2.4-3.81c-0.31-0.66-0.34-1.66-0.07-2.34
			c0.51-1.25,1.56-2.12,2.85-2.62c0.06-0.02,0.16,0.03,0.28,0.06C425.01,234.38,425.08,234.7,425.18,235.19z M104.37,238.97
			c-0.54,0.11-1.2,0.05-1.59,0.35c-2.06,1.56-3.79,5.57-2.97,7.97c0.48,1.41,1.54,2.08,2.85,1.39c0.94-0.49,1.83-1.14,2.62-1.85
			c0.67-0.6,1.11-0.57,1.92-0.18c1.16,0.57,2.47,0.87,3.75,1.17c0.28,0.07,0.85-0.28,0.96-0.57c0.11-0.3-0.05-0.85-0.29-1.12
			c-0.32-0.36-0.79-0.68-1.26-0.82c-1.56-0.46-2.2-1.57-2.37-3.06C107.74,240.14,106.57,239.1,104.37,238.97z M123.36,241.03
			c-1.17-0.84-1.91-0.81-2.32,0.28c-0.92,2.45-1.38,5-0.71,7.6c0.09,0.34,0.99,0.83,1.09,0.75c0.7-0.59,1.47-1.22,1.87-2.01
			c0.49-0.98,0.62-2.14,0.91-3.21c0.29-1.06,0.9-2.17,1.98-2.08c0.8,0.06,1.7,0.92,2.25,1.65c0.92,1.24,1.62,2.64,2.36,4.01
			c0.44,0.81,0.91,1.61,1.97,1.1c1.18-0.57,0.91-1.51,0.38-2.41c-0.91-1.52-1.88-3-2.77-4.53
			C128.59,239.07,126.1,238.62,123.36,241.03z M85.36,243.26c0.17,1.35,0.33,2.98,0.63,4.59c0.06,0.33,0.8,0.87,0.93,0.8
			c0.69-0.4,1.36-0.9,1.87-1.5c0.25-0.29,0.2-0.89,0.2-1.35c0.04-2.93,1.05-4.4,3.75-5.55c1.18-0.5,2.35-1.07,3.44-1.74
			c0.39-0.24,0.54-0.88,0.8-1.33c-0.52-0.09-1.1-0.38-1.55-0.25c-1.73,0.52-3.44,1.11-5.11,1.82c-1.01,0.43-1.89,0.87-3.06,0.43
			c-0.93-0.35-1.71,0.01-1.75,1.21C85.49,241.25,85.42,242.11,85.36,243.26z M26.93,26.34c-0.1,0-0.19,0.01-0.29,0.01
			c0,1.21-0.15,2.44,0.05,3.61c0.12,0.72,0.78,1.35,1.19,2.01c0.42-0.28,0.84-0.59,1.28-0.85c0.78-0.46,0.95-1.02,0.47-1.82
			c-0.16-0.27-0.14-0.67-0.16-1.01c-0.14-2.84-0.24-5.69-0.42-8.53c-0.13-2.02-0.36-4.03-0.56-6.05c-0.1-1.01-0.9-1.47-1.7-1.4
			c-0.36,0.03-0.67,0.97-0.94,1.53c-0.08,0.16,0.03,0.42,0.05,0.63C26.25,18.45,26.59,22.4,26.93,26.34z M137.3,166.66
			c-0.11,0.04-0.21,0.07-0.32,0.11c0.52,1.48,0.91,3.02,1.61,4.41c0.47,0.93,1.77,0.77,2.66-0.16c0.78-0.81,0.49-1.37-0.37-1.96
			c-0.39-0.27-0.67-0.9-0.74-1.41c-0.54-4.02-1.03-8.04-1.51-12.07c-0.12-0.96-0.37-1.72-1.56-1.6c-1.28,0.13-1.02,1.05-0.94,1.85
			C136.51,159.45,136.91,163.06,137.3,166.66z M22.44,176.75c1.71,0.33,2.42-0.23,2.44-2.02c0.01-0.52-0.04-1.03-0.1-1.55
			c-0.41-3.76-0.78-7.53-1.26-11.29c-0.16-1.25-0.5-2.5-0.93-3.69c-0.11-0.31-0.92-0.64-1.26-0.52c-0.31,0.11-0.61,0.81-0.58,1.24
			c0.14,2.19,0.39,4.38,0.6,6.56C21.71,169.19,22.07,172.91,22.44,176.75z M394.06,158.44c0.16-0.02,0.31-0.05,0.47-0.07
			c-0.13-0.98-0.15-1.98-0.41-2.92c-0.22-0.79-0.83-0.86-1.33-0.15c-0.22,0.3-0.4,0.7-0.42,1.06c-0.1,2.62-0.24,5.24-0.18,7.86
			c0.03,1.36,0.37,2.74,0.71,4.07c0.12,0.47,0.65,1.15,1.01,1.17c0.49,0.02,1.16-0.4,1.47-0.83c0.27-0.38,0.25-1.06,0.16-1.58
			C395.09,164.17,394.56,161.31,394.06,158.44z M116.8,243.6c0.1-0.04,0.19-0.07,0.29-0.11c0-0.34,0.13-0.77-0.03-1.02
			c-0.34-0.52-0.83-0.95-1.26-1.41c-0.33,0.48-0.77,0.91-0.95,1.44c-0.2,0.59-0.31,1.29-0.21,1.91c0.25,1.58,0.56,3.17,1.02,4.69
			c0.1,0.34,1.03,0.76,1.42,0.63c1.25-0.4,1.58-1.82,0.99-3C117.57,245.73,117.22,244.64,116.8,243.6z M115.43,235.65
			c-0.33-0.26-0.7-0.78-1.08-0.79c-1.03-0.03-1.38,0.74-1.33,1.65c0.04,0.72-0.17,1.84,0.91,1.81
			C115.41,238.28,114.96,236.82,115.43,235.65z"/>
		<path d="M339.29,172.87c0.75,0.04,1.7-0.01,2.62,0.16c0.56,0.11,1.31,0.42,1.54,0.86c0.38,0.75-0.42,0.95-0.95,1.35
			c-0.9,0.67-1.66,0.63-2.63,0.24c-0.66-0.26-1.44-0.31-2.17-0.3c-3.71,0.07-7.43,0.06-11.13,0.36c-1.86,0.15-3.68,0.86-5.49,1.41
			c-0.74,0.22-1.33,0.43-1.6-0.55c-0.26-0.97-0.04-1.74,0.96-2.09c1.92-0.67,1.84-0.64,1.4-2.79c-0.57-2.78-0.98-5.6-1.46-8.4
			c-0.25-1.49-0.54-2.97-0.75-4.46c-0.07-0.5,0.06-1.02,0.12-1.75c-1.12,0.19-2.18,0.37-3.25,0.57c-0.29,0.05-0.64,0.31-0.86,0.22
			c-0.49-0.21-1.08-0.49-1.33-0.91c-0.33-0.56-0.08-1.04,0.63-1.4c2.56-1.31,5.28-1.11,8-1.03c2.59,0.07,5.18,0.15,7.77,0.19
			c2.63,0.04,5.27,0.02,7.9,0.08c0.99,0.02,1.61,0.92,1.38,1.9c-0.12,0.53-0.34,1.05-0.6,1.82c-0.86-0.58-1.57-1.05-2.34-1.56
			C338.18,162.07,339.54,167.22,339.29,172.87z M333.06,156.98c0.09,0.09,0.19,0.17,0.28,0.26c-1.51,2.46-3.1,4.87-4.5,7.39
			c-1.43,2.59-2.29,5.4-2.7,8.29c3.49,0,6.91,0,10.33,0c0.56-5.57-0.99-10.71-1.6-16.07C334.3,156.9,333.68,156.94,333.06,156.98z
			 M323.9,168.1c2.07-3.76,4.98-6.94,6.28-11.34c-2.37,0-4.52,0.02-6.67-0.01c-1.39-0.02-1.59,0.14-1.39,1.55
			c0.36,2.46,0.75,4.93,1.17,7.38C323.44,166.5,323.7,167.29,323.9,168.1z"/>
		<path d="M427.74,126.89c-0.14-0.97-0.31-1.71-0.35-2.46c-0.14-2.67-0.23-5.34-0.36-8.01c-0.04-0.73-0.07-1.49-0.28-2.18
			c-0.09-0.32-0.64-0.76-0.91-0.72c-0.96,0.15-1.42-0.27-1.55-1.11c-0.16-1.01,0.56-1.38,1.35-1.56c1.12-0.26,2.23-0.14,3.38-0.08
			c2.79,0.16,5.6-0.19,8.41-0.23c3.4-0.04,6.81,0.01,10.21,0.05c0.6,0.01,1.21,0.26,1.8,0.19c1.49-0.18,2.42,0.63,3.34,1.63
			c-0.51,0.48-0.94,1-1.49,1.36c-0.25,0.16-0.73,0.07-1.07-0.03c-1.14-0.33-2.26-0.72-3.74-1.2c0.31,1.73,0.51,3.15,0.83,4.54
			c0.51,2.27,1.12,4.52,1.63,6.78c0.17,0.77,0.61,0.86,1.29,0.94c1.09,0.13,2.19,0.37,3.23,0.72c0.67,0.23,0.6,0.65,0.12,1.28
			c-1.07,1.42-2.35,1.08-3.81,0.96c-3.13-0.26-6.3-0.45-9.42-0.26c-3.42,0.21-6.87,0.66-10.2,1.43c-1.93,0.45-3.69,0.09-5.51-0.06
			c-0.74-0.06-1.62-0.31-1.39-1.45c0.22-1.08,0.86-1.38,1.91-1.08C425.92,126.57,426.71,126.68,427.74,126.89z M443.81,112.67
			c-1.87,0-3.58-0.05-5.3,0.02c-0.8,0.03-1.43,0.45-1.24,1.43c0.66,3.41,1.33,6.82,2.03,10.22c0.05,0.23,0.38,0.54,0.6,0.56
			c2.09,0.13,4.19,0.21,6.55,0.31C445.54,120.87,444.68,116.77,443.81,112.67z M433.29,126.08c0-0.01,0-0.02,0-0.03
			c0.61,0,1.21,0.02,1.82,0c1.6-0.06,1.71-0.22,1.47-1.77c-0.55-3.49-1.08-6.99-1.66-10.48c-0.05-0.31-0.46-0.82-0.69-0.81
			c-1.24,0.06-2.47,0.31-3.72,0.37c-1.05,0.05-1.31,0.58-1.24,1.51c0.21,3.02,0.33,6.04,0.61,9.05c0.22,2.31,0.35,2.34,2.64,2.21
			C432.77,126.11,433.03,126.1,433.29,126.08z"/>
		<path d="M333.74,67.37c-1.03,0.25-1.29,0.65-0.96,1.9c0.3,1.15-0.27,2.52-0.48,3.8c-0.08,0.49-0.2,0.97-0.36,1.71
			c2.79-0.46,5.35-0.88,8.22-1.35c-0.76-2.64-1.61-5.23-2.22-7.88c-0.19-0.83,0.28-1.81,0.47-2.87c1.47,0.79,2.2,1.62,2.47,2.95
			c0.4,1.98,1.02,3.92,1.46,5.89c0.14,0.65,0.02,1.35,0.02,2.13c1.05-0.03,2.22,0.52,3.32-0.44c0.2-0.17,1,0.18,1.39,0.47
			c0.26,0.19,0.51,0.88,0.39,1.03c-0.43,0.51-1.01,1.23-1.57,1.25c-2.49,0.12-5-0.08-7.49,0.06c-2.27,0.12-4.73,0.07-6.74,0.94
			c-1.75,0.76-3.51,0.57-5.19,1.11c-0.78,0.25-1.57,0.57-2.37,0.62c-0.48,0.03-1-0.4-1.5-0.62c0.29-0.4,0.49-0.97,0.88-1.18
			c0.87-0.46,1.81-0.91,2.77-1.07c1.16-0.2,1.39-0.69,0.98-1.67c-1.18-2.87-2.39-5.74-3.55-8.63c-0.57-1.43-1.02-2.88-2.57-3.65
			c-0.29-0.15-0.49-0.97-0.36-1.35c0.12-0.33,0.76-0.64,1.18-0.66c5.43-0.31,10.87-0.66,16.31-0.77c1.75-0.04,3.62-0.53,5.31,0.56
			c0.62,0.4,1.09,0.78,0.8,1.52c-0.32,0.8-1.05,1.16-1.8,0.74c-1.87-1.02-3.83-0.42-5.74-0.38c-0.55,0.01-1.28,0.9-1.56,1.55
			C334.69,64.46,333.44,65.63,333.74,67.37z M329,72.15c1.26-3.54,2.48-6.94,3.8-10.65c-2.61,0.33-5,0.63-7.48,0.94
			C326.62,65.85,327.8,68.97,329,72.15z"/>
		<path d="M315.64,11.38c-0.51-1.88,0.14-2.58,1.84-2.58c2.75,0,5.54-0.01,8.25-0.43c3.93-0.61,7.84-1.2,11.82-1.15
			c1.55,0.02,3.09-0.16,4.64-0.17c0.4,0,0.99,0.19,1.16,0.48c0.14,0.24-0.19,0.78-0.35,1.17c-0.11,0.27-0.25,0.54-0.42,0.78
			c-0.33,0.51-0.6,1.04-1.42,0.68c-0.3-0.13-0.98,0.02-1.13,0.26c-1.05,1.66-1.97,3.39-2.99,5.07c-1.09,1.8-0.86,3.79-1.14,5.96
			c1.52-0.19,2.86-0.4,4.22-0.52c0.54-0.05,1.12-0.02,1.63,0.15c0.72,0.24,0.94,0.92,0.44,1.43c-0.65,0.67-1.22,1.82-2.56,0.95
			c-0.36-0.24-1.01-0.1-1.52-0.04c-3.12,0.38-6.24,0.8-9.36,1.17c-1.07,0.13-2.16,0.12-3.22,0.25c-1.74,0.22-3.48,0.5-5.22,0.76
			c-0.26,0.04-0.51,0.09-0.77,0.11c-0.74,0.06-1.43-0.01-1.51-0.97c-0.08-0.98,0.65-1.23,1.38-1.38c0.79-0.17,1.6-0.24,2.55-0.37
			c-0.11-1.32-0.08-2.58-0.35-3.77c-0.45-2.01-1.07-3.99-1.65-5.97c-0.52-1.77-1.58-2.37-3.49-2.03
			C316.2,11.26,315.92,11.32,315.64,11.38z M331.93,22.07c-1.4-3.98-2.72-7.76-4.09-11.66c-1.43,0.23-3.08,0.49-4.72,0.78
			c-0.81,0.15-0.97,0.64-0.78,1.44c0.44,1.8,0.74,3.63,1.22,5.42c0.36,1.31,0.9,2.58,1.42,3.85c0.11,0.26,0.48,0.6,0.72,0.59
			C327.75,22.38,329.79,22.22,331.93,22.07z M337.47,9.47c-2,0.12-3.84,0.25-5.68,0.35c-1.28,0.07-1.48,0.37-1.04,1.62
			c0.59,1.67,1.18,3.33,1.79,4.99c0.25,0.68,0.54,1.33,0.82,2c0.11,0.02,0.22,0.04,0.33,0.06C334.92,15.57,336.13,12.66,337.47,9.47
			z"/>
		<path d="M485.23,154.02c-3.71-0.26-3.71-0.26-3.62-2.23c2.24-0.95,4.56-0.44,6.85-0.26c1.58,0.13,3.15,0.44,4.73,0.56
			c2.45,0.19,4.93,0.19,7.36,0.49c0.85,0.1,1.75,0.72,2.38,1.35c0.74,0.75-0.05,1.99-1.25,1.99c-0.62,0-1.24-0.32-1.87-0.45
			c-1.07-0.23-2.14-0.44-3.59-0.74c0.37,2.24,0.63,4.09,0.99,5.93c0.4,2.07,0.84,4.15,1.37,6.19c0.11,0.42,0.65,0.89,1.09,1.03
			c0.77,0.23,1.63,0.18,2.43,0.33c0.63,0.12,1.25,0.31,1.83,0.57c0.23,0.1,0.4,0.44,0.48,0.7c0.04,0.12-0.21,0.48-0.29,0.47
			c-1.17-0.14-0.71,2.22-2.38,1.46c-1.06-0.48-2.3-0.78-3.46-0.8c-2.74-0.05-5.54-0.52-8.21,0.52c-0.59,0.23-1.21,0.53-1.63,0.97
			c-0.7,0.74-1.46,0.47-1.76-0.07c-0.88-1.6-2.09-0.87-3.25-0.68c-0.46,0.08-0.92,0.25-1.39,0.28c-0.92,0.07-1.52-0.3-1.52-1.31
			c0-0.99,0.41-1.48,1.5-1.48c1.11,0.01,2.23-0.2,3.34-0.32c0.75-0.09,1-0.53,0.94-1.27c-0.2-2.45-0.35-4.91-0.55-7.37
			c-0.06-0.69-0.16-1.3-1.09-1.52c-0.99-0.23-0.44-1.01-0.28-1.58C484.63,155.9,484.92,155.03,485.23,154.02z M495.82,168.16
			c-0.4-2.19-0.85-4.19-1.12-6.21c-0.28-2.11-0.36-4.25-0.63-6.37c-0.05-0.39-0.58-0.95-0.97-1.02c-1.73-0.32-3.49-0.5-5.24-0.69
			c-0.38-0.04-0.77,0.06-1.09,0.08c0.49,0.96,1.15,1.75,1.27,2.61c0.42,3.24,0.71,6.51,0.96,9.77c0.11,1.47,0.35,1.82,1.83,1.82
			C492.45,168.16,494.08,168.16,495.82,168.16z"/>
		<path d="M386.51,158.85c-1.73-0.06-2.04,1.1-2.42,2.28c-0.41,1.25-0.96,2.46-1.47,3.68c-0.22,0.51-0.5,1-0.76,1.5
			c-0.68,1.3-1.35,2.6-1.93,3.7c3.23,0,6.71-0.08,10.18,0.02c3.48,0.1,6.95,0.39,10.53,0.6c-0.17-1.93-0.34-3.73-0.49-5.54
			c-0.22-2.62-0.45-5.24-0.63-7.87c-0.05-0.69-0.2-1.65,0.86-1.71c0.94-0.05,1.45,0.55,1.54,1.54c0.25,2.75,0.55,5.5,0.84,8.24
			c0.07,0.64,0.17,1.28,0.24,1.93c0.13,1.11,0.26,2.22,0.41,3.5c0.3-0.06,0.82-0.25,1.34-0.25c0.59,0,1.23,0.08,1.75,0.34
			c0.24,0.12,0.45,0.93,0.31,1.08c-0.56,0.58-1.28,1.47-1.91,1.44c-4.35-0.21-8.69-0.77-13.04-0.92c-4.74-0.16-9.49,0.01-14.24,0
			c-1.16,0-2.37,0.05-3.46-0.27c-0.71-0.21-1.4-0.95-1.8-1.63c-0.52-0.9-0.04-1.57,1.01-1.42c1.05,0.15,2.05,0.6,3.08,0.9
			c0.28,0.08,0.57,0.14,0.93,0.22c0.04-0.28,0.13-0.49,0.09-0.68c-0.74-3.13-1.49-6.26-2.25-9.38c-0.1-0.42-0.28-0.82-0.39-1.23
			c-0.25-0.9-0.32-1.7,0.85-2.03c1.15-0.32,1.37,0.53,1.55,1.25c0.56,2.34,1.03,4.71,1.54,7.07c0.05,0.24,0.12,0.48,0.28,1.06
			c1.1-2.32,2.06-4.35,3.03-6.37c0.54-1.13,1.09-2.25,1.67-3.36c0.34-0.64,0.82-0.89,1.61-0.66c0.78,0.23,1.03,0.61,0.96,1.39
			C386.28,157.75,386.42,158.22,386.51,158.85z"/>
		<path d="M377.61,113.31c-1.6,0.3-3.26,0.62-4.97,0.94c0.14-1.76,0.7-2.52,2.24-2.78c1.99-0.34,4.02-0.47,6.01-0.77
			c3.54-0.53,7.06-1.12,10.59-1.68c0.17-0.03,0.35-0.17,0.5-0.12c0.75,0.21,1.5,0.47,2.24,0.71c-0.29,0.77-0.51,1.57-0.88,2.29
			c-0.4,0.78-1.06,0.4-1.7,0.29c-0.99-0.17-2.03-0.31-3.01-0.19c-2.53,0.31-5.03,0.79-7.56,1.15c-1.01,0.14-1.13,0.41-0.76,1.43
			c0.96,2.71,1.7,5.51,2.53,8.27c0.28,0.94,0.58,1.87,0.9,2.88c0.75-1.9,1.43-3.68,2.16-5.43c0.79-1.91,1.65-3.8,2.45-5.72
			c0.46-1.1,2.63-1.88,3.6-1.23c0.62,0.42,0.8,1.15,0.15,1.49c-1.98,1.05-2.56,2.95-3.16,4.83c-0.83,2.62-1.64,5.24-2.35,7.89
			c-0.38,1.42-0.05,1.6,1.34,1.21c1.65-0.46,3.34-0.79,5.01-1.21c1.01-0.26,1.34,0.8,1.21,1.07c-0.38,0.8-1.13,2.07-1.68,2.04
			c-2.61-0.15-5.02,0.64-7.48,1.21c-2.13,0.49-4.25,1.06-6.39,1.48c-0.48,0.09-1.24-0.12-1.52-0.48c-0.36-0.45-0.53-1.21-0.43-1.77
			c0.05-0.27,0.91-0.51,1.42-0.56c1.56-0.14,3.14-0.17,4.66-0.25C381,124.52,379.34,119.03,377.61,113.31z"/>
		<path d="M332.28,128.28c0.46-0.07,1.19-0.32,1.89-0.25c0.57,0.06,1.4,0.4,1.56,0.83c0.16,0.41-0.3,1.16-0.65,1.64
			c-0.39,0.54-0.93,0.28-1.56,0.2c-1.35-0.17-2.76,0.09-4.14,0.25c-3.21,0.37-6.41,0.82-9.62,1.16c-0.83,0.09-1.85,0.06-1.92-1.18
			c-0.07-1.1,0.61-1.39,1.61-1.56c0.49-0.08,1-0.77,1.28-1.3c0.74-1.41,1.36-2.89,2.01-4.34c0.16-0.35,0.2-0.79,0.43-1.07
			c1.2-1.49,1.08-2.84-0.22-4.21c-0.53-0.56-0.84-1.33-1.38-1.87c-0.63-0.63-0.87-1.16,0.19-2c-0.69,0-1.06,0.06-1.39-0.02
			c-0.38-0.08-1.04-0.32-1.03-0.44c0.04-0.46,0.18-1.09,0.51-1.29c0.6-0.36,1.36-0.63,2.06-0.64c3.66-0.06,7.33,0,10.99-0.02
			c1.16-0.01,2.34-0.02,3.48-0.24c0.99-0.19,1.98-0.07,2.06,0.87c0.05,0.53-0.97,1.24-1.61,1.73c-0.4,0.31-1,0.38-1.25,0.46
			c-1.87-0.22-3.54-0.44-5.22-0.57c-0.29-0.02-0.75,0.27-0.9,0.55c-0.79,1.39-1.55,2.79-2.21,4.24c-0.18,0.39-0.18,1.09,0.05,1.42
			c1.07,1.51,2.32,2.89,3.37,4.41C331.29,125.95,331.67,127.04,332.28,128.28z M325.81,122.22c-1.18,2.66-2.21,4.98-3.35,7.55
			c2.35-0.39,4.55-0.76,7.19-1.2C328.3,126.34,327.15,124.44,325.81,122.22z M323.45,114.33c-0.08,0.13-0.17,0.25-0.25,0.38
			c0.77,1.07,1.53,2.14,2.44,3.41c0.62-1.44,1.1-2.57,1.62-3.79C325.8,114.33,324.62,114.33,323.45,114.33z"/>
		<path d="M430.48,156.14c-2.9,0.28-3.05,0.19-3.22-2.29c2.6-0.1,5.2-0.2,7.8-0.31c2.8-0.12,5.61-0.27,8.41-0.34
			c0.62-0.02,1.32,0.07,1.84,0.37c0.64,0.37,0.9,1,0.26,1.73c-1.27,1.44-1.23,1.43-2.95,0.52c-0.59-0.31-1.24-0.55-1.64,0.47
			c-0.63,1.61-1.41,3.15-2.14,4.71c-0.52,1.12-0.27,2.07,0.48,3c0.93,1.13,1.73,2.37,2.7,3.47c0.35,0.4,0.98,0.67,1.52,0.78
			c1.01,0.19,2.09,0.11,3.08,0.36c0.53,0.14,1.27,0.68,1.33,1.12c0.06,0.41-0.56,1.17-1.04,1.35c-0.73,0.28-1.61,0.18-2.41,0.28
			c-0.65,0.08-1.29,0.27-1.93,0.35c-0.3,0.04-0.63-0.03-0.94-0.1c-0.66-0.15-1.33-0.52-1.97-0.48c-2.67,0.16-5.34,0.43-8.01,0.7
			c-0.97,0.1-1.37-0.41-1.48-1.23c-0.12-0.91,0.32-1.75,1.23-1.59c2.28,0.42,2.7-0.83,3.42-2.64c0.91-2.27,0.96-3.99-0.87-5.67
			c-0.56-0.52-0.99-1.2-1.45-1.82C431.84,158.02,431.23,157.17,430.48,156.14z M436.72,160.12c0.74-1.55,1.41-2.94,2.15-4.46
			c-1.68,0.13-3.31,0.26-5.19,0.41C434.8,157.56,435.73,158.8,436.72,160.12z M437.69,165.7c-0.19,0.04-0.37,0.08-0.56,0.12
			c0,0.89-0.17,1.84,0.1,2.64c0.09,0.26,1.31,0.14,2.38,0.23C438.8,167.44,438.25,166.57,437.69,165.7z"/>
		<path d="M373.06,10.78c-0.39,0.03-0.79,0.15-1.16,0.07c-0.4-0.09-1.09-0.36-1.09-0.54c0.01-0.48,0.2-1.15,0.55-1.37
			c0.55-0.35,1.29-0.46,1.96-0.54c4.51-0.49,9.01-0.98,13.53-1.38c1.76-0.16,3.53-0.15,5.3-0.12c0.35,0,0.87,0.34,0.99,0.65
			c0.11,0.28-0.14,0.79-0.37,1.09c-0.66,0.89-1.29,1.81-2.54,0.54c-0.6-0.62-3.08-0.24-3.6,0.54c-1.18,1.79-2.23,3.67-3.27,5.56
			c-0.13,0.23,0.04,0.81,0.26,1.02c1.21,1.15,2.76,2.04,3.65,3.38c0.92,1.38,1.87,1.76,3.39,1.68c0.34-0.02,0.73,0.98,1.1,1.52
			c-0.58,0.36-1.14,0.96-1.76,1.03c-1.51,0.17-3.06,0.02-4.58,0.15c-3.31,0.28-6.61,0.65-9.91,0.97c-0.3,0.03-0.7,0.14-0.89,0
			c-0.45-0.33-0.93-0.74-1.12-1.23c-0.08-0.22,0.45-0.92,0.81-1.02c0.9-0.25,1.88-0.21,2.78-0.45c0.5-0.13,1.12-0.48,1.33-0.91
			c0.61-1.23,1.14-2.53,1.5-3.86c0.15-0.54-0.06-1.38-0.42-1.82c-1.25-1.54-2.55-3.06-4-4.41c-0.56-0.52-1.57-0.54-2.38-0.79
			C373.11,10.62,373.08,10.7,373.06,10.78z M383.92,9.59c-1.69,0.26-3.26,0.48-4.8,0.77c-0.19,0.04-0.49,0.67-0.41,0.76
			c0.88,1.01,1.82,1.97,2.8,3C382.34,12.55,383.08,11.17,383.92,9.59z M381.99,18.71c-0.31,0.83-0.68,1.73-0.94,2.65
			c-0.05,0.16,0.37,0.66,0.55,0.65c1.16-0.05,2.32-0.2,3.63-0.33C384.1,20.64,383.14,19.76,381.99,18.71z"/>
		<path d="M498.9,121.64c0.09,0.06,0.14,0.07,0.16,0.11c0.3,0.71,0.6,1.43,0.9,2.15c-0.81,0.31-1.59,0.74-2.42,0.89
			c-1.13,0.2-2.25,0.53-3.39-0.46c-0.43-0.38-1.64,0.11-2.49,0.24c-1.31,0.19-2.62,0.47-3.94,0.62c-2.14,0.24-4.29,0.41-6.44,0.59
			c-0.34,0.03-0.69,0.01-1.04-0.01c-0.81-0.05-1.43-0.28-1.39-1.3c0.03-0.98,0.68-1.08,1.41-1.11c0.95-0.04,1.9-0.05,2.84-0.12
			c0.9-0.07,1.16-0.63,0.97-1.45c-0.51-2.14-1.04-4.28-1.54-6.42c-0.15-0.66-0.49-0.93-1.19-0.84c-0.89,0.11-1.6-0.25-1.61-1.23
			c-0.01-0.95,0.71-1.3,1.57-1.38c3.31-0.32,6.61-0.79,9.93-0.91c3.05-0.11,6.13,0.13,9.18,0.33c0.5,0.03,0.96,0.69,1.45,1.06
			c-0.51,0.4-0.99,1.09-1.53,1.14c-1.14,0.11-2.32-0.11-3.48-0.22c-1.04-0.1-1.51,0.16-1.3,1.37c0.32,1.87,0.38,3.78,0.68,5.65
			c0.27,1.68,0.49,1.59,2.23,1.39C498.61,121.7,498.78,121.66,498.9,121.64z M485.17,113.64c0.59,2.73,1.05,5.11,1.66,7.46
			c0.1,0.4,0.81,0.89,1.26,0.91c1.42,0.05,2.84-0.13,4.26-0.17c0.87-0.03,1.27-0.43,1.2-1.29c-0.16-1.93-0.26-3.87-0.54-5.79
			c-0.08-0.53-0.69-1.39-1.07-1.39C489.77,113.33,487.6,113.51,485.17,113.64z"/>
		<path d="M381.68,71.78c0.18,0.08,0.28,0.18,0.39,0.18c2.8-0.04,5.6-0.06,8.39-0.17c0.66-0.03,1.31-0.46,1.97-0.51
			c0.46-0.03,0.94,0.28,1.42,0.44c-0.25,0.48-0.41,1.29-0.77,1.4c-1.52,0.45-3.1,0.99-4.65,0.95c-4.22-0.1-8.36,0.32-12.5,1.05
			c-0.67,0.12-1.38,0.16-2.06,0.1c-1.04-0.09-1.75-0.99-1.48-1.88c0.3-0.97,1.03-0.69,1.79-0.59c0.92,0.12,1.88-0.04,2.82-0.12
			c0.52-0.04,1.02-0.18,1.54-0.25c0.46-0.06,0.93-0.09,1.52-0.15c-0.1-0.33-0.16-0.6-0.25-0.86c-0.99-2.85-2-5.69-2.95-8.54
			c-0.14-0.43-0.13-0.95-0.05-1.41c0.18-1.07-0.31-1.37-1.28-1.35c-0.77,0.02-1.58,0.05-2.32-0.15c-0.45-0.12-0.8-0.65-1.19-0.99
			c0.36-0.27,0.7-0.71,1.09-0.77c1.18-0.19,2.38-0.24,3.58-0.31c4.35-0.26,8.7-0.47,13.05-0.77c0.8-0.05,1.57-0.43,2.37-0.58
			c0.83-0.15,1.71,0.04,1.81,0.97c0.09,0.88-0.46,1.32-1.51,1.49c-3.24,0.52-6.03,1.67-6.96,5.39c-0.48,1.94-1.37,3.8-2.21,5.63
			C382.94,70.67,382.24,71.16,381.68,71.78z M385.27,59.53c-2.3,0.23-4.26,0.42-6.44,0.63c0.75,2.78,1.42,5.27,2.09,7.77
			c0.15,0.01,0.3,0.03,0.45,0.04C382.61,65.29,383.85,62.6,385.27,59.53z"/>
		<path d="M490.96,67.02c2.85,0.6,6.17-1.28,9.03,1c-0.94,1.79-2.87,2.21-4.33,1.1c-0.26-0.2-0.7-0.31-1.04-0.27
			c-6.41,0.84-12.81,1.76-19.23,2.53c-1.55,0.18-3.18-0.02-4.75-0.25c-1.61-0.24-2.9-1.69-2.92-3.06c-0.01-0.31,0.11-0.86,0.27-0.9
			c0.31-0.08,0.77,0.03,1.03,0.23c1.32,1,2.65,2.01,4.39,1.95c1.89-0.07,3.77-0.48,5.66-0.49c2.15-0.01,3.03-1.07,3.86-2.98
			c0.94-2.16,1-3.82-0.5-5.67c-0.54-0.67-0.63-1.74-0.83-2.65c-0.13-0.59-0.14-1.4,0.74-1.3c0.57,0.06,1.27,0.48,1.57,0.96
			c0.52,0.81,0.76,1.8,1.22,2.95c1.02-1.13,1.87-2.07,2.73-3.01c0.26-0.28,0.5-0.68,0.82-0.78c0.39-0.12,0.86,0.03,1.29,0.07
			c-0.05,0.39,0.01,0.86-0.18,1.16c-0.76,1.2-1.59,2.36-2.4,3.53c-0.56,0.81-0.69,1.59,0.22,2.24c0.85,0.61,1.78,1.11,2.53,1.82
			C490.55,65.56,490.64,66.27,490.96,67.02z M484.31,67.53c0.16,0.22,0.32,0.45,0.48,0.67c0.88-0.33,1.76-0.65,2.64-0.98
			c-0.5-0.61-1-1.22-1.49-1.83C485.4,66.11,484.85,66.82,484.31,67.53z"/>
		<path d="M467.85,8.83c-0.92,0.2-1.79,0.42-2.66,0.58c-0.84,0.16-1.7,0.41-2.54,0.36c-0.45-0.02-0.87-0.58-1.3-0.9
			c0.37-0.48,0.67-1.3,1.11-1.37c3.23-0.56,6.36-1.54,9.81-1.02c2.61,0.39,5.38-0.33,8.08-0.53c0.58-0.04,1.27-0.17,1.74,0.07
			c0.62,0.32,0.14,1.59-0.7,1.75c-1.48,0.28-2.97,0.52-4.46,0.66c-1.96,0.18-3.92,0.28-5.89,0.35c-0.74,0.03-1.01,0.3-0.95,1.01
			c0.22,2.44,0.41,4.88,0.68,7.31c0.03,0.23,0.64,0.62,0.86,0.55c1.89-0.61,3.6,0.16,5.31,0.67c0.46,0.14,0.76,0.82,1.13,1.26
			c-0.62,0.37-1.42,1.2-1.82,1.03c-2.36-0.96-4.36,0.11-6.46,0.78c-0.4,0.13-1.05,0.21-1.28-0.01c-0.76-0.7-1.54-0.56-2.41-0.43
			c-0.76,0.11-1.55,0.18-2.31,0.07c-1.02-0.15-1.85-1.28-1.53-2.02c0.4-0.92,1.25-0.92,2.1-0.79c0.68,0.1,1.36,0.23,2.05,0.24
			c1.64,0.04,1.92-0.29,1.77-2.02c-0.15-1.72-0.39-3.43-0.51-5.15C467.61,10.57,467.76,9.84,467.85,8.83z"/>
		<path d="M194.61,156.98c-1.44,0.54-2.47,0.94-3.51,1.31c-0.67,0.24-1.45,0.69-1.83-0.37c-0.33-0.92,0.1-1.46,1-1.76
			c1.06-0.36,2.12-0.74,3.14-1.22c0.32-0.15,0.73-0.66,0.7-0.95c-0.12-1.06-0.36-2.12-0.68-3.14c-0.1-0.33-0.61-0.76-0.92-0.75
			c-1.36,0.04-2.72,0.27-4.08,0.34c-1.92,0.1-3.46,1.18-5.18,1.8c-0.84,0.3-1.88,0.3-2.23-0.69c-0.33-0.95,0.31-1.58,1.27-1.91
			c3.49-1.18,7.02-2.05,10.74-2.05c1.26,0,2.1,0.48,2.52,1.6c0.41,1.08,0.77,2.2,1.04,3.32c0.33,1.41,0.61,1.62,2.02,1.19
			c1.36-0.41,2.73-0.82,4.1-1.17c0.58-0.15,1.2-0.17,1.8-0.17c0.25,0,0.5,0.2,0.75,0.31c-0.2,0.22-0.36,0.49-0.59,0.67
			c-1.84,1.38-4.16,1.56-6.2,2.43c-1.08,0.46-1.49,1.06-1.44,2.25c0.12,2.51,0.14,5.01,1.17,7.37c0.41,0.95,0.04,1.72-0.9,2.12
			c-0.93,0.4-1.49-0.27-1.66-0.97c-0.44-1.74-0.79-3.52-1-5.3C194.49,159.99,194.61,158.69,194.61,156.98z"/>
		<path d="M19.67,112.43c-0.38,2.38,0.5,3.85,2.76,4.91c1.66,0.78,3.09,2.16,4.46,3.43c1.19,1.1,0.95,3.86-0.29,5.23
			c-2.02,2.23-5.07,2.77-7.77,1.55c-0.74-0.34-1.57-0.46-2.33-0.77c-0.35-0.14-0.62-0.48-0.92-0.73c0.36-0.24,0.71-0.66,1.08-0.67
			c1.07-0.03,2.14,0.17,3.22,0.17c1.35,0,2.78,0.13,4.05-0.24c1.67-0.49,2.06-2.33,0.76-3.46c-1.27-1.1-2.79-1.94-4.23-2.84
			c-0.58-0.36-1.36-0.46-1.86-0.89c-0.65-0.57-1.54-1.34-1.56-2.06c-0.09-2.62,0.14-5.26,0.26-7.88c0.01-0.21,0.09-0.42,0.14-0.63
			c0.7-2.51,1-2.68,3.54-2.22c2.11,0.39,4.21,0.88,6.4,0.37c0.77-0.18,1.7-0.13,1.98,0.95c0.3,1.12-0.42,1.64-1.3,1.89
			c-1.97,0.58-3.87,0.05-5.69-0.65c-2.07-0.8-2.33-0.68-2.49,1.57C19.8,110.45,19.74,111.44,19.67,112.43z"/>
		<path d="M66.44,173.38c0.26-2.44,1.54-4.37,2.95-6.25c1.75-2.31,4.46-2,5.83,0.55c0.76,1.42,0.7,2.64-0.11,3.88
			c-1.66,2.51-3.85,4.3-6.9,4.85c-2.9,0.52-4.58-1.47-5.06-3.73c-0.44-2.07-0.4-4.28-0.3-6.42c0.09-1.88,0.48-3.76,0.91-5.6
			c0.32-1.37,0.88-2.7,1.42-4.01c0.35-0.86,1.66-1.34,2.41-0.88c0.23,0.14,0.33,0.82,0.21,1.14c-0.55,1.4-1.49,2.71-1.77,4.14
			c-0.58,3.08-0.95,6.21-1.16,9.34c-0.07,0.99,0.64,2.03,0.99,3.05C66.06,173.42,66.25,173.4,66.44,173.38z M68.03,174.04
			c1.56,0.01,2.59-0.47,3.36-1.48c0.44-0.58,0.93-1.15,1.25-1.79c0.21-0.42,0.16-0.98,0.23-1.47c-0.51-0.03-1.08-0.21-1.53-0.05
			C69.18,170.03,68.9,172.13,68.03,174.04z"/>
		<path d="M28.29,60.91c-0.25,0.86-0.78,2.48-1.16,4.14c-0.14,0.6-0.1,1.4,0.2,1.9c0.62,1.02,1.49,1.9,2.24,2.84
			c1.73,2.15,1.61,3.76-0.4,5.65c-2.1,1.97-4.72,2.4-7.28,1.06c-1.1-0.57-2.17-1.25-3.13-2.04c-0.32-0.27-0.24-1.03-0.35-1.56
			c0.43,0.09,0.94,0.06,1.29,0.28c1.89,1.21,4.05,1.45,6.18,1.53c0.68,0.02,1.61-0.68,2.02-1.31c0.53-0.82,0.35-1.83-0.43-2.61
			c-0.7-0.7-1.37-1.44-2.09-2.13c-1.14-1.09-1.26-2.33-0.79-3.79c0.46-1.43,0.81-2.91,1.08-4.4c0.36-2.07-1.27-3.39-3.27-2.76
			c-1.36,0.43-2.3,1.29-2.98,2.52c-0.33,0.6-0.77,1.4-1.56,0.88c-0.45-0.29-0.59-1.08-0.84-1.66c-0.06-0.14,0.02-0.34,0.02-0.51
			c-0.04-2.32,0.32-2.79,2.66-3.29c0.97-0.21,1.95-0.35,2.94-0.51C26.08,54.61,28.38,56.62,28.29,60.91z"/>
		<path d="M433.46,59.11c0.66,2.72,1.33,5.51,2.03,8.3c0.23,0.92,0.31,1.78-0.52,2.57c1.91-1,4.38-0.4,6.04-2.23
			c1.47,0.93,1.49,1.55,0,2.53c-2.22,1.48-4.86,1.7-7.35,2.35c-1.67,0.44-3.37,0.74-5.07,1.07c-1.05,0.21-1.74-0.24-1.75-1.32
			c-0.01-1.03,0.85-0.96,1.59-1.07c1.72-0.25,3.43-0.58,4.87-0.82c-0.37-1.82-0.69-3.36-1.01-4.91c-0.3-1.46-0.63-2.92-0.88-4.39
			c-0.12-0.7-0.08-1.43-0.13-2.46c-1.43,0.3-2.71,0.56-3.99,0.86c-0.75,0.17-1.57,1.15-2.16-0.15c-0.54-1.19,0.45-1.41,1.23-1.81
			c2.07-1.05,4.3-1.18,6.54-1.27c2.9-0.11,5.77-0.29,8.53-1.3c0.93-0.34,1.29,0.32,1.49,0.97c0.24,0.79-0.29,0.98-1,1.11
			c-2.66,0.49-5.31,1.07-7.95,1.62C433.87,58.78,433.77,58.9,433.46,59.11z"/>
		<path d="M433.18,21.93c-2.36,0.41-4.73,0.75-7.08,1.25c-1.83,0.39-2.78,0.19-3.17-0.96c-0.3-0.87-0.06-1.29,0.91-1.36
			c1.42-0.09,2.83-0.28,4.25-0.41c0.85-0.08,1.14-0.41,0.99-1.36c-0.41-2.63-0.65-5.28-1.03-7.91c-0.04-0.25-0.62-0.61-0.95-0.61
			c-1.46,0.02-2.93,0.2-4.39,0.21c-0.46,0-1.05-0.22-1.35-0.55c-0.26-0.28-0.32-0.89-0.23-1.3c0.05-0.21,0.6-0.42,0.94-0.45
			c2.45-0.18,4.91-0.29,7.36-0.46c1.97-0.13,3.94-0.4,5.91-0.4c0.74,0,1.5,0.52,2.21,0.89c0.1,0.05,0.06,0.73-0.11,0.86
			c-0.49,0.38-1.24,1.03-1.61,0.88c-1.72-0.69-3.31,0.07-4.94,0.2c-0.21,0.02-0.59,0.57-0.55,0.82c0.42,2.54,0.89,5.08,1.42,7.6
			c0.07,0.32,0.57,0.72,0.91,0.77c1.39,0.21,2.8,0.25,4.19,0.47c0.55,0.09,1.05,0.46,1.58,0.71c-0.37,0.41-0.68,1.09-1.11,1.17
			c-1.34,0.26-2.73,0.3-4.09,0.43C433.23,22.27,433.2,22.1,433.18,21.93z"/>
		<path d="M484.78,52.74c4.29-0.13,8.37,0.67,12.26,2.41c0.4,0.18,0.46,1.11,0.69,1.69c-0.39,0.07-0.9,0.34-1.15,0.19
			c-2.82-1.72-5.96-2.05-9.13-1.92c-3.58,0.14-7.15,0.5-10.71,0.86c-1.98,0.2-2.07,0.55-1.61,2.42c0.36,1.46,0.47,2.98,0.72,4.47
			c0.15,0.89,0.29,1.79,0.56,2.64c0.31,0.98-0.28,1.41-0.97,1.68c-0.47,0.18-1.09,0.19-1.58,0.07c-0.25-0.06-0.53-0.57-0.56-0.9
			c-0.14-1.41-0.16-2.84-0.29-4.25c-0.15-1.5-0.31-3.01-0.63-4.48c-0.08-0.36-0.76-0.74-1.22-0.83c-0.8-0.15-1.66,0.04-2.44-0.15
			c-0.48-0.12-1.13-0.61-1.23-1.04c-0.2-0.81,0.54-1.08,1.23-1.14c2.88-0.28,5.76-0.52,8.64-0.82
			C479.81,53.35,482.29,53.03,484.78,52.74z"/>
		<path d="M183.92,107.9c-0.56,0.18-0.99,0.29-1.42,0.45c-0.77,0.29-1.51,0.63-2.29,0.9c-1.1,0.37-2.36,0.6-3.17-0.33
			c-0.91-1.05-1.32-2.41-0.87-3.88c0.73-2.39,2.55-3.99,4.26-5.6c0.46-0.44,1.76-0.3,2.53-0.02c0.88,0.32,1.8,0.94,1.65,2.2
			c-0.03,0.25,0,0.51,0,0.76c2.18,0.75,2.01,0.77,2.19,2.97c0.27,3.3,0.8,6.58,1.23,9.87c0.04,0.34,0.18,0.7,0.11,1.01
			c-0.1,0.48-0.35,0.94-0.53,1.41c-0.55-0.31-1.45-0.51-1.61-0.96c-0.67-1.95-1.16-3.97-1.65-5.97
			C184.14,109.85,184.07,108.95,183.92,107.9z M178.72,105.35c0.03,1.57,0.43,1.9,1.46,1.54c0.89-0.31,1.76-0.68,2.62-1.07
			c0.6-0.27,1.34-0.7,0.92-1.39c-0.24-0.39-1.14-0.52-1.73-0.5c-0.7,0.03-1.42,0.28-2.07,0.57
			C179.39,104.74,178.97,105.17,178.72,105.35z"/>
		<path d="M132.33,121.4c1.98-0.28,3.97-0.55,5.95-0.84c1.58-0.23,3.15-0.52,4.73-0.69c0.32-0.04,0.93,0.29,0.97,0.52
			c0.05,0.33-0.25,0.77-0.51,1.07c-0.17,0.2-0.52,0.31-0.8,0.37c-4.65,0.92-9.29,1.85-13.95,2.69c-0.45,0.08-1.35-0.29-1.44-0.62
			c-0.16-0.59-0.11-1.51,0.26-1.94c1.08-1.28,2.38-2.37,3.56-3.57c2.01-2.04,2.16-5.62,0.35-7.84c-1.01-1.23-1.86-1.25-2.99-0.13
			c-0.59,0.59-1.18,1.79-2.17,0.82c-0.84-0.81-0.21-1.72,0.45-2.49c2.51-2.93,5.25-2.53,7.25,0.75c2.2,3.6,1.43,7.24-1.07,10.28
			c-0.29,0.35-0.54,0.72-0.82,1.09C132.18,121.05,132.25,121.23,132.33,121.4z"/>
		<path d="M170.79,70.38c0.58,0.25,1.16,0.48,1.74,0.74c1.63,0.71,3.26,0.31,4.53-1.13c0.97-1.1,0.9-2.28,0.03-3.94
			c-1.21-2.3-2.79-3.96-5.57-4.19c-1.22-0.1-1.78-1.09-1.45-2.26c0.73-2.6,2.27-4.56,4.93-5.33c2.18-0.63,4.42-1.07,6.65-1.53
			c1.05-0.22,2.03,0.62,2.17,1.73c0.11,0.81-0.9,1.75-1.99,1.79c-1.56,0.05-3.11,0.03-4.67,0.08c-1.41,0.04-2.61,0.56-3.49,1.69
			c-0.57,0.73-0.74,1.4,0.38,1.78c3.42,1.16,4.83,3.97,5.78,7.12c0.68,2.26-0.07,4.13-2.12,5.29c-1.2,0.67-2.45,1.28-3.74,1.74
			c-0.45,0.16-1.17-0.1-1.61-0.4c-0.55-0.37-0.99-0.94-1.38-1.49c-0.28-0.39-0.41-0.9-0.61-1.36
			C170.51,70.6,170.65,70.49,170.79,70.38z"/>
		<path d="M176.94,21.45c-0.62,0.25-1.13,0.41-1.62,0.66c-2.52,1.27-5.24,1.71-8.02,1.67c-2.34-0.03-3.58-1.57-3.1-3.88
			c0.33-1.59,0.87-3.13,1.37-4.68c0.29-0.89,1.06-1.28,1.83-0.84c0.33,0.19,0.44,1.1,0.36,1.63c-0.2,1.27-0.63,2.5-0.88,3.77
			c-0.21,1.06,0.43,1.62,1.38,1.56c2.72-0.16,5.43-0.57,7.89-1.82c0.48-0.24,0.75-1.05,0.95-1.66c0.27-0.81,0.28-1.7,0.57-2.5
			c0.14-0.38,0.88-0.94,0.99-0.87c0.49,0.32,1.12,0.79,1.19,1.29c0.14,0.92-0.12,1.89-0.13,2.84c-0.06,4.02-0.1,8.04-0.15,12.06
			c0,0.39,0.04,0.81-0.09,1.15c-0.12,0.32-0.42,0.72-0.7,0.78c-0.29,0.06-0.84-0.16-0.97-0.41c-0.29-0.6-0.52-1.29-0.55-1.95
			c-0.12-2.59-0.16-5.18-0.23-7.77C177.03,22.2,176.99,21.91,176.94,21.45z"/>
		<path d="M82.23,22.84c-0.11,1.16-0.76,1.61-1.62,1.74c-1.02,0.15-1.29,0.72-1.4,1.68c-0.14,1.24-0.47,2.48-0.85,3.68
			c-0.09,0.27-0.82,0.61-1.06,0.5c-0.39-0.18-0.84-0.7-0.86-1.1c-0.04-0.84,0.18-1.7,0.29-2.55c0.12-0.88-0.1-1.41-1.15-1.33
			c-1.96,0.15-3.94,0.16-5.9,0.36c-1.04,0.11-1.56-0.12-1.63-1.21c-0.07-1.07,0.57-1.2,1.4-1.19c1.9,0.02,3.81-0.01,5.71,0.02
			c1.02,0.01,1.6-0.34,1.34-1.46c-0.33-1.46-0.54-2.98-1.07-4.37c-0.52-1.35-1.69-1.96-3.22-1.91c-2.51,0.08-5.01,0.03-7.52,0.06
			c-0.77,0.01-1.36-0.14-1.54-1.02c-0.19-0.94,0.5-1.1,1.1-1.28c0.48-0.15,1.01-0.21,1.52-0.2c2.29,0.06,4.58,0.26,6.86,0.21
			c3.38-0.07,5.4,2.05,5.96,5.41c0.18,1.06,0.36,2.12,0.55,3.18c0.12,0.72,0.49,1.05,1.27,0.9C80.98,22.85,81.57,22.88,82.23,22.84z
			"/>
		<path d="M121.66,29.42c1.02-0.05,1.81-0.04,2.58-0.15c2.34-0.32,4.68-0.71,7.02-1.02c0.32-0.04,0.69,0.25,1.04,0.39
			c-0.25,0.37-0.43,0.97-0.76,1.06c-2.61,0.71-5.26,1.3-7.88,1.98c-1.41,0.37-2.78,0.91-4.19,1.29c-0.52,0.14-1.49,0.22-1.59,0.02
			c-0.28-0.58-0.49-1.47-0.22-1.99c0.6-1.18,1.57-2.16,2.26-3.3c1.3-2.16,3.08-4.11,2.96-6.9c-0.12-2.72-2.43-3.99-4.78-2.65
			c-0.81,0.46-1.8,0.61-2.68,0.97c-0.37,0.15-0.65,0.54-1.02,0.72c-0.27,0.13-0.62,0.1-0.93,0.14c0.05-0.34-0.03-0.85,0.17-1.01
			c1.62-1.27,3.22-2.6,4.99-3.63c0.7-0.41,1.93-0.41,2.72-0.09c3.79,1.54,5.05,4.69,3.29,8.68c-0.68,1.53-1.63,2.94-2.44,4.4
			C122.05,28.58,121.94,28.84,121.66,29.42z"/>
		<path d="M408.96,247.23c-2.85-0.01-5.04-1.21-6.16-3.63c-0.23-0.49-0.32-1.07-0.35-1.61c-0.06-1.27-0.01-2.55-0.04-3.82
			c-0.02-0.96,0.54-1.22,1.34-1.1c0.87,0.13,1.39-0.27,2.03-0.81c1.58-1.32,3.25-2.54,4.97-3.69c0.93-0.63,3.37,0.03,3.85,1.03
			c0.22,0.45,0.13,1.19-0.07,1.69c-1,2.38-3.26,3.04-5.42,3.79c-0.76,0.27-1.76,0.18-2.32,0.65c-0.73,0.6-1.51,1.57-1.56,2.43
			c-0.04,0.68,0.87,1.85,1.56,2.04c1.46,0.39,3.06,0.3,4.61,0.36c0.27,0.01,0.61-0.15,0.81-0.35c0.55-0.53,1.13-0.89,1.8-0.34
			c0.4,0.33-0.3,2.02-0.97,2.23C411.69,246.52,410.32,246.86,408.96,247.23z"/>
		<path d="M392.2,153.57c-3.71,0.4-8.81,0.9-13.9,1.5c-1.65,0.19-3.27,0.65-4.91,0.93c-1.17,0.2-1.58-0.66-1.56-1.56
			c0.02-1.02,0.65-1.42,1.69-1.01c0.3,0.12,0.69,0.08,1.03,0.03c2.71-0.42,5.41-0.94,8.13-1.27c6.15-0.75,12.32-0.84,18.5-0.38
			c2.02,0.15,4.03,0.39,6.04,0.66c0.53,0.07,1.11,0.28,1.53,0.6c0.66,0.51,1.27,1.16-0.08,1.66c-0.26,0.1-0.4,0.53-0.65,0.59
			c-0.38,0.09-0.84,0.08-1.19-0.06c-0.72-0.28-1.36-0.94-2.07-0.99C401.05,153.98,397.34,153.84,392.2,153.57z"/>
		<path d="M388.43,229.6c0.94,0.03,1.16,0.71,1.14,1.48c-0.06,3.23-0.52,3.18,3.23,3.15c1.04-0.01,2.07-0.04,3.11-0.08
			c0.92-0.04,1.54,0.31,1.6,1.28c0.06,1.08-0.7,0.94-1.49,1.05c-1.84,0.27-3.67,0.71-5.47,1.19c-0.23,0.06-0.47,0.78-0.4,1.15
			c0.3,1.65,0.68,3.29,1.08,4.92c0.26,1.07-0.95,2.57-2.04,2.35c-0.71-0.14-1.6-0.48-1.21-1.45c0.95-2.33-0.32-4.37-0.58-6.72
			c-0.54,0.13-0.94,0.2-1.33,0.32c-1.31,0.41-2.61,0.86-3.93,1.24c-0.72,0.21-1.49,0.33-1.85-0.6c-0.36-0.91,0.08-2.33,0.86-2.58
			c1.5-0.48,3.03-0.89,4.55-1.27c0.71-0.18,1.23-0.38,1.02-1.28c-0.25-1.05-0.08-1.9,0.95-2.57
			C388.07,230.92,388.16,230.18,388.43,229.6z"/>
		<path d="M126.75,66.12c-0.9,0.25-1.55,0.48-2.22,0.62c-1.51,0.32-3.02,0.54-4.18-0.86c-1.06-1.29-0.9-2.75-0.44-4.16
			c0.79-2.42,2.85-3.65,4.91-4.74c1.22-0.65,3.26,0.86,3.43,2.25c0.06,0.5,0.41,0.96,0.61,1.45c0.22,0.54,0.55,1.07,0.6,1.63
			c0.27,3.4,0.44,6.81,0.73,10.21c0.09,1.01,0.44,1.99,0.62,2.74c-0.78,0.71-1.39,1.26-2.21,2c-0.26-0.53-0.71-1.08-0.79-1.67
			c-0.34-2.52-0.56-5.06-0.83-7.59C126.91,67.4,126.83,66.82,126.75,66.12z M123.72,64.68c1.03-0.02,1.87-0.34,2.22-1.41
			c0.26-0.81,0.51-1.62,0.71-2.45c0.12-0.52,0.13-1.06,0.19-1.6c-0.69-0.01-1.63-0.31-2.01,0.03c-1.03,0.9-2,1.98-2.66,3.17
			C121.39,63.86,122.08,64.71,123.72,64.68z"/>
		<path d="M68.26,71.69c1.41-1.4,2.75-2.83,4.2-4.15c1.11-1,2.49-0.82,3.55,0.29c1.22,1.28,1.32,2.58,0.31,3.79
			c-1.6,1.91-3.71,2.91-6.1,3.38c-2.78,0.55-4.9-1.93-5.61-4.51c-0.76-2.75-0.25-5.49,0.82-8.1c0.41-1,0.91-1.96,1.37-2.93
			c0.45-0.95,1.34-1.09,2.06-0.69c0.34,0.19,0.45,1.23,0.29,1.76c-0.47,1.56-1.23,3.03-1.68,4.59
			C66.77,67.44,66.2,69.83,68.26,71.69z M71.56,72.88c1.14-0.91,2.04-1.63,2.94-2.36C72.44,70.21,71.35,71.04,71.56,72.88z"/>
		<path d="M72.75,119.14c-1.91,0.29-3.56,0.6-5.22,0.78c-0.89,0.1-1.82,0.05-2.71-0.07c-1.57-0.2-2.09-0.79-2.09-2.41
			c0-2.46,0.72-4.77,1.82-6.95c0.37-0.73,0.73-1.52,1.31-2.07c0.45-0.43,1.22-0.54,1.85-0.79c0.06,0.42,0.29,0.91,0.15,1.24
			c-0.75,1.77-1.87,3.43-2.36,5.26c-0.91,3.46-0.55,3.44,2.55,3.48c0.9,0.01,1.8-0.13,2.69-0.29c2.01-0.36,3.13-1.65,3.65-3.58
			c0.18-0.65,0.44-1.36,0.88-1.83c0.3-0.32,0.98-0.28,1.49-0.4c0.08,0.4,0.29,0.82,0.21,1.18c-0.56,2.74-1.22,5.45-1.75,8.19
			c-0.23,1.22-0.18,2.49-0.35,3.73c-0.1,0.72-0.24,1.51-0.63,2.08c-0.32,0.47-1.05,0.65-1.6,0.96c-0.15-0.57-0.44-1.14-0.41-1.7
			C72.35,123.74,72.56,121.52,72.75,119.14z"/>
		<path d="M69.68,250.56c-0.16-2.5-0.31-4.81-0.46-7.1c-1.76,0.19-3.28,0.41-4.8,0.5c-0.91,0.05-1.74-0.33-1.45-1.44
			c0.11-0.43,0.74-0.92,1.21-1.04c1.04-0.26,2.14-0.25,3.2-0.43c0.86-0.15,1.14-0.62,0.99-1.58c-0.32-2.03-0.52-4.09-0.63-6.14
			c-0.02-0.41,0.56-0.86,0.87-1.29c0.42,0.42,1.1,0.79,1.2,1.27c0.39,1.89,0.62,3.82,0.86,5.74c0.09,0.77,0.37,1.05,1.17,0.91
			c2.5-0.44,5-0.85,7.51-1.21c0.3-0.04,0.91,0.19,0.92,0.33c0.04,0.46,0.02,1.12-0.26,1.38c-0.42,0.37-1.08,0.51-1.66,0.65
			c-1.93,0.46-3.87,0.87-5.81,1.31c-0.87,0.2-1.18,0.73-0.99,1.63c0.25,1.23,0.34,2.49,0.63,3.7
			C72.59,249.42,71.66,251.31,69.68,250.56z"/>
		<path d="M439.49,247.99c-2.84-0.13-5.22-2.43-5.44-5.29c-0.07-0.86-0.13-1.73-0.12-2.59c0.02-0.87-0.35-1.06-1.12-0.83
			c-0.95,0.28-1.91,0.57-2.88,0.76c-0.66,0.13-1.33,0.1-1.5-0.79c-0.15-0.79-0.01-1.29,0.93-1.48c1.39-0.29,2.78-0.66,4.12-1.13
			c0.44-0.16,0.9-0.7,1.06-1.16c0.43-1.31,0.64-2.68,1.07-3.99c0.11-0.35,0.9-0.83,1.08-0.72c0.48,0.27,1.07,0.8,1.12,1.28
			c0.08,0.73-0.23,1.52-0.43,2.27c-0.35,1.31-0.18,1.56,1.2,1.39c0.85-0.1,1.69-0.4,2.54-0.44c0.55-0.03,1.51,0.13,1.61,0.43
			c0.3,0.86-0.33,1.44-1.17,1.68c-1.29,0.36-2.58,0.7-3.87,1.02c-1.08,0.27-1.46,0.94-1.31,2.01c0.12,0.81,0.13,1.64,0.29,2.44
			c0.39,1.9,1.55,2.63,3.49,2.55c0.41-0.02,1.23,0.77,1.19,1.1c-0.06,0.53-0.66,1.03-1.1,1.47
			C440.12,248.1,439.75,247.99,439.49,247.99z"/>
		<path d="M425.18,235.19c-0.1-0.49-0.17-0.82-0.23-1.13c-0.12-0.03-0.21-0.09-0.28-0.06c-1.29,0.5-2.34,1.37-2.85,2.62
			c-0.27,0.67-0.24,1.68,0.07,2.34c0.64,1.35,1.43,2.68,2.4,3.81c2.3,2.68,0.73,5.75-2.01,6.92c-0.28,0.12-0.7,0.1-0.99-0.01
			c-1.91-0.71-3.53-1.86-4.65-3.57c-0.36-0.56-0.4-1.38-0.43-2.08c-0.01-0.28,0.35-0.79,0.58-0.82c0.28-0.03,0.64,0.31,0.89,0.56
			c0.95,0.96,1.81,2.03,2.85,2.89c0.38,0.32,1.5,0.44,1.67,0.2c0.37-0.51,0.64-1.43,0.41-1.95c-0.52-1.21-1.19-2.46-2.11-3.37
			c-2.34-2.33-1.54-6.1,0.51-7.9c1.23-1.09,2.79-1.85,4.28-2.57c0.89-0.43,1.92-0.3,2.44,0.77c0.42,0.87-0.24,2.41-1.2,2.87
			C426.16,234.91,425.74,235.01,425.18,235.19z"/>
		<path d="M104.37,238.97c2.2,0.13,3.37,1.17,3.61,3.28c0.17,1.49,0.82,2.6,2.37,3.06c0.47,0.14,0.94,0.45,1.26,0.82
			c0.24,0.27,0.41,0.81,0.29,1.12c-0.11,0.28-0.68,0.63-0.96,0.57c-1.27-0.3-2.58-0.59-3.75-1.17c-0.8-0.39-1.25-0.42-1.92,0.18
			c-0.79,0.71-1.68,1.36-2.62,1.85c-1.31,0.68-2.37,0.01-2.85-1.39c-0.82-2.4,0.91-6.41,2.97-7.97
			C103.17,239.02,103.83,239.08,104.37,238.97z M104.59,242.14c-0.54,0.4-0.97,0.59-1.2,0.91c-0.39,0.56-0.7,1.19-0.97,1.82
			c-0.11,0.27-0.04,0.62-0.06,0.93c0.36-0.05,0.79,0,1.06-0.18C104.51,244.89,104.78,243.8,104.59,242.14z"/>
		<path d="M123.36,241.03c2.73-2.41,5.23-1.96,7.02,1.14c0.88,1.53,1.86,3.01,2.77,4.53c0.54,0.89,0.8,1.84-0.38,2.41
			c-1.06,0.51-1.53-0.29-1.97-1.1c-0.75-1.36-1.44-2.77-2.36-4.01c-0.55-0.73-1.45-1.58-2.25-1.65c-1.08-0.09-1.69,1.01-1.98,2.08
			c-0.29,1.08-0.43,2.23-0.91,3.21c-0.39,0.79-1.17,1.42-1.87,2.01c-0.1,0.08-1-0.41-1.09-0.75c-0.67-2.6-0.21-5.15,0.71-7.6
			C121.45,240.22,122.2,240.19,123.36,241.03z"/>
		<path d="M85.36,243.26c0.06-1.15,0.13-2.01,0.16-2.87c0.04-1.2,0.82-1.56,1.75-1.21c1.17,0.44,2.05,0,3.06-0.43
			c1.66-0.71,3.38-1.3,5.11-1.82c0.45-0.14,1.03,0.15,1.55,0.25c-0.26,0.46-0.41,1.09-0.8,1.33c-1.09,0.67-2.26,1.24-3.44,1.74
			c-2.7,1.14-3.71,2.61-3.75,5.55c-0.01,0.46,0.05,1.05-0.2,1.35c-0.52,0.6-1.19,1.1-1.87,1.5c-0.13,0.07-0.87-0.47-0.93-0.8
			C85.69,246.24,85.53,244.61,85.36,243.26z"/>
		<path d="M26.93,26.34c-0.34-3.95-0.68-7.89-1.02-11.84c-0.02-0.21-0.13-0.47-0.05-0.63c0.28-0.56,0.58-1.5,0.94-1.53
			c0.8-0.07,1.6,0.39,1.7,1.4c0.2,2.01,0.43,4.03,0.56,6.05c0.18,2.84,0.28,5.68,0.42,8.53c0.02,0.34-0.01,0.74,0.16,1.01
			c0.48,0.8,0.31,1.36-0.47,1.82c-0.44,0.26-0.85,0.56-1.28,0.85c-0.41-0.67-1.07-1.3-1.19-2.01c-0.2-1.17-0.05-2.41-0.05-3.61
			C26.74,26.35,26.84,26.35,26.93,26.34z"/>
		<path d="M137.3,166.66c-0.39-3.61-0.79-7.21-1.17-10.82c-0.08-0.8-0.34-1.73,0.94-1.85c1.19-0.12,1.44,0.64,1.56,1.6
			c0.48,4.03,0.97,8.05,1.51,12.07c0.07,0.5,0.35,1.14,0.74,1.41c0.85,0.59,1.15,1.15,0.37,1.96c-0.89,0.92-2.19,1.09-2.66,0.16
			c-0.7-1.39-1.09-2.93-1.61-4.41C137.08,166.74,137.19,166.7,137.3,166.66z"/>
		<path d="M22.44,176.75c-0.37-3.84-0.73-7.55-1.08-11.27c-0.21-2.19-0.46-4.37-0.6-6.56c-0.03-0.42,0.27-1.13,0.58-1.24
			c0.34-0.12,1.15,0.21,1.26,0.52c0.42,1.19,0.77,2.44,0.93,3.69c0.47,3.76,0.85,7.52,1.26,11.29c0.06,0.51,0.1,1.03,0.1,1.55
			C24.86,176.52,24.14,177.07,22.44,176.75z"/>
		<path d="M394.06,158.44c0.5,2.87,1.02,5.73,1.49,8.6c0.08,0.52,0.11,1.2-0.16,1.58c-0.3,0.43-0.98,0.86-1.47,0.83
			c-0.37-0.02-0.89-0.7-1.01-1.17c-0.34-1.33-0.68-2.7-0.71-4.07c-0.06-2.62,0.08-5.24,0.18-7.86c0.01-0.36,0.2-0.76,0.42-1.06
			c0.5-0.7,1.11-0.63,1.33,0.15c0.26,0.94,0.28,1.94,0.41,2.92C394.37,158.4,394.22,158.42,394.06,158.44z"/>
		<path d="M116.8,243.6c0.42,1.05,0.77,2.13,1.27,3.13c0.59,1.18,0.26,2.6-0.99,3c-0.39,0.12-1.32-0.29-1.42-0.63
			c-0.46-1.53-0.77-3.11-1.02-4.69c-0.1-0.61,0.01-1.31,0.21-1.91c0.18-0.53,0.63-0.96,0.95-1.44c0.43,0.46,0.92,0.89,1.26,1.41
			c0.16,0.24,0.03,0.67,0.03,1.02C116.99,243.52,116.9,243.56,116.8,243.6z"/>
		<path d="M115.43,235.65c-0.47,1.16-0.02,2.62-1.5,2.67c-1.08,0.03-0.86-1.09-0.91-1.81c-0.05-0.91,0.3-1.68,1.33-1.65
			C114.73,234.88,115.1,235.4,115.43,235.65z"/>
		<path class="st0" d="M333.06,156.98c0.62-0.04,1.24-0.09,1.82-0.13c0.62,5.35,2.16,10.5,1.6,16.07c-3.43,0-6.84,0-10.33,0
			c0.4-2.89,1.26-5.71,2.7-8.29c1.39-2.52,2.99-4.93,4.5-7.39C333.25,157.15,333.15,157.07,333.06,156.98z"/>
		<path class="st0" d="M323.9,168.1c-0.2-0.8-0.46-1.6-0.6-2.41c-0.42-2.46-0.81-4.92-1.17-7.38c-0.21-1.41-0.01-1.56,1.39-1.55
			c2.15,0.03,4.3,0.01,6.67,0.01C328.88,161.15,325.97,164.33,323.9,168.1z"/>
		<path class="st0" d="M443.81,112.67c0.87,4.11,1.73,8.2,2.64,12.54c-2.36-0.1-4.46-0.18-6.55-0.31c-0.22-0.01-0.55-0.33-0.6-0.56
			c-0.7-3.4-1.37-6.81-2.03-10.22c-0.19-0.98,0.44-1.39,1.24-1.43C440.23,112.62,441.94,112.67,443.81,112.67z"/>
		<path class="st0" d="M433.29,126.08c-0.26,0.01-0.52,0.03-0.78,0.04c-2.28,0.13-2.42,0.1-2.64-2.21c-0.29-3.01-0.4-6.03-0.61-9.05
			c-0.07-0.93,0.19-1.46,1.24-1.51c1.24-0.06,2.47-0.31,3.72-0.37c0.22-0.01,0.64,0.5,0.69,0.81c0.58,3.49,1.11,6.99,1.66,10.48
			c0.24,1.55,0.13,1.71-1.47,1.77c-0.6,0.02-1.21,0-1.82,0C433.29,126.07,433.29,126.07,433.29,126.08z"/>
		<path class="st0" d="M329,72.15c-1.2-3.17-2.38-6.3-3.67-9.71c2.48-0.31,4.86-0.61,7.48-0.94C331.48,65.2,330.27,68.61,329,72.15z
			"/>
		<path class="st0" d="M331.93,22.07c-2.13,0.15-4.18,0.32-6.23,0.41c-0.24,0.01-0.61-0.33-0.72-0.59
			c-0.52-1.26-1.06-2.53-1.42-3.85c-0.49-1.78-0.78-3.62-1.22-5.42c-0.2-0.79-0.04-1.29,0.78-1.44c1.64-0.29,3.28-0.55,4.72-0.78
			C329.2,14.31,330.53,18.09,331.93,22.07z"/>
		<path class="st0" d="M337.47,9.47c-1.34,3.19-2.55,6.1-3.77,9.01c-0.11-0.02-0.22-0.04-0.33-0.06c-0.27-0.67-0.57-1.32-0.82-2
			c-0.61-1.66-1.2-3.32-1.79-4.99c-0.44-1.26-0.24-1.55,1.04-1.62C333.63,9.71,335.47,9.59,337.47,9.47z"/>
		<path class="st0" d="M495.82,168.16c-1.74,0-3.36,0.01-4.99,0c-1.48-0.01-1.72-0.36-1.83-1.82c-0.25-3.26-0.53-6.53-0.96-9.77
			c-0.11-0.86-0.78-1.64-1.27-2.61c0.31-0.03,0.71-0.12,1.09-0.08c1.75,0.2,3.51,0.38,5.24,0.69c0.38,0.07,0.92,0.63,0.97,1.02
			c0.27,2.11,0.35,4.26,0.63,6.37C494.97,163.97,495.41,165.97,495.82,168.16z"/>
		<path class="st0" d="M325.81,122.22c1.34,2.22,2.5,4.13,3.84,6.35c-2.64,0.44-4.84,0.81-7.19,1.2
			C323.59,127.2,324.63,124.88,325.81,122.22z"/>
		<path class="st0" d="M323.45,114.33c1.17,0,2.34,0,3.82,0c-0.52,1.22-1.01,2.35-1.62,3.79c-0.91-1.27-1.68-2.34-2.44-3.41
			C323.29,114.58,323.37,114.46,323.45,114.33z"/>
		<path class="st0" d="M436.72,160.12c-0.99-1.32-1.92-2.56-3.04-4.05c1.89-0.15,3.51-0.27,5.19-0.41
			C438.14,157.18,437.47,158.57,436.72,160.12z"/>
		<path class="st0" d="M437.69,165.7c0.56,0.87,1.11,1.73,1.92,3c-1.07-0.08-2.3,0.03-2.38-0.23c-0.27-0.8-0.1-1.75-0.1-2.64
			C437.32,165.79,437.5,165.74,437.69,165.7z"/>
		<path class="st0" d="M383.92,9.59c-0.84,1.57-1.57,2.95-2.41,4.53c-0.98-1.03-1.92-1.99-2.8-3c-0.07-0.08,0.22-0.72,0.41-0.76
			C380.66,10.07,382.22,9.85,383.92,9.59z"/>
		<path class="st0" d="M381.99,18.71c1.15,1.05,2.12,1.94,3.24,2.96c-1.31,0.13-2.47,0.28-3.63,0.33c-0.19,0.01-0.6-0.49-0.55-0.65
			C381.31,20.43,381.68,19.54,381.99,18.71z"/>
		<path class="st0" d="M485.17,113.64c2.43-0.12,4.6-0.3,6.77-0.27c0.38,0.01,0.99,0.87,1.07,1.39c0.28,1.92,0.38,3.86,0.54,5.79
			c0.07,0.86-0.33,1.26-1.2,1.29c-1.42,0.04-2.84,0.22-4.26,0.17c-0.44-0.02-1.15-0.51-1.26-0.91
			C486.22,118.75,485.76,116.36,485.17,113.64z"/>
		<path class="st0" d="M385.27,59.53c-1.41,3.07-2.66,5.76-3.9,8.45c-0.15-0.01-0.3-0.03-0.45-0.04c-0.67-2.5-1.34-5-2.09-7.77
			C381,59.95,382.96,59.75,385.27,59.53z"/>
		<path class="st0" d="M484.31,67.53c0.54-0.71,1.09-1.43,1.63-2.14c0.5,0.61,1,1.22,1.49,1.83c-0.88,0.33-1.76,0.65-2.64,0.98
			C484.63,67.98,484.47,67.76,484.31,67.53z"/>
		<path class="st0" d="M68.03,174.04c0.87-1.92,1.15-4.01,3.32-4.8c0.44-0.16,1.02,0.02,1.53,0.05c-0.07,0.5-0.02,1.05-0.23,1.47
			c-0.32,0.65-0.81,1.21-1.25,1.79C70.62,173.57,69.59,174.05,68.03,174.04z"/>
		<path class="st0" d="M178.72,105.35c0.25-0.18,0.68-0.62,1.19-0.84c0.65-0.29,1.37-0.54,2.07-0.57c0.59-0.02,1.49,0.11,1.73,0.5
			c0.42,0.69-0.32,1.12-0.92,1.39c-0.86,0.39-1.73,0.76-2.62,1.07C179.14,107.25,178.74,106.92,178.72,105.35z"/>
		<path class="st0" d="M123.72,64.68c-1.64,0.03-2.34-0.82-1.55-2.25c0.66-1.19,1.63-2.27,2.66-3.17c0.38-0.34,1.32-0.04,2.01-0.03
			c-0.06,0.53-0.06,1.08-0.19,1.6c-0.19,0.83-0.45,1.64-0.71,2.45C125.6,64.34,124.75,64.66,123.72,64.68z"/>
		<path class="st0" d="M71.56,72.88c-0.21-1.84,0.88-2.67,2.94-2.36C73.6,71.25,72.7,71.97,71.56,72.88z"/>
		<path class="st0" d="M104.59,242.14c0.19,1.66-0.09,2.75-1.16,3.48c-0.27,0.18-0.7,0.13-1.06,0.18c0.01-0.31-0.06-0.66,0.06-0.93
			c0.27-0.63,0.57-1.26,0.97-1.82C103.62,242.72,104.05,242.54,104.59,242.14z"/>
	</g>
</g>
</svg>
