<?xml version="1.0" encoding="utf-8"?>
<!-- Generator: Adobe Illustrator 26.0.1, SVG Export Plug-In . SVG Version: 6.00 Build 0)  -->
<svg version="1.1" id="Layer_1" xmlns="http://www.w3.org/2000/svg" xmlns:xlink="http://www.w3.org/1999/xlink" x="0px" y="0px"
	 viewBox="0 0 512 304" style="enable-background:new 0 0 512 304;" xml:space="preserve">
<style type="text/css">
	.st0{fill:#8A0A0A;}
	.st1{fill:#FFFFFF;}
</style>
<g>
	<path d="M466.6,277.63c-1.93-1.06-3.91-2.05-5.78-3.22c-1.42-0.89-2.77-1.94-4.02-3.07c-1.08-0.97-0.49-4.78,0.8-5.31
		c0.43-0.17,1.36,0.1,1.63,0.47c3.24,4.6,8.09,6.85,12.97,9.12c0.96,0.45,1.96,1.26,2.43,2.16c0.34,0.65,0.15,2.1-0.37,2.56
		c-3.23,2.88-4.78,6.84-7.05,10.34c-1.24,1.9-2.68,3.68-4.03,5.5c-0.83,1.12-1.88,1.13-2.93,0.41c-0.85-0.58-0.92-2.34-0.33-3.2
		c1.84-2.71,3.69-5.42,5.42-8.2c1.05-1.69,0.57-2.46-1.37-2.45c-8.92,0.05-17.85,0.11-26.77,0.2c-10.47,0.11-20.93,0.42-31.4,0.35
		c-6.79-0.04-13.58-0.66-20.37-0.91c-4.82-0.17-9.65-0.12-14.48-0.23c-6.11-0.15-12.21-0.42-18.32-0.54
		c-9.98-0.2-19.97-0.38-29.95-0.46c-11.85-0.1-23.71,0.16-35.55-0.23c-9.97-0.33-19.92-1.42-29.88-2.07
		c-4.08-0.27-8.19-0.16-12.27-0.41c-6.14-0.38-12.27-0.97-18.41-1.38c-2.97-0.2-5.95-0.1-8.92-0.29c-8.05-0.51-16.1-1.09-24.15-1.67
		c-6.83-0.5-13.66-1.15-20.5-1.54c-9.27-0.53-18.54-0.97-27.82-1.24c-4.5-0.13-9.03,0.02-13.51,0.42
		c-3.79,0.34-7.51,1.45-11.29,1.78c-6.03,0.53-12.09,0.7-18.14,1.01c-4.19,0.21-8.39,0.25-12.56,0.65
		c-4.32,0.41-8.62,1.12-12.92,1.77c-3.52,0.53-7.02,1.15-10.52,1.74c-2.45,0.42-4.9,0.86-7.36,1.28c-0.96,0.16-1.32-0.26-1.64-1.21
		c-0.52-1.54-1.45-2.93-2.08-4.44c-0.61-1.49-1.42-3.06,0.41-4.41c0.33-0.24,0.41-0.96,0.42-1.46c0.18-8.01,0.01-16.05,0.57-24.04
		c0.5-7.22,0.93-14.41,0.74-21.64c-0.27-10.41-0.55-20.82-1.01-31.22c-0.29-6.63-0.89-13.25-1.41-19.86
		c-0.51-6.51-1.15-13.01-1.65-19.52c-0.78-10.21-1.7-20.42-2.14-30.64c-0.36-8.33,0.05-16.69-0.19-25.03
		c-0.28-9.61-0.82-19.21-1.38-28.81c-0.52-9.06-1.18-18.12-1.83-27.17c-0.48-6.67-1.13-13.33-1.57-20.01
		c-0.2-3.05-0.72-6.15,0.43-9.16c0.13-0.34,0.11-0.73,0.12-1.1c0.01-0.25-0.06-0.51-0.14-1.18c-0.66,0.51-1.23,0.76-1.52,1.2
		c-1.33,2.04-2.57,4.14-3.87,6.2c-1.61,2.55-3.25,5.09-4.89,7.63c-0.75,1.16-1.7,1.34-2.82,0.5c-0.82-0.61-1.03-2.23-0.37-3.15
		c2.76-3.89,5.56-7.75,8.29-11.66c1.03-1.48,1.78-3.16,2.87-4.58c1.49-1.94,3.06-1.8,4.83-0.16c3.3,3.06,6.69,6.02,10.12,8.94
		c0.87,0.74,2.07,1.07,3.06,1.69c1.58,1,2.04,2.18,1.37,3.25c-0.73,1.18-2.2,1.55-3.64,0.59c-2.6-1.72-5.1-3.59-7.61-5.44
		c-0.76-0.56-1.42-1.25-2.12-1.88c-0.15,0.04-0.3,0.09-0.45,0.13c0.09,1.05,0.2,2.1,0.27,3.15c0.34,4.98,0.71,9.95,1.01,14.94
		c0.48,7.84,0.8,15.69,1.4,23.52c0.44,5.71,1.55,11.38,1.76,17.1c0.42,11.09,0.36,22.2,0.6,33.3c0.21,9.56,0.47,19.12,0.86,28.68
		c0.23,5.62,0.68,11.23,1.16,16.84c0.72,8.25,1.66,16.48,2.31,24.73c0.88,11.17,1.9,22.35,2.27,33.55
		c0.38,11.51,0.27,23.04-0.67,34.56c-0.58,7.19-0.31,14.44-0.39,21.67c-0.04,3.3-0.01,6.59,0.01,9.89c0.01,1.86,0.33,2.31,2.01,1.77
		c5.93-1.89,12.12-2.09,18.19-2.97c4.72-0.68,9.49-0.98,14.25-1.32c5.93-0.42,11.89-0.57,17.81-1.1c6.61-0.59,13.17-1.69,19.78-2.13
		c5.86-0.39,11.77-0.24,17.66-0.21c4.04,0.02,8.07,0.31,12.11,0.35c7.61,0.06,15.17,0.48,22.71,1.57c4.45,0.64,9.01,0.52,13.52,0.82
		c4.13,0.28,8.24,0.76,12.37,1c4.19,0.24,8.39,0.24,12.57,0.44c4.35,0.21,8.69,0.56,13.04,0.79c4.72,0.25,9.45,0.36,14.17,0.64
		c4.71,0.28,9.4,0.76,14.11,1.01c9.18,0.49,18.36,1.05,27.54,1.26c9.72,0.22,19.45,0.01,29.18,0.06c9.03,0.05,18.06,0.15,27.09,0.32
		c1.97,0.04,3.92,0.62,5.9,0.71c2.2,0.11,4.43,0.08,6.63-0.11c5.8-0.51,11.59-0.33,17.4-0.02c7.21,0.38,14.43,0.5,21.64,0.94
		c10.41,0.63,20.8,0.25,31.2-0.18c6.58-0.27,13.17-0.05,19.76-0.1c4.51-0.04,9.03-0.17,13.54-0.29c0.65-0.02,1.3-0.27,1.95-0.42
		C466.54,277.95,466.57,277.79,466.6,277.63z"/>
	<path class="st0" d="M157.14,18.99c-0.01-0.29-0.03-0.58-0.05-0.98c0.29,0.08,0.53,0.07,0.67,0.19c4.64,3.84,9.39,7.56,13.86,11.58
		c3.39,3.05,5.65,7.03,7.34,11.23c2.13,5.28,3.85,10.7,2.92,16.53c-0.22,1.38-0.76,2.74-1.3,4.05c-1.6,3.88-3.21,7.8-6.49,10.62
		c-1.27,1.09-2.8,1.89-4.21,2.81c-1.01,0.67-1.97,1.47-3.07,1.95c-1.37,0.61-2.83,1.13-4.31,1.39c-3.21,0.58-6.43,1.11-9.67,1.39
		c-4,0.35-8.04,0.76-12.04,0.58c-7.35-0.33-14.01-2.69-18.87-8.54c-2.31-2.78-3.74-6.08-4.42-9.74c-1.1-5.89-1.28-11.76-0.78-17.73
		c0.37-4.43,2.47-8.04,4.6-11.7c1.2-2.06,2.46-4.09,3.74-6.11c0.42-0.67,0.91-1.32,1.49-1.85c3.26-3.02,6.88-5.56,11.09-7.02
		c2.25-0.78,4.7-0.96,7.06-1.4c0.73-0.14,1.46-0.25,2.19-0.37c2.47-0.4,4.74-0.26,6.41,2C154.34,19.26,154.41,19.21,157.14,18.99z
		 M142.94,76.73c7.32-0.08,13.25-0.87,19.09-2.62c3.81-1.14,7.04-3.02,9.95-5.7c2.15-1.98,3.15-4.61,4.54-7.03
		c1.93-3.36,2.27-7.06,1.65-10.66c-1.16-6.73-3.73-12.95-8.6-17.92c-1.41-1.44-3.25-2.48-4.91-3.67c-2.8-2-5.56-4.05-8.44-5.93
		c-0.93-0.61-2.16-0.96-3.27-1.02c-1.37-0.08-2.4-0.59-3.07-1.66c-0.67-1.08-1.63-1.43-2.7-1.29c-2.51,0.31-5.1,0.49-7.49,1.25
		c-4.14,1.32-7.75,3.76-10.56,7.05c-1.95,2.28-3.22,5.13-5.07,7.52c-2.61,3.36-3.43,7.31-3.69,11.29c-0.24,3.84,0.46,7.73,0.5,11.59
		c0.03,2.94,0.99,5.52,2.3,8.02c2.04,3.9,4.69,7.23,9.04,8.75C136.09,76.04,140.03,77.07,142.94,76.73z"/>
	<path d="M398.22,61.1c-2.37,0.82-4.64,1.47-6.8,2.39c-1.74,0.74-2.48,0.48-2.67-1.4c-0.34-3.4-0.21-3.54,3.16-3.52
		c2.06,0.01,4.12,0,6.5,0c0-2.51-0.07-4.87,0.04-7.23c0.03-0.65,0.44-1.61,0.94-1.83c0.99-0.44,1.66,0.48,1.79,1.31
		c0.34,2.13,0.49,4.29,0.69,6.44c0.04,0.41-0.03,0.83-0.06,1.38c2.12,0,4.17,0.02,6.22-0.01c0.71-0.01,1.62-0.18,1.47,0.82
		c-0.09,0.6-0.78,1.41-1.36,1.58c-0.99,0.29-2.1,0.2-3.15,0.17c-1.49-0.05-2.53,0.71-2.41,2.21c0.14,1.82,0.55,3.62,0.87,5.43
		c0.09,0.52,0.4,1.02,0.39,1.53c-0.01,0.77,0.44,1.87-0.84,2.06c-1.11,0.17-2.3,0.48-2.6-1.33c-0.48-2.86-1.16-5.69-1.77-8.52
		C398.57,62.22,398.44,61.87,398.22,61.1z"/>
	<path d="M466.95,77.89c-0.7,0.15-1.08,0.29-1.47,0.3c-4.16,0.15-8.32,0.26-12.48,0.42c-1.67,0.06-2.52,1.27-2.38,3.28
		c0.14,2.06,0.26,4.12,0.48,6.17c0.12,1.15-0.64,1.59-1.43,1.7c-0.48,0.06-1.39-0.46-1.51-0.89c-0.65-2.27-1.22-4.57-1.58-6.89
		c-0.25-1.58-0.3-1.75-1.83-1.27c-0.71,0.22-1.42,0.41-2.14,0.6c-1.49,0.38-2.22-0.62-2.58-1.73c-0.14-0.44,0.37-1.51,0.81-1.66
		c1.48-0.51,3.05-0.83,4.61-1.04c0.97-0.13,1.29-0.59,1.33-1.42c0.07-1.22,0.08-2.44,0.17-3.66c0.05-0.63,0.12-1.28,0.35-1.86
		c0.48-1.25,1.04-1.23,2.02-0.34c1.66,1.52,1.53,3.38,1.23,5.31c-0.15,0.95-0.16,1.63,1.19,1.58c3.71-0.13,7.43-0.16,11.14-0.17
		c1,0,2.03,0.13,3,0.36C466.24,76.75,466.47,77.31,466.95,77.89z"/>
	<path d="M334.47,60.17c0.3,1.67,0.71,3.33,0.87,5.01c0.13,1.47,0.05,2.97-0.07,4.44c-0.09,1.05,0.21,1.42,1.3,1.38
		c3.5-0.13,7-0.19,10.5-0.24c0.9-0.01,2.08-0.33,2.29,0.97c0.03,0.2-1.4,0.84-2.18,0.91c-2.9,0.26-5.82,0.35-8.73,0.52
		c-0.32,0.02-0.64,0.06-0.95,0.13c-1.94,0.45-2.43,0.96-2.36,2.95c0.09,2.38,0.35,4.75,0.5,7.13c0.04,0.69,0.63,1.73-0.73,1.82
		c-1.17,0.08-2.51,0.15-2.67-1.5c-0.2-2-0.28-4.02-0.38-6.04c-0.04-0.85,0.02-1.7,0.01-2.55c-0.02-1.78-0.27-1.9-2.1-1.84
		c-1.69,0.06-3.39-0.01-5.07-0.19c-1.29-0.13-1.94-1.16-1.52-2.24c0.46-1.17,1.47-1,2.43-0.78c1.43,0.33,2.85,0.74,4.3,1
		c1.36,0.24,2.08-0.43,2.23-1.82c0.26-2.42,0.54-4.84,0.9-7.25c0.1-0.65,0.49-1.25,0.75-1.87
		C333.99,60.13,334.23,60.15,334.47,60.17z"/>
	<path d="M363.13,42.33c2.13-0.1,3.17,0.77,3.38,2.9c0.18,1.74,0.36,3.48,0.38,5.23c0.01,1.31,0.61,1.81,1.81,1.88
		c3.01,0.18,6.03,0.39,9.04,0.56c0.68,0.04,1.34,0.03,1.21,1c-0.12,0.88-0.61,0.92-1.47,0.92c-3.06-0.01-6.12,0.16-9.17,0.31
		c-1,0.05-1.19,0.76-1.07,1.59c0.29,1.93,0.64,3.84,0.91,5.77c0.11,0.78,0.62,1.82-0.6,2.15c-1.21,0.33-2.19-0.31-2.48-1.45
		c-0.57-2.25-1.01-4.53-1.37-6.83c-0.27-1.68-0.59-1.97-2.27-1.68c-1.87,0.32-3.75,0.59-5.64,0.85c-1.32,0.18-1.56-0.82-1.47-1.71
		c0.05-0.44,0.77-1.1,1.25-1.15c2.46-0.26,4.94-0.35,7.55-0.51C363.13,49.04,363.13,45.74,363.13,42.33z"/>
	<path d="M399.15,124.85c-0.23-2.66-0.44-5.19-0.66-7.72c-0.09-1.08-0.25-2.21,1.17-2.57c1-0.25,2.11,0.69,2.34,2.1
		c0.28,1.73,0.4,3.48,0.6,5.22c0.08,0.74,0.18,1.47,0.28,2.21c0.14,1.01,0.68,1.44,1.74,1.39c2.75-0.14,5.5-0.24,8.26-0.24
		c0.43,0,0.85,0.59,1.28,0.9c-0.44,0.45-0.84,1.22-1.33,1.28c-2.44,0.33-4.91,0.49-7.37,0.67c-1.48,0.11-1.85,0.95-1.71,2.28
		c0.13,1.21,0.22,2.44,0.17,3.65c-0.02,0.48-0.37,1.12-0.77,1.36c-0.24,0.14-1.06-0.24-1.26-0.6c-0.64-1.12-1.34-2.29-1.6-3.53
		c-0.53-2.56-0.66-2.78-3.2-2.38c-0.99,0.16-1.97,0.51-2.96,0.53c-0.68,0.01-1.93-0.36-1.95-0.62c-0.05-0.79,0.16-1.84,0.69-2.36
		c0.52-0.51,1.55-0.51,2.35-0.71c0.31-0.08,0.64-0.07,0.94-0.14C397.08,125.37,398,125.14,399.15,124.85z"/>
	<path d="M387.78,91.29c-0.66,1.48-1.56,1.74-2.8,1.81c-2.64,0.17-5.27,0.58-8.09,0.91c0.63,2.93,1.17,5.39,1.72,7.92
		c-2.28,0.19-3.44-0.73-4.18-3.02c-0.31-0.95-0.5-1.95-0.73-2.92c-0.29-1.21-0.83-2.08-2.3-1.76c-1.44,0.31-2.9,0.54-4.31,0.93
		c-0.9,0.25-1.74,0.76-2.17-0.58c-0.39-1.21,0.05-2.42,1.18-2.7c1.74-0.43,3.51-0.79,5.29-1.02c0.96-0.12,1.34-0.49,1.23-1.4
		c-0.24-1.84-0.51-3.67-0.72-5.51c-0.06-0.56-0.17-1.37,0.13-1.65c0.41-0.38,1.63-0.62,1.74-0.45c0.79,1.28,1.49,2.64,2,4.05
		c0.32,0.87,0.22,1.89,0.39,2.82c0.36,2.07,0.58,2.18,2.73,2.13c2.43-0.06,4.87-0.05,7.3-0.01
		C386.66,90.84,387.14,91.1,387.78,91.29z"/>
	<path d="M409.15,27.41c0.5,1.78,0.94,3.28,1.34,4.79c0.25,0.91,0.57,1.83,0.62,2.76c0.03,0.44-0.44,1.26-0.76,1.3
		c-0.49,0.06-1.33-0.27-1.52-0.67c-1.19-2.49-2.21-5.05-3.37-7.55c-0.2-0.43-0.87-0.99-1.24-0.93c-2.02,0.31-4.02,0.82-6.03,1.2
		c-0.65,0.12-1.54,0.31-1.93-0.02c-0.37-0.3-0.44-1.33-0.22-1.86c0.22-0.51,0.95-1.02,1.52-1.11c1.83-0.31,3.69-0.43,5.54-0.62
		c1.08-0.11,1.53-0.58,1.48-1.77c-0.1-2.6-0.03-5.2-0.01-7.81c0.01-1.21,0.79-1.63,1.86-1.76c1.14-0.13,1.38,0.68,1.42,1.49
		c0.09,2.17,0.08,4.35,0.14,6.52c0.07,2.6,0.89,3.38,3.46,3.4c1.33,0.01,2.66,0.03,3.97,0.2c0.56,0.08,1.13,0.5,1.54,0.92
		c0.19,0.2,0.11,0.83-0.07,1.14c-0.13,0.22-0.62,0.33-0.95,0.33C413.84,27.42,411.74,27.41,409.15,27.41z"/>
	<path d="M430.91,133.6c-1.53,0.63-2.7,1.15-3.91,1.6c-0.5,0.19-1.27,0.48-1.54,0.27c-0.39-0.32-0.62-1.06-0.61-1.62
		c0.06-1.94,2.24-4.21,4.17-4.31c0.95-0.05,1.44-0.35,1.62-1.32c0.25-1.4,0.53-2.81,0.99-4.15c0.21-0.61,0.86-1.07,1.32-1.6
		c0.42,0.6,1.07,1.14,1.2,1.8c0.28,1.39,0.28,2.84,0.43,4.26c0.1,0.95,0.56,1.56,1.62,1.62c1.2,0.07,2.4,0.28,3.6,0.33
		c1.42,0.06,2.25,0.73,2.62,2.08c-2.26,1.74-4.92,0.93-7.35,1.24c-0.27,2.66-0.54,5.23-0.77,7.8c-0.1,1.12-0.49,1.82-1.75,1.75
		c-1.35-0.07-1.47-1.08-1.49-2.04c-0.05-1.75,0.03-3.51,0.02-5.26C431.07,135.43,430.99,134.8,430.91,133.6z"/>
	<path d="M420.09,96.16c-0.18,3.1-0.18,3.1,2.94,3.21c1.48,0.05,2.97,0.04,4.42,0.26c0.6,0.09,1.11,0.73,1.66,1.12
		c-0.5,0.37-0.96,0.99-1.51,1.08c-2.27,0.39-4.58,0.56-6.86,0.95c-0.39,0.07-0.93,0.78-0.95,1.22c-0.09,1.75,0.08,3.5-0.01,5.25
		c-0.03,0.57-0.56,1.12-0.86,1.68c-0.54-0.33-1.38-0.53-1.58-1c-0.64-1.54-1.33-3.15-1.47-4.78c-0.25-3.04-0.17-3.11-3.11-2.09
		c-0.65,0.23-1.29,0.54-1.96,0.67c-0.59,0.11-1.7,0.15-1.75,0c-0.23-0.84-0.38-1.8-0.18-2.63c0.1-0.43,0.93-0.84,1.49-0.97
		c1.24-0.28,2.51-0.42,3.77-0.55c1.32-0.13,2.06-0.83,2.13-2.13c0.07-1.32-0.1-2.66,0.05-3.97c0.08-0.67,0.48-1.57,1.01-1.86
		c0.88-0.48,1.86-0.05,2.16,0.97C419.81,93.75,419.89,94.97,420.09,96.16z"/>
	<path d="M414.9,153.41c2.55-0.12,4.3,1.48,4.46,3.92c0.06,0.9,0.1,1.8,0.14,2.7c0.05,1.39,0.89,1.55,1.98,1.23
		c1.96-0.57,3.9-1.23,5.88-1.73c0.37-0.09,1.23,0.37,1.25,0.63c0.05,0.5-0.21,1.36-0.58,1.51c-1.81,0.73-3.67,1.37-5.56,1.87
		c-2.28,0.61-2.98,1.98-2.06,4.19c0.26,0.62,0.33,1.36,0.3,2.03c-0.02,0.52-0.23,1.37-0.54,1.47c-0.58,0.19-1.53,0.18-1.92-0.19
		c-1.05-0.97-2.2-1.88-2.38-3.58c-0.25-2.27-0.39-2.25-2.49-1.39c-1.69,0.7-2.97,0.44-3.65-0.69c-0.64-1.06-0.31-1.73,0.82-2.02
		c1.18-0.3,2.38-0.57,3.58-0.76c0.95-0.15,1.44-0.57,1.36-1.57c-0.2-2.25-0.38-4.51-0.56-6.77
		C414.89,154.03,414.9,153.77,414.9,153.41z"/>
	<path d="M367.18,17.69c0-2.81-0.04-5.45,0.02-8.08c0.02-0.8-0.32-1.97,1.16-2c1.38-0.03,1.89,0.91,2.01,2.03
		c0.16,1.53,0.12,3.08,0.18,4.62c0.02,0.58,0.08,1.16,0.15,1.74c0.14,1.17,0.73,1.66,1.98,1.69c3.07,0.08,6.13,0.28,9.19,0.52
		c0.55,0.04,1.06,0.53,1.59,0.81c-0.55,0.27-1.08,0.73-1.65,0.79c-2.93,0.33-5.89,0.53-8.82,0.88c-0.37,0.04-0.99,0.75-0.94,1.03
		c0.29,1.44,0.75,2.84,1.17,4.25c0.04,0.15,0.26,0.28,0.24,0.4c-0.15,0.94-0.33,1.88-0.5,2.83c-0.7-0.38-1.68-0.58-2.03-1.17
		c-0.73-1.2-1.13-2.6-1.65-3.93c-0.17-0.44-0.23-0.93-0.39-1.38c-0.98-2.79-1.28-2.99-4.22-2.87c-0.69,0.03-1.38,0.03-2.07,0
		c-0.86-0.03-1.67-0.21-1.5-1.35c0.17-1.11,0.85-1.47,1.95-1.29C364.46,17.43,365.87,17.55,367.18,17.69z"/>
	<path d="M346.09,15.8c2.79,0,5.47-0.03,8.14,0.02c0.48,0.01,0.95,0.33,1.42,0.51c-0.04,0.24-0.07,0.49-0.11,0.73
		c-1.44,0.1-2.88,0.32-4.32,0.28c-2.76-0.08-5.14,1.93-5.14,4.64c0,1.39,0.37,2.78,0.42,4.17c0.02,0.54-0.3,1.17-0.66,1.6
		c-0.12,0.15-1.05-0.08-1.25-0.38c-0.55-0.79-1.1-1.67-1.29-2.59c-0.29-1.39-0.35-2.84-0.36-4.27c-0.01-1-0.45-1.34-1.34-1.31
		c-1.9,0.08-3.81,0.21-5.71,0.25c-0.53,0.01-1.39-0.06-1.52-0.35c-0.3-0.69-0.41-1.56-0.26-2.29c0.05-0.25,1.06-0.44,1.63-0.45
		c1.85-0.05,3.7-0.02,5.56-0.01c0.88,0.01,1.13-0.37,1.12-1.27c-0.03-1.96,0.02-3.93,0.25-5.87c0.07-0.61,0.73-1.54,1.23-1.63
		c0.91-0.16,1.76,0.45,1.85,1.54c0.15,1.85,0.24,3.7,0.34,5.55C346.11,15.14,346.09,15.6,346.09,15.8z"/>
	<path d="M446.18,175.94c-3.02-2.03-2.3-5.4-3.04-8.35c-1.2,0.32-2.24,0.7-3.32,0.84c-0.47,0.06-1-0.39-1.51-0.6
		c0.3-0.59,0.49-1.29,0.94-1.73c0.33-0.33,0.98-0.35,1.5-0.47c2.28-0.55,2.46-0.76,2.49-3.18c0.02-1.33-0.12-2.67,0.05-3.97
		c0.09-0.66,0.73-1.25,1.12-1.88c0.56,0.49,1.39,0.87,1.63,1.49c0.45,1.16,0.7,2.44,0.79,3.68c0.14,2.01,0.34,2.26,2.42,2.03
		c1.47-0.16,2.94-0.42,4.42-0.46c0.47-0.01,0.96,0.54,1.44,0.83c-0.39,0.43-0.7,1.11-1.18,1.26c-1.3,0.42-2.67,0.62-4.01,0.89
		c-2.03,0.41-2.48,0.98-2.32,3.04c0.08,1.06,0.17,2.12,0.25,3.18C447.96,174.4,447.86,174.62,446.18,175.94z"/>
	<path d="M97.34,204.27c-1.11,0-2.24,0.11-3.34-0.05c-0.52-0.07-1.14-0.58-1.36-1.05c-0.11-0.25,0.46-0.98,0.88-1.27
		c1.68-1.19,3.62-0.87,5.53-0.95c2.83-0.12,5.65-0.51,8.48-0.8c0.52-0.05,1.12-0.42,1.53-0.25c0.55,0.22,1.12,0.76,1.32,1.29
		c0.09,0.24-0.59,1.01-1.05,1.2C105.49,203.93,101.41,204.13,97.34,204.27z"/>
	<path d="M168.99,212.91c-0.8-2.71-0.31-3.31,2.89-3.81c4.89-0.77,9.88-0.93,14.83-1.34c0.76-0.06,1.54-0.18,1.52,1.01
		c-0.02,1.14-0.71,1.1-1.59,1.2c-2.74,0.33-5.46,0.83-8.2,1.25c-0.94,0.14-1.89,0.19-2.82,0.37
		C173.44,212,171.27,212.45,168.99,212.91z"/>
	<path d="M171.95,178.79c-1.02-0.06-1.91-0.21-2.78-0.14c-4.06,0.35-8.12,0.75-12.17,1.16c-0.41,0.04-0.91,0.13-1.17,0.39
		c-0.74,0.74-1.54,0.55-1.83-0.16c-0.24-0.58-0.08-1.79,0.33-2.07c1.02-0.69,2.27-1.34,3.47-1.41c4.34-0.27,8.69-0.4,13.04-0.37
		C172.43,176.2,171.78,177.69,171.95,178.79z"/>
	<path d="M210.06,228.46c0.74-0.44,1.44-1.16,2.22-1.26c3.88-0.5,7.79-0.85,11.68-1.23c1.58-0.16,3.17-0.31,4.76-0.41
		c0.69-0.04,1.39,0.06,2.09,0.1c0.05,0.18,0.1,0.36,0.15,0.55c-0.53,0.32-1.03,0.83-1.61,0.94c-4.91,0.95-9.84,1.85-14.77,2.7
		c-1.12,0.19-2.34,0.44-3.14-0.85c-0.11-0.18-0.69-0.06-1.05-0.08C210.29,228.77,210.18,228.61,210.06,228.46z"/>
	<path d="M145.99,211.47c-0.97,0.45-1.91,1.15-2.93,1.29c-4.35,0.61-8.71,1.07-13.08,1.52c-0.42,0.04-1.14-0.3-1.29-0.65
		c-0.42-0.98,0.02-1.89,1.02-2.14c1.68-0.41,3.41-0.72,5.14-0.86c3-0.24,6-0.35,9.01-0.43c0.7-0.02,1.4,0.31,2.1,0.48
		C145.97,210.94,145.98,211.2,145.99,211.47z"/>
	<path d="M181.02,233.13c-1.28-0.26-2.1-0.58-2.91-0.57c-3.48,0.04-6.77,1.32-10.2,1.69c-0.71,0.08-1.95,0.09-2.07-0.21
		c-0.41-1.03,0.08-2.15,1.17-2.41c2.81-0.66,5.65-1.21,8.51-1.61c1.55-0.22,3.16-0.08,4.74-0.05c1.16,0.02,1.81,0.75,1.7,1.83
		C181.9,232.33,181.26,232.81,181.02,233.13z"/>
	<path d="M130.66,191.74c-2.68,0.28-5.37,0.55-8.05,0.86c-1.04,0.12-1.98,0.11-2.17-1.19c-0.14-0.97,1.28-2.51,2.2-2.53
		c2.64-0.06,5.27-0.16,7.91-0.23c0.79-0.02,1.66-0.18,2.35,0.09c0.57,0.22,1.27,0.99,1.26,1.51c0,0.52-0.72,1.24-1.3,1.49
		c-0.63,0.28-1.46,0.15-2.2,0.19C130.68,191.87,130.67,191.81,130.66,191.74z"/>
	<path d="M142.47,239c-2.2,0.33-4.21,0.85-6.23,0.89c-2.59,0.05-5.19-0.19-7.76-0.5c-0.52-0.06-0.94-1.01-1.41-1.55
		c0.8-0.4,1.59-1.15,2.39-1.15c3.75-0.01,7.5,0.2,11.26,0.29C142.28,237.01,142.58,237.33,142.47,239z"/>
	<path d="M149.88,150.79c4.82,0.17,9.64,0.33,14.46,0.54c0.33,0.01,0.63,0.49,0.95,0.75c-0.31,0.3-0.6,0.82-0.93,0.85
		c-1.58,0.14-3.19,0.06-4.77,0.22c-1.28,0.13-2.54,0.64-3.82,0.71c-2.26,0.13-4.59,0.27-6.6-1.05c-0.48-0.31-0.66-1.08-0.97-1.64
		c0.54-0.27,1.08-0.54,1.62-0.81C149.83,150.51,149.85,150.65,149.88,150.79z"/>
	<path d="M119.34,161.12c-2.24,0.5-4.47,1.1-6.73,1.47c-1.98,0.32-4,0.44-6,0.48c-0.42,0.01-0.86-0.68-1.3-1.04
		c0.48-0.54,0.93-1.52,1.45-1.56c4.57-0.36,9.16-0.59,13.75-0.76c0.67-0.02,1.95,0.52,1.93,0.7c-0.12,1.27-1.19,1.03-2.07,1.02
		c-0.32-0.01-0.64,0-0.95,0C119.39,161.33,119.37,161.23,119.34,161.12z"/>
	<path class="st1" d="M142.94,76.73c-2.91,0.34-6.85-0.69-10.72-2.04c-4.35-1.52-7-4.85-9.04-8.75c-1.31-2.5-2.27-5.09-2.3-8.02
		c-0.04-3.87-0.75-7.76-0.5-11.59c0.25-3.97,1.08-7.93,3.69-11.29c1.85-2.38,3.12-5.23,5.07-7.52c2.81-3.29,6.42-5.73,10.56-7.05
		c2.39-0.76,4.97-0.94,7.49-1.25c1.07-0.13,2.03,0.22,2.7,1.29c0.66,1.07,1.69,1.59,3.07,1.66c1.11,0.06,2.34,0.41,3.27,1.02
		c2.88,1.88,5.64,3.93,8.44,5.93c1.66,1.19,3.5,2.23,4.91,3.67c4.87,4.97,7.44,11.19,8.6,17.92c0.62,3.6,0.28,7.3-1.65,10.66
		c-1.39,2.43-2.39,5.05-4.54,7.03c-2.91,2.67-6.13,4.56-9.95,5.7C156.19,75.86,150.26,76.65,142.94,76.73z M134.34,49.73
		c1.05-0.39,1.71-0.81,2.39-0.85c2.01-0.11,4.03-0.04,6.04-0.09c1.12-0.03,1.44,0.36,1.36,1.52c-0.16,2.26-0.17,4.54-0.11,6.82
		c0.01,0.53,0.48,1.46,0.82,1.5c0.77,0.09,1.73-0.07,2.34-0.5c0.51-0.36,0.87-1.26,0.88-1.93c0.04-1.81,0.01-3.65-0.27-5.44
		c-0.17-1.04,0.15-1.42,1.01-1.53c1.62-0.21,3.25-0.31,4.87-0.51c1.03-0.13,2.32-0.1,2.17-1.69c-0.13-1.38-1.06-1.83-2.37-1.75
		c-1.43,0.08-2.87,0.11-4.3,0.11c-1.06,0.01-1.69-0.49-1.75-1.62c-0.09-1.75-0.15-3.5-0.34-5.24c-0.09-0.75-0.28-1.77-0.79-2.12
		c-0.73-0.49-1.8-0.58-2.72-0.56c-0.23,0-0.66,1.12-0.6,1.69c0.21,2.32,0.53,4.63,0.89,6.94c0.15,0.96,0.11,1.55-1.09,1.54
		c-2.02-0.02-4.04-0.06-6.05,0.12c-1.03,0.09-2.25,0.38-2.94,1.05C133.44,47.49,134.13,48.88,134.34,49.73z"/>
	<path d="M134.34,49.73c-0.21-0.85-0.9-2.23-0.57-2.55c0.69-0.66,1.91-0.96,2.94-1.05c2-0.17,4.03-0.14,6.05-0.12
		c1.2,0.01,1.24-0.58,1.09-1.54c-0.36-2.3-0.68-4.62-0.89-6.94c-0.05-0.57,0.38-1.69,0.6-1.69c0.92-0.02,1.99,0.08,2.72,0.56
		c0.51,0.34,0.71,1.37,0.79,2.12c0.2,1.74,0.26,3.49,0.34,5.24c0.06,1.13,0.69,1.63,1.75,1.62c1.43-0.01,2.87-0.03,4.3-0.11
		c1.31-0.08,2.24,0.37,2.37,1.75c0.15,1.59-1.14,1.56-2.17,1.69c-1.62,0.21-3.25,0.31-4.87,0.51c-0.86,0.11-1.17,0.48-1.01,1.53
		c0.28,1.78,0.31,3.62,0.27,5.44c-0.02,0.67-0.37,1.57-0.88,1.93c-0.61,0.44-1.57,0.59-2.34,0.5c-0.34-0.04-0.8-0.96-0.82-1.5
		c-0.05-2.27-0.05-4.55,0.11-6.82c0.08-1.16-0.24-1.55-1.36-1.52c-2.01,0.05-4.03-0.02-6.04,0.09
		C136.05,48.91,135.39,49.34,134.34,49.73z"/>
</g>
</svg>
